<svg xmlns="http://www.w3.org/2000/svg" width="937" height="945" fill="none" viewBox="0 0 937 945">
  <path fill="#fff" d="M707.558 393.457 590.112 677.738 285.427 500.871l117.445-284.28 304.686 176.866Z"/>
  <path fill="#215885" d="m691.859 399.811-105.45 258.92-283.24-164.78 105.45-258.933 283.24 164.793Z"/>
  <path fill="url(#a)" d="m658.655 423.497-73.973 180.584a14.51 14.51 0 0 1-8.736 8.25 14.503 14.503 0 0 1-11.959-1.172L344.229 484.224a14.498 14.498 0 0 1-6.169-18.046l74.487-181.901a9.334 9.334 0 0 1 13.3-4.535l228.788 132.011a9.448 9.448 0 0 1 4.02 11.744Z" opacity=".2"/>
  <path fill="url(#b)" d="m475.818 434.135-100.864-57.998 37.475-91.465a9.724 9.724 0 0 1 13.866-4.732l94.339 54.425-44.816 99.77Z" opacity=".5"/>
  <path fill="#E6EFF3" d="m575.389 566.633-10.677 24.992-207.618-119.858 10.676-24.992 207.619 119.858ZM466.235 350.618l-17.479 40.915-44.46-26.758 17.478-40.915 44.461 26.758Z" opacity=".18"/>
  <path fill="#fff" d="m466.235 553.412-4.534 10.69-48.046-27.733 4.534-10.704 48.046 27.747Z"/>
  <path fill="#E6EFF3" d="m435.272 423.128-2.043 4.759-48.033-27.734 2.03-4.771 48.046 27.746Zm-5.774 14.065-2.03 4.771-48.045-27.746 2.043-4.759 48.032 27.734Zm-24.016 3.335-2.03 4.758-29.789-16.991 2.03-4.758 29.789 16.991Zm147.802-67.581-1.331 3.124-31.451-18.151 1.344-3.124 31.438 18.151Zm-15.725 2.175-1.331 3.124-19.496-11.125 1.332-3.111 19.495 11.112Z"/>
  <path fill="#A3D8F1" d="M725.946 386.867 610.583 665.519l-20.47 12.219 117.445-284.281 18.388-6.59Z"/>
  <path fill="#E3F6FF" d="m725.946 386.867-18.388 6.59-304.686-176.866L421.26 210l304.686 176.867Z"/>
  <path fill="#E6EFF3" d="M426.937 299.36c1.323-1.271 1.443-3.293.269-4.516-1.175-1.223-3.2-1.185-4.524.086-1.323 1.27-1.443 3.292-.268 4.516 1.175 1.223 3.2 1.185 4.523-.086Zm8.26 4.615c1.324-1.27 1.444-3.292.269-4.515-1.175-1.224-3.2-1.186-4.523.085-1.323 1.271-1.444 3.293-.269 4.516 1.175 1.223 3.2 1.185 4.523-.086Zm8.841 4.606c1.323-1.271 1.443-3.293.268-4.516-1.175-1.224-3.2-1.185-4.523.085-1.323 1.271-1.443 3.293-.269 4.516 1.175 1.224 3.2 1.185 4.524-.085Z"/>
  <g opacity=".67">
    <path fill="#E6EFF3" d="M550.344 457.281c0-.198 0-.422-.145-.382-.145.039-.329.619-.514.698-.184.079-.118 0-.171 0l-1.424-1.41c-.066 0-.131-.119-.224-.079-.092.039-.224.224-.329.382a2.728 2.728 0 0 0-.541 1.635c.066.184.211.197.343.224.51.116.97.388 1.318.777a.736.736 0 0 1 .198.633 2.634 2.634 0 0 1-.158.514 14.383 14.383 0 0 1-1.318 2.531 2.29 2.29 0 0 0-.369.712 1.459 1.459 0 0 0 0 .527c-.006.658.122 1.31.375 1.918a4.882 4.882 0 0 0 1.101 1.615.176.176 0 0 0 .193.04.178.178 0 0 0 .057-.04c.094-.109.166-.234.211-.37.554-1.225 1.094-2.464 1.635-3.703.263-.607 1.845-2.637 1.595-2.979-.251-.343-1.068-.791-1.253-1.055a4.214 4.214 0 0 1-.58-2.188Zm2.913-6.577c0-.159-.065-.343-.171-.33-.105.013-.264.448-.422.488a.177.177 0 0 1-.088-.012.177.177 0 0 1-.07-.054l-1.463-1.318c-.066 0-.132-.119-.211-.093-.079.027-.184.145-.277.264-.237.356-.514.896-.356 1.239.159.343.198.185.33.237.497.166.949.446 1.318.818a.662.662 0 0 1 .237.54.965.965 0 0 1-.105.382 7.632 7.632 0 0 1-1.015 1.859 1.428 1.428 0 0 0-.277.527c-.02.135-.02.273 0 .409a5.102 5.102 0 0 0 1.687 3.084c.066 0 .145.106.238 0 .07-.078.128-.167.171-.264.409-.922.804-1.845 1.199-2.768.198-.448 1.384-2.095 1.108-2.254a5.88 5.88 0 0 1-1.121-.949 3.965 3.965 0 0 1-.712-1.805Zm3.045-6.552c0-.145 0-.329-.158-.316-.158.013-.25.448-.408.501a.186.186 0 0 1-.081-.015.177.177 0 0 1-.064-.051l-1.318-1.318a.249.249 0 0 0-.088-.07.231.231 0 0 0-.11-.022c-.092 0-.185.158-.264.276-.25.356-.514.897-.382 1.226a.44.44 0 0 0 .316.224c.474.149.904.412 1.253.765a.629.629 0 0 1 .21.527 1.477 1.477 0 0 1-.105.396 8.376 8.376 0 0 1-1.002 1.858 1.326 1.326 0 0 0-.29.527c-.02.136-.02.274 0 .409.137 1.15.69 2.21 1.556 2.979a.185.185 0 0 0 .224 0 .542.542 0 0 0 .171-.264c.409-.909.817-1.832 1.213-2.755a10.23 10.23 0 0 0 1.015-2.557c-.106-.211-1.595-1.595-1.688-2.32Z"/>
    <path fill="#E6EFF3" d="M554.035 460.154c.132-.092.29-.171.33 0 .039.172-.251.673-.211.936.039.264.066.119.118.159l1.622.962a.274.274 0 0 1 .158.211c.011.193-.02.387-.092.566-.172.607-.488 1.384-.804 1.424-.317.04-.238-.132-.317-.277a3.062 3.062 0 0 0-1.16-1.16.363.363 0 0 0-.276-.06.367.367 0 0 0-.238.153 1.655 1.655 0 0 0-.263.421 16.59 16.59 0 0 0-1.029 2.768c-.052.274-.15.537-.289.778a.893.893 0 0 1-.33.277 2.635 2.635 0 0 1-3.045 0 .284.284 0 0 1-.105-.12.284.284 0 0 1-.027-.157c.015-.152.06-.3.132-.435a317.2 317.2 0 0 1 1.648-3.691c.263-.593.843-3.387 1.186-3.295.343.092 1.041.844 1.318.923a2.142 2.142 0 0 0 1.674-.383Zm2.913-6.577c.106 0 .251-.105.303 0 .053.105-.171.501-.118.712a.253.253 0 0 0 .118.158l1.608 1.015a.42.42 0 0 1 .172.198c.031.147.031.3 0 .448-.106.461-.33 1.041-.633 1.028-.303-.013-.224-.145-.316-.277a3.957 3.957 0 0 0-1.187-1.107.367.367 0 0 0-.461 0 .9.9 0 0 0-.211.316 9.254 9.254 0 0 0-.725 2.083 1.387 1.387 0 0 1-.211.58.6.6 0 0 1-.277.184 2.925 2.925 0 0 1-2.847-.435.302.302 0 0 1-.145-.25.76.76 0 0 1 .079-.33l1.226-2.741c.211-.435.554-2.004.883-2.109.33-.106.989.461 1.239.567a2.074 2.074 0 0 0 1.503-.04Zm2.821-6.736c.106 0 .237-.105.277 0 .04.106-.171.514-.119.725a.171.171 0 0 0 .119.132l1.516.962a.315.315 0 0 1 .158.185.918.918 0 0 1 0 .448c-.119.461-.343 1.041-.619 1.028-.277-.013-.225-.132-.304-.25a3.384 3.384 0 0 0-1.12-1.055.341.341 0 0 0-.448 0 1.077 1.077 0 0 0-.198.317 8.554 8.554 0 0 0-.738 2.069c-.03.206-.102.403-.211.58a.517.517 0 0 1-.277.185 2.713 2.713 0 0 1-2.728-.33.293.293 0 0 1-.096-.102.293.293 0 0 1-.036-.135.72.72 0 0 1 .092-.33c.396-.922.804-1.832 1.226-2.741.198-.449.87-2.307 1.186-2.426.317-.118 1.793.989 2.32.738Zm3.296-3.071-1.068-1.397c.237-.738.685-1.41.843-2.149.012-.14.012-.281 0-.421l-3.466-2.637a2.28 2.28 0 0 0-.237.264 21.995 21.995 0 0 0-1.002 2.017l-1.45-.541a.581.581 0 0 0-.446-.035.58.58 0 0 0-.332.299 1.447 1.447 0 0 0-.171 1.041.891.891 0 0 0 .408.527l.884.66a.343.343 0 0 1 .131.21 1.116 1.116 0 0 1-.066.343l-.448 1.595c.424.575.896 1.113 1.411 1.608.602.389 1.242.716 1.911.976l.844-1.319a.715.715 0 0 1 .197-.237.161.161 0 0 1 .099-.035c.036 0 .071.013.099.035l.87.699a.618.618 0 0 0 .54.211 1.035 1.035 0 0 0 .607-.712 1.106 1.106 0 0 0-.158-1.002Zm2.385-7.184-.883-1.16c.265-.578.494-1.172.685-1.779v-.343l-2.86-2.214a1.696 1.696 0 0 0-.198.224c-.31.536-.588 1.09-.83 1.661l-1.2-.449a.457.457 0 0 0-.361-.029.45.45 0 0 0-.271.24 1.17 1.17 0 0 0-.145.87.813.813 0 0 0 .329.435l.738.541a.278.278 0 0 1 .106.171c.011.096.011.194 0 .29l-.369 1.318c.348.476.741.917 1.173 1.318.495.32 1.02.589 1.568.804l.699-1.067a.367.367 0 0 1 .158-.185.134.134 0 0 1 .158 0l.725.58c.057.061.127.11.204.142a.604.604 0 0 0 .245.043.861.861 0 0 0 .5-.593.929.929 0 0 0-.171-.818Zm1.911-5.997-.685-.91c.145-.474.435-.909.527-1.384a.965.965 0 0 0 0-.263l-2.227-1.74-.159.171c-.263.356-.408.896-.646 1.318l-.935-.356a.385.385 0 0 0-.501.172.977.977 0 0 0-.106.672.608.608 0 0 0 .264.343l.567.421a.159.159 0 0 1 .079.145.47.47 0 0 1 0 .211l-.277 1.028c.267.373.572.718.909 1.029.387.248.798.455 1.226.619l.541-.83a.687.687 0 0 1 .118-.145h.132l.567.448c.105.079.211.171.343.145a.715.715 0 0 0 .407-.794.692.692 0 0 0-.144-.3Z"/>
    <path fill="#E6EFF3" d="m549.633 463.305-.106-.119a7.14 7.14 0 0 0-1.727-1.199 5.358 5.358 0 0 1-2.32-2.188 4.237 4.237 0 0 1-.58-2.637c.193-.796.449-1.576.765-2.333a5.52 5.52 0 0 0-1.595-6.01 6.825 6.825 0 0 0-4.943-.462 4.895 4.895 0 0 0-3.388 1.582 10.293 10.293 0 0 0-1.555 3.216 57.934 57.934 0 0 0-1.964 7.158 3.812 3.812 0 0 0-.119 1.568c.159.672.712.883 1.015 1.397a4.543 4.543 0 0 1 0 3.309c-.382 1.134-.949 2.148-1.318 3.282a21.193 21.193 0 0 0-.83 4.337l-.119.949c-.29 2.491-.593 4.982-.883 7.487l-.514 4.31c-.211 1.74-.25 3.954.817 4.297.488.185 1.068-.145 1.608-.408a9.388 9.388 0 0 1 5.088-1.015c.412.1.841.1 1.253 0 .126-.051.246-.117.355-.198l2.017-4.548-.171-.105a6.587 6.587 0 0 1-2.887-3.269 15.207 15.207 0 0 1-.554-4.89v-4.324a6.446 6.446 0 0 1 .422-2.636 7.135 7.135 0 0 1 3.678-4.086 8.284 8.284 0 0 1 4.126-.383c.158 0 .329 0 .395.238.051.207.051.425 0 .632a19.539 19.539 0 0 1-.778 2.637 1.092 1.092 0 0 1-.25.435.318.318 0 0 1-.29.079 1.93 1.93 0 0 0-.778-.066.982.982 0 0 0-.567.883c0 .33.238.461.396.633a2.636 2.636 0 0 1-.514 2.952c-.29.224-.633.33-.844.738-.461.91.409 1.78.092 2.782-.224-.211-.645.211-.672.659-.013.18-.013.36 0 .54a6.863 6.863 0 0 1-.501 2.122 8.395 8.395 0 0 0 0 3.797l9.069-20.497a1.495 1.495 0 0 0-.329-.646Zm-14.289 17.373c.198.567.25 1.318.435 1.845.185.527.369.804.488 1.318a2.32 2.32 0 0 1-.106 1.595 1.85 1.85 0 0 1-.619.712 2.647 2.647 0 0 1-1.991.343 8.768 8.768 0 0 1-1.318-.303.718.718 0 0 1-.501-.435 2.085 2.085 0 0 1 0-.818c.093-1.041.238-2.096.409-3.15v-.211c.5-.295.946-.674 1.318-1.12.197-.258.356-.542.475-.844a1.534 1.534 0 0 1 1.41 1.068Z"/>
    <path fill="#E6EFF3" d="M566.03 473.336a9.64 9.64 0 0 0-.619-4.693c-.673-2.109-1.384-4.297-2.716-5.483-1.331-1.187-3.48-1.002-4.745 1.107a14.204 14.204 0 0 1-1.16 2.017 2.159 2.159 0 0 1-2.056.659 4.68 4.68 0 0 1-2.571-1.635 8.757 8.757 0 0 0-1.634-1.397h-.132a.922.922 0 0 0-.435-.092l-9.121 20.615c.253.075.514.124.777.145l-.158-.092a5.574 5.574 0 0 0 2.636-2.28 5.39 5.39 0 0 1 1.081-1.74c.134-.067.258-.151.369-.251.277-.29.304-.975 0-1.08.462-.897 1.529-.501 1.846-1.49a3.399 3.399 0 0 0 0-1.318c0-1.12.909-2.439 1.595-2.228.211 0 .421.238.646 0a1.18 1.18 0 0 0 .237-1.094 2.8 2.8 0 0 0-.488-.764.651.651 0 0 1-.119-.369c.013-.18.063-.355.145-.514.349-.793.754-1.56 1.213-2.294.119-.171.251-.356.396-.395.145-.04.276.118.369.276a14.445 14.445 0 0 1 2.122 4.535c.469 2.07.285 4.234-.527 6.195a4.807 4.807 0 0 1-1.319 1.872 4.72 4.72 0 0 1-1.792 2.043l-2.122 1.516a7.73 7.73 0 0 1-3.507 1.753 4.566 4.566 0 0 1-3.242-1.463l-.462-.409-2.016 4.548c.022.557.171 1.103.435 1.594l.197.383a18.981 18.981 0 0 1 1.819 6.379c.012.718.192 1.423.528 2.057.764 1.041 2.188-.079 3.229-1.16l3.744-3.955 3.954-4.086c.382-.395.778-.804 1.147-1.239.5-.564.942-1.178 1.318-1.832.554-1.002.949-2.162 1.516-3.15.567-.989 1.397-1.833 2.148-1.674.488.105.897.619 1.411.474.41-.195.754-.507.988-.896a47.847 47.847 0 0 0 3.744-5.774 10.738 10.738 0 0 0 1.331-3.321Zm-18.836 20.075c-.606.712-1.239 1.318-1.872 2.003a1.192 1.192 0 0 1-.567.369c-.21 0-.382-.184-.527-.382-.3-.421-.573-.861-.817-1.318a5.278 5.278 0 0 1-.751-2.452c-.02-.367.034-.734.158-1.08a1.465 1.465 0 0 1 1.002-.897c.369-.079.711 0 1.067 0s.963-.356 1.437-.395c.778-.079 1.318.606 1.595 1.502.147.464.147.961 0 1.424-.16.452-.407.868-.725 1.226Zm-13.234-13.854a3.504 3.504 0 0 1-.474.844 5.063 5.063 0 0 1-1.319 1.12c.059-.461.202-.908.422-1.318a1.32 1.32 0 0 1 .962-.646h.409Z"/>
    <path fill="#E6EFF3" d="M548.776 497.668a21.71 21.71 0 0 1-2.465 8.239l-9.293 20.549 2.795 2.162 7.447-15.462c.897-1.858 1.793-3.73 2.821-5.457a29.55 29.55 0 0 1 3.335-4.639c1.779-2.017 3.097-4.073 2.056-6.591-.712-1.78-1.437 0-2.148-2.083-.712-2.082.935-5.364.131-7.526-.909-2.386-4.639 2.28-5.022 4.416-.382 2.135.369 4.152.343 6.392Zm-14.816-18.111a3.475 3.475 0 0 1-.475.844 5.042 5.042 0 0 1-1.318 1.12c-.725.435-1.489.673-2.227 1.068a5.563 5.563 0 0 0-.87.54c-1.793 1.384-3.085 4.218-4.231 6.868a8447.88 8447.88 0 0 1-8.753 20.233l-2.821-2.175c2.109-5.202 4.223-10.404 6.341-15.606.79-1.951 1.581-3.955 2.227-5.919a41.655 41.655 0 0 0 1.424-6.129c.461-3.045 1.173-5.576 3.361-5.615 1.529 0 .699 1.661 2.425 1.476a3.029 3.029 0 0 0 1.78-1.16c1.015-1.107 1.937-2.636 3.111-2.636 1.766-.132 1.041 4.811.026 7.091Z"/>
    <path fill="#E6EFF3" d="M535.977 450.361a2.725 2.725 0 0 0-.501.975c-.514 1.49-.725 3.071-1.199 4.587-.475 1.516-1.081 2.637-1.477 4.113-.118.422-.171.988.079 1.081l.897-2.465a42.811 42.811 0 0 1 2.504-5.945c.22-.343.388-.716.501-1.107.198-.791-.198-1.872-.804-1.239Zm28.274 23.08a63.484 63.484 0 0 1-3.678 7.408c-.248.378-.41.805-.474 1.252.158-.184.316-.395.474-.606a46.857 46.857 0 0 0 4.798-7.237c.976-1.924-.237-2.952-1.12-.817Z" opacity=".14"/>
    <path fill="#E6EFF3" d="m538.573 488.956 1.608-3.691c.05-.141.126-.27.224-.382.172-.172.356-.066.488 0a.32.32 0 0 1 .172.224.957.957 0 0 1-.106.487l-1.489 3.955a7.212 7.212 0 0 0-.409 1.318 4.353 4.353 0 0 1-.264 1.028 1.318 1.318 0 0 1-.896-.409.886.886 0 0 1-.277-.514.86.86 0 0 1 .317-.856c.283-.343.497-.737.632-1.16Zm41.087-96c-.409-.342-.897-.646-1.463-.29a3.954 3.954 0 0 0-1.239 1.806c-.281.772-.514 1.56-.699 2.36a100.272 100.272 0 0 1-5.391 13.695c-1.951 4.482-3.783 9.385-4.113 13.985a1.119 1.119 0 0 0 0 .475c.119.303.488 0 .752-.277 2.728-3.084 4.824-7.632 6.801-12.008a144.065 144.065 0 0 1 6.459-13.023c.474-.831.975-1.648 1.424-2.518.14-.245.238-.513.29-.791a1.335 1.335 0 0 0-.119-.659 7.81 7.81 0 0 0-2.702-2.755Z"/>
    <path fill="#E6EFF3" d="M576.786 386.142a6.918 6.918 0 0 0-1.384 3.954c0 1.938 1.199 2.636 2.096 3.493a1.9 1.9 0 0 1 .408 2.109 1.407 1.407 0 0 1-.922.883 1.236 1.236 0 0 1-.844-.29 3.719 3.719 0 0 1-1.872-2.135c-.158-.488-.224-1.081-.356-1.608-.131-.528-.237-.844-.329-1.318a7.905 7.905 0 0 1 .448-3.823 7.219 7.219 0 0 1 2.056-3.111 3.825 3.825 0 0 1 1.727-.764c.567-.119 1.555-.435 1.964 0a1.56 1.56 0 0 1 .171 1.529c-.224.316-1.146-.185-1.45-.132a3.172 3.172 0 0 0-1.713 1.213Z"/>
    <path fill="#E6EFF3" d="M572.792 388.409a9.216 9.216 0 0 0-.474 3.216c-.016 1.655.063 3.31.237 4.956.017.517.143 1.024.369 1.49a1.42 1.42 0 0 0 1.133.58l2.044.329c-.172.896-.488 2.056-1.042 2.333a.823.823 0 0 1-.395.066c-1.318 0-2.808-.171-3.546-1.648a9.106 9.106 0 0 1-.659-2.952 19.785 19.785 0 0 1 0-5.51 10.548 10.548 0 0 1 2.359-5.338 4.148 4.148 0 0 1 1.569-.989 2.998 2.998 0 0 1 1.766-.198c-.408.936-1.015.923-1.542 1.318a5.479 5.479 0 0 0-1.819 2.347Z"/>
    <path fill="#E6EFF3" d="M570.182 414.046c.303-.949.554-2.293 0-2.399-.132 0-.303 0-.461.119a11.778 11.778 0 0 0-3.783 2.636 24.123 24.123 0 0 0-2.847 4.456l-3.849 7.065a8.21 8.21 0 0 1-1.477 2.148c-.446.305-.913.578-1.397.817a8.655 8.655 0 0 0-1.938 2.268 77.263 77.263 0 0 1-4.613 6.59c-1.634 1.938-4.706 4.416-5.101 3.085-.554-1.819 6.195-17.321 9.635-25.045a112.09 112.09 0 0 1 8.146-15.817c1.648-2.505 3.428-4.746 5.194-6.973 2.847-3.572 6.261-6.999 9.227-7.751 0-.514-.738-.764-1.081-.593-4.231 2.188-8.331 7.276-12.087 12.535a101.012 101.012 0 0 0-5.971 9.227 95.798 95.798 0 0 0-4.429 8.7c-8.291 18.757-10.19 25.717-10.19 25.717-.224 1.647.066 3.269.963 3.48a2.755 2.755 0 0 0 1.766-.62 27.257 27.257 0 0 0 4.534-3.229 45.277 45.277 0 0 0 4.324-4.877c1.621-2.044 3.256-4.073 4.89-6.117a49.63 49.63 0 0 0 3.243-4.376 26.495 26.495 0 0 1 2.768-4.112 28.77 28.77 0 0 0 2.28-2.122 15.895 15.895 0 0 0 2.254-4.812Z"/>
    <path fill="#E6EFF3" d="M572.278 395.289c.475 2.531 1.977 3.955 3.823 3.717-.409.435-.528 1.516-.963 1.806a.466.466 0 0 1-.369 0 4.269 4.269 0 0 1-2.636-1.081c-1.107-1.212-1.397-3.69-1.595-6.089a5.1 5.1 0 0 1 0-1.318c.106-.556.27-1.1.488-1.622a12.094 12.094 0 0 1 1.582-3.427c.764-.606.355.844.171 1.542a14.77 14.77 0 0 0-.501 6.472Z"/>
    <path fill="#E6EFF3" d="M569.26 393.536a9.64 9.64 0 0 0-.079 1.49c-.012 1.836.16 3.668.514 5.47.073.465.234.913.474 1.318.268.302.631.502 1.028.567l3.072.83a1.902 1.902 0 0 1-.949 1.384c-.351.12-.731.12-1.081 0-.949-.184-2.03 0-2.821-.566-.791-.567-1.318-2.439-1.648-4.113a11.721 11.721 0 0 1-.263-3.256 16.84 16.84 0 0 1 2.939-7.54c.277.607-1.041 3.335-1.186 4.416Z"/>
    <path fill="#E6EFF3" d="M566.175 396.805a14.785 14.785 0 0 0-.079 5.273c.145 1.16.277 2.306.488 3.387.081.846.427 1.644.988 2.281a2.177 2.177 0 0 0 1.661.224 25.176 25.176 0 0 0 3.296-.686 2.868 2.868 0 0 1-.857 1.516c-.328.277-.71.483-1.121.607-1.489.527-3.084 1.054-4.152.079a5.696 5.696 0 0 1-1.186-2.109 12.501 12.501 0 0 1-.923-6.446 24.965 24.965 0 0 1 3.058-7.988c.238-.448.501-.87.804-.817a10.776 10.776 0 0 1-.856 1.687 15.022 15.022 0 0 0-1.121 2.992Z"/>
    <path fill="#E6EFF3" d="M562.537 402.908a16.131 16.131 0 0 0-.118 2.847c.062 2.087.305 4.164.725 6.209a5.33 5.33 0 0 0 .487 1.489c.765 1.318 2.36.699 3.546 1.147a4.026 4.026 0 0 1-2.794 2.293 2.52 2.52 0 0 1-2.268-1.318 3.465 3.465 0 0 1-.527-1.199 9.795 9.795 0 0 1-.158-1.701l-.145-5.101a16.057 16.057 0 0 1 .29-4.363c.239-.933.551-1.845.936-2.728a11.862 11.862 0 0 1 2.017-3.836 12.5 12.5 0 0 1-.963 2.636 16.85 16.85 0 0 0-1.028 3.625Z"/>
    <path fill="#E6EFF3" d="M559.07 407.64a29.257 29.257 0 0 0-.422 5.866c-.015.948.078 1.894.277 2.821.633 2.306 2.465 2.702 4.152 2.926a2.06 2.06 0 0 1-.817 1.489 1.388 1.388 0 0 1-1.081.145 8.2 8.2 0 0 1-1.621-.382 4.043 4.043 0 0 1-1.476-1.068 2.744 2.744 0 0 1-.699-1.318 8.674 8.674 0 0 1-.066-1.674c.053-2.197.132-4.393.237-6.59a8.101 8.101 0 0 1 .238-1.74c.141-.458.331-.9.566-1.318.409-.831 1.187-2.795 1.806-2.9a34.103 34.103 0 0 0-1.094 3.743Z"/>
    <path fill="#E6EFF3" d="M555.024 417.513c-.167 1.32-.096 2.66.211 3.954a2.895 2.895 0 0 0 2.478 2.254 7.216 7.216 0 0 0 3.467-.804 4.586 4.586 0 0 1-1.318 2.043c-.459.382-.994.66-1.569.818a8.08 8.08 0 0 1-3.071.329 1.866 1.866 0 0 1-1.74-1.12 7.627 7.627 0 0 1-.172-3.164c.106-1.226.225-2.465.356-3.704.093-.83.844-6.327 1.74-6.063.686.158-.316 4.561-.382 5.457Z"/>
    <path fill="#E6EFF3" d="M551.293 428.071a1.319 1.319 0 0 0 1.134.699c1.568.277 3.169.304 4.745.079a5.798 5.798 0 0 1-2.794 2.636 3.692 3.692 0 0 1-2.307-.158l-1.727-.501a.765.765 0 0 1-.553-.395c-.114-.39-.137-.8-.066-1.2.066-.87.975-7.711 1.621-7.737.435 0-.092 2.636-.132 3.058a7.556 7.556 0 0 0 .079 3.519Zm-4.007 5.299c-.06.336-.06.679 0 1.015.145.554.62.567 1.028.541l2.136-.146a4.843 4.843 0 0 0 2.32-.579 4.614 4.614 0 0 1-2.465 2.636 10.69 10.69 0 0 1-1.78.685 3.695 3.695 0 0 1-2.241 0 .505.505 0 0 1-.221-.126.496.496 0 0 1-.134-.217 2.02 2.02 0 0 1 0-1.001c.26-1.676.762-3.306 1.489-4.838.016.679-.028 1.359-.132 2.03Zm34.364-38.713a1.91 1.91 0 0 1 .91 1.555 5.031 5.031 0 0 1-.58 2.307 18.513 18.513 0 0 1-1.213 1.964 92.166 92.166 0 0 0-6.38 12.931c-2.003 4.442-4.336 8.963-7.197 11.586a.725.725 0 0 1-.329.211c-.264 0-.251-.567-.185-1.015a57.622 57.622 0 0 1 4.574-13.735c1.938-4.521 3.955-9.082 5.418-13.814.316-.962.606-1.938.962-2.887.078-.26.208-.502.382-.711a.6.6 0 0 1 .488-.198c1.16.013 2.214 1.12 3.15 1.806Z"/>
    <path fill="#E6EFF3" d="M587.542 394.643a6.074 6.074 0 0 1-1.938 3.533c-1.318.91-2.319-.092-3.321-.699a1.053 1.053 0 0 0-.939-.13 1.04 1.04 0 0 0-.656.684 2.292 2.292 0 0 0-.119 1.49c.114.331.32.624.593.843a2.921 2.921 0 0 0 2.32 1.121c.421-.108.834-.24 1.239-.396a9.513 9.513 0 0 0 1.015-.25 5.066 5.066 0 0 0 2.307-2.386 9.057 9.057 0 0 0 1.041-3.955 7.896 7.896 0 0 0-.342-2.385c-.198-.712-.475-1.991-.949-2.281a.87.87 0 0 0-.659.058.843.843 0 0 0-.422.509c-.106.409.685 1.226.791 1.595a5.81 5.81 0 0 1 .039 2.649Z"/>
    <path fill="#E6EFF3" d="M588.043 400.272a5.773 5.773 0 0 1-1.885 2.122 23.968 23.968 0 0 1-3.375 2.149 1.772 1.772 0 0 1-1.16.316c-.421-.092-.685-.567-.935-1.028l-1.213-2.188a3.608 3.608 0 0 0-1.028 2.333c.018.166.067.327.145.474.698 1.556 1.489 3.177 2.821 3.309a4.458 4.458 0 0 0 2.267-.686 11.022 11.022 0 0 0 3.625-2.728 10.542 10.542 0 0 0 2.359-5.273c.07-.77.03-1.547-.119-2.306a6.557 6.557 0 0 0-.725-2.123 4.81 4.81 0 0 0-.118 2.426 7.429 7.429 0 0 1-.659 3.203Z"/>
    <path fill="#E6EFF3" d="M572.397 415.931c.474-.83 1.239-1.766 1.568-1.212.087.181.136.378.145.58.284 1.881.315 3.791.093 5.681a29.902 29.902 0 0 1-1.543 5.483l-2.768 7.909a10.156 10.156 0 0 0-.685 2.755c0 .725.119 1.318.132 2.016a12.008 12.008 0 0 1-.541 3.349c-.738 2.847-1.621 5.72-2.109 8.567-.487 2.848-.593 7.593.475 7.408 1.463-.263 8.37-15.633 11.784-23.397a123.399 123.399 0 0 0 6.419-17.135c.844-3.137 1.45-6.288 2.043-9.425.963-5.035 1.543-10.65.58-14.499.33-.251.87.501.91.975.646 5.958-.712 13.181-2.333 20.102-.897 3.809-1.885 7.632-3.124 11.375-1.055 3.19-2.228 6.34-3.572 9.372-8.291 18.77-11.956 24.346-11.956 24.346-.962 1.081-2.175 1.529-2.755.606a5.723 5.723 0 0 1-.448-2.346 52.897 52.897 0 0 1-.105-6.815 67.313 67.313 0 0 1 1.107-7.381c.54-2.874 1.094-5.761 1.634-8.647.369-1.951.739-3.955 1.319-5.879a35.054 35.054 0 0 0 1.318-5.273c.145-1.239 0-2.399.276-3.664a16.04 16.04 0 0 1 2.136-4.851Z"/>
    <path fill="#E6EFF3" d="M583.72 404.319c-1.899.698-3.599-.33-4.311-2.637-.092.686-.738 1.318-.725 1.991.016.158.066.31.145.448a5.869 5.869 0 0 0 2.004 2.491c1.318.699 3.124-.171 4.798-1.12.33-.172.629-.4.883-.673.325-.404.599-.847.817-1.318a12.35 12.35 0 0 0 1.49-3.493c0-1.173-.725 0-1.094.554a9.027 9.027 0 0 1-4.007 3.757Z"/>
    <path fill="#E6EFF3" d="M586.356 406.955a5.318 5.318 0 0 1-.936.817 14.528 14.528 0 0 1-3.862 2.083 1.82 1.82 0 0 1-1.134.118c-.369-.131-.619-.527-.883-.909l-2.043-3.124a2.437 2.437 0 0 0-.448 1.753c.095.447.284.869.553 1.239a11.771 11.771 0 0 0 1.754 2.979c.935.751 2.267.343 3.519-.119a6.228 6.228 0 0 0 2.28-1.318 15.807 15.807 0 0 0 3.52-7.091c-.567-.027-1.674 2.873-2.32 3.572Z"/>
    <path fill="#E6EFF3" d="M585.71 412.135a8.238 8.238 0 0 1-3.467 2.636c-.796.42-1.62.785-2.465 1.094a2.058 2.058 0 0 1-1.977 0 3.746 3.746 0 0 1-.962-1.806 44.524 44.524 0 0 1-1.16-4.138 3.15 3.15 0 0 0-.58 1.726 6.107 6.107 0 0 0 .145 1.595c.382 1.991.817 4.086 1.99 4.838a3.191 3.191 0 0 0 1.964.329 6.28 6.28 0 0 0 4.693-2.082 23.189 23.189 0 0 0 3.77-7.435c.217-.403.269-.876.145-1.318-.286.581-.52 1.185-.699 1.806a13.413 13.413 0 0 1-1.397 2.755Z"/>
    <path fill="#E6EFF3" d="M583.495 419.292a8.995 8.995 0 0 1-1.819 1.516 17.389 17.389 0 0 1-4.442 2.202c-.382.162-.8.222-1.212.171-1.239-.25-1.622-2.386-2.492-3.533a6.843 6.843 0 0 0-.171 4.35 2.905 2.905 0 0 0 2.004 1.938c.343.106.711.106 1.054 0a4.684 4.684 0 0 0 1.2-.646l3.427-2.333a9.556 9.556 0 0 0 2.728-2.452c.502-.773.943-1.584 1.318-2.425a13.166 13.166 0 0 0 1.529-4.205c-.539.74-.982 1.547-1.318 2.399a13.819 13.819 0 0 1-1.806 3.018Z"/>
    <path fill="#E6EFF3" d="M582.046 425.62a17.227 17.227 0 0 1-3.652 3.361 5.976 5.976 0 0 1-1.99 1.054c-1.819.409-2.979-1.529-3.954-3.361a2.345 2.345 0 0 0-.58 1.674c.035.468.185.921.435 1.318.304.584.652 1.144 1.041 1.674.379.501.865.911 1.423 1.2a1.526 1.526 0 0 0 1.2.158 4.334 4.334 0 0 0 1.147-.738c1.41-1.147 2.834-2.32 4.244-3.533.399-.317.75-.69 1.041-1.107.242-.42.445-.862.607-1.318.343-.883 1.252-2.742 1.028-3.52a26.491 26.491 0 0 1-1.99 3.138Z"/>
    <path fill="#E6EFF3" d="M577.537 435.123a6.02 6.02 0 0 1-2.636 1.687 2.633 2.633 0 0 1-2.702-1.766 14.836 14.836 0 0 1-1.16-4.402 5.277 5.277 0 0 0-.725 2.464c-.025.745.05 1.49.224 2.215a16.077 16.077 0 0 0 1.318 3.704c.396.764.883 1.476 1.595 1.463a4.05 4.05 0 0 0 2.162-1.318 71.26 71.26 0 0 0 2.267-2.215c.514-.514 3.757-4.073 3.15-4.982-.527-.686-2.939 2.636-3.493 3.15Z"/>
    <path fill="#E6EFF3" d="M572.41 444.601c-.448 0-.751-.501-1.015-.963a30.049 30.049 0 0 1-2.386-5.457 9.458 9.458 0 0 0-.395 4.561 7.008 7.008 0 0 0 1.239 2.636l1.173 1.74c.145.211.303.435.527.448.224.014.554-.25.831-.501.527-.514 4.6-4.916 4.297-5.667-.211-.501-1.714 1.41-1.951 1.647-.712.725-1.608 1.621-2.32 1.556Zm-1.529 7.223c-.188.21-.423.372-.686.474-.421.106-.659-.435-.856-.922l-.949-2.544a10.08 10.08 0 0 1-.752-2.966 7.201 7.201 0 0 0-.501 4.126c.095.807.235 1.608.422 2.399a7.046 7.046 0 0 0 1.134 2.557c.105.132.224.277.395.25.172-.026.435-.29.633-.553a15.033 15.033 0 0 0 2.465-4.087c-.369.145-.91.87-1.305 1.266Z"/>
  </g>
  <path stroke="#E6EFF3" stroke-linecap="round" stroke-linejoin="round" stroke-width="2.43" d="M363.17 450.796v5.958l14.803-2.979m11.112 24.86v5.958l14.802-2.979m28.643 19.903v5.945l14.803-2.966m32.149 23.516v5.958l14.789-2.979"/>
  <path fill="#E8E8E8" d="M242.917 637.364c3.81 18.124 18.454 32.874 28.657 37.935 10.202 5.062 34.706 13.564 63.626 11.336 27.68-2.135 49.693 1.806 56.56-9.227.317-.474.607-.962.87-1.397 5.049-8.264 9.438-18.098 9.913-27.918.685-13.866-4.297-27.1-6.248-40.677-2.149-14.921 1.173-29.882 2.768-44.711 1.608-14.618 2.86-9.359 2.86-11.942 0-.62.119-5.497.238-12.694.355-23.608-18.731-77.994-23.292-80.801-5.971-3.665-20.813-1.529-23.028-2.491-2.214-.963-9.859-8.581-17.135-12.694-7.276-4.113-39.109-15.593-54.689-21.947a40.247 40.247 0 0 0-29.566 0s-19.113 10.229-19.442 31.543c-.33 21.314 8.91 74.079 8.91 78.218 0 35.141-7.935 72.826-1.002 107.467Z"/>
  <path fill="#FFCFCD" d="M279.719 434.886c-.145 1.7 5.075 8.686 26.785 14.433 16.305 4.324 24.016 1.319 29.21 2.413 1.713.342 7.197-.791 7.197-.791s3.954-17.452 5.984-21.288c2.03-3.836 9.859-5.167 13.484-5.431 3.625-.263 12.351-6.59 13.524-9.952.976-2.794 3.849-15.079 4.838-19.337.211-.909.343-1.449.343-1.449s2.82-2.637 2.28-4.363a27.375 27.375 0 0 1-.409-6.196s1.648-18.598.646-22.988c-1.002-4.389 1.081-23.581-9.873-27.681-10.953-4.099-79.878 35.458-79.878 35.458s.408 30.172.211 35.155c-.198 4.982-9.649 19.06-13.814 22.553-3.467 2.886-.369 7.803-.528 9.464Z"/>
  <path fill="#3A4666" d="M369.26 387.473c-.224.672-.54 13.339-.54 13.339l-4.957.422s-.764-13.919-3.638-15.04c-2.873-1.12-15.962 9.768-16.832 12.285-.87 2.518-17.333 17.136-26.811 16.846-4.455-.158-9.794-2.636-14.13-5.141a79.16 79.16 0 0 1-8.542-5.707s-.369-12.153-2.056-14.737c-1.687-2.584-8.647-18.638-6.011-40.216 2.637-21.578 16.701-45.396 46.662-44.368 0 0 3.81.369 8.845 1.054 6.907.817 15.962 2.188 20.259 3.678 6.499 2.254 13.959 7.645 16.648 11.27h.066c.357.397.659.84.897 1.318 1.384 3.229 6.999 13.26 6.683 15.646-.317 2.386.461 11.863.461 11.863s-3.15 6.05-2.926 7.909c.118.738-.633 2.175-1.661 3.875a89.338 89.338 0 0 0-5.273 8.41c-1.344 3.453-6.907 16.622-7.144 17.294Z"/>
  <path fill="#262626" d="m332.787 394.999 2.241 2.123 15.818-8.015 25.15-3.69c.83-.132 1.792-.396 2.491.224a4.412 4.412 0 0 1 1.081 2.636 5.478 5.478 0 0 0 2.926 3.796 4.112 4.112 0 0 0 5.378-1.41c.699-1.002 1.384-2.03 2.056-3.058 1.318-2.07 2.636-4.205 3.836-6.367.117-.176.197-.373.237-.58a1.79 1.79 0 0 0-.105-.83 28.292 28.292 0 0 0-2.122-5.734c-1.898-3.493-5.128-5.998-7.804-8.924l-.079 3.203c-.024.253-.002.507.066.752.137.333.349.631.62.869l4.982 4.943c1.2 1.885 1.542 1.991 1.081 3.309-.045.206-.15.395-.303.54a1.14 1.14 0 0 1-.475.172c-11.612 2.161-25.664 4.969-37.276 7.131h-.198l-19.601 8.91Zm47.558-10.611c.12-.06.249-.101.383-.118l3.203-.607 3.849-.738 1.318-.25s.488 0 .514-.092c-.725 1.384-1.384 6.195-2.491 7.21a3.058 3.058 0 0 1-2.333.593 4.415 4.415 0 0 1-2.637-.791 4.949 4.949 0 0 1-1.239-2.122 9.483 9.483 0 0 1-.738-2.465c-.053-.369 0-.554.171-.633v.013Z"/>
  <path fill="#FFCFCD" d="M495.444 523.108c.501 6.169 9.781 10.862 16.569 12.562 4.759-3.875 13.458-13.049 12.641-21.209a35.504 35.504 0 0 1-.633-5.733c.093-2.834.633-3.757-.092-5.273-.843-1.779-2.214-1.806-2.531-3.506-.29-1.318 2.729-11.573 2.492-12.865a5.195 5.195 0 0 0-2.768-3.256c-3.573 5.879-5.866 18.072-8.199 22.54-2.043 3.954-2.94 3.954-3.269 3.954-.606 0-1.068-.751-2.004-2.24 0 0-1.779-2.821-1.489-4.983.382-2.544 2.478-6.736.382-8.251a3.093 3.093 0 0 0-3.269-.172 6.866 6.866 0 0 0-3.084 4.258v2.003c-.448 8.265-3.006 9.596-4.495 18.902a18.843 18.843 0 0 0-.251 3.269Z"/>
  <path fill="#E8E8E8" d="M514.702 528.552a9.472 9.472 0 0 1-.83 5.378c-1.476 2.847-13.313 13.498-27.523 24.926-.408.356-.83.646-1.239.949-13.972 11.178-29.961 22.843-40.492 28.59-.712.409-1.319.699-2.017 1.055l-2.834 1.318c-18.23 8.278-21.196 1.476-25.756-1.661a476.839 476.839 0 0 1-43.024-34.456c-11.863-10.822-27.944-32.083-37.949-45.989-5.273-7.461-8.871-12.786-9.108-13.313-.119-.238 0-.95.58-2.07 2.544-5.391 10.769-14.157 30.132-25.69 23.318-13.92 22.606-12.022 28.406-7.052 1.423 1.186 11.863 24.148 17.346 41.376v.184c3.441 10.769 30.726 42.55 30.726 42.55l64.166-30.779s12.668-3.19 16.991 5.101c3.19 5.906 1.898 4.838 2.425 9.583Z"/>
  <path fill="#D1D1D1" d="M485.11 559.765c-13.972 11.178-29.961 22.844-40.493 28.591-.711.408-1.318.698-2.016 1.054l-2.834 1.318c-18.23 8.278-21.196 1.477-25.756-1.66a477.014 477.014 0 0 1-43.024-34.456c-11.863-10.822-27.945-32.084-37.949-45.99 5.035 4.851 10.953 10.835 15.448 16.042 9.596 11.191 37.765 34.508 47.242 41.85 9.477 7.342 27.575 22.316 32.729 21.09 5.154-1.226 46.293-21.538 50.379-23.726.831-.29 3.137-1.885 6.274-4.113Z" style="mix-blend-mode:multiply"/>
  <path fill="#E8E8E8" d="m350.463 452.997-3.743-13.023s-33.296 3.374-37.343 2.979c-4.046-.396-30.04-14.223-30.04-14.223l3.269-3.572-6.999 4.877-1.621 11.481 7.315 15.818 25.137 3.269 44.025-7.606Z"/>
  <path fill="#262626" d="M319.118 455.343a188.776 188.776 0 0 1-32.215-2.636c-10.097-1.753-15.817-5.088-16.885-9.925-2.043-8.832 12.654-19.232 13.181-19.667l-.567 1.872c-.131.105-13.062 9.596-11.243 17.465.975 4.192 6.248 7.157 15.699 8.805a197.721 197.721 0 0 0 64.232 0l1.411 1.318a203.733 203.733 0 0 1-33.613 2.768Z"/>
  <path fill="#3A4666" d="M395.926 353.294c-3.783 4.073-9.332 5.971-14.249 8.594a23.586 23.586 0 0 0-6.591 4.627l-6.59-2.465c-5.695-4.535-13.287-5.971-20.537-6.591-7.25-.619-14.723-.514-21.709-2.636a36.025 36.025 0 0 1-22.119-19.772 28.764 28.764 0 0 1-1.99-5.642 16.764 16.764 0 0 1 .079-9.991 14.767 14.767 0 0 1 8.357-8.08 41.998 41.998 0 0 1 11.692-2.637c6.314-.883 12.614-1.713 18.941-2.636 8.08-1.094 16.174-2.241 24.254-3.335a40.505 40.505 0 0 1 10.993-.461c1.121.211 2.175.448 3.19.738a37.616 37.616 0 0 1 11.692 6.591c3.559 2.728 7.039 5.879 9.082 9.965 2.636 5.365 2.412 11.665 1.608 17.597-.752 5.892-2.149 11.929-6.103 16.134Z"/>
  <path fill="#3994C1" d="M378.276 321.184a7.344 7.344 0 0 1-.62 1.78c-1.318 2.478-4.56 3.572-7.394 3.269a27.064 27.064 0 0 1-8.001-2.755 75.13 75.13 0 0 0-44.052-5.273 15.386 15.386 0 0 0-6.841 2.636c-2.268 1.846-3.441 4.693-4.495 7.395a254.35 254.35 0 0 0-2.636 6.92c-7.052 18.784-12.852 38.832-6.96 57.642 1.463 4.838 3.717 9.372 4.916 14.236a6.52 6.52 0 0 1 .225 3.137 79.16 79.16 0 0 1-8.542-5.707s-.369-12.154-2.056-14.737c-1.687-2.584-8.647-18.638-6.011-40.216s16.701-45.397 46.662-44.368c0 0 3.809.369 8.845 1.054 8.08-1.094 16.173-2.241 24.253-3.335a40.505 40.505 0 0 1 10.993-.461c1.121.211 2.175.448 3.19.738a6.598 6.598 0 0 0-3.322 2.913c-2.333 4.587 2.637 10.295 1.793 15.093l.053.039Z" opacity=".3" style="mix-blend-mode:multiply"/>
  <g filter="url(#c)">
    <path fill="url(#d)" fill-rule="evenodd" d="M449.476 805.841c197.884 0 358.301-160.009 358.301-357.389 0-197.381-160.417-357.39-358.301-357.39-197.885 0-358.301 160.009-358.301 357.39 0 197.38 160.416 357.389 358.301 357.389Zm0 44.062c222.281 0 402.475-179.735 402.475-401.451S671.757 47 449.476 47C227.194 47 47 226.736 47 448.452s180.194 401.451 402.476 401.451Z" clip-rule="evenodd"/>
  </g>
  <defs>
    <linearGradient id="a" x1="491.437" x2="444.63" y1="459.311" y2="557.973" gradientUnits="userSpaceOnUse">
      <stop stop-color="#E6EFF3"/>
      <stop offset=".84" stop-color="#E6EFF3" stop-opacity="0"/>
    </linearGradient>
    <linearGradient id="b" x1="478.876" x2="369.22" y1="287.361" y2="514.501" gradientUnits="userSpaceOnUse">
      <stop stop-color="#333677"/>
      <stop offset="1" stop-color="#0A879A"/>
    </linearGradient>
    <linearGradient id="d" x1="-103.714" x2="992.39" y1="440.748" y2="449.305" gradientUnits="userSpaceOnUse">
      <stop stop-color="#4746B8"/>
      <stop offset=".543" stop-color="#705884"/>
      <stop offset="1" stop-color="#936859"/>
    </linearGradient>
    <filter id="c" width="936.951" height="944.903" x="0" y="0" color-interpolation-filters="sRGB" filterUnits="userSpaceOnUse">
      <feFlood flood-opacity="0" result="BackgroundImageFix"/>
      <feColorMatrix in="SourceAlpha" result="hardAlpha" values="0 0 0 0 0 0 0 0 0 0 0 0 0 0 0 0 0 0 127 0"/>
      <feOffset dx="50" dy="60"/>
      <feGaussianBlur stdDeviation="17.5"/>
      <feColorMatrix values="0 0 0 0 0.306545 0 0 0 0 0.325997 0 0 0 0 0.38368 0 0 0 0.2 0"/>
      <feBlend in2="BackgroundImageFix" result="effect1_dropShadow_1685_1561"/>
      <feColorMatrix in="SourceAlpha" result="hardAlpha" values="0 0 0 0 0 0 0 0 0 0 0 0 0 0 0 0 0 0 127 0"/>
      <feOffset dx="-12" dy="-12"/>
      <feGaussianBlur stdDeviation="17.5"/>
      <feColorMatrix values="0 0 0 0 1 0 0 0 0 1 0 0 0 0 1 0 0 0 0.5 0"/>
      <feBlend in2="effect1_dropShadow_1685_1561" result="effect2_dropShadow_1685_1561"/>
      <feBlend in="SourceGraphic" in2="effect2_dropShadow_1685_1561" result="shape"/>
      <feColorMatrix in="SourceAlpha" result="hardAlpha" values="0 0 0 0 0 0 0 0 0 0 0 0 0 0 0 0 0 0 127 0"/>
      <feOffset dx="-10" dy="-12"/>
      <feGaussianBlur stdDeviation="6"/>
      <feComposite in2="hardAlpha" k2="-1" k3="1" operator="arithmetic"/>
      <feColorMatrix values="0 0 0 0 1 0 0 0 0 1 0 0 0 0 1 0 0 0 0.3 0"/>
      <feBlend in2="shape" result="effect3_innerShadow_1685_1561"/>
      <feColorMatrix in="SourceAlpha" result="hardAlpha" values="0 0 0 0 0 0 0 0 0 0 0 0 0 0 0 0 0 0 127 0"/>
      <feOffset dx="-10" dy="12"/>
      <feGaussianBlur stdDeviation="12.5"/>
      <feComposite in2="hardAlpha" k2="-1" k3="1" operator="arithmetic"/>
      <feColorMatrix values="0 0 0 0 0.000347137 0 0 0 0 0.000347137 0 0 0 0 0.000347137 0 0 0 0.19 0"/>
      <feBlend in2="effect3_innerShadow_1685_1561" result="effect4_innerShadow_1685_1561"/>
    </filter>
  </defs>
</svg>
