<svg xmlns="http://www.w3.org/2000/svg" width="200" height="200" fill="none" viewBox="0 0 699 588">
  <g filter="url(#a)">
    <path fill="#fff" fill-opacity=".2" d="M308.213 478.182c122.444 20.033 244.289-70.33 300.34-156.968 37.248-57.572 52.087-125.143 30.351-180.127-15.926-40.289-55.987-79.329-115.555-81.04-33.399-.961-63.523 13.157-93.897 27.276-29.996 13.944-60.238 27.887-94.118 27.307-68.09-1.166-148.695 23.643-187.737 68.604-39.029 44.946-47 126.938-13.801 190.549 18.927 36.267 52.436 67.329 95.997 86.179 23.94 10.359 49.806 13.302 76.921 17.968.5.086.999.17 1.499.252Z" shape-rendering="crispEdges"/>
  </g>
  <path fill="#EB9124" d="M138.809 388.274c-9.336 14.984-29.123 19.581-44.11 10.242-14.985-9.336-19.58-29.122-10.244-44.107 9.336-14.985 29.124-19.581 44.109-10.245 14.986 9.336 19.581 29.125 10.245 44.11Z"/>
  <path fill="#EB9124" d="M138.102 387.833c-9.094 14.595-28.366 19.07-42.961 9.978-14.596-9.094-19.072-28.366-9.979-42.961 9.094-14.595 28.366-19.073 42.961-9.979 14.596 9.095 19.072 28.367 9.979 42.962Z"/>
  <path fill="#fff" d="M125.224 349.804c11.937 7.437 15.585 23.144 8.148 35.081-7.438 11.937-23.144 15.587-35.082 8.148-11.938-7.437-15.586-23.144-8.148-35.082 7.438-11.937 23.144-15.584 35.082-8.147Z"/>
  <path fill="#fff" d="M132.134 384.114c-7.039 11.298-21.957 14.763-33.255 7.725-11.298-7.039-14.762-21.959-7.724-33.256 7.039-11.298 21.957-14.763 33.255-7.724 11.298 7.038 14.762 21.958 7.724 33.255Z"/>
  <path fill="#EB9124" d="m99.504 388.399-2.285 3.67a1.289 1.289 0 0 0 2.186 1.362l2.285-3.671a1.289 1.289 0 0 0-.412-1.774 1.29 1.29 0 0 0-1.774.413Zm28.779-6.684a1.288 1.288 0 0 0 .412 1.774l3.669 2.286a1.289 1.289 0 0 0 1.362-2.187l-3.669-2.285a1.288 1.288 0 0 0-1.774.412Zm-4.399-32.449-2.286 3.671a1.29 1.29 0 0 0 .412 1.774 1.29 1.29 0 0 0 1.775-.413l2.286-3.67a1.29 1.29 0 0 0-.413-1.774 1.29 1.29 0 0 0-1.774.412Zm-34.733 8.069a1.288 1.288 0 0 0 .412 1.773l3.669 2.286a1.289 1.289 0 0 0 1.362-2.186l-3.669-2.286a1.29 1.29 0 0 0-1.774.413Zm1.036-14.024-2.634-4.333a.75.75 0 0 1 .252-1.032l4.966-3.022a.75.75 0 0 1 1.035.25l2.634 4.33a.757.757 0 0 1-.252 1.038l-4.965 3.019a.754.754 0 0 1-1.036-.25ZM77.295 364.24l-5.047-.455a.75.75 0 0 0-.818.682l-.523 5.788a.754.754 0 0 0 .682.819l5.047.455a.75.75 0 0 0 .819-.682l.523-5.788a.753.753 0 0 0-.683-.819Zm.278-10.351a.736.736 0 0 1-1.01.233l-3.097-1.927a.737.737 0 0 1-.235-1.012l3.937-6.317a.734.734 0 0 1 1.01-.236l3.097 1.93a.732.732 0 0 1 .234 1.009l-3.936 6.32Z"/>
  <path fill="#EB9124" d="M79.745 353.835a8.02 8.02 0 0 1-9.354.637 8.017 8.017 0 0 1-2.564-11.042 8.016 8.016 0 0 1 11.04-2.564 8.017 8.017 0 0 1 3.555 8.679l1.678 1.046c1.294-4.196-.331-8.906-4.229-11.337-4.64-2.888-10.765-1.467-13.655 3.173-2.89 4.639-1.468 10.766 3.171 13.657 3.898 2.428 8.843 1.808 12.04-1.203l-1.682-1.046Z"/>
  <path fill="#EB9124" d="M83.914 354.071a33.38 33.38 0 0 1 1.45-2.138l-4.467-2.783-2.175 3.491 4.412 2.749c.248-.444.509-.881.78-1.319Zm28.942 15.246a2.35 2.35 0 0 1-2.484 3.989 2.349 2.349 0 0 1-.751-3.235 2.348 2.348 0 0 1 3.235-.754Z"/>
  <path fill="#EB9124" d="m102.548 354.202 9.794 16.713a.885.885 0 0 1-1.525.895c-.039-.068.333.714-8.269-17.608Z"/>
  <path fill="#EB9124" d="m130.984 369.286-19.15 2.92a.883.883 0 1 1-.266-1.746c.076-.011-.786.046 19.416-1.174Z"/>
  <path fill="#EB9124" d="M112.122 370.497a.96.96 0 1 1-1.015 1.628.96.96 0 0 1 1.015-1.628Z"/>
  <path fill="#fff" fill-opacity=".55" d="M555.218 443.453c-9.718 3.753-14.549 14.669-10.801 24.386 3.751 9.714 14.673 14.55 24.387 10.797 9.714-3.752 14.549-14.669 10.797-24.386-3.751-9.714-14.669-14.549-24.383-10.797Zm2.65 6.874c-5.919 2.286-8.862 8.938-6.578 14.857 2.288 5.919 8.938 8.864 14.86 6.578 5.919-2.285 8.865-8.937 6.574-14.856-2.284-5.919-8.938-8.864-14.856-6.579Zm24.321-7.005c.388.316.926.381 1.38.171 2.225-1.032 6.614-.813 8.828-.438l4.206 10.883c-1.391 1.765-4.491 4.878-6.834 5.611a1.313 1.313 0 0 0-.904 1.052l-1.42 9.06c-.077.495.136.99.545 1.28 2.006 1.413 4.012 5.322 4.795 7.428l-7.324 9.08c-2.221-.321-6.471-1.45-8.275-3.11a1.316 1.316 0 0 0-1.365-.261l-8.554 3.306a1.306 1.306 0 0 0-.835 1.109c-.223 2.442-2.606 6.135-4.037 7.866l-11.529-1.802c-.831-2.085-1.977-6.329-1.439-8.723a1.324 1.324 0 0 0-.461-1.31l-7.137-5.757a1.315 1.315 0 0 0-1.38-.17c-2.225 1.032-6.614.813-8.832.438l-4.202-10.883c1.391-1.765 4.491-4.878 6.834-5.612.475-.148.827-.557.904-1.052l1.416-9.06a1.306 1.306 0 0 0-.538-1.279c-2.009-1.413-4.011-5.322-4.798-7.429l7.324-9.08c2.225.319 6.471 1.45 8.275 3.11.37.339.901.441 1.365.259l8.554-3.303c.465-.179.791-.609.835-1.109.223-2.442 2.609-6.135 4.037-7.866l11.526 1.802c.838 2.084 1.98 6.329 1.445 8.722a1.31 1.31 0 0 0 .458 1.311l7.137 5.756Z"/>
  <path fill="#fff" fill-opacity=".3" d="M615.967 386.45c-10.142-3.099-20.874 2.607-23.977 12.747-3.1 10.138 2.607 20.873 12.749 23.972 10.142 3.101 20.87-2.607 23.973-12.745 3.1-10.14-2.607-20.875-12.745-23.974Zm-2.196 7.176c-6.174-1.891-12.718 1.586-14.604 7.763-1.887 6.178 1.589 12.717 7.768 14.607 6.174 1.888 12.714-1.589 14.6-7.766 1.891-6.178-1.585-12.717-7.764-14.604Zm23.882 9.671c.115.498.5.887.999 1.003 2.43.575 5.806 3.509 7.348 5.197l-3.476 11.36c-2.219.541-6.662 1.084-8.996.199a1.345 1.345 0 0 0-1.387.273l-6.829 6.369a1.338 1.338 0 0 0-.368 1.364c.717 2.391-.135 6.786-.829 8.964l-11.572 2.672c-1.578-1.655-4.273-5.228-4.673-7.693a1.342 1.342 0 0 0-.931-1.066l-8.925-2.729a1.336 1.336 0 0 0-1.368.361c-1.712 1.819-5.944 3.278-8.176 3.767l-8.1-8.688c.642-2.195 2.389-6.311 4.323-7.895a1.34 1.34 0 0 0 .46-1.336l-2.104-9.097a1.333 1.333 0 0 0-.995-1.001c-2.434-.574-5.81-3.508-7.352-5.199l3.476-11.358c2.223-.543 6.662-1.086 9-.201a1.338 1.338 0 0 0 1.383-.273l6.829-6.366c.373-.349.519-.878.373-1.367-.722-2.391.13-6.783.824-8.964l11.572-2.669c1.582 1.652 4.273 5.228 4.677 7.693.083.503.444.915.927 1.063l8.929 2.732a1.348 1.348 0 0 0 1.368-.364c1.712-1.819 5.941-3.278 8.176-3.764l8.101 8.685c-.643 2.195-2.394 6.311-4.328 7.895a1.338 1.338 0 0 0-.456 1.336l2.1 9.097Z"/>
  <path fill="#fff" fill-opacity=".52" d="M488.04 351.419c-9.252 17.605-2.484 39.376 15.125 48.627 17.604 9.253 39.378 2.481 48.63-15.124 9.252-17.606 2.477-39.38-15.124-48.631-17.608-9.25-39.382-2.479-48.631 15.128Zm12.453 6.544c-5.638 10.726-1.508 23.991 9.217 29.628 10.728 5.638 23.991 1.51 29.629-9.217 5.634-10.726 1.508-23.99-9.217-29.625-10.724-5.637-23.991-1.512-29.629 9.214Zm26.166-40.636a2.516 2.516 0 0 0 2.192-1.487c1.905-4.281 8.493-9.484 12.147-11.73l19.718 10.363c.223 4.284-.324 12.659-2.772 16.656a2.521 2.521 0 0 0 .022 2.652l9.353 14.806a2.513 2.513 0 0 0 2.387 1.154c4.658-.489 12.456 2.613 16.229 4.654l.886 22.26c-3.6 2.334-11.128 6.046-15.812 5.93a2.509 2.509 0 0 0-2.286 1.342l-8.144 15.502a2.51 2.51 0 0 0 .191 2.644c2.754 3.789 3.964 12.096 4.083 16.383l-18.832 11.897c-3.82-1.95-10.801-6.612-13.04-10.729a2.51 2.51 0 0 0-2.308-1.307l-17.496.694a2.524 2.524 0 0 0-2.197 1.489c-1.904 4.282-8.489 9.481-12.143 11.73l-19.721-10.362c-.22-4.285.327-12.66 2.768-16.657a2.515 2.515 0 0 0-.014-2.652l-9.353-14.806a2.52 2.52 0 0 0-2.387-1.157c-4.659.489-12.457-2.613-16.23-4.654l-.889-22.259c3.6-2.334 11.128-6.044 15.812-5.928a2.515 2.515 0 0 0 2.286-1.341l8.147-15.503a2.512 2.512 0 0 0-.191-2.643c-2.754-3.793-3.967-12.097-4.086-16.384l18.836-11.897c3.82 1.95 10.8 6.612 13.04 10.726a2.511 2.511 0 0 0 2.304 1.31l17.5-.696Z"/>
  <path fill="#fff" d="m292.031 143.275-5.558-.822-.878-7.596-8.116-2.038-1.754-5.743-3.338.279 2.346 7.684 7.69 1.93.915 7.904 8.363 1.236.33-2.834Z"/>
  <path fill="#EB9124" d="m558.626 237.957-6.611 1.169-3.607-5.632 1.362-.874 3.025 4.724 6.809-1.205 3.081 7.124 4.418-1.357.348 1.588-5.681 1.742-3.144-7.279Z"/>
  <path fill="#fff" d="m108.517 444.113-1.261-6.595 5.582-3.687.892 1.35-4.68 3.093 1.297 6.792-7.081 3.175 1.417 4.401-1.582.367-1.82-5.652 7.236-3.244ZM333.106 120.61l-3.4-8.038-8.551-1.759c-.973-.2-1.295-1.429-.546-2.081l6.601-5.721-.974-8.675c-.109-.989.962-1.674 1.811-1.162l7.477 4.508 7.953-3.607c.907-.41 1.89.398 1.665 1.365l-1.977 8.506 5.884 6.448c.673.734.209 1.917-.78 2.002l-8.699.749-4.313 7.592c-.491.865-1.762.789-2.151-.127Z"/>
  <path fill="#F48C7F" d="m515.459 154.958 4.813-1.227.889-6.114 6.952-.617.088-4.108 1.072.114-.108 4.981-7.062.623-.87 5.984-5.507 1.406-.267-1.042Z"/>
  <path fill="#fff" d="m122.423 251.452-1.139 5.171-5.993-1.905.514-1.617 4.221 1.341.739-3.357 1.658.367Z"/>
  <path fill="#96D9C9" d="m348.991 184.514-1.424 5.1-5.879-2.232.602-1.589 4.142 1.572.924-3.309 1.635.458Z"/>
  <path fill="#fff" d="m438.335 113.108-5.196 1.341-2.541-6.559-5.254 2.205-2.274-6.595-4.826.192-2.051-4.95-3.034.9-.307-1.543 4.036-1.197 2.144 5.169 4.896-.192 2.144 6.231 5.205-2.183 2.601 6.709 5.034-1.299 2.942 5.202-1.071.899-2.448-4.33ZM90.453 296.463l2.883.716-.045 3.392 3.151 1.518-.332 3.946 3.889.588-.174 4.347 3.543.99.451 3.675-.924.111-.375-3.059-3.654-1.02.17-4.248-3.926-.594.351-4.176-3.109-1.498.044-3.247-2.167-.537.224-.904Z"/>
  <path fill="#466EB6" d="M501.228 517.542H189.807c-14.924 0-27.022-12.1-27.022-27.022V265.635c0-14.924 12.098-27.022 27.022-27.022h311.421c14.927 0 27.025 12.098 27.025 27.022V490.52c0 14.922-12.098 27.022-27.025 27.022Z"/>
  <path fill="#184655" d="M508.135 492.908H185.029c-7.867 0-14.244-5.985-14.244-13.365V258.518c0-7.381 6.377-13.366 14.244-13.366h323.106c7.865 0 14.243 5.985 14.243 13.366v221.025c0 7.38-6.378 13.365-14.243 13.365Z"/>
  <path fill="#355389" d="M162.784 500.738v9.466c0 4.054 8.709 7.338 19.45 7.338h373.501c10.741 0 19.45-3.284 19.45-7.338v-9.466H162.784Z"/>
  <path fill="#CBCBCB" d="M509.798 480.755H185.071V253.681h324.727v227.074Z"/>
  <path fill="#FFF7E7" d="M122.223 157.017c-26.517 10.684-26.617 48.642-.117 59.689 4.759 1.985 8.581 5.712 10.884 10.326l7.923 15.877a9.379 9.379 0 0 0 11.897 4.512l10.046-4.049a9.378 9.378 0 0 0 5.446-11.499c-5.326-17.029-8.523-22.922-4.612-31.923 11.437-26.327-14.944-53.619-41.467-42.933Z"/>
  <path fill="#FAE0B2" d="M143.319 177.793c-.42 2.166.472 4.617 1.319 7.477 1.967-1.786 4.228-3.977 4.55-6.516.226-1.783-.964-3.963-2.738-4.017-.192-.006-2.837 1.538-3.131 3.056Zm-23.135 16.364c1.74 1.196 4.237 1.336 7.631.412-1.157-2.394-2.543-4.469-4.641-5.694-4.733-2.764-5.909 3.272-2.99 5.282Zm21.269 35.689c-5.115-14.467-11.14-29.6-12.991-33.859-15.586 4.398-13.307-13.577-4.513-8.44 2.507 1.461 4.071 3.858 5.358 6.578a41.827 41.827 0 0 0 14.056-7.744c-1.071-3.607-2.054-6.305-1.554-8.881.753-3.889 5.028-5.856 7.627-2.811.977 1.142 1.466 2.774 1.278 4.258-.402 3.167-3.156 5.817-5.592 7.955a693.845 693.845 0 0 0 11.354 34.691l-1.45.518a697.915 697.915 0 0 1-11.186-34.129 43.32 43.32 0 0 1-13.897 7.553c2.35 5.45 8.158 20.216 12.96 33.796l-1.45.515Z"/>
  <path fill="#5A3761" d="M132.775 226.645c.069.131.149.256.215.387l7.923 15.877a9.379 9.379 0 0 0 11.897 4.512l10.046-4.049a9.378 9.378 0 0 0 5.446-11.499c-2.369-7.573-4.315-12.944-5.403-17.364l-30.124 12.136Z"/>
  <path fill="#EB9124" d="m99.011 149.029-11.59-13.188a3.076 3.076 0 0 1 .28-4.341 3.076 3.076 0 0 1 4.342.278l11.59 13.185a3.08 3.08 0 0 1-4.622 4.066Zm-9.869 40.369-18.295 2.442a3.077 3.077 0 0 1-.814-6.098l18.295-2.442a3.076 3.076 0 1 1 .814 6.098Zm-5.495 58.992a3.077 3.077 0 0 1-.924-4.253 100.488 100.488 0 0 1 11.79-14.982 3.075 3.075 0 0 1 4.35-.102 3.076 3.076 0 0 1 .102 4.349A94.345 94.345 0 0 0 87.9 247.466a3.076 3.076 0 0 1-4.252.924Zm59.518-110.085a3.076 3.076 0 0 1-2.947-3.201 117.068 117.068 0 0 0-1.511-24.141 3.078 3.078 0 0 1 6.069-1.019 123.24 123.24 0 0 1 1.59 25.413 3.078 3.078 0 0 1-3.201 2.948Zm23.636 18.937a3.076 3.076 0 0 1 1.172-4.19l17.398-9.794a3.077 3.077 0 1 1 3.019 5.362l-17.398 9.793a3.078 3.078 0 0 1-4.191-1.171Zm41.742 42.788c-.269.06-.551.085-.839.068a96.592 96.592 0 0 1-20.355-3.312 3.077 3.077 0 0 1 1.632-5.933 90.523 90.523 0 0 0 19.055 3.102 3.075 3.075 0 0 1 2.906 3.238 3.08 3.08 0 0 1-2.399 2.837Z"/>
  <path fill="#F79C8D" d="m581.298 296.031-3.406-2.982-4.386 1.115a.622.622 0 0 1-.724-.848l1.782-4.16-2.416-3.828a.622.622 0 0 1 .583-.951l4.509.41 2.891-3.48a.624.624 0 0 1 1.088.26l1.001 4.414 4.202 1.676a.62.62 0 0 1 .09 1.112l-3.885 2.318-.296 4.517a.625.625 0 0 1-1.033.427Z"/>
  <path fill="#fff" d="m199.882 124.213-3.405-2.982-4.387 1.117a.623.623 0 0 1-.725-.85l1.784-4.158-2.416-3.827a.623.623 0 0 1 .582-.953l4.508.41 2.893-3.481a.622.622 0 0 1 1.085.261l1.003 4.414 4.204 1.677a.622.622 0 0 1 .088 1.112l-3.888 2.316-.295 4.519a.622.622 0 0 1-1.031.425Zm47.164 65.088-4.057-3.554-5.227 1.331a.742.742 0 0 1-.864-1.012l2.125-4.955-2.878-4.563a.74.74 0 0 1 .694-1.132l5.37.489 3.448-4.147a.741.741 0 0 1 1.293.31l1.194 5.259 5.01 1.996a.743.743 0 0 1 .104 1.327l-4.632 2.761-.352 5.381a.742.742 0 0 1-1.228.509Z"/>
  <path fill="#F8A492" d="M399.574 265.137c2.911-1.981 7.67-4.443 7.446-7.075-.225-2.633-6.55-9.183-6.55-9.183-4.481 2.857-7.952 10.974-7.952 10.974l7.056 5.284Z"/>
  <path fill="#233F75" d="M349.014 480.8h-27.673l1.063-4.597-7.542-33.599-10.675-66.416 33.862-9.697 8.955 23.201s5.845 55.362 2.442 88.507c-.074.722-.222 1.595-.432 2.601Z"/>
  <path fill="#2B549E" d="m282.209 480.8 1.641-4.645 3.311-82.622 7.685-25.831 38.867.796 1.069 20.503-19.655 91.799h-32.918Z"/>
  <path fill="#fff" d="m329.847 274.766 39.411 22.769 23.087-39.985 9.6 7.587s-13.927 53.233-21.06 57.705c-9.083 5.691-42.359-6.612-42.359-6.612l-8.679-41.464Z"/>
  <path fill="#5A3761" d="M299.09 272.944s-13.015 1.646-16.054 3.878c-3.423 2.513-14.022 14.237-14.022 14.237s22.062 63.194 21.206 74.437c-.853 11.244-3.272 27.895-3.272 27.895s42.839 2.703 59.064-3.699c0 0-5.123-25.478-5.123-32.167s-7.531-72.633-9.581-76.135c-2.047-3.502-15.402-8.833-15.402-8.833l-16.816.387Z"/>
  <path fill="#fff" d="M357.903 442.953c.276-1.344-8.801-65.104-8.986-67.364-1.837-22.459-10.251-90.722-18.146-100.209-.95-.881-3.301-1.617-5.879-1.936-4.33-.529-8.986-.887-8.986-.887s5.509 4.356 6.822 6.215c5.885 8.324 8.287 17.978 9.587 28.269 3.766 29.845 7.192 138.678 8.528 139.162 1.496.537 16.452-.27 17.06-3.25Z"/>
  <path fill="#B75742" d="M302.297 215.097s-7.841-5.299-11.156 3.986c.026-.074-2.769-.048-3.147.079-1.612.546-3.17 2.226-4.608 3.148-5.12 3.277-7.481 9.645-7.76 15.493-.338 7.099 2.596 12.287 7.263 17.413 1.375 1.512 2.845 2.985 4.648 3.951 2.171 1.163 3.889.239 5.93.734 1.72.418 2.325 2.231 4.352 1.578 2.843-.919 5.828-4.478 9.35-3.952 3.523.526 11.65-2.641 11.67-2.65 10.445-4.071 3.392-24.281 1.391-31.456-1.882-6.743-11.474-10.763-17.933-8.324Z"/>
  <path fill="#F7A491" d="m311.729 261.021 2.715 7.4 1.462 4.136s.099 7.403-1.627 9.322c-2.97 3.301-15.189-8.935-15.189-8.935l-3.872-23.28 16.511 11.357Z"/>
  <path fill="#F47458" d="M296.475 257.209c4.648 7.206 12.653 10.498 17.995 11.28l-2.741-7.468-16.511-11.357 1.257 7.545Z"/>
  <path fill="#F7A491" d="M298.393 225.752c6.221-3.806 14.388-.918 16.947 5.797a88.334 88.334 0 0 1 3.349 10.754c2.385 9.939-.637 20.79-5.169 21.788-4.528 1.001-18.478-2.692-22.057-16.756-2.212-8.682.4-17.591 6.93-21.583Z"/>
  <path fill="#F7A491" d="M295.047 247.719c.487 2.2-.58 4.307-2.379 4.705-1.8.398-3.653-1.066-4.139-3.266-.486-2.201.58-4.307 2.379-4.705 1.8-.398 3.653 1.066 4.139 3.266Z"/>
  <path fill="#fff" d="M299.09 272.944s-19.03 1.876-23.868 5.055c-3.077 2.024-.669 24.562-.669 24.562s4.355 34.049 3.75 51.248a160.379 160.379 0 0 1-.247 4.904c-1.691 25.888-15.526 87.871-14.321 88.965 7.793 4.35 50.32 4.174 50.812.734 4.159-29.126-15.457-175.468-15.457-175.468Z"/>
  <path fill="#D5DCE8" d="M278.341 352.419c-.009.475-.022.938-.038 1.39a161.776 161.776 0 0 1-.241 4.825l25.898-12.065-25.619 5.85Z"/>
  <path fill="#F8A492" d="M331.868 327.513c-.884.406-2.331 1.117-3.295 1.765-1.043.7-2.22 1.018-3.184 1.476-1.91.912-3.295 1.597-3.286 1.501.009-.125-.492-.208.461-.864 1.145-.791 3.943-1.948 5.54-3.238.907-.731 2.891-2.147 2.891-2.147s2.61-2.681 2.505-2.88c-.56-1.077-2.851.273-3.954 1.419-1.075.387-3.119 1.933-3.119 1.933s-4.824 2.232-5.137 1.569c-.131-.281 2.669-1.993 5.163-4.091 2.314-1.95 4.341-4.284 4.031-4.781-.52-.847-3.318 1.052-3.318 1.052s-1.888 1.43-2.553 1.859c-.776.503-3.215 1.836-3.215 1.836s-8.699 4.262-8.938 3.611c-.242-.651-.173-2.587.279-3.031.452-.446 1.617-.952 2.152-1.293.699-.447 1.774-1.578 1.279-2.152-.498-.575-4.603.955-4.603.955s-2.428 1.117-3.516 2.604c-3.776 5.157-2.775 5.552-3.275 6.2-.594.768-12.805 5.225-12.805 5.225s-36.656 9.095-38.619 9.752l4.875 14.785c2.256-.315 43.282-16.75 47.444-18.697 0 0 5.785-.54 9.41-.995 3.622-.458 6.9-2.476 7.903-2.761.151-.039 3.446-1.174 7.156-3.624 3.198-2.113-.773-1.527-.773-1.527s-6.61 2.883-6.735 2.334c-.097-.421 3.599-1.788 7.161-4.091.915-.591 1.819-1.177 2.644-1.725 2.163-1.43 1.927-3.128-.569-1.979Z"/>
  <path fill="#fff" d="M276.839 277.228s-6.163.847-11.479 8.478c-5.316 7.624-17.039 40.513-20.701 53.099-3.698 12.713-1.821 19.775 6.5 21.853 8.32 2.081 52.801-14.089 52.801-14.089l-4.162-15.255s-29.468 6.518-30.509 6.01l9.245-15.949s7.243-25.81-1.695-44.147Z"/>
  <path fill="#B75742" d="M309.202 251.193s-5.97 1.95-6.459 4.142c-.486 2.195.245 5.362 3.17 7.801 2.925 2.436 9.179.932 10.885-.407 1.706-1.341 3.005-7.027 1.299-10.197-1.705-3.167-8.895-1.339-8.895-1.339Z"/>
  <path fill="#F7A491" d="M307.252 255.782s.037 2.444.853 2.885c.793.426 1.794.785 2.723.873 1.501.142 2.857-.498 3.648-1.658.079-.113.15-.23.21-.352.608-1.22.731-3.372.731-3.372s-2.519-.611-3.98-.366c-1.462.244-4.185 1.99-4.185 1.99Z"/>
  <path fill="#373D43" d="M485.285 283.848v-52.825c0-.449-.181-.888-.498-1.205a1.72 1.72 0 0 0-1.204-.498h-35.185v3.405h33.482v51.123h3.405Z"/>
  <g filter="url(#b)">
    <path fill="#373D43" d="M378.812 167.922s11.425 30.97 16.837 49.611c5.411 18.641 8.718 53.519 8.718 57.727v15.335s20.445-8.118 50.51-7.216c30.064.902 65.542 4.51 65.542 4.51l-5.413-50.212-10.521-46.303-9.321-44.799s-92.6 19.543-116.352 21.347Z"/>
  </g>
  <path fill="#373D43" d="m378.812 167.922-.532.197s.178.482.5 1.366c2.259 6.175 11.598 31.927 16.324 48.205 2.691 9.264 4.87 22.632 6.37 34.192a457.022 457.022 0 0 1 1.728 15.258c.394 4.141.599 7.121.598 8.12v15.335a.568.568 0 0 0 .777.528l.204-.079c2.072-.784 19.747-7.169 45.429-7.167 1.523 0 3.073.022 4.65.069 15.017.45 31.396 1.578 44.017 2.592 6.31.506 11.682.985 15.476 1.338 1.897.176 3.4.321 4.428.42 1.027.101 1.58.157 1.58.157a.57.57 0 0 0 .622-.625l-5.412-50.212-.011-.064-10.521-46.299-9.319-44.794a.561.561 0 0 0-.673-.439c-.004 0-1.446.305-4.024.843-9.022 1.882-31.907 6.613-55.129 11.07-23.216 4.456-46.8 8.64-57.125 9.423a.568.568 0 0 0-.489.763l.532-.197.043.566c11.948-.909 41.018-6.246 67.149-11.36 26.123-5.112 49.277-9.998 49.277-9.998l-.117-.555-.555.115 9.321 44.8.001.01 10.514 46.271 5.41 50.178.564-.06.058-.565c-.008 0-35.489-3.61-65.583-4.512a155.153 155.153 0 0 0-4.684-.071c-27.595.002-46.007 7.309-46.051 7.326l.208.528h.568V275.26c-.001-1.105-.209-4.062-.604-8.228-1.187-12.482-4.057-35.595-8.137-49.657-5.424-18.678-16.847-49.643-16.85-49.65l-.532.197Z"/>
  <path fill="#777F8C" d="M495.608 278.702c-1.271-.153-4.25-.506-8.179-.922.187-.811.518-2.57.518-4.892 0-3.191-.626-7.457-3.123-11.762-2.495-4.308-6.862-8.631-14.249-11.941-6.767-3.032-11.742-4.819-15.667-5.645l-.227-1.816c1.63.201 3.323.325 4.897.327 1.753-.002 3.35-.151 4.579-.556.614-.205 1.144-.475 1.551-.865.406-.385.667-.928.661-1.521l-.001-.149c3.988 2.078 9.498 5.259 11.352 7.814.642 1.672.936 2.872.94 2.889l-.001-.004a1.702 1.702 0 0 0 1.655 1.308h.034l.033-.004.263-.031.029-.004c1.29 1.453 2.607 2.446 3.636 2.446.548 0 1.016-.282 1.353-.928.886-1.697.505-10.656.049-20.078a1.697 1.697 0 0 0 .638-1.329 1.694 1.694 0 0 0-.505-1.21c-.034-.033-.125-.123-.269-.259a663.5 663.5 0 0 1-.408-9.347 1.71 1.71 0 0 0 1.048.361h.004c.421 0 .849-.158 1.177-.475v.001a1.69 1.69 0 0 0 .523-1.228 1.688 1.688 0 0 0-.473-1.178c-.126-.132-.994-1.025-2.39-2.213a120.873 120.873 0 0 0-.262-6.467c.45-.012.9-.206 1.223-.571h-.001a1.704 1.704 0 0 0-.139-2.403 25.358 25.358 0 0 0-1.45-1.173c-.321-2.936-.793-5.977-1.478-8.934l.025.001h.003a1.7 1.7 0 0 0 1.536-.977l-.001.001a1.702 1.702 0 0 0-.809-2.267l.001.001-.001-.001c-.06-.027-.721-.331-1.833-.743-.813-2.586-1.825-5.029-3.086-7.185.144.037.291.055.435.055h.001a1.704 1.704 0 0 0 1.701-1.702c0-.722-.461-1.389-1.183-1.621a16.247 16.247 0 0 0-.934-.257 68.832 68.832 0 0 1 3.517-1.093c5.04-1.423 9.983-2.206 13.105-2.206h.012a1.7 1.7 0 0 0 1.338-.65l6.521 32.611-11.555 2.311 3.866 66.481Zm-71.832-.008c-.676-2.825-3.915-16.331-5.307-21.207-1.558-5.449-10.08-32.569-10.081-32.573l-.12-.377-7.081-.352-8.186-35.975a210.25 210.25 0 0 0 10.06-4.673c2.723-1.363 5.544-2.87 7.895-4.339 2.353-1.479 4.224-2.875 5.113-4.188 2.491-3.735 3.042-6.528 3.162-7.595l15.259-3.052c.414 2.392 2.484 14.286 3.807 20.528.382 1.804.804 4.06 1.254 6.651-.539-.037-1.293-.093-2.212-.17-1.024-1.57-5.278-7.49-11.214-7.49-2.012 0-4.217.68-6.557 2.441a13.385 13.385 0 0 0-2.027 1.895 50.905 50.905 0 0 1-1.443-.42c-2.71-.835-5.213-1.149-7.445-1.149-6.577.002-10.77 2.722-11.052 2.909h-.001a1.7 1.7 0 0 0-.473 2.361c.327.49.867.758 1.415.758h.004c.324 0 .653-.094.941-.285l.037-.024c.409-.254 3.883-2.304 9.161-2.304h.007c1.913.001 4.065.268 6.404.988l.425.128a20.48 20.48 0 0 0-.228.443c-1.257.525-2.015.935-2.069.962l.003-.001a1.701 1.701 0 0 0-.672 2.312v-.001c.258.469.704.768 1.191.857-.669 2.44-1.038 5.107-1.186 7.863-.66.421-1.036.693-1.075.719l.001-.001-.001.001a1.7 1.7 0 0 0-.359 2.38v.001a1.71 1.71 0 0 0 1.36.692c.037 3.018.287 6.07.651 8.988-.72.805-1.144 1.357-1.221 1.457a1.698 1.698 0 0 0 .325 2.384c.305.234.669.348 1.027.348h.005c.155 0 .311-.022.461-.064.356 2.166.752 4.196 1.141 6.015-1.346 1.65-2.152 2.888-2.26 3.055v-.001a1.702 1.702 0 0 0 1.429 2.624h.005c.557 0 1.105-.278 1.429-.781l.001-.001c.005-.006.119-.182.331-.485a596.2 596.2 0 0 1 1.701 8.893 25.827 25.827 0 0 0-.997 1.341 1.7 1.7 0 0 0 .45 2.366l.001.001c.291.197.626.294.954.294h.005c.108 0 .215-.01.321-.031 1.7 9.175 3.359 17.838 4.539 19.259.354.427.73.618 1.115.618 1.084 0 2.245-1.516 3.218-3.591a1.73 1.73 0 0 0 .186-.41c.491-1.11.926-2.352 1.269-3.594.965-3.488 7.356-9.593 10.491-12.428.471.024.957.075 1.456.155h.001l.276.023h.003c.828 0 1.539-.604 1.673-1.43v-.002l.022-.272c0-.823-.594-1.543-1.43-1.681l-.273-.042v-3.328c.212.227.42.466.628.715a1.7 1.7 0 0 0 1.305.612h.006c.294 0 .592-.077.859-.234a16.97 16.97 0 0 0 2.823 1.535c.153 1.238.3 2.445.441 3.613-1.382.311-2.629.821-3.827 1.479-2.064 1.134-3.989 2.688-6.319 4.442-4.385 3.311-6.69 8.344-7.921 12.527-1.23 4.186-1.382 7.546-1.384 7.575l-.001.037.716 8.599c-2.088.316-3.594.575-4.341.707Zm17.026-69.539a81.495 81.495 0 0 0-.27-5.228c.303.193.604.398.904.615a565.19 565.19 0 0 0-.634 4.613Zm.17-8.915c-.32-.171-.641-.333-.964-.484a38.642 38.642 0 0 0-.491-2.447c.173-.274.263-.591.262-.909a1.69 1.69 0 0 0-.364-1.051h.001a18.819 18.819 0 0 0-.346-.426c.494.033.857.056 1.063.067.274 1.661.554 3.418.839 5.25Zm11.041-4.067a16.542 16.542 0 0 0-1.674-1.185c-.476-.29-.958-.548-1.443-.76h.062l.029-.003.24-.025.029-.003.031-.007c.154-.034 1.349-.295 3.164-.813.007.747.04 1.501.092 2.258-.178.175-.355.354-.53.538Zm-4.203-4.931-3.39-18.052-1.205-10.571 13.839-2.769 1.502 5.261 37.177 6.971.535 2.677a1.698 1.698 0 0 0-.83-.215c-3.445.002-8.675.841-14.053 2.358a68.209 68.209 0 0 0-7.132 2.433 14.18 14.18 0 0 0-3.771-2.197c-1.774-.689-3.394-.985-4.867-.985-8.939 0-12.494 10.893-12.494 10.893a21.63 21.63 0 0 0-.489 2.715c-2.408.739-4.034 1.097-4.063 1.1h.003a1.691 1.691 0 0 0-.762.381Z"/>
  <path fill="#777F8C" d="m422.922 280.006-.126-.527a1645.372 1645.372 0 0 0-2.13-8.813c-1.162-4.745-2.52-10.174-3.289-12.867-1.157-4.051-6.246-20.339-8.716-28.221l-1.238-3.947-7.152-.355-8.588-37.74.438-.185c.002-.001.704-.298 1.872-.814 1.169-.517 2.8-1.25 4.648-2.12 3.695-1.739 8.262-4.023 11.714-6.181 2.298-1.428 4.108-2.842 4.77-3.856 2.845-4.269 2.995-7.152 3.005-7.419v-.483l39.727-7.946 1.598 5.593 37.24 6.983 7.937 39.693-11.699 2.339 3.887 66.856-.676-.084c-.005-.001-1.598-.2-4.244-.501-2.645-.299-6.337-.7-10.518-1.1-8.363-.8-18.692-1.599-26.518-1.599a83.57 83.57 0 0 0-4.355.102c-8.853.466-16.87 1.495-21.838 2.237l.18-.04c.002 0 .156-.037.474-.101 2.222-.452 12.182-2.283 27.814-2.283h.002c8.336 0 18.288.521 29.543 2.048l.481.065.138-.465c.004-.01.055-.183.126-.495 3.93.416 6.908.769 8.179.922l-3.866-66.481 11.555-2.311-6.521-32.611a1.704 1.704 0 0 0-.508-2.54l-.535-2.677-37.177-6.971-1.502-5.261-13.839 2.769-.108-.945-8.784 1.718.094.547.073.424-15.259 3.052c-.12 1.067-.671 3.86-3.162 7.595-.889 1.313-2.76 2.709-5.113 4.188-2.35 1.469-5.172 2.976-7.895 4.339a210.25 210.25 0 0 1-10.06 4.673l8.186 35.975 7.081.352.12.377c.001.004 8.523 27.124 10.081 32.573 1.392 4.876 4.631 18.382 5.307 21.207.747-.132 2.253-.391 4.341-.707l.094 1.134c-1.016.154-1.889.294-2.602.412-1.388.229-2.153.373-2.156.373l-.531.1Z"/>
  <path fill="#373D43" d="M437.576 191.75s-7.717-13.178-18.008-5.427c-10.29 7.752-7.074 29.458-4.502 41.087 2.573 11.627 5.788 33.333 7.718 35.659 1.929 2.325 4.502-2.326 5.788-6.978 1.287-4.65 12.219-13.953 12.219-13.953v-24.031c0-6.977.644-18.605-3.215-26.357Z"/>
  <path fill="#ABAFB8" d="M412.483 206.271a.564.564 0 0 1-.554-.567.564.564 0 0 1 .23-.457h.001c.008-.007.126-.095.343-.242-.011.421-.018.843-.02 1.266Zm28.929-3.126a18.463 18.463 0 0 0-1.02-.629 48.832 48.832 0 0 0-.174-1.39c.326.17.652.35.975.542l.217 1.42.002.057Z"/>
  <path fill="#777F8C" d="m412.497 206.272-.014-.001c.002-.423.009-.845.02-1.266 1.71-1.16 9.565-6.107 18.272-6.107h.038c3.099.003 6.3.615 9.405 2.229.065.46.122.925.174 1.389-3.154-1.809-6.463-2.493-9.626-2.493h-.012c-9.507.016-17.753 6.025-17.921 6.138a.564.564 0 0 1-.336.111Z"/>
  <path fill="#ABAFB8" d="M412.486 207.407a1.71 1.71 0 0 1-1.36-.692v-.001a1.7 1.7 0 0 1 .359-2.38c.039-.026.415-.298 1.075-.719-.025.461-.043.925-.057 1.39a8.876 8.876 0 0 0-.343.242h-.001a.564.564 0 0 0-.119.793.564.564 0 0 0 .443.231c-.003.378-.002.755.003 1.136Zm28.95-2.865a18.51 18.51 0 0 0-.904-.615 66.687 66.687 0 0 0-.14-1.411c.342.196.682.405 1.02.629.015.361.035.734.064 1.121l-.04.276Zm-.243-2.874a20.055 20.055 0 0 0-.975-.542 41.09 41.09 0 0 0-.21-1.37c.323.151.644.313.964.484.074.471.147.948.221 1.428Z"/>
  <path fill="#777F8C" d="M412.495 207.407h-.009a53.826 53.826 0 0 1-.003-1.136l.014.001v1.135h-.002Zm.005 0h-.003v-1.135a.565.565 0 0 0 .336-.112c.168-.112 8.414-6.121 17.921-6.137h.012c3.163 0 6.472.683 9.626 2.493.052.47.098.94.14 1.411-3.181-2.024-6.531-2.766-9.778-2.769h-.038c-9.006 0-17.148 5.859-17.209 5.916a1.695 1.695 0 0 1-1.007.333Z"/>
  <path fill="#ABAFB8" d="m411.485 204.334.002-.001-.002.001Z"/>
  <path fill="#777F8C" d="M412.503 205.005c.014-.465.032-.929.057-1.39 2.673-1.704 9.99-5.838 18.253-5.852h.012c3.002 0 6.134.56 9.183 1.993.077.454.148.911.21 1.37-3.105-1.614-6.306-2.225-9.405-2.228h-.038c-8.707 0-16.562 4.947-18.272 6.107Z"/>
  <path fill="#ABAFB8" d="M413.27 219.448a.56.56 0 0 1-.566-.567c0-.12.036-.237.116-.342.038-.051.215-.281.516-.64.069.497.142.989.217 1.476a.571.571 0 0 1-.283.073Z"/>
  <path fill="#777F8C" d="M413.553 219.375a100.38 100.38 0 0 1-.217-1.476 35.106 35.106 0 0 1 4.596-4.523c3.055-2.495 7.236-4.969 11.869-5.217.263-.014.522-.021.782-.021 3.479.002 6.765 1.28 9.844 3.87l-.174 1.354c-2.987-2.693-6.256-4.087-9.699-4.087h-.01c-.223 0-.446.006-.671.017h-.001c-4.489.248-8.488 2.728-11.388 5.123-2.902 2.403-4.704 4.737-4.762 4.811l.001-.001a.573.573 0 0 1-.17.15Z"/>
  <path fill="#ABAFB8" d="M413.273 220.584h-.003v-1.135a.572.572 0 0 0 .283-.074c.059.385.119.767.182 1.145a1.728 1.728 0 0 1-.462.064Zm-.005 0c-.357 0-.722-.114-1.027-.348a1.698 1.698 0 0 1-.325-2.384c.077-.1.501-.652 1.222-1.457.062.505.129 1.007.198 1.504-.301.359-.478.589-.516.64a.567.567 0 0 0 .45.91v1.135h-.002Z"/>
  <path fill="#777F8C" d="M413.734 220.52c-.062-.378-.122-.76-.181-1.145a.56.56 0 0 0 .17-.15l-.001.001c.058-.074 1.86-2.408 4.762-4.811 2.9-2.395 6.899-4.875 11.388-5.123h.001c.225-.011.448-.017.671-.017h.01c3.443 0 6.712 1.394 9.699 4.087l-.134 1.077-.039.317c-3.005-2.922-6.187-4.344-9.536-4.346-.204 0-.408.005-.612.016h.001c-4.095.213-7.926 2.541-10.726 4.864-2.799 2.314-4.568 4.605-4.58 4.623l-.002.001a1.69 1.69 0 0 1-.891.606Zm-.398-2.621a109.64 109.64 0 0 1-.199-1.504 36.697 36.697 0 0 1 4.077-3.899c3.159-2.573 7.522-5.194 12.526-5.471.282-.014.563-.022.843-.022h.012c3.55 0 6.914 1.253 10.003 3.681l-.171 1.324c-3.079-2.59-6.365-3.868-9.844-3.87-.26 0-.52.007-.782.021-4.633.248-8.814 2.722-11.869 5.217a35.105 35.105 0 0 0-4.596 4.523Z"/>
  <path fill="#ABAFB8" d="M414.046 231.078a.566.566 0 0 1-.476-.874v-.001a33.05 33.05 0 0 1 1.617-2.239c.104.476.209.969.314 1.474-.61.816-.955 1.345-.977 1.379a.563.563 0 0 1-.478.261Z"/>
  <path fill="#777F8C" d="M415.501 229.438c-.105-.505-.21-.998-.314-1.474a39.962 39.962 0 0 1 3.489-3.921c3.026-2.974 7.138-5.904 11.546-6.179h.002c.24-.016.481-.023.719-.023 2.967.003 5.761 1.214 8.361 3.691-.052.495-.1.982-.147 1.459-2.495-2.625-5.276-4.015-8.23-4.015h-.007c-.205 0-.413.007-.62.021-4.313.289-8.201 3.251-11.056 6.1a40.793 40.793 0 0 0-3.743 4.341Z"/>
  <path fill="#ABAFB8" d="M414.049 232.213h-.004v-1.135a.566.566 0 0 0 .479-.261c.022-.034.367-.563.976-1.379.103.49.206.993.31 1.507-.212.304-.327.479-.331.486l-.001.001a1.702 1.702 0 0 1-1.429.781Zm-.005 0a1.702 1.702 0 0 1-1.429-2.624v.001c.108-.167.914-1.405 2.26-3.055l.191.875c.041.181.08.366.121.554a32.764 32.764 0 0 0-1.617 2.239v.001a.563.563 0 0 0 .475.874v1.135h-.001Z"/>
  <path fill="#777F8C" d="M415.81 230.945c-.104-.514-.207-1.017-.309-1.507a40.676 40.676 0 0 1 3.743-4.341c2.855-2.849 6.743-5.811 11.056-6.1.207-.014.415-.021.62-.021h.007c2.954 0 5.735 1.39 8.23 4.015-.05.528-.098 1.043-.141 1.54-2.55-2.984-5.26-4.417-8.096-4.42-.181 0-.363.007-.547.019-3.819.231-7.564 2.994-10.326 5.769a39.604 39.604 0 0 0-4.237 5.046Zm-.623-2.981c-.041-.188-.08-.373-.121-.554l-.191-.875a40.785 40.785 0 0 1 3.007-3.302c3.122-3.055 7.399-6.178 12.268-6.502l-.001.001c.265-.018.53-.027.794-.027h.01c3.041 0 5.905 1.175 8.499 3.427-.052.471-.101.94-.149 1.4-2.599-2.477-5.393-3.688-8.36-3.691-.238 0-.479.007-.719.023h-.002c-4.408.275-8.52 3.205-11.546 6.179a39.962 39.962 0 0 0-3.489 3.921Z"/>
  <path fill="#ABAFB8" d="M417.92 242.706a.556.556 0 0 1-.317-.098h.001a.564.564 0 0 1-.151-.789c.029-.044.144-.211.336-.473l.249 1.347a.576.576 0 0 1-.118.013Z"/>
  <path fill="#777F8C" d="m418.038 242.693-.249-1.347a35.516 35.516 0 0 1 4.4-4.913c2.81-2.593 6.626-5.135 10.727-5.327h.001c.185-.01.369-.014.551-.014 2.058.002 4.013.59 5.871 1.782a9.84 9.84 0 0 0 1.223 2.384c-2.188-1.987-4.59-3.03-7.125-3.03h-.007c-.152 0-.305.005-.459.011-3.998.207-7.593 2.769-10.227 5.241-2.633 2.481-4.302 4.903-4.353 4.978v-.001a.556.556 0 0 1-.353.236Z"/>
  <path fill="#ABAFB8" d="M417.924 243.841h-.004v-1.135c.04 0 .08-.005.118-.013l.207 1.117a1.647 1.647 0 0 1-.321.031Zm-.005 0c-.328 0-.663-.097-.954-.294l-.001-.001a1.705 1.705 0 0 1-.45-2.366c.066-.096.412-.599.997-1.341l.278 1.507c-.192.262-.307.429-.336.473a.564.564 0 0 0 .151.789h-.001a.556.556 0 0 0 .317.098v1.135h-.001Zm24.805-5.427a1.7 1.7 0 0 1-1.305-.612 17.228 17.228 0 0 0-.628-.715v-1.515c.298.392.62.758.964 1.1.563.562 1.18 1.062 1.834 1.508a1.696 1.696 0 0 1-.859.234h-.006Z"/>
  <path fill="#777F8C" d="m418.245 243.81-.207-1.117a.556.556 0 0 0 .353-.236v.001c.051-.074 1.72-2.497 4.353-4.978 2.634-2.472 6.229-5.034 10.227-5.24.154-.007.307-.012.459-.012h.007c2.535 0 4.937 1.043 7.125 3.03.075.106.151.211.229.314v1.515c-2.323-2.514-4.784-3.721-7.361-3.724a9.07 9.07 0 0 0-.403.01c-3.526.162-6.968 2.536-9.506 4.933-2.537 2.389-4.176 4.768-4.191 4.789v.001a1.705 1.705 0 0 1-1.085.714Zm-.456-2.464-.278-1.507a36.557 36.557 0 0 1 3.91-4.24c2.909-2.674 6.899-5.397 11.44-5.626h-.001c.203-.012.406-.016.608-.016h.013c1.904 0 3.726.465 5.449 1.369.099.541.236 1.058.409 1.548-1.858-1.192-3.813-1.78-5.871-1.782-.182 0-.366.005-.551.014h-.001c-4.101.193-7.917 2.734-10.727 5.328a35.465 35.465 0 0 0-4.4 4.912Z"/>
  <path fill="#ABAFB8" d="m440.796 242.707-.097-.008a13.202 13.202 0 0 0-.474-.069c.36-.316.566-.492.566-.492v-.574l.091.014a.57.57 0 0 1 .477.56l-.008.092a.56.56 0 0 1-.555.477Z"/>
  <path fill="#777F8C" d="m425.679 259.76-.035-.001a.566.566 0 0 1-.537-.565v-.024c.008-.192.131-2.864.997-6.072.862-3.212 2.475-6.94 5.367-9.296 1.981-1.615 4.306-2.422 7.01-2.425.742 0 1.513.062 2.311.187v.574s-.207.176-.567.492a13.412 13.412 0 0 0-1.719-.115h-.014c-2.404 0-4.542.727-6.298 2.161-2.793 2.29-4.246 5.902-5.04 8.938-.792 3.039-.908 5.524-.913 5.599v.002a.568.568 0 0 1-.562.545Z"/>
  <path fill="#ABAFB8" d="M427.117 260.096c.063-.135.125-.271.186-.41a1.73 1.73 0 0 1-.186.41Zm13.682-16.254h-.003l-.276-.023h-.001c-.499-.08-.985-.131-1.456-.155a93.5 93.5 0 0 1 1.162-1.034c.157.02.316.043.475.069l.096.008a.56.56 0 0 0 .555-.477l.008-.092a.57.57 0 0 0-.477-.56l-.091-.014v-1.149l.273.042c.836.138 1.43.858 1.43 1.681l-.022.272v.002a1.699 1.699 0 0 1-1.673 1.43Z"/>
  <path fill="#777F8C" d="M425.676 260.895h-.007l-.057-.001h-.008a1.702 1.702 0 0 1-1.632-1.7l.001-.072v.002c.01-.247.136-2.988 1.035-6.322.9-3.329 2.564-7.273 5.745-9.878 2.173-1.78 4.787-2.682 7.714-2.682h.014c.75 0 1.521.059 2.31.173v1.149a14.916 14.916 0 0 0-2.31-.187c-2.704.003-5.029.81-7.01 2.425-2.892 2.356-4.505 6.084-5.367 9.296-.866 3.208-.989 5.88-.997 6.072v.024a.566.566 0 0 0 .537.565l.035.001a.568.568 0 0 0 .562-.545v-.002c.004-.075.121-2.56.912-5.599.795-3.037 2.248-6.648 5.041-8.938 1.756-1.434 3.894-2.161 6.298-2.161h.014c.558 0 1.131.039 1.719.115a93.5 93.5 0 0 0-1.162 1.034 11.633 11.633 0 0 0-.557-.014c-2.188.004-4.035.638-5.595 1.906-2.485 2.019-3.903 5.42-4.66 8.344-.76 2.919-.875 5.341-.876 5.364v-.001a1.695 1.695 0 0 1-.072.423 19.45 19.45 0 0 1-.186.41 1.703 1.703 0 0 1-1.441.799Z"/>
  <path fill="#ABAFB8" d="M414.049 194.644a.567.567 0 0 1-.498-.294l-.003-.004.002.003-.071-.272a.571.571 0 0 1 .295-.499l.004-.002v.001c.009-.007.303-.165.826-.411-.19.478-.366.97-.527 1.47l-.028.008Z"/>
  <path fill="#777F8C" d="M438.078 196.969a.565.565 0 0 1-.448-.217 13.946 13.946 0 0 0-2.031-2.109c.669.061 1.285.114 1.834.158.373.386.737.801 1.09 1.25h.001c.081.105.12.225.12.349 0 .17-.074.335-.217.447l-.012.011.013-.011a.567.567 0 0 1-.35.122Zm-24.001-2.333c.161-.5.337-.992.527-1.47a32.208 32.208 0 0 1 3.337-1.323c.714.179 1.439.35 2.17.511-3.345.899-5.702 2.174-5.786 2.216l-.004.002-.003.002-.241.062Z"/>
  <path fill="#ABAFB8" d="M439.517 197.309a30.221 30.221 0 0 0-.667-2.401l.22.015c.117.139.231.281.346.426h-.001c.245.31.365.685.364 1.051.001.318-.088.635-.262.909Zm-25.771-1.557a1.705 1.705 0 0 1-1.191-.857v.001a1.701 1.701 0 0 1 .672-2.312l-.003.001c.054-.027.812-.437 2.069-.962a20.116 20.116 0 0 0-.689 1.543c-.523.246-.817.404-.826.411v-.001l-.004.002a.571.571 0 0 0-.295.499l.071.272-.002-.003.003.004a.567.567 0 0 0 .498.294l.028-.008a25.8 25.8 0 0 0-.331 1.116Z"/>
  <path fill="#777F8C" d="M438.074 198.104c-.5 0-1.002-.225-1.336-.652-1.035-1.314-2.187-2.304-3.407-3.034.808.085 1.566.16 2.268.225a14 14 0 0 1 2.032 2.109.562.562 0 0 0 .447.217v1.135h-.004Zm.006 0h-.002v-1.135a.567.567 0 0 0 .35-.122l-.013.011.012-.011a.563.563 0 0 0 .217-.447.564.564 0 0 0-.12-.349h-.001a16.24 16.24 0 0 0-1.09-1.25 187.7 187.7 0 0 0 1.416.107c.254.779.475 1.582.668 2.401a1.695 1.695 0 0 1-1.437.795Zm-24.033-2.325c-.101 0-.202-.009-.301-.027a25.8 25.8 0 0 1 .331-1.116l.241-.062.003-.002.004-.002c.084-.042 2.441-1.317 5.786-2.216.909.199 1.827.386 2.744.558-4.333.728-7.803 2.552-7.986 2.654a1.684 1.684 0 0 1-.82.213h-.002Zm.557-2.613c.211-.53.44-1.044.689-1.543.228-.095.473-.194.732-.295.626.179 1.268.351 1.916.515a32.208 32.208 0 0 0-3.337 1.323Zm19.783-2.07c-3.229-.331-7.352-.85-11.393-1.628a24.408 24.408 0 0 1 3.335-.244h.039c2.642 0 5.428.503 8.019 1.872Z"/>
  <path fill="#373D43" d="M453.121 187.046s4.822-14.778 17.361-9.908c12.538 4.871 14.441 26.765 14.579 38.712.138 11.947 2.041 33.841.601 36.596-1.438 2.753-5.228-1.098-7.684-5.279-2.456-4.183-16.034-10.392-16.034-10.392l-5.798-23.322c-1.684-6.77-5.156-17.889-3.025-26.407Z"/>
  <path fill="#ABAFB8" d="m482.974 194.809-.244-.056.003.001-.081-.036a58.68 58.68 0 0 0-.372-1.388c.59.236.921.389.935.397h.002c.206.096.324.3.325.513l-.056.242v.002a.566.566 0 0 1-.512.325Z"/>
  <path fill="#777F8C" d="M453.696 197.698a19.64 19.64 0 0 0-.818-.786c4.651-4.853 10.476-6.294 15.833-6.298h.023c6.046 0 11.441 1.877 13.546 2.716.129.46.253.921.372 1.388-.774-.347-6.841-2.975-13.906-2.981h-.025c-5.043 0-10.631 1.376-15.025 5.961Z"/>
  <path fill="#ABAFB8" d="M452.631 196.692a20.196 20.196 0 0 0-.618-.519c.175-.184.352-.363.53-.538.025.352.053.704.088 1.057Zm30.346-.748h-.003l-.025-.001c-.095-.41-.194-.819-.297-1.225l.081.036-.003-.001.244.056a.565.565 0 0 0 .512-.325v-.002l.056-.242a.567.567 0 0 0-.325-.513h-.002a17.841 17.841 0 0 0-.935-.397c-.131-.461-.267-.92-.41-1.372 1.112.412 1.773.716 1.833.743a1.705 1.705 0 0 1 .809 2.267l.001-.001a1.7 1.7 0 0 1-1.536.977Z"/>
  <path fill="#777F8C" d="M454.467 198.535a10.174 10.174 0 0 0-.349-.396 15.876 15.876 0 0 0-.422-.441c4.394-4.585 9.982-5.961 15.025-5.961h.025c7.065.006 13.132 2.634 13.906 2.981.103.406.202.815.297 1.225a1.692 1.692 0 0 1-.702-.164h-.002c-.055-.03-6.313-2.907-13.476-2.907h-.023c-4.879.004-10.134 1.307-14.279 5.663Z"/>
  <path fill="#ABAFB8" d="M483.705 192.702s-.002 0-.002-.002l.002.002Z"/>
  <path fill="#777F8C" d="M452.878 196.912a25.951 25.951 0 0 0-.248-.22 42.188 42.188 0 0 1-.087-1.057c4.822-4.728 10.784-6.156 16.143-6.156h.025c5.606.003 10.591 1.527 13.159 2.479.143.452.279.911.41 1.372-2.105-.839-7.5-2.716-13.546-2.716h-.023c-5.357.004-11.182 1.445-15.833 6.298Z"/>
  <path fill="#ABAFB8" d="m484.745 207.889-.035-.001c-.038-.476-.08-.958-.124-1.443.308.251.493.415.536.453a.562.562 0 0 1 .189.425.558.558 0 0 1-.143.377.56.56 0 0 1-.423.189Z"/>
  <path fill="#777F8C" d="M484.71 207.888a.564.564 0 0 1-.343-.142c-.102-.091-1.999-1.747-4.888-3.413-2.914-1.675-6.83-3.363-10.93-3.367-.644 0-1.291.042-1.938.133-3.258.455-6.13 2.126-8.535 4.905-.12-.42-.251-.843-.39-1.267 2.516-2.716 5.445-4.293 8.777-4.763a15.277 15.277 0 0 1 2.107-.144h.012c4.21 0 8.27 1.678 11.313 3.412a34.985 34.985 0 0 1 4.691 3.203c.044.485.086.967.124 1.443Z"/>
  <path fill="#ABAFB8" d="M484.794 209.024c-.026-.376-.055-.754-.084-1.136a.56.56 0 0 0 .458-.188.56.56 0 0 0 .143-.377.562.562 0 0 0-.189-.425c-.043-.038-.228-.202-.536-.453a99.173 99.173 0 0 0-.159-1.568c.845.64 1.356 1.09 1.45 1.173a1.704 1.704 0 0 1 .139 2.403h.001a1.695 1.695 0 0 1-1.223.571Z"/>
  <path fill="#777F8C" d="M484.748 209.024h-.006c-.4 0-.805-.143-1.129-.429l-.003-.002-.001-.001c-.009-.011-1.883-1.656-4.697-3.275-2.812-1.623-6.571-3.216-10.348-3.216h-.015c-.594 0-1.189.039-1.78.122-3.182.452-5.965 2.143-8.332 5.128a38.91 38.91 0 0 0-.361-1.347c2.405-2.779 5.277-4.45 8.535-4.905a13.903 13.903 0 0 1 1.938-.133c4.1.004 8.016 1.692 10.93 3.367 2.889 1.666 4.786 3.322 4.888 3.413.102.09.22.134.343.142.029.382.058.76.084 1.136h-.046Zm-.162-2.579a34.985 34.985 0 0 0-4.691-3.203c-3.043-1.734-7.103-3.412-11.313-3.412h-.012c-.699 0-1.403.046-2.107.144-3.332.47-6.261 2.047-8.777 4.763-.133-.401-.275-.8-.427-1.197 2.586-2.625 5.623-4.215 9.046-4.69.76-.106 1.516-.155 2.265-.155 4.518.002 8.74 1.771 11.886 3.561a36.624 36.624 0 0 1 3.971 2.621c.058.526.11 1.048.159 1.568Z"/>
  <path fill="#ABAFB8" d="M486.217 219.448a.561.561 0 0 1-.41-.173 21.91 21.91 0 0 0-.691-.676c-.015-.541-.027-1.069-.037-1.582a30.856 30.856 0 0 1 1.548 1.471.569.569 0 0 1-.017.803v.001a.562.562 0 0 1-.393.156Z"/>
  <path fill="#777F8C" d="M485.116 218.599a41.067 41.067 0 0 0-4.507-3.67c-3.064-2.136-7.106-4.301-11.188-4.31-.455 0-.911.027-1.365.086-2.906.375-5.396 2.038-7.393 4.831l-.687-.982c2.187-2.933 4.834-4.567 7.938-4.975.497-.064.998-.095 1.498-.095h.02c4.148 0 8.374 2.129 11.59 4.341a40.99 40.99 0 0 1 4.057 3.192c.01.513.022 1.041.037 1.582Z"/>
  <path fill="#ABAFB8" d="M486.215 220.584a1.71 1.71 0 0 1-1.048-.361c-.019-.553-.036-1.095-.051-1.623.428.404.671.653.691.675a.562.562 0 0 0 .41.174v1.135h-.002Zm.004 0h-.002v-1.135a.563.563 0 0 0 .393-.157v-.001a.568.568 0 0 0 .017-.803 30.856 30.856 0 0 0-1.548-1.471 167.748 167.748 0 0 1-.023-1.526c1.396 1.188 2.264 2.081 2.39 2.213.316.328.475.756.473 1.178a1.69 1.69 0 0 1-.523 1.228v-.001a1.694 1.694 0 0 1-1.177.475Z"/>
  <path fill="#777F8C" d="M485.167 220.223a1.701 1.701 0 0 1-.178-.163c-.023-.023-2.063-2.126-5.03-4.2-2.962-2.079-6.853-4.106-10.514-4.106h-.024c-.409 0-.817.025-1.22.077-2.651.349-4.936 1.882-6.844 4.697l-.694-.992c1.997-2.793 4.488-4.456 7.393-4.831.454-.059.91-.086 1.365-.086 4.082.009 8.124 2.174 11.188 4.31a40.932 40.932 0 0 1 4.507 3.671c.015.528.032 1.07.051 1.623Zm-.088-3.206a40.99 40.99 0 0 0-4.057-3.192c-3.216-2.212-7.442-4.341-11.59-4.341h-.02c-.5 0-1.001.031-1.498.095-3.104.408-5.751 2.042-7.938 4.975l-.431-.616c-.012-.13-.03-.336-.058-.609 2.262-2.795 5.049-4.461 8.282-4.876.548-.07 1.096-.103 1.643-.103 4.543.007 8.932 2.266 12.253 4.54a42.048 42.048 0 0 1 3.391 2.601l.004.359c.005.38.011.769.019 1.167Zm-.432 14.588a.555.555 0 0 1-.399-.163l-.002-.002c-.056-.055-1.914-1.868-4.666-3.682-2.755-1.809-6.4-3.642-10.11-3.65-.499 0-1.001.034-1.499.108a9.11 9.11 0 0 0-2.752.853l-.126-1.201a10.516 10.516 0 0 1 2.72-.777 11.421 11.421 0 0 1 1.66-.118h.017c3.805 0 7.626 1.811 10.523 3.695 2.904 1.88 4.878 3.814 5.033 3.968a.564.564 0 0 1-.399.969Z"/>
  <path fill="#ABAFB8" d="m485.711 232.368-.136-2.798c.144.136.234.226.269.259a1.698 1.698 0 0 1 .013 2.406 1.524 1.524 0 0 1-.146.133Z"/>
  <path fill="#777F8C" d="M484.65 232.74h-.003v-1.135a.564.564 0 0 0 .399-.969c-.155-.154-2.13-2.088-5.033-3.968-2.897-1.884-6.718-3.695-10.523-3.695h-.017c-.554 0-1.108.037-1.66.118-.952.14-1.859.398-2.72.777l-.126-1.179a11.487 11.487 0 0 1 2.683-.721c.609-.089 1.218-.13 1.823-.13 4.171.006 8.156 1.934 11.158 3.876a36.325 36.325 0 0 1 4.944 3.856c.045.933.092 1.867.136 2.798a1.705 1.705 0 0 1-1.061.372Zm-.006 0c-.429 0-.864-.165-1.194-.49h.001c-.042-.041-1.852-1.803-4.496-3.544-2.651-1.752-6.147-3.463-9.464-3.463h-.021c-.448 0-.894.031-1.334.095a8.169 8.169 0 0 0-2.791.946l-.126-1.215a9.11 9.11 0 0 1 2.752-.853c.498-.074 1-.108 1.499-.108 3.709.008 7.355 1.841 10.11 3.65 2.752 1.814 4.61 3.627 4.666 3.682l.002.002a.555.555 0 0 0 .399.163v1.135h-.003Zm-1.193-.489v-.001.001Zm-3.165 17.58a.568.568 0 0 1-.523-.435l-.001-.004c-.018-.071-.61-2.488-1.97-5.32-1.363-2.826-3.482-6.091-6.664-7.802a9.39 9.39 0 0 0-4.483-1.121h-.004c-.159 0-.318.004-.478.011a174.24 174.24 0 0 0-.09-1.137c.194-.011.386-.015.578-.015 1.772 0 3.44.42 5.02 1.265 3.29 1.756 5.589 5.106 7.053 8.092 1.465 2.982 2.1 5.581 2.143 5.767l.001.007-.001-.005.016.131a.568.568 0 0 1-.409.544l-.188.022Z"/>
  <path fill="#ABAFB8" d="M480.348 250.967h-.034a1.702 1.702 0 0 1-1.655-1.308l.001.004c-.004-.017-.298-1.217-.939-2.889.095.133.182.263.257.393.8 1.361 1.74 2.686 2.695 3.761l-.029.004-.263.031-.033.004Z"/>
  <path fill="#777F8C" d="M480.673 250.928c-.955-1.075-1.895-2.4-2.695-3.761a4.632 4.632 0 0 0-.258-.393 29.556 29.556 0 0 0-.951-2.21c-1.304-2.724-3.348-5.789-6.176-7.293a8.257 8.257 0 0 0-4.348-.978c-.025-.362-.053-.74-.082-1.133.16-.007.319-.011.478-.011h.004c1.584 0 3.093.377 4.483 1.121 3.182 1.711 5.301 4.976 6.664 7.802 1.36 2.832 1.952 5.249 1.97 5.32l.001.004c.058.251.28.422.523.435l.188-.022a.567.567 0 0 0 .409-.544l-.016-.131.001.005-.001-.006c-.044-.187-.678-2.786-2.143-5.768-1.464-2.986-3.763-6.336-7.053-8.091a10.464 10.464 0 0 0-5.02-1.266c-.192 0-.384.004-.578.015-.03-.371-.062-.749-.096-1.132.226-.012.45-.018.674-.018h.006c1.95 0 3.815.47 5.55 1.399 3.621 1.947 6.012 5.497 7.535 8.593 1.522 3.1 2.172 5.764 2.229 6.006v-.001a1.702 1.702 0 0 1-1.262 2.05l-.032.008h-.004Zm-24.395-62.396c1.68-2.678 3.881-4.387 6.279-5.472 2.311-1.044 4.809-1.493 7.16-1.609-.761.409-1.492.834-2.183 1.275-1.48.226-2.982.627-4.421 1.278a13.268 13.268 0 0 0-4.914 3.783c-.654.266-1.296.515-1.921.745Z"/>
  <path fill="#ABAFB8" d="m479.219 183.693-.173-.026a19.327 19.327 0 0 0-1.161-.321c-.321-.47-.655-.923-1.003-1.356 1.532.291 2.49.589 2.51.595a.568.568 0 0 1 .394.541l-.027.172a.566.566 0 0 1-.54.395Z"/>
  <path fill="#777F8C" d="M477.885 183.346a30.25 30.25 0 0 0-3.041-.585 52.695 52.695 0 0 1 1.954-.787c.027.004.055.01.084.016.348.433.682.886 1.003 1.356Zm-23.247 5.767c1.853-3.553 4.542-5.777 7.453-7.088 2.947-1.329 6.115-1.74 8.936-1.74.338 0 .671.005.997.017-.793.367-1.565.75-2.307 1.15-2.351.115-4.849.564-7.16 1.608-2.398 1.085-4.599 2.794-6.279 5.472-.564.208-1.112.402-1.64.581Zm3.561-1.326a13.268 13.268 0 0 1 4.914-3.783c1.439-.651 2.941-1.052 4.421-1.278-.335.214-.662.432-.978.653-.606.424-1.234.831-1.878 1.218-.37.131-.735.278-1.096.441-.849.386-1.667.863-2.437 1.45-.99.473-1.979.906-2.946 1.299Z"/>
  <path fill="#ABAFB8" d="M479.22 184.828h-.001c-.145 0-.291-.018-.435-.055a25.173 25.173 0 0 0-.899-1.427c.646.16 1.057.288 1.161.321l.173.026a.566.566 0 0 0 .54-.395l.027-.172a.567.567 0 0 0-.394-.541c-.02-.006-.978-.304-2.51-.596a.347.347 0 0 1-.03-.037 63.449 63.449 0 0 1 1.952-.704c.567.142.899.245.934.257a1.703 1.703 0 0 1-.518 3.323Z"/>
  <path fill="#777F8C" d="m478.784 184.773-.082-.024c-.224-.073-2.675-.829-5.888-1.065a46.906 46.906 0 0 1 2.03-.923c1.251.175 2.3.402 3.041.585.312.46.612.936.899 1.427Zm-1.902-2.784-.084-.015.054-.022a.347.347 0 0 0 .03.037Z"/>
  <path fill="#ABAFB8" d="M439.942 193.843c-.333-.021-.844-.054-1.501-.102a21.267 21.267 0 0 0-.484-1.18c.758.061 1.367.102 1.791.131.065.377.13.762.194 1.151Zm-41.397-2.301a.567.567 0 0 1-.473-.252v-.001a.57.57 0 0 1 .156-.787v.001c.172-.115 4.166-2.719 10.417-2.719h.008c2.125 0 4.513.298 7.11 1.099.331.101.667.201 1.009.297-.235.319-.457.648-.669.989-.227-.066-.45-.134-.673-.202-2.45-.754-4.719-1.038-6.738-1.038-5.953.004-9.721 2.445-9.832 2.517a.578.578 0 0 1-.315.096Z"/>
  <path fill="#777F8C" d="m438.441 193.741-.496-.038a15.665 15.665 0 0 0-1.461-1.267c.537.048 1.031.09 1.473.125.172.385.333.779.484 1.18Zm-20.546-3.081a59.577 59.577 0 0 1-1.792-.491c.213-.341.434-.67.669-.989 1.078.306 2.202.588 3.347.847-.791.195-1.536.411-2.224.633Z"/>
  <path fill="#ABAFB8" d="M436.057 193.544c-.724-.064-1.518-.14-2.368-.23-2.357-1.343-4.934-1.832-7.388-1.832h-.037a21.987 21.987 0 0 0-3.391.279 90.771 90.771 0 0 1-2.746-.565 28.034 28.034 0 0 1 2.835-.579c3.941.751 7.924 1.258 11.09 1.586.685.377 1.356.821 2.005 1.341Z"/>
  <path fill="#ABAFB8" d="M437.945 193.703a140.19 140.19 0 0 1-1.888-.159 14.072 14.072 0 0 0-2.005-1.341c.881.092 1.697.169 2.432.234.5.381.988.802 1.461 1.266Zm-4.256-.389c-3.116-.327-6.975-.823-10.816-1.553a21.987 21.987 0 0 1 3.391-.279h.037c2.454 0 5.031.489 7.388 1.832Zm-13.562-2.118c-.754-.169-1.5-.347-2.232-.536a32.886 32.886 0 0 1 2.224-.633c.936.212 1.888.408 2.843.59-.992.148-1.944.35-2.835.579Zm20.006 3.794a95.95 95.95 0 0 1-1.063-.067 15.474 15.474 0 0 0-.35-.406 29.53 29.53 0 0 0-.279-.776c.657.048 1.168.081 1.502.102.063.378.127.759.19 1.147Zm-.385-2.298c-.424-.029-1.032-.071-1.791-.131a20.784 20.784 0 0 0-.381-.811s-.081-.139-.237-.378c.919.077 1.673.133 2.212.17.066.376.132.759.197 1.15Zm-41.206-.015a1.703 1.703 0 0 1-.942-3.119h.001c.282-.187 4.475-2.907 11.052-2.909 2.232 0 4.735.314 7.445 1.148.469.146.952.285 1.443.42-.269.309-.525.63-.769.963a53.11 53.11 0 0 1-1.009-.297c-2.597-.801-4.985-1.099-7.11-1.099h-.008c-6.251 0-10.245 2.604-10.417 2.719v-.001a.57.57 0 0 0-.156.787v.001a.57.57 0 0 0 .789.156c.11-.072 3.878-2.513 9.831-2.517 2.019 0 4.288.284 6.738 1.038.223.068.446.136.673.202-.204.328-.398.665-.582 1.011a42.588 42.588 0 0 1-.424-.128 21.729 21.729 0 0 0-6.405-.988h-.007c-5.278 0-8.752 2.05-9.161 2.304l-.037.024a1.703 1.703 0 0 1-.941.285h-.004Z"/>
  <path fill="#777F8C" d="M438.72 194.517a16.755 16.755 0 0 0-.775-.814l.496.038c.096.256.189.514.279.776Zm-5.389-.099c-3.039-.323-6.753-.804-10.476-1.506a20.579 20.579 0 0 1 3.385-.295h.024c2.401.004 4.849.474 7.067 1.801Zm4.626-1.857c-.442-.035-.936-.077-1.473-.125a15.145 15.145 0 0 0-2.097-1.34c1.101.112 2.098.204 2.952.276.156.239.237.378.237.378.132.265.259.537.381.811Zm-21.932-1.233a74.098 74.098 0 0 1-.504-.148c.184-.346.378-.683.582-1.011.586.171 1.184.334 1.792.491a34.51 34.51 0 0 0-1.87.668Zm4.094-1.301a64.087 64.087 0 0 1-3.347-.847c.244-.333.5-.654.769-.963 1.736.477 3.586.891 5.453 1.251a28.61 28.61 0 0 0-2.875.559Z"/>
  <path fill="#ABAFB8" d="M437.433 194.801c-.549-.044-1.164-.097-1.834-.158a12.993 12.993 0 0 0-1.91-1.329c.85.09 1.644.166 2.368.23.47.378.93.796 1.376 1.257Zm-17.322-2.447a81.037 81.037 0 0 1-2.17-.511 31.694 31.694 0 0 1 2.186-.647c.907.202 1.827.39 2.746.565-.971.154-1.9.361-2.762.593Zm13.941-.151c-3.166-.328-7.149-.835-11.09-1.586a22.747 22.747 0 0 1 3.338-.258h.029c2.593.006 5.259.49 7.723 1.844Z"/>
  <path fill="#CCCFD3" d="M439.07 194.924a12.044 12.044 0 0 0-.221-.016 25.54 25.54 0 0 0-.129-.391c.118.132.235.268.35.407Z"/>
  <path fill="#ABAFB8" d="M438.849 194.908a187.7 187.7 0 0 1-1.416-.107 14.957 14.957 0 0 0-1.376-1.257c.701.064 1.335.116 1.888.159.263.258.521.529.775.814.044.129.087.26.129.391Zm-3.25-.265c-.702-.065-1.46-.14-2.268-.225-2.218-1.327-4.666-1.796-7.067-1.801h-.024c-1.157 0-2.297.113-3.385.295a93.174 93.174 0 0 1-2.744-.558 27.101 27.101 0 0 1 2.762-.593c3.841.73 7.7 1.226 10.816 1.553.656.373 1.295.815 1.91 1.329Zm.885-2.206c-.735-.065-1.551-.142-2.432-.234-2.464-1.354-5.13-1.838-7.723-1.844h-.029c-1.14 0-2.262.098-3.338.258a84.563 84.563 0 0 1-2.843-.59 28.61 28.61 0 0 1 2.875-.559c4.041.778 8.164 1.297 11.393 1.628a15.06 15.06 0 0 1 2.097 1.341Zm-18.543-.594a64.967 64.967 0 0 1-1.916-.515 34.51 34.51 0 0 1 1.87-.668c.732.189 1.478.367 2.232.536-.78.2-1.514.422-2.186.647Zm30.962 1.25a.571.571 0 0 1-.529-.449l-.012-.12c0-.26.181-.497.448-.553l.001-.001h.001c.05-.012 1.508-.33 3.707-.987-.028.4-.047.803-.058 1.209-1.864.545-3.134.83-3.382.882l-.176.019Z"/>
  <path fill="#777F8C" d="M452.461 192.192c.011-.406.03-.809.058-1.21a65.79 65.79 0 0 0 1.9-.598c.085.39.305.747.636.997-.946.317-1.821.587-2.594.811Zm5.356-1.801a13.12 13.12 0 0 1 1.089-1.666c2.762-1.142 5.709-2.605 8.301-4.417.238-.166.482-.331.733-.495.855-.12 1.706-.18 2.534-.196a29.895 29.895 0 0 0-2.617 1.621c-3.153 2.211-6.8 3.91-10.04 5.153Z"/>
  <path fill="#ABAFB8" d="M476.692 180.8a35.688 35.688 0 0 0-1.009-.165 20.53 20.53 0 0 0-.471-.463 67.466 67.466 0 0 1 6.482-2.178c5.283-1.494 10.46-2.315 13.732-2.315h.012a.567.567 0 1 1 0 1.135c-3.295.002-8.291.802-13.425 2.248a67.681 67.681 0 0 0-5.321 1.738Z"/>
  <path fill="#777F8C" d="M475.683 180.635a37.01 37.01 0 0 0-1.226-.157c.25-.104.502-.206.755-.306.159.151.316.306.471.463Z"/>
  <path fill="#ABAFB8" d="m456.083 190.592-.256-.062h-.001a.568.568 0 0 1-.31-.507l.003-.011a65.404 65.404 0 0 0 1.522-.552c-.157.265-.307.54-.452.823a.564.564 0 0 1-.506.309Zm16.507-8.061a27.012 27.012 0 0 0-2.409-.041 41.46 41.46 0 0 1 2.077-1.044c.822.035 1.606.103 2.332.189-.681.288-1.348.586-2 .896Z"/>
  <path fill="#ABAFB8" d="M455.055 191.381a1.707 1.707 0 0 1-.636-.997c.357-.117.723-.242 1.1-.372l-.003.011a.567.567 0 0 0 .309.506h.002l.256.063v.437c-.351.122-.693.241-1.028.352Zm1.028-.352v-.437a.565.565 0 0 0 .506-.309c.144-.284.295-.558.452-.823a60.605 60.605 0 0 0 1.865-.735 13.12 13.12 0 0 0-1.089 1.666c-.593.228-1.173.44-1.734.638Zm11.857-7.216a31.904 31.904 0 0 1 2.241-1.323 27.037 27.037 0 0 1 2.409.041c-.728.348-1.437.71-2.116 1.086-.828.016-1.679.076-2.534.196Z"/>
  <path fill="#CCCFD3" d="M476.065 181.038a20.852 20.852 0 0 0-.382-.403c.354.053.691.108 1.009.165-.21.078-.419.158-.627.238Z"/>
  <path fill="#ABAFB8" d="M474.59 181.635a31.128 31.128 0 0 0-2.332-.189 49.721 49.721 0 0 1 2.199-.968c.427.047.837.101 1.226.157.129.132.257.267.382.403-.498.193-.989.392-1.475.597Zm-25.632 12.593h-.062a8.956 8.956 0 0 0-.568-.227l-.518-2.759c.21-.183.469-.319.762-.381h-.002c.028-.003 1.654-.361 4.062-1.1a27.13 27.13 0 0 0-.113 1.221c-2.199.658-3.657.976-3.707.988h-.001l-.001.001a.566.566 0 0 0-.448.553l.012.12a.57.57 0 0 0 .529.449l.176-.019a51.107 51.107 0 0 0 3.382-.882 33.38 33.38 0 0 0-.01 1.185c-1.815.518-3.01.779-3.164.813l-.031.007-.029.003-.24.025-.029.003Z"/>
  <path fill="#777F8C" d="M452.451 193.378a33.34 33.34 0 0 1 .01-1.185 68 68 0 0 0 2.594-.812c.078.06.163.113.254.16l-.001-.001c.247.127.514.187.775.187h.001c.617 0 1.215-.338 1.516-.927.071-.139.144-.275.218-.409 3.239-1.243 6.887-2.942 10.04-5.153a29.727 29.727 0 0 1 2.616-1.621l.448-.003h.016c.646 0 1.275.026 1.876.07-1.581.766-3.041 1.598-4.306 2.485-5.441 3.803-12.171 6.098-16.057 7.209Zm.068-2.395c.029-.41.066-.819.113-1.222.622-.19 1.295-.406 2.006-.648l-.07.136v.001a1.703 1.703 0 0 0-.149 1.134c-.677.224-1.315.424-1.9.599Zm6.387-2.258a11.94 11.94 0 0 1 2.239-2.237 41.983 41.983 0 0 0 3.533-1.891 16.636 16.636 0 0 1 3.262-.783c-.25.163-.494.328-.733.494-2.592 1.812-5.539 3.275-8.301 4.417Z"/>
  <path fill="#ABAFB8" d="M478.804 181.248a31.297 31.297 0 0 0-2.112-.448 67.681 67.681 0 0 1 5.321-1.738c5.134-1.446 10.13-2.246 13.425-2.248a.567.567 0 0 0 0-1.135h-.012c-3.272 0-8.448.821-13.732 2.315a67.466 67.466 0 0 0-6.482 2.178c-.31-.293-.63-.573-.959-.837a68.209 68.209 0 0 1 7.132-2.433c5.378-1.517 10.608-2.356 14.053-2.358.302 0 .584.078.831.215l.507 2.54a1.7 1.7 0 0 1-1.338.65h-.012c-3.122 0-8.065.783-13.105 2.206a68.832 68.832 0 0 0-3.517 1.093Z"/>
  <path fill="#ABAFB8" d="m496.776 177.299-.508-2.54a1.704 1.704 0 0 1 .508 2.54Z"/>
  <path fill="#777F8C" d="M474.457 180.478a31.544 31.544 0 0 0-2.433-.176 51.221 51.221 0 0 1 2.229-.967c.329.264.649.544.959.837-.253.1-.505.202-.755.306Z"/>
  <path fill="#ABAFB8" d="m455.519 190.012.059-.246v.001c.221-.434.456-.845.7-1.235a63.889 63.889 0 0 0 1.921-.745 14.11 14.11 0 0 0-1.158 1.673c-.52.196-1.029.379-1.522.552Zm19.325-7.251a30.195 30.195 0 0 0-2.254-.23c.652-.31 1.319-.609 2-.896.817.097 1.561.217 2.208.339-.662.252-1.315.514-1.954.787Zm-7.31-.035a33.856 33.856 0 0 1 2.183-1.275c.44-.021.876-.031 1.304-.031h.019c.413 0 .821.009 1.218.026a41.46 41.46 0 0 0-2.077 1.044c-.862.026-1.75.099-2.647.236Z"/>
  <path fill="#ABAFB8" d="M456.084 191.727h-.001v-.698c.561-.197 1.141-.41 1.734-.638-.073.134-.146.27-.218.409a1.7 1.7 0 0 1-1.515.927Zm-.001 0c-.261 0-.528-.06-.775-.187l.001.001a1.679 1.679 0 0 1-.254-.16 63.78 63.78 0 0 0 1.028-.352v.698Zm-1.664-1.343a1.699 1.699 0 0 1 .149-1.133v-.002l.07-.136a65.872 65.872 0 0 0 1.64-.581c-.244.39-.479.801-.7 1.235v-.001l-.059.246c-.377.131-.743.256-1.1.372Zm2.622-.924a14.11 14.11 0 0 1 1.158-1.673 54.062 54.062 0 0 0 2.946-1.299 11.91 11.91 0 0 0-2.239 2.237c-.633.262-1.257.507-1.865.735Zm7.637-4.863a32.301 32.301 0 0 0 1.878-1.218c.316-.222.643-.439.978-.653.897-.137 1.785-.21 2.647-.236-.788.425-1.538.867-2.241 1.324a16.636 16.636 0 0 0-3.262.783Zm8.136-.913c-.602-.044-1.23-.07-1.876-.07h-.016c-.149 0-.299.001-.448.003.68-.375 1.388-.738 2.116-1.086.802.051 1.559.133 2.254.23-.694.297-1.373.604-2.03.923Z"/>
  <path fill="#CCCFD3" d="M476.852 181.952a19.78 19.78 0 0 0-.787-.914c.208-.08.417-.16.627-.238.871.154 1.59.318 2.112.448-.657.225-1.309.46-1.952.704Z"/>
  <path fill="#ABAFB8" d="M476.798 181.974a32.842 32.842 0 0 0-2.208-.339c.486-.205.977-.404 1.475-.597.271.295.532.6.787.914l-.054.022Zm-7.081-.523a43.1 43.1 0 0 1 2.307-1.149c.857.028 1.673.092 2.433.176-.751.309-1.485.633-2.199.968a28.536 28.536 0 0 0-1.218-.026h-.019c-.428 0-.864.01-1.304.031Zm-15.981 61.865a21.854 21.854 0 0 0-3.639-.333h-.018c-.74 0-1.44.049-2.108.142-.114-.955-.233-1.931-.357-2.932.202.072.404.143.605.211 1.298.43 3.205.853 5.299 1.162l.218 1.75Zm-11.972-45.35a706.202 706.202 0 0 0-.515-3.188c.485-.278.822-.788.853-1.387l.002-.002.001-.088c0-.825-.589-1.524-1.387-1.674-.47-2.719-.912-5.085-1.311-6.971-.732-3.457-1.7-8.688-2.486-13.051a1083.63 1083.63 0 0 1-.987-5.566c-.132-.752-.235-1.35-.304-1.746l6.488-1.269 1.18 10.336 3.813 20.311a5.637 5.637 0 0 0-.928-.084h-.005c-.673 0-1.335.145-1.934.473-.903.492-1.63 1.383-2.112 2.666a9.526 9.526 0 0 0-.368 1.24Z"/>
  <path fill="#CCCFD3" d="M441.249 194.778a493.002 493.002 0 0 0-.531-3.151c.798.15 1.387.849 1.387 1.674l-.002.088-.001.002a1.699 1.699 0 0 1-.853 1.387Z"/>
  <path fill="#ABAFB8" d="M454.908 243.54a29.864 29.864 0 0 0-1.172-.224l-.218-1.75c.382.057.771.11 1.163.158l.227 1.816Zm-8.055-.212c-.142-1.168-.288-2.375-.441-3.613.398.172.8.331 1.202.478.124 1.001.243 1.977.357 2.932-.383.053-.756.121-1.118.203Zm-5.428-42.838c-.15-.085-.302-.168-.453-.25a584.061 584.061 0 0 0-.839-5.25l.179.011.007.001.068.001h.016a1.7 1.7 0 0 0 .846-.225c.169 1.027.34 2.093.515 3.188a15.394 15.394 0 0 0-.339 2.524Z"/>
  <path fill="#CCCFD3" d="m441.41 203.088-.217-1.42.192.116v.117c0 .38.008.776.025 1.187Z"/>
  <path fill="#CCCFD3" d="m441.385 201.784-.192-.116c-.074-.48-.147-.957-.221-1.428.151.082.303.165.453.25-.024.411-.038.841-.04 1.294Z"/>
  <path fill="#ABAFB8" d="M447.853 193.845a6.808 6.808 0 0 0-.742-.174l-3.813-20.311-1.18-10.336-6.488 1.269c.069.396.172.994.304 1.746.248 1.419.594 3.385.987 5.566.786 4.363 1.754 9.594 2.486 13.051.399 1.886.841 4.252 1.311 6.971a1.68 1.68 0 0 0-.226-.026c-.018-.001-.353-.019-.941-.059-.45-2.591-.872-4.847-1.254-6.651-1.322-6.242-3.393-18.136-3.807-20.528l8.725-1.744 1.205 10.571 3.39 18.052a1.702 1.702 0 0 0 .043 2.603Z"/>
  <path fill="#ABAFB8" d="m434.49 164.363-.073-.424-.094-.547 8.784-1.718.108.945-8.725 1.744Z"/>
  <path fill="#CCCFD3" d="m440.411 193.868-.045-.001a111.9 111.9 0 0 1-.424-.024c-.064-.389-.129-.774-.194-1.151l.684.042a.568.568 0 0 1 .538.567v.031-.001a.57.57 0 0 1-.559.537Z"/>
  <path fill="#CCCFD3" d="M440.403 195.003h-.016l-.068-.001-.007-.001-.179-.011c-.063-.388-.127-.769-.191-1.147l.424.024.045.001a.57.57 0 0 0 .559-.537v.001-.031c0-.3-.235-.552-.538-.567l-.684-.042c-.065-.391-.131-.774-.197-1.15.588.04.923.058.941.059.077.004.152.013.226.026.173 1.005.35 2.057.531 3.151a1.7 1.7 0 0 1-.846.225Zm7.925-1.002a7.31 7.31 0 0 0-.475-.156 1.701 1.701 0 0 1-.043-2.603l.518 2.759Z"/>
  <path fill="#ABAFB8" d="M459.549 240.916c-1.593 0-3.343-.139-5.013-.354l-5.046-40.373-.913-4.86c.386.176.778.387 1.169.627.527.323 1.053.698 1.562 1.107a1.699 1.699 0 0 0 1.548 2.404h.006c.036 0 .073-.001.109-.003.387 2.598.948 5.157 1.527 7.532-.078.118-.155.237-.231.359a1.698 1.698 0 0 0 .527 2.349v.001c.138.088.286.154.438.198.33 1.276.645 2.469.914 3.55l3.363 13.528a19.844 19.844 0 0 0-1.74 2.679 1.701 1.701 0 0 0 1.492 2.521h.004a1.7 1.7 0 0 0 1.365-.691l.628 2.526a1.703 1.703 0 0 0-.65 2.007l-.001-.003a1.7 1.7 0 0 0 2 1.066c.58.275 1.5.719 2.613 1.283.01.278.015.527.015.74-.006.287-.094.481-.317.706-.334.333-1.033.639-1.973.825-.936.19-2.099.276-3.359.276h-.037Z"/>
  <path fill="#777F8C" d="M465.22 238.369a112.489 112.489 0 0 0-2.613-1.283c.064-.016.126-.035.188-.058h-.001c.798-.295 1.572-.5 2.32-.62.05.745.088 1.411.106 1.961Zm-3.962-4.353-.628-2.526c.045-.061.087-.126.125-.195v.001c1.038-1.887 2.212-3.316 3.52-4.312.158 1.56.33 3.308.483 5.006l.089 1.011a15.7 15.7 0 0 0-3.233.833 1.705 1.705 0 0 0-.356.182Zm-1.749-7.035-3.363-13.528c-.269-1.082-.584-2.275-.914-3.55.154.044.312.065.47.065h.004a1.7 1.7 0 0 0 1.436-.79c.136-.213.274-.422.412-.625.338 1.52.554 2.896.687 3.906.069.534.116.966.145 1.263.028.297.04.454.04.455l.01.157.149.211c-.37.541-.723 1.118-1.06 1.726l-.007.013.008-.013c-.146.26-.216.546-.216.826 0 .598.318 1.179.876 1.49l.003.001v-.001c.258.144.543.213.822.213h.005a1.7 1.7 0 0 0 1.486-.876c.065-.119.134-.237.201-.353l3.037 4.339.139 1.286c-1.627.864-3.089 2.134-4.37 3.785Zm-5.011-19.985c-.579-2.375-1.14-4.934-1.527-7.532.224-.014.445-.073.649-.175 1.173 1.398 2.083 3.257 2.774 5.186a23.492 23.492 0 0 0-1.896 2.521Z"/>
  <path fill="#CCCFD3" d="M452.707 198.312a.563.563 0 0 1-.387-.372c.13.123.259.247.387.372Z"/>
  <path fill="#CCCFD3" d="M452.862 199.467h-.002v-.787c.035.262.072.524.111.784a1.983 1.983 0 0 1-.109.003Zm-.006 0a1.703 1.703 0 0 1-1.548-2.404c.346.278.685.573 1.011.877.03.092.082.176.159.247.07.061.147.102.229.125l.12.12c.01.083.021.164.033.248v.787h-.004Z"/>
  <path fill="#ABAFB8" d="M452.971 199.464c-.039-.26-.076-.522-.111-.784v-.215c.145.147.288.296.426.446.114.121.225.247.334.378a1.687 1.687 0 0 1-.649.175Zm-.111-.784a11.274 11.274 0 0 1-.033-.248l.033.033v.215Zm2.844 10.154a.57.57 0 0 1-.479-.871c.509-.8 1.039-1.54 1.59-2.221.14.453.268.904.386 1.35-.351.468-.689.961-1.017 1.478a.561.561 0 0 1-.48.264Z"/>
  <path fill="#CCCFD3" d="M455.232 209.903c-.152-.044-.3-.11-.438-.198v-.001a1.698 1.698 0 0 1-.527-2.349c.076-.122.153-.241.231-.359.245 1.006.493 1.977.734 2.907Z"/>
  <path fill="#ABAFB8" d="M455.706 209.969h-.002v-1.135c.19 0 .372-.092.48-.264.328-.517.666-1.01 1.017-1.478.107.406.204.807.294 1.199l.059.262c-.138.203-.276.412-.412.626-.323.509-.875.79-1.436.79Zm-.004 0a1.71 1.71 0 0 1-.47-.066 217.38 217.38 0 0 1-.735-2.907 23.63 23.63 0 0 1 1.897-2.521c.151.421.292.844.421 1.267a23.87 23.87 0 0 0-1.59 2.221.558.558 0 0 0-.089.302.574.574 0 0 0 .568.569v1.135h-.002Zm3.311 7.696-.276-.071a.566.566 0 0 1-.292-.497l.072-.274.001-.001c.248-.446.504-.872.767-1.276l.704 1.006c-.164.266-.324.539-.48.822h.001a.568.568 0 0 1-.497.291Z"/>
  <path fill="#ABAFB8" d="M459.016 218.801h-.005a1.69 1.69 0 0 1-.822-.214v.001l-.003-.001a1.707 1.707 0 0 1-.876-1.49c0-.279.07-.565.216-.825l-.008.012.007-.012c.337-.609.69-1.185 1.06-1.727l.7 1.001c-.263.404-.519.83-.767 1.276l-.001.001-.072.274a.566.566 0 0 0 .292.497l.276.071a.568.568 0 0 0 .497-.291h-.001c.156-.283.316-.556.48-.822l.714 1.019c-.067.116-.136.234-.201.353a1.7 1.7 0 0 1-1.486.877Z"/>
  <path fill="#CCCFD3" d="m459.261 231.045-.272-.07a.565.565 0 0 1-.295-.498l.07-.271c.352-.64.72-1.235 1.102-1.788l.373 1.501c-.164.268-.324.545-.48.831l-.001.001a.562.562 0 0 1-.497.294Z"/>
  <path fill="#ABAFB8" d="m460.239 229.92-.373-1.502c1.223-1.766 2.605-3.093 4.144-3.996l.133 1.267c-1.477.979-2.785 2.401-3.904 4.231Z"/>
  <path fill="#CCCFD3" d="M459.265 232.18h-.004a1.7 1.7 0 0 1-1.702-1.703c0-.277.068-.56.21-.818a19.895 19.895 0 0 1 1.74-2.678l.357 1.437a20.64 20.64 0 0 0-1.102 1.787l-.07.272a.565.565 0 0 0 .295.498l.272.07a.562.562 0 0 0 .497-.294l.001-.001c.156-.286.316-.563.48-.831l.391 1.571c-.326.443-.84.69-1.365.69Z"/>
  <path fill="#ABAFB8" d="m460.63 231.49-.391-1.571c1.12-1.829 2.427-3.252 3.904-4.23l.132 1.295c-1.308.996-2.482 2.425-3.52 4.312v-.001c-.038.069-.08.134-.125.195Zm-.764-3.072-.358-1.437c1.282-1.651 2.744-2.921 4.371-3.785.025.23.053.482.081.755l.05.471c-1.539.903-2.92 2.23-4.144 3.996Zm2.338 7.581a.567.567 0 0 1-.531-.37l-.001-.001-.035-.197c0-.23.141-.448.371-.532a14.654 14.654 0 0 1 2.935-.765c.033.389.062.771.091 1.138-.861.13-1.739.361-2.634.692l-.196.035Z"/>
  <path fill="#CCCFD3" d="M462.204 237.134a1.7 1.7 0 0 1-1.597-1.114l.001.003a1.702 1.702 0 0 1 .649-2.007l.687 2.759s.24.11.663.311a1.727 1.727 0 0 1-.403.048Z"/>
  <path fill="#ABAFB8" d="M462.607 237.086c-.423-.201-.663-.311-.663-.311l-.686-2.759a1.73 1.73 0 0 1 .356-.182 15.692 15.692 0 0 1 3.234-.833c.032.384.065.763.095 1.133-.95.14-1.93.394-2.935.765a.568.568 0 0 0-.371.532l.035.197.001.001c.083.228.302.37.531.37l.197-.035a13.31 13.31 0 0 1 2.633-.692c.029.394.056.774.08 1.137-.748.119-1.522.324-2.32.619h.001a1.774 1.774 0 0 1-.188.058Zm-16.36 1.308a15.406 15.406 0 0 1-1.923-1.088 1.699 1.699 0 0 0-.288-1.684c-1.029-1.237-2.112-2.28-3.245-3.121v-7.31c.254-.059.496-.177.708-.354l.001-.001a1.7 1.7 0 0 0 .204-2.399c-.3-.356-.604-.697-.913-1.021v-3.053c.103-.886.208-1.776.315-2.654.261.149.554.225.844.225h.005a1.7 1.7 0 0 0 1.246-.544 1530.43 1530.43 0 0 1 3.046 23.004Zm-3.431-25.719a23.937 23.937 0 0 0-1.185-1.128c.177-1.365.345-2.62.491-3.685.231 1.579.463 3.187.694 4.813Z"/>
  <path fill="#777F8C" d="M440.791 232.501a13.748 13.748 0 0 0-.498-.355 9.898 9.898 0 0 1-.406-2.875c-.001-1.019.079-2.428.212-4.062.1.018.201.027.301.027h.004c.13 0 .26-.016.387-.045v7.31Zm0-11.085c-.1-.106-.201-.21-.302-.312.095-.897.197-1.818.302-2.74v3.052Z"/>
  <path fill="#CCCFD3" d="M441.953 214.799a.563.563 0 0 1-.411-.177v-.001l-.267-.277c.059-.479.119-.952.178-1.416.307.29.61.594.912.912a.562.562 0 0 1 .155.392.558.558 0 0 1-.177.411l-.011.011.011-.01a.57.57 0 0 1-.39.155Z"/>
  <path fill="#CCCFD3" d="M441.95 215.934c-.29 0-.583-.076-.844-.225l.139-1.131.03-.234.267.277v.001a.563.563 0 0 0 .801.022l-.011.01.011-.011a.558.558 0 0 0 .177-.411c0-.143-.05-.28-.155-.392a23.765 23.765 0 0 0-.912-.912c.06-.47.119-.932.178-1.381.4.356.796.731 1.185 1.128.128.9.257 1.805.385 2.715a1.7 1.7 0 0 1-1.246.544h-.005Zm-1.159 8.013v-.831l.045.052.001.001a.564.564 0 0 1-.046.778Z"/>
  <path fill="#ABAFB8" d="M440.402 224.101a.59.59 0 0 1-.204-.038c.043-.476.089-.966.138-1.467.154.169.304.342.455.52v.831a.219.219 0 0 1-.023.021l.001-.001a.566.566 0 0 1-.367.134Z"/>
  <path fill="#CCCFD3" d="M440.791 225.191v-1.244a.564.564 0 0 0 .046-.778l-.001-.001-.045-.052v-1.7c.309.324.613.665.913 1.021a1.699 1.699 0 0 1-.204 2.399l-.001.001a1.703 1.703 0 0 1-.708.354Z"/>
  <path fill="#ABAFB8" d="M440.404 225.236h-.004c-.1 0-.201-.009-.301-.027.031-.371.064-.754.099-1.146a.566.566 0 0 0 .571-.096l-.001.001a.15.15 0 0 0 .023-.021v1.244a1.741 1.741 0 0 1-.387.045Zm.387-2.12c-.15-.178-.301-.351-.455-.52.049-.488.1-.986.154-1.493.101.103.202.207.301.313v1.7Z"/>
  <path fill="#CCCFD3" d="M443.259 236.511a10.688 10.688 0 0 1-.701-.642 9.602 9.602 0 0 1-1.137-1.367 20.168 20.168 0 0 1 1.743 1.846.603.603 0 0 1 .095.163Z"/>
  <path fill="#CCCFD3" d="M444.324 237.306a12.028 12.028 0 0 1-1.065-.795.588.588 0 0 0-.095-.163 20.168 20.168 0 0 0-1.743-1.846 8.886 8.886 0 0 1-.63-1.082v-.919c1.133.841 2.216 1.884 3.245 3.121a1.699 1.699 0 0 1 .288 1.684Z"/>
  <path fill="#ABAFB8" d="M440.791 233.42a8.667 8.667 0 0 1-.498-1.274c.167.114.334.232.498.355v.919Z"/>
  <path fill="#CCCFD3" d="M453.372 240.396c-1.923-.297-3.653-.687-4.793-1.069-.376-.125-.751-.26-1.122-.408-1.295-10.434-2.98-22.99-4.6-33.843a1.705 1.705 0 0 0 .893-3.06c-.404-.303-.81-.586-1.22-.853.073-2.4.513-4.011 1.126-4.988.337-.539.718-.892 1.133-1.119.415-.227.877-.333 1.394-.333h.013c.358 0 .741.054 1.142.157l1.031 5.485 5.003 40.031Z"/>
  <path fill="#E0E3E4" d="m442.727 203.946-.04-.001-.145-.965a23.559 23.559 0 0 1-.014-.448c.18.127.361.257.54.392a.565.565 0 0 1 .113.796.565.565 0 0 1-.454.226Z"/>
  <path fill="#E0E3E4" d="m442.857 205.076-.17-1.131.04.001a.565.565 0 0 0 .568-.568.565.565 0 0 0-.227-.454 21.02 21.02 0 0 0-.54-.392 25.11 25.11 0 0 1 .002-1.369c.41.267.816.55 1.22.853a1.706 1.706 0 0 1 .34 2.384 1.696 1.696 0 0 1-1.233.676Z"/>
  <path fill="#CCCFD3" d="M454.536 240.562a47.237 47.237 0 0 1-1.164-.166l-5.003-40.031-1.031-5.485c.4.104.816.256 1.239.449l.913 4.86 5.046 40.373Zm-7.079-1.643a19.553 19.553 0 0 1-1.21-.525 1530.43 1530.43 0 0 0-3.046-23.004 1.703 1.703 0 0 0-.012-2.329 27.451 27.451 0 0 0-.373-.386 1175.04 1175.04 0 0 0-.694-4.813l.06-.446c.138-1.01.252-1.82.327-2.349.071.01.144.014.216.014h.005c.042 0 .084-.001.127-.004 1.62 10.852 3.305 23.408 4.6 33.842Z"/>
  <path fill="#E0E3E4" d="M442.687 203.945a.53.53 0 0 1-.097-.016 33.333 33.333 0 0 1-.048-.949l.145.965Z"/>
  <path fill="#E0E3E4" d="M442.73 205.081h-.004c-.073 0-.146-.005-.217-.014l.098-.7.01-.061-.005-.062-.022-.315a.53.53 0 0 0 .097.016l.17 1.131a1.361 1.361 0 0 1-.127.005Zm.471 10.309c-.128-.91-.256-1.815-.385-2.715.125.127.249.255.373.385a1.703 1.703 0 0 1 .012 2.33Z"/>
  <path fill="#ABAFB8" d="M459.578 242.051a41.244 41.244 0 0 1-4.897-.327l-.145-1.162c1.67.215 3.42.354 5.013.354h.037c1.26 0 2.423-.086 3.359-.276.94-.186 1.639-.493 1.973-.825.223-.225.311-.419.317-.706a20.9 20.9 0 0 0-.015-.74c.364.185.749.382 1.148.591.002.05.002.1.002.149a2.08 2.08 0 0 1-.662 1.521c-.406.39-.937.66-1.551.865-1.229.405-2.826.554-4.579.556Zm-8.27-44.988a15.274 15.274 0 0 0-1.561-1.107c-.392-.24-.784-.451-1.17-.627l-.225-1.202c.172.062.356.097.544.101.485.212.967.47 1.443.76.572.351 1.133.752 1.674 1.185-.141.148-.28.299-.419.452-.12.134-.215.281-.286.438Z"/>
  <path fill="#777F8C" d="M466.368 238.96c-.399-.209-.784-.406-1.148-.591a59.47 59.47 0 0 0-.106-1.96c.384-.062.761-.1 1.131-.116.071 1.07.118 1.992.123 2.667Zm-1.521-5.959-.089-1.011a462.292 462.292 0 0 0-.483-5.006 8.959 8.959 0 0 1 1.07-.7c.085.83.174 1.725.265 2.648.127 1.305.254 2.661.367 3.959-.374.019-.75.057-1.13.11Zm-.968-9.805-.139-1.286-3.038-4.339c.214-.365.432-.713.655-1.043l3.479 4.969.016.144.115 1.048c-.37.15-.732.319-1.088.507Zm-5.294-8.651-.149-.211-.01-.157c0-.001-.012-.157-.04-.455-.03-.297-.076-.729-.145-1.263a45.714 45.714 0 0 0-.687-3.906c.287-.421.581-.822.883-1.202.057.232.112.461.165.687.521 2.274.775 4.255.885 5.291-.311.385-.612.79-.902 1.216Zm-2.191-10.07c-.691-1.929-1.601-3.788-2.774-5.186.186-.093.358-.222.504-.385v.001c.114-.126.228-.25.343-.37 1.188 1.416 2.095 3.178 2.792 5.005-.294.298-.582.61-.865.935Z"/>
  <path fill="#CCCFD3" d="M452.813 198.331a.536.536 0 0 1-.106-.02 45.493 45.493 0 0 0-.387-.371.565.565 0 0 1 .118-.555c.078-.087.156-.172.236-.257.042.4.088.802.139 1.203Z"/>
  <path fill="#ABAFB8" d="m452.86 198.332-.047-.001a55.39 55.39 0 0 1-.139-1.203l.204-.216c.281.255.555.518.818.786-.139.145-.278.295-.415.447a.554.554 0 0 1-.421.187Z"/>
  <path fill="#CCCFD3" d="M452.827 198.432a13.52 13.52 0 0 0-.121-.12c.035.01.071.016.107.019l.014.101Zm-.508-.492a18.24 18.24 0 0 0-1.011-.877c.071-.157.166-.304.286-.438.139-.153.278-.304.419-.452.209.168.415.342.617.519l.044.436c-.08.085-.158.17-.237.257a.572.572 0 0 0-.118.555Z"/>
  <path fill="#ABAFB8" d="M453.62 199.289a8.182 8.182 0 0 0-.334-.378c-.138-.15-.281-.299-.426-.446v-.133a.555.555 0 0 0 .421-.187c.137-.152.276-.302.415-.448.144.146.285.293.422.442.12.128.235.261.349.396-.115.12-.229.244-.343.37v-.001a1.693 1.693 0 0 1-.504.385Zm-.76-.824-.033-.033-.014-.101.047.001v.133Zm-.186-1.337-.044-.436.248.22-.204.216Zm4.527 9.964a34.18 34.18 0 0 0-.386-1.35c.285-.351.574-.686.871-1.005.139.423.27.847.39 1.267-.298.346-.591.708-.875 1.088Z"/>
  <path fill="#ABAFB8" d="M457.554 208.553c-.019-.086-.038-.174-.059-.262-.09-.392-.187-.793-.294-1.199.284-.38.577-.742.875-1.088.131.455.251.906.361 1.347-.302.38-.596.781-.883 1.202Zm-.739-2.811a27.63 27.63 0 0 0-.421-1.267c.283-.325.571-.637.865-.935.152.397.294.796.427 1.197-.296.319-.586.654-.871 1.005Zm3.174 10.81-.704-1.006c.225-.346.455-.676.691-.992l.687.982c-.232.324-.457.662-.674 1.016Z"/>
  <path fill="#ABAFB8" d="m460.702 217.571-.713-1.019c.217-.354.442-.693.674-1.016l.694.992c-.223.33-.441.678-.655 1.043Zm-1.417-2.025-.7-1.001c.29-.426.591-.831.902-1.216.028.273.046.479.058.609l.431.616c-.236.316-.466.646-.691.992Zm4.858 10.143-.133-1.267c.353-.206.714-.391 1.083-.553l.126 1.2a9.744 9.744 0 0 0-1.076.62Z"/>
  <path fill="#ABAFB8" d="m464.276 226.984-.133-1.295a9.744 9.744 0 0 1 1.076-.62c.041.384.083.79.126 1.215a8.869 8.869 0 0 0-1.069.7Zm-.266-2.562-.05-.471c-.028-.273-.056-.525-.081-.754.356-.189.718-.358 1.088-.508l.126 1.18c-.369.162-.73.347-1.083.553Zm1.024 10.85c-.029-.367-.058-.749-.091-1.138a11.64 11.64 0 0 1 1.13-.111c.032.388.061.768.09 1.137a10.73 10.73 0 0 0-1.129.112Z"/>
  <path fill="#ABAFB8" d="M465.114 236.409c-.024-.362-.051-.743-.08-1.136.38-.058.757-.096 1.129-.113.03.393.057.771.082 1.133-.37.016-.747.054-1.131.116Zm-.171-2.275c-.03-.37-.063-.749-.095-1.133.379-.053.755-.091 1.129-.11.034.383.066.761.096 1.132a11.64 11.64 0 0 0-1.13.111Z"/>
  <path fill="#CCCFD3" d="M448.896 194.228a1.713 1.713 0 0 1-.544-.101l-.024-.126c.189.068.379.144.568.227Z"/>
  <path fill="#ABAFB8" d="M446.412 239.715a16.97 16.97 0 0 1-2.823-1.535 1.47 1.47 0 0 0 .227-.159l.005-.003-.003.001c.235-.195.406-.444.506-.713.607.407 1.255.768 1.923 1.088l.165 1.321Zm-5.621-21.352v-.256c0-.813.01-1.689.019-2.614.092.084.191.155.296.216-.107.878-.212 1.768-.315 2.654Zm.84-6.816a21.7 21.7 0 0 0-.804-.682c-.005-.562-.013-1.134-.025-1.71.297-2.225.536-3.924.634-4.613.073.052.144.104.217.159.155 1.038.312 2.092.469 3.161-.146 1.065-.314 2.32-.491 3.685Z"/>
  <path fill="#777F8C" d="M440.293 232.146a13.79 13.79 0 0 0-1.363-.82 11.367 11.367 0 0 1-.179-2.055c.001-1.189.102-2.842.265-4.74l.084.099-.001-.001a1.69 1.69 0 0 0 1 .58c-.133 1.634-.213 3.043-.212 4.062a9.898 9.898 0 0 0 .406 2.875Zm.196-11.043a19.06 19.06 0 0 0-1.037-.971c.193-1.775.41-3.608.628-5.376.213.208.425.424.638.646h-.002c.031.032.062.063.094.091-.01.925-.019 1.801-.019 2.614v.256c-.105.923-.207 1.844-.302 2.74Zm.338-10.238c-.075-.061-.153-.121-.229-.181l.204-1.529c.012.576.02 1.148.025 1.71Z"/>
  <path fill="#CCCFD3" d="m441.419 203.149-.007-.004-.002-.057c.002.021.006.041.009.061Z"/>
  <path fill="#CCCFD3" d="M441.653 204.701a9.969 9.969 0 0 0-.217-.159l.04-.276a33.777 33.777 0 0 1-.064-1.121l.007.004.234 1.552Zm-.378 9.643c-.15-.153-.3-.302-.451-.448.005-.502.007-1.016.008-1.538.208.184.415.373.621.57-.059.464-.119.937-.178 1.416Z"/>
  <path fill="#ABAFB8" d="M440.824 213.896a20.302 20.302 0 0 0-.571-.534l.174-1.354c.135.114.27.231.405.35-.001.522-.003 1.036-.008 1.538Z"/>
  <path fill="#CCCFD3" d="M441.106 215.709a1.71 1.71 0 0 1-.296-.216c.005-.518.011-1.051.014-1.597.151.146.301.295.451.448l-.03.234-.139 1.131Zm.347-2.781a21.671 21.671 0 0 0-.621-.57c0-.49-.001-.988-.005-1.493.27.218.538.445.804.682-.059.449-.118.911-.178 1.381Z"/>
  <path fill="#ABAFB8" d="M440.81 215.493a1.326 1.326 0 0 1-.093-.091h.001a26.049 26.049 0 0 0-.638-.646l.04-.318c.044-.362.089-.72.134-1.076.191.173.382.351.57.534-.003.546-.009 1.079-.014 1.597Zm.022-3.135c-.135-.119-.27-.236-.405-.35l.172-1.324c.076.06.153.12.228.181.004.505.005 1.003.005 1.493Zm-.634 11.705a.544.544 0 0 1-.228-.163l-.001-.001a18.577 18.577 0 0 0-.812-.908c.047-.477.095-.964.146-1.458.348.331.693.686 1.033 1.063-.048.501-.095.991-.138 1.467Z"/>
  <path fill="#ABAFB8" d="M440.099 225.209a1.69 1.69 0 0 1-1-.58l.001.001-.084-.099c.043-.497.091-1.012.141-1.54.275.287.545.59.812.908l.001.001c.062.076.142.13.228.163-.035.392-.068.775-.099 1.146Zm.237-2.613a19.38 19.38 0 0 0-1.033-1.063c.048-.461.097-.93.149-1.401.351.304.696.628 1.038.971-.054.507-.105 1.005-.154 1.493Z"/>
  <path fill="#CCCFD3" d="M442.728 237.279a.56.56 0 0 1-.437-.204 18.167 18.167 0 0 0-1.5-1.605v-1.523c.212.177.422.362.63.555.335.492.718.946 1.136 1.367.224.224.458.437.702.642a.568.568 0 0 1-.168.638l.002-.001a.572.572 0 0 1-.365.131Z"/>
  <path fill="#ABAFB8" d="M440.791 235.47a11.269 11.269 0 0 0-.229-.212 9.84 9.84 0 0 1-1.223-2.384c.49.316.975.673 1.452 1.073v1.523Z"/>
  <path fill="#CCCFD3" d="M443.589 238.18a12.777 12.777 0 0 1-1.834-1.508 10.57 10.57 0 0 1-.964-1.1v-.102a18.167 18.167 0 0 1 1.5 1.605.568.568 0 0 0 .802.072l-.002.002a.564.564 0 0 0 .168-.638c.337.282.693.548 1.065.795-.1.269-.271.518-.506.713l.003-.001-.005.003a1.47 1.47 0 0 1-.227.159Zm-2.168-3.678a16.041 16.041 0 0 0-.63-.555v-.527c.187.38.397.74.63 1.082Z"/>
  <path fill="#ABAFB8" d="M440.791 235.572a12.012 12.012 0 0 1-.229-.314c.077.069.153.14.229.212v.102Zm0-1.625a14.29 14.29 0 0 0-1.452-1.073c-.173-.49-.31-1.007-.409-1.548a13.6 13.6 0 0 1 1.363.82c.136.449.303.872.498 1.274v.527Z"/>
  <path fill="#CCCFD3" d="M453.518 241.566c-2.094-.309-4.001-.732-5.299-1.162a39.694 39.694 0 0 1-.605-.211l-.157-1.274c.371.148.746.283 1.122.408 1.14.382 2.87.772 4.793 1.069l.146 1.17Z"/>
  <path fill="#CCCFD3" d="M454.681 241.724a44.736 44.736 0 0 1-1.163-.158l-.146-1.17c.381.059.77.115 1.164.166l.145 1.162Zm-7.067-1.531a22.578 22.578 0 0 1-1.202-.478l-.165-1.321c.397.189.802.364 1.21.525l.157 1.274Zm-5.084-39.03c-.098-.065-.197-.127-.296-.19a602.083 602.083 0 0 0-.47-3.007c.102-.449.226-.862.368-1.24.482-1.283 1.209-2.174 2.112-2.666a3.993 3.993 0 0 1 1.934-.473h.005c.307.002.617.03.928.084l.227 1.209a4.62 4.62 0 0 0-1.142-.158h-.013c-.517 0-.979.107-1.394.334-.415.227-.796.58-1.133 1.119-.613.976-1.053 2.588-1.126 4.988Z"/>
  <path fill="#E0E3E4" d="m442.542 202.98-.075-.492.061.044c.003.147.008.296.014.448Z"/>
  <path fill="#E0E3E4" d="m442.528 202.532-.061-.043-.233-1.516c.099.063.198.125.296.19a25.11 25.11 0 0 0-.002 1.369Z"/>
  <path fill="#CCCFD3" d="M442.122 207.862c-.157-1.069-.314-2.123-.469-3.161l.052.038a1.7 1.7 0 0 0 .804.328c-.075.529-.189 1.339-.327 2.349l-.06.446Zm.112-6.889a21.285 21.285 0 0 0-.809-.483c.056-.949.17-1.787.339-2.523.156.979.312 1.98.47 3.006Z"/>
  <path fill="#E0E3E4" d="M442.59 203.929a.55.55 0 0 1-.203-.097c-.321-.24-.643-.468-.968-.683-.003-.02-.007-.04-.009-.061a28.741 28.741 0 0 1-.025-1.187v-.117c.362.22.723.455 1.082.705l.075.491c.011.306.027.623.048.949Z"/>
  <path fill="#E0E3E4" d="M442.509 205.067a1.7 1.7 0 0 1-.804-.328l-.052-.038-.234-1.552c.325.215.647.443.968.684a.564.564 0 0 0 .203.096l.022.316.005.061-.01.061-.098.7Zm-.042-2.578c-.359-.25-.72-.485-1.082-.705.002-.453.016-.883.04-1.294.271.154.54.314.809.483l.233 1.516Z"/>
  <path fill="#CCCFD3" d="M448.577 195.329a7.641 7.641 0 0 0-1.239-.449l-.227-1.208c.248.043.495.101.742.173.149.12.317.217.499.282l.225 1.202Z"/>
  <path fill="#E0E3E4" d="M448.352 194.127a1.72 1.72 0 0 1-.499-.282c.158.045.317.098.475.156l.024.126Z"/>
  <path fill="#ABAFB8" d="m429.237 277.77-.699-8.4.006-.107c.046-.711.324-4.055 1.566-7.936 1.241-3.884 3.445-8.285 7.28-11.172 2.346-1.768 4.242-3.292 6.182-4.353 1.093-.597 2.196-1.054 3.416-1.341.173 1.446.335 2.827.485 4.13.346 3.02.625 5.621.817 7.633.193 2.007.299 3.443.298 4.072.001 2.656-.44 6.437-.883 9.533a173.19 173.19 0 0 1-.609 3.926c-.165.993-.275 1.595-.275 1.596l-.078.419c-9.487.52-15.599 1.619-17.506 2Zm57.096-.287c-11.101-1.483-20.933-1.991-29.192-1.991-.8 0-1.584.004-2.354.013l4.081-.283-3.811-30.488c3.74.836 8.549 2.568 15.053 5.486 7.205 3.232 11.357 7.382 13.733 11.474 2.372 4.093 2.969 8.148 2.969 11.194a22.25 22.25 0 0 1-.302 3.696c-.064.37-.126.673-.177.899Z"/>
  <path fill="#CCCFD3" d="M448.063 274.837c.407-2.348 1.656-9.914 1.66-14.541-.001-.728-.109-2.153-.302-4.181-.279-2.908-.737-7.028-1.315-11.863a14.252 14.252 0 0 1 1.991-.134h.02c1.122 0 2.365.119 3.767.377l3.709 29.678-9.53.664Z"/>
  <path fill="#CCCFD3" d="m446.743 275.77.077-.419c0-.001.111-.603.276-1.596.166-.994.387-2.375.609-3.926.443-3.096.884-6.877.883-9.533.001-.629-.105-2.065-.298-4.072a424.224 424.224 0 0 0-.817-7.633c-.15-1.303-.312-2.684-.485-4.13.362-.085.734-.155 1.118-.209.578 4.835 1.036 8.955 1.315 11.863.193 2.028.3 3.453.302 4.181-.004 4.627-1.253 12.193-1.66 14.541l9.53-.664-3.71-29.678c.38.069.771.148 1.174.239l3.811 30.488-4.081.284c-2.898.035-5.584.13-8.044.264Z"/>
  <path fill="#777F8C" d="m428.215 279.156-.004-.035.46-.07-.456.105Z"/>
  <path fill="#ABAFB8" d="m428.117 277.987-.716-8.599.001-.037c.002-.029.154-3.389 1.384-7.575 1.231-4.183 3.536-9.216 7.921-12.527 2.33-1.754 4.255-3.308 6.319-4.442 1.198-.659 2.445-1.168 3.827-1.479l.135 1.133c-1.22.287-2.323.744-3.416 1.341-1.94 1.062-3.836 2.585-6.182 4.353-3.835 2.887-6.039 7.288-7.28 11.172-1.242 3.881-1.52 7.225-1.566 7.936l-.006.108.699 8.399c1.907-.381 8.019-1.48 17.506-2l-.025.142a241.31 241.31 0 0 0-18.601 2.075Zm59.312-.207-.616-.065c-8.903-.933-22.272-2.137-31.949-2.138-.403 0-.8.002-1.19.007l1.113-.079c.769-.009 1.554-.013 2.354-.013 8.259 0 18.09.508 29.192 1.991.051-.226.113-.529.177-.899a22.25 22.25 0 0 0 .302-3.696c0-3.046-.597-7.101-2.969-11.194-2.376-4.092-6.528-8.242-13.733-11.474-6.504-2.918-11.313-4.65-15.053-5.486l-.149-1.194c3.925.826 8.9 2.613 15.667 5.645 7.387 3.309 11.754 7.633 14.249 11.94 2.497 4.306 3.123 8.572 3.123 11.763 0 2.322-.331 4.081-.518 4.892Z"/>
  <path fill="#ABAFB8" d="m428.211 279.121-.094-1.134a241.31 241.31 0 0 1 18.601-2.075l-.029.159 6.985-.487c.39-.005.787-.007 1.19-.007 9.677.001 23.046 1.205 31.949 2.138l.616.065a7.219 7.219 0 0 1-.126.495l-.138.465-.481-.065c-11.255-1.527-21.207-2.048-29.543-2.048h-.002c-15.632 0-25.592 1.831-27.814 2.283-.318.064-.472.101-.474.101l-.18.04-.46.07Z"/>
  <path fill="#CCCFD3" d="M453.883 244.495c-1.401-.258-2.644-.377-3.767-.377h-.019c-.706 0-1.365.046-1.991.134l-.135-1.127a15.25 15.25 0 0 1 2.108-.142h.018c1.111.001 2.314.108 3.639.333l.147 1.179Zm-7.165 31.417.025-.142a191.86 191.86 0 0 1 8.044-.265l-1.113.079a78.96 78.96 0 0 0-3.225.096c-1.263.067-2.508.144-3.731.232Z"/>
  <path fill="#CCCFD3" d="m446.689 276.071.029-.159c1.223-.087 2.468-.165 3.731-.232a78.963 78.963 0 0 1 3.224-.096l-6.984.487Zm8.368-31.337a28.19 28.19 0 0 0-1.174-.239l-.147-1.178c.381.064.771.138 1.172.223l.149 1.194Zm-8.069-.273-.135-1.133c.362-.082.735-.15 1.118-.203l.135 1.127c-.384.054-.755.124-1.118.209Z"/>
  <path fill="#F8A492" d="M394 258.152c1.195-7.142 2.762-9.928 5.003-12.281 2.239-2.353 2.899-4.763 3.376-4.718.604.059 1.645 4.084-1.93 8.831-2.889 3.427-6.449 8.168-6.449 8.168Z"/>
  <defs>
    <filter id="a" width="636" height="521" x="63" y="0" color-interpolation-filters="sRGB" filterUnits="userSpaceOnUse">
      <feFlood flood-opacity="0" result="BackgroundImageFix"/>
      <feColorMatrix in="SourceAlpha" result="hardAlpha" values="0 0 0 0 0 0 0 0 0 0 0 0 0 0 0 0 0 0 127 0"/>
      <feOffset dy="-10"/>
      <feGaussianBlur stdDeviation="25"/>
      <feComposite in2="hardAlpha" operator="out"/>
      <feColorMatrix values="0 0 0 0 0 0 0 0 0 0 0 0 0 0 0 0 0 0 0.46 0"/>
      <feBlend in2="BackgroundImageFix" result="effect1_dropShadow_319_2247"/>
      <feBlend in="SourceGraphic" in2="effect1_dropShadow_319_2247" result="shape"/>
    </filter>
    <filter id="b" width="201.607" height="204.02" x="348.812" y="120.575" color-interpolation-filters="sRGB" filterUnits="userSpaceOnUse">
      <feFlood flood-opacity="0" result="BackgroundImageFix"/>
      <feColorMatrix in="SourceAlpha" result="hardAlpha" values="0 0 0 0 0 0 0 0 0 0 0 0 0 0 0 0 0 0 127 0"/>
      <feOffset dy="4"/>
      <feGaussianBlur stdDeviation="15"/>
      <feComposite in2="hardAlpha" operator="out"/>
      <feColorMatrix values="0 0 0 0 0.50868 0 0 0 0 0.50868 0 0 0 0 0.50868 0 0 0 0.98 0"/>
      <feBlend in2="BackgroundImageFix" result="effect1_dropShadow_319_2247"/>
      <feBlend in="SourceGraphic" in2="effect1_dropShadow_319_2247" result="shape"/>
    </filter>
  </defs>
</svg>
