<svg xmlns="http://www.w3.org/2000/svg" width="200" height="200" fill="none" viewBox="0 0 422 402">
  <path fill="#fff" d="M105.373 288.909c-1.688-1.688-4.177-2.331-6.473-3.135-5.067-1.779-9.63-4.657-13.327-8.407-3.697-3.749-6.427-8.267-7.973-13.196a31.621 31.621 0 0 1-.935-15.2c.931-5.068 3.088-9.859 6.3-13.994l-.346-1.696c-.785-7.928-10.828-13.604-18.509-10.452-7.68 3.151-10.28 13.965-4.794 19.979-9.005.707-14.964 10.452-13.69 19.015 1.275 8.562 7.816 15.517 15.108 20.606 12.072 8.383 26.596 12.954 41.533 13.073a6.013 6.013 0 0 0 2.954-.506c2.11-1.182 1.84-4.39.152-6.087Zm250.964-34.676c2.068-3.216 2.363-7.518.261-10.701-2.101-3.184-6.709-4.784-10.296-3.216a6.897 6.897 0 0 0 .946-5.422c-.452-1.856-1.659-3.464-3.356-4.472a7.863 7.863 0 0 0-5.692-.901c-1.947.431-3.636 1.58-4.693 3.197-2.397 3.529-1.131 8.265.928 11.987 2.059 3.723 4.887 7.236 5.562 11.361.675 4.124-1.013 8.587-3.68 12.06-2.667 3.473-6.22 6.191-9.74 8.844l-.666.611a25.306 25.306 0 0 0 9.883 1.14 25.074 25.074 0 0 0 9.529-2.748c3.308-1.745 6.372-4.631 6.591-8.225.118-2.01-.667-4.02-.346-6.014.431-2.846 3.131-4.969 4.769-7.501ZM174.835 385.671c-3.284-.386-6.575-1.753-8.508-4.31-1.232-1.608-1.831-3.634-2.903-5.37-1.072-1.737-2.937-3.305-5.064-3.112-3.258.306-5.461 4.599-8.643 3.843-1.907-.458-2.819-2.597-2.827-4.47-.009-1.873.557-3.747.312-5.628-.684-5.234-7.739-7.807-13.006-6.167-5.267 1.64-13.251 7.679-16.686 11.819 3.612 5.717 11.014 7.936 17.8 9.56a489.385 489.385 0 0 0 34.477 6.922c2.718.442 5.495.868 8.213.458 2.717-.41 5.427-1.784 6.684-4.116-3.224.49-6.6.965-9.849.571Zm130.693-40.313c-.844-4.47-5.52-8.41-10.128-7.381 3.849-3.023 3.874-9.101.844-12.864-3.03-3.762-8.339-5.394-13.327-5.25-4.988.145-9.773 1.809-14.398 3.578 2.27-2.749-1.055-7.043-4.718-7.236-3.663-.193-6.947 1.986-9.926 4.02s-6.406 4.149-10.035 3.61l3.376 1.303c8.145 1.173 16.357 2.982 23.404 7.035 7.048 4.052 12.863 10.661 14.078 18.419 1.215 7.759-3.072 16.442-10.795 19.16a34.2 34.2 0 0 0 15.209-2.728c4.768-2.054 8.95-5.166 12.196-9.075 2.903-3.586 5.064-8.129 4.22-12.591ZM37.92 229.421a64.839 64.839 0 0 1-.219-7.485c-.07-2.5.002-5.001.22-7.493a62.89 62.89 0 0 1 .22 7.493 62.65 62.65 0 0 1-.22 7.485Z"/>
  <path fill="#fff" d="M46.049 221.904a80.145 80.145 0 0 1-8.128.209 79.98 79.98 0 0 1-8.12-.209 77.198 77.198 0 0 1 8.12-.209 77.336 77.336 0 0 1 8.128.209Zm305.409 84.492a62.755 62.755 0 0 1-.219-7.485 62.89 62.89 0 0 1 .219-7.493c.218 2.492.291 4.993.22 7.493a64.705 64.705 0 0 1-.22 7.485Z"/>
  <path fill="#fff" d="M359.586 298.903c-2.703.217-5.416.29-8.128.217-2.711.073-5.424 0-8.127-.217a80.13 80.13 0 0 1 8.127-.209 80.142 80.142 0 0 1 8.128.209ZM303.764 49.406a62.685 62.685 0 0 1-.219-7.493 62.551 62.551 0 0 1 .219-7.486c.217 2.49.291 4.989.219 7.486a64.85 64.85 0 0 1-.219 7.493Z"/>
  <path fill="#fff" d="M311.892 41.913a77.478 77.478 0 0 1-8.128.209 77.478 77.478 0 0 1-8.128-.21 80.186 80.186 0 0 1 8.128-.209 80.186 80.186 0 0 1 8.128.21ZM46.969 163.646c2.652 0 4.802-2.048 4.802-4.575 0-2.526-2.15-4.574-4.802-4.574-2.653 0-4.803 2.048-4.803 4.574 0 2.527 2.15 4.575 4.803 4.575Zm191.68 190.307a4.428 4.428 0 0 1-.806 2.548 4.77 4.77 0 0 1-2.158 1.692 5.032 5.032 0 0 1-2.78.264 4.892 4.892 0 0 1-2.465-1.253 4.513 4.513 0 0 1-1.319-2.346 4.383 4.383 0 0 1 .272-2.649 4.641 4.641 0 0 1 1.772-2.058 4.982 4.982 0 0 1 2.674-.773 5.022 5.022 0 0 1 1.84.346c.584.23 1.114.566 1.561.991.447.425.801.93 1.043 1.485.242.556.366 1.151.366 1.753Zm44.699-86.478a4.423 4.423 0 0 1-.804 2.541 4.759 4.759 0 0 1-2.149 1.689 5.024 5.024 0 0 1-2.772.267 4.872 4.872 0 0 1-2.461-1.243 4.512 4.512 0 0 1-1.323-2.336 4.366 4.366 0 0 1 .262-2.642 4.623 4.623 0 0 1 1.757-2.06 5.018 5.018 0 0 1 4.506-.442 4.808 4.808 0 0 1 1.565.988c.449.424.805.928 1.048 1.484a4.38 4.38 0 0 1 .371 1.754ZM140.619 39.605a4.42 4.42 0 0 1-.81 2.542 4.753 4.753 0 0 1-2.155 1.685 5.023 5.023 0 0 1-2.774.26 4.877 4.877 0 0 1-2.459-1.252 4.516 4.516 0 0 1-1.315-2.343 4.372 4.372 0 0 1 .274-2.643 4.63 4.63 0 0 1 1.768-2.053 4.976 4.976 0 0 1 2.668-.77 4.92 4.92 0 0 1 3.396 1.34 4.466 4.466 0 0 1 1.407 3.234Zm20.357 273.006c1.329 0 2.406-1.026 2.406-2.291 0-1.266-1.077-2.292-2.406-2.292-1.328 0-2.405 1.026-2.405 2.292 0 1.265 1.077 2.291 2.405 2.291Zm-55.552-13.708c.002.454-.138.897-.401 1.275a2.392 2.392 0 0 1-1.078.848 2.516 2.516 0 0 1-1.39.133 2.438 2.438 0 0 1-1.234-.625 2.264 2.264 0 0 1-.661-1.173 2.193 2.193 0 0 1 .136-1.325c.181-.419.49-.777.885-1.03a2.495 2.495 0 0 1 1.338-.386c.315-.001.628.057.92.171.291.114.557.283.78.495.223.212.401.464.522.741.121.278.183.576.183.876ZM164.639 44.22c0 .453-.141.896-.405 1.273a2.39 2.39 0 0 1-1.08.844 2.517 2.517 0 0 1-1.39.13 2.445 2.445 0 0 1-1.231-.627 2.259 2.259 0 0 1-.659-1.173 2.197 2.197 0 0 1 .137-1.324c.182-.419.491-.777.886-1.028a2.494 2.494 0 0 1 3.035.287c.451.43.705 1.01.707 1.618Zm105.804 123.768c0 .453-.141.896-.405 1.273a2.39 2.39 0 0 1-1.08.844c-.44.173-.923.219-1.39.13a2.444 2.444 0 0 1-1.231-.627 2.258 2.258 0 0 1-.659-1.173 2.197 2.197 0 0 1 .137-1.324c.182-.419.491-.777.886-1.028a2.493 2.493 0 0 1 2.257-.212c.292.115.557.284.78.496.224.213.401.466.522.744.121.278.183.576.183.877Z"/>
  <path fill="#EBEBEB" d="M39.778 37.386s-5.351 2.629 2.144 13.306c7.494 10.677 12.406 15.823 12.406 15.823s1.41 2.516-.844 3.216c-2.253.7-7.503.474-8.203 3.304-.7 2.83 1.747 5.355 6.397 7.236 4.65 1.882 14.627 6.159 15.538 6.561.912.402 1.865 1.52.388 2.219-1.477.7-12.87 3.144-11.326 8.233 1.544 5.089 15.37 8.185 16.88 8.555 1.51.369 1.924.908 1.899 1.672-.025.764-3.942 1.246-7.149 2.066-3.207.82-6.752 2.316-5.638 5.178 1.114 2.862 9.765 8.169 29.05 7.799l8.922-.724 3.95-7.702c7.402-16.965 5.359-26.532 2.979-28.615-2.38-2.082-5.14.563-7.115 3.112-1.975 2.549-3.874 5.845-4.633 5.628-.76-.217-1.131-.804-.937-2.3.194-1.495 2.203-14.858-2.203-18.082s-10.972 5.99-12.179 7.052c-1.207 1.06-1.966-.234-2.025-1.166-.06-.933-.701-11.481-.802-16.241-.102-4.76-1.562-7.903-4.693-8.33-3.131-.426-4.743 4.31-6.229 6.07-1.485 1.761-3.435-.385-3.435-.385s-3.24-6.24-10.972-16.78c-7.73-10.54-12.28-6.64-12.28-6.64"/>
  <path fill="#fff" d="M100.942 123.76c-5.62-7.759-15.36-21.708-23.8-33.664-8.44-11.955-16.036-22.737-21.649-30.552l-6.617-9.197c-.776-1.078-1.376-1.922-1.798-2.5-.194-.29-.354-.508-.464-.66a1.337 1.337 0 0 1-.143-.233l.168.217.49.643 1.823 2.476c1.595 2.155 3.874 5.29 6.684 9.174 5.638 7.758 13.31 18.524 21.742 30.487 8.431 11.964 18.154 25.913 23.733 33.704"/>
  <path fill="#fff" d="M52.547 73.566c.217.009.433.041.642.096.405.073.996.201 1.688.37 1.443.322 3.435.804 5.612 1.415l5.588 1.536 1.688.458c.214.035.422.1.616.193a3.147 3.147 0 0 1-.642-.096 29.793 29.793 0 0 1-1.688-.37 206.17 206.17 0 0 1-5.612-1.463l-5.579-1.496-1.688-.45a3.177 3.177 0 0 1-.625-.193Zm16.408 3.457c-.068 0 .844-3.963 2.025-8.844 1.182-4.88 2.228-8.78 2.296-8.763.068.016-.844 3.971-2.025 8.844-1.182 4.872-2.22 8.78-2.296 8.763Zm12.069 18.894c.072-.199.171-.388.295-.563l.844-1.495a146.555 146.555 0 0 0 2.82-4.969 85.037 85.037 0 0 0 2.531-5.081l.752-1.56c.079-.195.18-.38.303-.554a2.51 2.51 0 0 1-.202.594c-.152.386-.38.925-.675 1.608a65.288 65.288 0 0 1-2.532 5.13 95.06 95.06 0 0 1-2.887 4.945 44.75 44.75 0 0 1-.962 1.447 3.17 3.17 0 0 1-.287.498Zm-15.546-.016c.199-.043.403-.062.607-.056l1.688-.064c1.41 0 3.376-.073 5.486-.097 2.11-.024 4.077 0 5.478 0h1.688a2.8 2.8 0 0 1 .607 0c-.199.042-.403.06-.607.056l-1.688.065c-1.41.04-3.376.08-5.486.104-2.11.024-4.077 0-5.478 0h-1.688a3.032 3.032 0 0 1-.607-.008Zm8.44 17.969c.256-.044.516-.065.776-.064l2.127-.088a629.207 629.207 0 0 1 14.044-.29H93a5.59 5.59 0 0 1 .777 0 3.22 3.22 0 0 1-.777.073l-2.126.08c-1.798.064-4.28.129-7.023.185-2.743.056-5.224.096-7.03.104h-2.127a4.576 4.576 0 0 1-.776 0Zm19.386-.506c.096-.251.215-.493.355-.724l1.046-1.929a203.008 203.008 0 0 0 3.376-6.432 184.43 184.43 0 0 0 3.115-6.513l.92-1.994c.1-.247.222-.486.362-.715a4.529 4.529 0 0 1-.261.756 74.303 74.303 0 0 1-.844 2.026 122.517 122.517 0 0 1-3.055 6.56c-1.275 2.541-2.532 4.776-3.427 6.384-.473.804-.844 1.447-1.131 1.89-.13.243-.282.474-.456.691Z"/>
  <path fill="#F5F5F5" d="M329.582 190.548c-9.512-7.903-10.415-20.848-8.71-32.232.278-1.906.287-3.94 1.435-5.516 1.148-1.576 3.494-2.492 5.19-1.503 1.41.804 1.874 2.532 2.532 4.02a11.418 11.418 0 0 0 4.22 4.751c1.207.764 2.743 1.311 4.077.804 1.831-.723 2.287-2.974 2.49-4.88.382-3.538.759-7.075 1.131-10.613.094-1.909.513-3.79 1.24-5.571a5.93 5.93 0 0 1 1.705-2.294 6.31 6.31 0 0 1 2.625-1.284c1.95-.314 4.178.973 4.363 2.87a15.878 15.878 0 0 1-.211 2.364c-.057.391.008.791.188 1.147.181.356.468.654.825.855.407.091.832.08 1.233-.033a2.425 2.425 0 0 0 1.054-.61 25.625 25.625 0 0 0 5.529-6.352 35.38 35.38 0 0 1 5.232-6.593c2.102-1.897 4.87-3.288 7.74-3.152 2.87.137 5.714 2.131 6.136 4.824.422 2.694-1.528 5.299-3.553 7.277a44.445 44.445 0 0 1-10.204 7.453 3.685 3.685 0 0 0-1.731 1.431c-.573 1.222.541 2.605 1.807 3.152 1.426.627 3.055.643 4.591.98 1.536.338 3.14 1.158 3.57 2.613.599 2.027-1.333 3.884-3.165 5.042a39.21 39.21 0 0 1-11.968 5.041 13.348 13.348 0 0 0-4.406 1.511c-1.291.852-2.202 2.485-1.637 3.9.566 1.415 2.346 2.026 3.916 1.913a29.257 29.257 0 0 0 4.549-1.142c2.845-.707 6.356-.16 7.858 2.268a5.808 5.808 0 0 1 .068 5.378 14.072 14.072 0 0 1-3.545 4.382c-4.902 4.512-10.971 7.708-17.589 9.262-6.583 1.448-12.534 1.407-18.568-1.439"/>
  <path fill="#fff" d="M333.49 183.69c2.7-6.022 5.763-11.89 9.174-17.576l2.65-4.486a68.396 68.396 0 0 1 2.676-4.309 86.712 86.712 0 0 1 5.908-7.622c1.991-2.332 3.966-4.487 5.832-6.481 1.865-1.993 3.654-3.819 5.351-5.418a70.863 70.863 0 0 1 8.583-6.979 60.174 60.174 0 0 1 2.532-1.656l.667-.419.236-.128a1.154 1.154 0 0 1-.211.161l-.65.442c-.574.386-1.418.957-2.481 1.712a75.207 75.207 0 0 0-8.491 7.043c-1.688 1.608-3.443 3.442-5.3 5.435-1.857 1.994-3.823 4.157-5.798 6.497a85.78 85.78 0 0 0-5.832 7.606c-.929 1.366-1.79 2.814-2.659 4.293l-2.65 4.486a173.326 173.326 0 0 0-9.158 17.527"/>
  <path fill="#fff" d="M348.074 157.319a3.765 3.765 0 0 1-.101-.804 42.413 42.413 0 0 1-.118-2.276c-.068-1.913-.068-4.566-.059-7.485.008-2.918 0-5.572-.119-7.485a90.508 90.508 0 0 0-.135-2.259 3.726 3.726 0 0 1 0-.804c.086.261.139.531.161.804.084.53.168 1.302.244 2.259.169 1.913.254 4.567.237 7.501-.017 2.935 0 5.492-.051 7.485v2.268c.006.266-.013.533-.059.796Zm26.113-1.93c-.342.03-.687.03-1.029 0h-2.811c-2.371 0-5.646.113-9.284.386-3.637.273-6.87.659-9.216 1.005-1.173.161-2.119.322-2.777.426a5.844 5.844 0 0 1-1.021.129c.321-.122.655-.211.996-.266a50.11 50.11 0 0 1 2.768-.538c2.338-.41 5.604-.804 9.225-1.11a94.904 94.904 0 0 1 9.284-.281c1.19 0 2.152.08 2.819.137.352.002.703.04 1.046.112Zm-40.334 27.923a1.415 1.415 0 0 1-.144-.314c-.084-.249-.202-.554-.337-.924a94.205 94.205 0 0 1-1.131-3.449c-.92-2.919-2.06-6.987-3.25-11.498-1.19-4.51-2.287-8.594-3.14-11.529a457.78 457.78 0 0 0-1.021-3.473c-.109-.378-.194-.692-.27-.949a1.574 1.574 0 0 1-.076-.338c.066.099.115.208.144.322l.337.925c.296.804.684 1.986 1.14 3.441.92 2.926 2.051 6.995 3.241 11.505 1.19 4.51 2.287 8.587 3.139 11.529.422 1.423.768 2.597 1.022 3.474l.278.94a.96.96 0 0 1 .068.338Zm35.203-6.987a2.271 2.271 0 0 1-.355.097l-1.021.209-3.773.756c-3.181.635-7.596 1.559-12.415 2.58-4.819 1.021-9.242 1.922-12.44 2.493-1.604.281-2.895.506-3.798.635l-1.038.153c-.12.021-.243.021-.363 0l.354-.097 1.021-.209 3.773-.756c3.182-.635 7.596-1.559 12.415-2.588 4.82-1.03 9.242-1.914 12.441-2.485 1.603-.289 2.895-.506 3.798-.635l1.038-.153c.12-.021.243-.021.363 0ZM256.264 54.672c1.527-8.378 5.722-20.623 10.744-27.65 5.022-7.026 12.761-12.55 21.64-13.756 8.879-1.206 18.568 2.814 22.535 10.396 2.135 4.076 2.532 8.771 4.085 13.073 1.553 4.301 4.962 8.619 9.731 8.964 4.22.314 8.297-2.588 12.449-1.817 5.419 1.005 7.503 7.357 7.537 12.607.034 5.25-.76 11.087 2.633 15.228 2.769 3.393 7.52 4.558 11.344 6.834 8.279 4.92 11.816 15.075 10.972 24.337-.844 9.262-5.318 17.833-10.069 25.945a197.78 197.78 0 0 0-16.036-38.496c-3.84-7.01-10.854-12.968-17.057-18.218-9.529-8.04-30.435-11.907-43.087-13.387-12.651-1.48-14.879-1.8-27.396-4.02"/>
  <path fill="#FFA840" d="M171.931 64.561c-31.287 2.163-65.452 6.11-90.502 15.276l7.917 50.998s48.547-16.554 88.054-15.405l-5.469-50.869Z"/>
  <path fill="#fff" d="M171.931 64.561c-31.287 2.163-65.452 6.11-90.502 15.276l7.917 50.998s48.547-16.554 88.054-15.405l-5.469-50.869Z" opacity=".8"/>
  <path fill="#FFA840" d="m169.644 108.701-.304.048-.886.121-3.376.402c-1.485.169-3.3.378-5.402.667-2.101.289-4.498.579-7.131.997-10.559 1.552-25.093 4.116-40.875 8.04-5.486 1.351-10.778 2.742-15.614 4.189l-.245.064v-.233c-1.688-11.69-3.326-21.772-4.583-28.944-.641-3.554-1.156-6.432-1.51-8.37-.178-.957-.313-1.704-.414-2.235 0-.241-.068-.434-.093-.579a.616.616 0 0 1 0-.2.776.776 0 0 1 .059.192c0 .145.076.338.135.571.11.53.27 1.27.481 2.227.405 1.938.97 4.776 1.629 8.346 1.334 7.139 3.022 17.221 4.743 28.944l-.278-.161c4.853-1.463 10.128-2.862 15.639-4.213a416.056 416.056 0 0 1 40.934-7.895c2.642-.394 5.064-.66 7.149-.925 2.084-.265 3.924-.458 5.41-.603l3.426-.33.895-.072c.069-.022.139-.038.211-.048Z"/>
  <path fill="#FFA840" d="M170.741 96.303s-.118-.354-.363-1.02a10.598 10.598 0 0 0-1.612-2.63 13.817 13.817 0 0 0-3.798-3.176c-.405-.257-.886-.45-1.35-.683a12.528 12.528 0 0 0-1.528-.523 8.75 8.75 0 0 0-3.486-.321 7.465 7.465 0 0 0-3.544 1.326 11.651 11.651 0 0 0-2.836 2.935c-1.688 2.323-2.709 5.153-3.975 8.088a10.071 10.071 0 0 1-2.946 4.02 5.657 5.657 0 0 1-2.439 1.118 5.188 5.188 0 0 1-2.752-.306c-3.561-1.343-5.148-5.258-8.752-6.432a7.382 7.382 0 0 0-5.342.418 6.805 6.805 0 0 0-2.119 1.56 10.356 10.356 0 0 0-1.409 2.155c-.802 1.511-1.41 3.216-2.769 4.381a4.215 4.215 0 0 1-2.43 1.038 5.052 5.052 0 0 1-2.532-.515 8.975 8.975 0 0 1-3.494-3.272 28.273 28.273 0 0 1-1.849-4.02 18.519 18.519 0 0 0-1.831-3.626 7.469 7.469 0 0 0-2.794-2.477 7.54 7.54 0 0 0-3.186-.8 7.568 7.568 0 0 0-3.228.624 10.845 10.845 0 0 0-4.077 2.797 7.435 7.435 0 0 0-1.528 2.662c-.219.667-.244 1.045-.278 1.037.02-.36.085-.716.194-1.061a7.119 7.119 0 0 1 1.477-2.742 10.949 10.949 0 0 1 4.11-2.91 7.814 7.814 0 0 1 3.347-.676 7.794 7.794 0 0 1 3.313.812 7.764 7.764 0 0 1 2.937 2.557 18.735 18.735 0 0 1 1.882 3.682 28.387 28.387 0 0 0 1.848 3.948 8.535 8.535 0 0 0 3.376 3.119 4.63 4.63 0 0 0 2.321.475 3.843 3.843 0 0 0 2.186-.949c1.249-1.085 1.857-2.726 2.659-4.261.39-.805.884-1.561 1.468-2.251a7.206 7.206 0 0 1 2.254-1.657 7.824 7.824 0 0 1 5.68-.442c1.916.603 3.291 2.01 4.566 3.28a12.673 12.673 0 0 0 4.22 3.216 4.735 4.735 0 0 0 2.532.282 5.291 5.291 0 0 0 2.253-1.029 9.803 9.803 0 0 0 2.836-3.859c1.258-2.903 2.363-5.773 4.051-8.129a11.626 11.626 0 0 1 2.938-3.007 7.89 7.89 0 0 1 3.705-1.359 9.102 9.102 0 0 1 3.595.362c.533.15 1.055.336 1.562.555a14.43 14.43 0 0 1 5.173 4.02 10.172 10.172 0 0 1 1.562 2.71c.088.263.162.532.219.803a1.567 1.567 0 0 1-.017.153Zm-82.923-6.697c0 .112-.388.281-.911.378-.524.096-.97.08-.988 0-.017-.08.38-.282.903-.378.524-.097.954-.113.996 0Zm1.384 9.286c.051.113-.253.346-.683.539-.43.193-.844.257-.844.152 0-.104.261-.337.692-.53.43-.193.785-.241.835-.161Zm1.731 10.203c0 .112-.279.313-.71.458-.43.145-.843.169-.843.064 0-.104.278-.313.709-.458.43-.145.801-.169.844-.064Zm2.076 10.002c0 .112-.33.321-.844.458-.515.136-.895.177-.929.064-.033-.112.321-.313.794-.458.472-.145.937-.169.979-.064Zm59.004-48.056a4.56 4.56 0 0 1 1.021-.225c.675-.104 1.688-.249 2.912-.418 2.532-.337 6.085-.804 10.347-1.278h.203v.193c.329 3.425.717 7.364 1.122 11.545v.378h-.211l-13.985 1.608h-.194v-.177c-.388-3.497-.717-6.432-.954-8.514-.101-.981-.177-1.76-.244-2.356a6.36 6.36 0 0 1-.051-.804c.069.281.119.566.152.852.093.595.203 1.391.346 2.412.279 2.075.658 4.953 1.123 8.41l-.211-.16 13.985-1.697-.194.225v-.169c-.389-4.18-.752-8.128-1.072-11.553l.219.169-14.314 1.56Z"/>
  <path fill="#FFA840" d="M165.01 73.067c0 .13-2.405.121-5.342.427-2.937.305-5.292.804-5.326.65a27.186 27.186 0 0 1 10.668-1.077Zm.152 2.991c0 .121-2.245.201-4.988.459-2.743.257-4.971.579-4.996.458a20.434 20.434 0 0 1 4.954-.876 20.203 20.203 0 0 1 5.03-.04Zm-3.35 2.605a9.631 9.631 0 0 1-2.853.555c-.952.184-1.928.233-2.895.145a9.933 9.933 0 0 1 2.844-.555 10.396 10.396 0 0 1 2.904-.145Zm162.647.933c-30.637-8.892-56.489-16.49-91.152-16.281l-5.3 51.963c36.047 3.039 48.108 5.29 81.378 16.763l15.074-52.445Z"/>
  <path fill="#fff" d="M324.459 79.596c-30.637-8.892-56.489-16.49-91.152-16.281l-5.3 51.963c36.047 3.039 48.108 5.29 81.378 16.763l15.074-52.445Z" opacity=".8"/>
  <path fill="#FFA840" d="M312.618 89.47a7.463 7.463 0 0 1-1.19-.46 70.425 70.425 0 0 0-3.216-1.326 101.545 101.545 0 0 0-10.871-3.634 103.41 103.41 0 0 0-11.259-2.412 130.506 130.506 0 0 0-3.46-.49c-.428-.03-.852-.1-1.266-.21.431-.015.863 0 1.291.049a63.29 63.29 0 0 1 3.486.362 84.393 84.393 0 0 1 22.206 6.03c1.35.579 2.43 1.077 3.165 1.447.39.184.762.399 1.114.643Zm-.929 5.402a8.25 8.25 0 0 1-1.19-.466c-.751-.322-1.848-.804-3.216-1.319a99.34 99.34 0 0 0-22.129-6.014 130.561 130.561 0 0 0-3.461-.49 9.223 9.223 0 0 1-1.266-.21c.431-.026.864-.01 1.292.049.844.048 2.017.169 3.485.354a85.06 85.06 0 0 1 11.327 2.267 85.634 85.634 0 0 1 10.879 3.77 59.456 59.456 0 0 1 3.165 1.448c.392.167.766.371 1.114.611Zm-.928 5.443a7.462 7.462 0 0 1-1.19-.458c-.751-.322-1.849-.804-3.216-1.327a103.36 103.36 0 0 0-10.871-3.658 105.36 105.36 0 0 0-11.259-2.412 167.045 167.045 0 0 0-3.46-.49c-.428-.03-.852-.1-1.266-.21.431-.016.863 0 1.291.049a62.95 62.95 0 0 1 3.486.362 84.98 84.98 0 0 1 11.327 2.267 83.2 83.2 0 0 1 10.879 3.77c1.35.58 2.43 1.078 3.165 1.448a6.76 6.76 0 0 1 1.114.659Zm-1.857 5.427a8.552 8.552 0 0 1-1.156-.458c-.726-.33-1.79-.804-3.106-1.319a94.495 94.495 0 0 0-21.472-6.022 103.51 103.51 0 0 0-3.376-.49c-.417-.03-.829-.1-1.232-.21a7.09 7.09 0 0 1 1.258.049c.802.048 1.958.169 3.376.362a80.388 80.388 0 0 1 11.014 2.267 81.198 81.198 0 0 1 10.558 3.795c1.309.579 2.355 1.077 3.056 1.447.378.16.74.354 1.08.579Zm-4.034 4.326a6.722 6.722 0 0 1-1.038-.394l-2.794-1.182a70.582 70.582 0 0 0-19.26-5.234l-3.03-.402a7.254 7.254 0 0 1-1.106-.185 5.02 5.02 0 0 1 1.123 0c.726 0 1.764.128 3.047.265a60.92 60.92 0 0 1 19.352 5.258 62.3 62.3 0 0 1 2.743 1.311c.341.154.664.343.963.563Zm-13.614.611a15.186 15.186 0 0 1-2.178-.426 88.151 88.151 0 0 0-5.241-1.014c-2.059-.329-3.941-.586-5.3-.804a13.563 13.563 0 0 1-2.195-.361 10.786 10.786 0 0 1 2.229.064c1.375.113 3.266.306 5.342.651 1.768.287 3.518.668 5.241 1.142.729.172 1.434.423 2.102.748Zm-52.674-41.237.709-.04 2.11-.065c1.857 0 4.557 0 8.001.169a133.692 133.692 0 0 1 28.105 4.824l.152.048v.153c-2.11 11.521-4.625 25.213-7.309 39.862-.11.595-.219 1.19-.329 1.769v.225l-.236-.056a190.762 190.762 0 0 0-18.762-3.691c-6.052-.884-11.817-1.511-17.201-1.833h-.211v-.193c1.477-12.293 2.717-22.584 3.587-29.828.439-3.586.793-6.432 1.029-8.362.119-.948.22-1.68.279-2.195 0-.233.059-.418.076-.562.017-.145 0-.185 0-.177a.965.965 0 0 1 0 .2c0 .145 0 .338-.059.58-.051.522-.135 1.27-.236 2.235-.211 1.962-.532 4.824-.929 8.41-.844 7.236-1.992 17.487-3.376 29.748l-.186-.201c5.394.305 11.183.924 17.243 1.801a191.087 191.087 0 0 1 18.813 3.682l-.27.169c.11-.579.219-1.174.329-1.769 2.709-14.649 5.241-28.333 7.368-39.846l.127.2a136.362 136.362 0 0 0-28.004-4.928c-3.427-.217-6.144-.273-7.967-.265h-2.836l-.017-.064Zm-33.456 106.184 29.877 6.303 4.566-6.303-.734-8.113-4.541-3.955h-15.647L204.029 176.1"/>
  <path fill="#000" d="m205.126 175.626 29.877 6.303 4.566-6.303-.734-8.113-4.541-3.955h-15.647L204.029 176.1" opacity=".3"/>
  <path fill="#FFBE9D" d="m250.668 117.014 37.718-4.824 5.908-1.608s13.597-2.846 14.863-3.28c1.469-.499 2.076.056 2.228.579.245.804-.582 1.744-1.831 2.211-.422.161-7.318 2.412-7.318 2.412.792.161 1.571.376 2.33.643 1.646.531 3.224 2.557 4.017 4.92.794 2.364.802 3.088-.152 3.425a1.381 1.381 0 0 1-1.097-.144 2.523 2.523 0 0 1-1.131-1.351c-1.325-3.771-3.798-4.068-3.798-4.068l-.776.209s2.532 1.696 2.532 3.754c-.007.302-.076.6-.203.877.188.511.232 1.06.128 1.593a3.052 3.052 0 0 1-.719 1.444 3.273 3.273 0 0 1-1.376.913 3.42 3.42 0 0 1-1.671.142c-.54-.096-1.13-.402-1.206-.916a1.546 1.546 0 0 1 .177-.804c.054-.14.099-.282.135-.426l-2.262.297s-5.123.402-7.326.804l-35.313 10.13a9.586 9.586 0 0 1-3.587.332 9.474 9.474 0 0 1-3.443-1.014 9.057 9.057 0 0 1-2.765-2.202 8.573 8.573 0 0 1-1.658-3.049 8.319 8.319 0 0 1-.237-3.697 8.475 8.475 0 0 1 1.397-3.456 8.958 8.958 0 0 1 2.779-2.59 9.439 9.439 0 0 1 3.657-1.256Z"/>
  <path fill="#FFBE9D" d="M289.273 113.091c.08.371.28.708.572.965.292.257.662.42 1.056.466.777.153 1.587.056 2.372.153 2.346.305 4.178 2.339 6.533 2.532.329 0 .751 0 .844-.338.092-.337-.161-.538-.389-.731l-5.908-4.961"/>
  <path fill="#EB996E" d="M294.379 111.177c.247.135.479.294.692.474.422.33 1.038.804 1.781 1.416l2.608 2.13.742.619c.228.217.616.402.684.917a.615.615 0 0 1-.107.356.663.663 0 0 1-.298.239c-.2.079-.417.112-.633.096a4.929 4.929 0 0 1-1.131-.217 30.806 30.806 0 0 1-3.773-1.817 5.972 5.972 0 0 0-1.688-.531c-.548-.08-1.089-.064-1.578-.096a2.91 2.91 0 0 1-1.179-.215 2.772 2.772 0 0 1-.973-.669c-.346-.459-.279-.804-.262-.804.092.244.226.472.397.675.268.244.586.432.935.551a2.76 2.76 0 0 0 1.09.14 16.54 16.54 0 0 1 1.621.049 6.492 6.492 0 0 1 1.806.522 34.738 34.738 0 0 0 3.731 1.777c.332.098.674.163 1.021.193.329 0 .607-.088.574-.249-.034-.161-.27-.418-.524-.627l-.742-.627-2.532-2.203-1.688-1.512c-.397-.354-.6-.563-.574-.587Zm7.224 4.913a3.328 3.328 0 0 1 1.486 0c.51.129.963.41 1.291.804.402.509.716 1.076.929 1.68.218.62.501 1.218.844 1.785.298.475.723.866 1.232 1.133a1.31 1.31 0 0 0 1.156 0c.245-.12.338-.241.329-.249-.008-.008-.135.065-.371.153a1.296 1.296 0 0 1-1.021-.097 3.182 3.182 0 0 1-1.098-1.093 10.06 10.06 0 0 1-.844-1.761 5.84 5.84 0 0 0-.995-1.736 2.664 2.664 0 0 0-1.444-.877 2.536 2.536 0 0 0-1.156 0c-.219.161-.346.242-.338.258Zm8.474-6.183a7.77 7.77 0 0 0-1.376.442l-3.274 1.15-3.275 1.101a7.187 7.187 0 0 0-1.35.491 7.071 7.071 0 0 0 1.418-.306 57.186 57.186 0 0 0 3.325-1.029 54.69 54.69 0 0 0 3.258-1.222 6.499 6.499 0 0 0 1.274-.627Zm-9.47 8.184s.102.129.296.33c.142.126.255.279.329.45.074.17.109.354.101.539a.667.667 0 0 1-.149.322.725.725 0 0 1-.298.209 4.2 4.2 0 0 1-.912.241 1.64 1.64 0 0 0-1.021.514 1.299 1.299 0 0 0-.169 1.182c.072.192.183.368.328.517.146.15.321.269.516.352.351.163.746.219 1.131.16a6.575 6.575 0 0 0 1.747-.619 3.722 3.722 0 0 0 1.013-.715.918.918 0 0 0 .237-.378s-.11.121-.321.297a4.244 4.244 0 0 1-1.021.619 6.859 6.859 0 0 1-1.688.547 1.62 1.62 0 0 1-1-.153 1.51 1.51 0 0 1-.688-.707 1.023 1.023 0 0 1 .118-.941c.218-.234.518-.386.844-.426.332-.059.655-.156.962-.289a.94.94 0 0 0 .365-.288.878.878 0 0 0 .175-.42 1.323 1.323 0 0 0-.141-.607 1.38 1.38 0 0 0-.407-.486c-.195-.153-.338-.266-.347-.25Z"/>
  <path fill="#EB996E" d="M299.797 122.57s-.16 0-.371.169a1.193 1.193 0 0 0-.334.451 1.15 1.15 0 0 0-.088.546c.036.278.148.542.324.766.176.224.41.401.68.512.656.25 1.387.25 2.043 0a3.298 3.298 0 0 0 1.629-1.182 2.93 2.93 0 0 0 .548-1.495 2.64 2.64 0 0 0-.126-1.062.863.863 0 0 0-.169-.353c.092.458.123.925.093 1.391a2.908 2.908 0 0 1-.676 1.484 3.129 3.129 0 0 1-1.392.928 2.659 2.659 0 0 1-1.84 0 1.488 1.488 0 0 1-.601-.418 1.39 1.39 0 0 1-.311-.644 1.119 1.119 0 0 1 .296-.9c.169-.121.312-.169.295-.193Zm-6.271-2.951s0-.257-.244-.627a2.746 2.746 0 0 0-1.376-1.069v.241c.292-.131.574-.281.844-.45a6.09 6.09 0 0 0 2.363-2.324 15.82 15.82 0 0 1-2.532 2.09 9.69 9.69 0 0 1-.844.451l-.287.144.304.097c.525.177.985.495 1.325.916.312.314.405.539.447.531Zm11.74-3.843c-.05-.048-.447.37-.498 1.037-.05.667.287 1.126.355 1.086.067-.041-.11-.491-.059-1.07.05-.579.278-1.005.202-1.053Z"/>
  <path fill="#FFBE9D" d="M129.284 128.278s-5.503-8.498-6.482-9.222c-.979-.723-9.698-3.762-10.44-3.537-.743.225-11.31 1.937-10.128 3.135 1.181 1.198 8.583-.104 8.583-.104l.996.474s-6.372.965-7.714 1.705c-1.342.739-.844 2.114.363 2.002 1.207-.113 6.693-1.134 7.022-.917.329.217-6.018 1.423-6.701 1.801-.92.523-1.013 2.074.152 2.002.683-.048 6.667-1.52 6.667-1.52a53.284 53.284 0 0 0-5.182 2.139c-.717.651-.152 1.608.844 1.415.709-.145 4.06-1.672 5.005-1.865 0 0 .844.225 1.688 1.929.371.804 2.076 5.749 5.19 5.685 2.76-.057 5.47 2.106 5.47 2.106l4.667-7.228Z"/>
  <path fill="#EB996E" d="M102.284 118.678a5.008 5.008 0 0 0 1.925.507c.721.098 1.45.128 2.177.088a79.685 79.685 0 0 0 2.617-.329l1.975-.274h-.119c1.476.578 3 1.033 4.558 1.359a29.853 29.853 0 0 0-4.397-1.785h-.118l-1.958.25-2.592.361c-.702.052-1.407.052-2.11 0-1.198-.08-1.941-.249-1.958-.177Z"/>
  <path fill="#FFBE9D" d="M125.157 127.273a2.193 2.193 0 0 1-1.228.374c-.44 0-.87-.131-1.228-.374-.751-.434-1.334-1.093-2.051-1.608-2.144-1.447-5.241-1.101-7.318-2.645-.287-.209-.574-.563-.413-.876.16-.314.557-.322.903-.314l8.701.193"/>
  <path fill="#EB996E" d="M122.523 122.055a4.146 4.146 0 0 0-.936-.112c-.608 0-1.486-.089-2.532-.129l-3.807-.145h-1.105a1.792 1.792 0 0 0-.665.007 1.713 1.713 0 0 0-.61.251.689.689 0 0 0-.143.804c.098.211.248.395.439.538.337.25.702.463 1.088.635 1.473.511 2.982.922 4.516 1.231a6.799 6.799 0 0 1 1.781.804c.506.329.928.731 1.358 1.061.323.295.709.52 1.131.659.423.139.872.188 1.317.145.65-.113.844-.45.844-.45a2.83 2.83 0 0 1-.844.273 3.15 3.15 0 0 1-1.195-.235 3.017 3.017 0 0 1-.999-.666c-.397-.329-.844-.747-1.351-1.125a6.87 6.87 0 0 0-1.882-.868 39.737 39.737 0 0 1-4.431-1.239 5.632 5.632 0 0 1-.996-.57c-.278-.218-.413-.515-.262-.628.152-.112.549-.136.92-.128h7.445c.31.001.619-.037.919-.113Z"/>
  <path fill="#FFA840" d="m172.176 316.599-2 21.081-6.643 16.249a2.075 2.075 0 0 0 .073 1.725c.135.267.327.506.562.7.236.194.511.34.809.429a2.384 2.384 0 0 0 2.059-.338c3.739-2.709 17.437-12.759 17.496-14.311.068-1.793 3.68-22.142 3.68-22.142l-16.036-3.393Z"/>
  <path fill="#fff" d="m164.977 356.791 19.724-16.08-.101.893a3.246 3.246 0 0 1-1.064 2.018c-1.586 1.415-6.068 5.242-16.432 12.864a2.373 2.373 0 0 1-2.127.329v-.024Zm16.002-23.348a1.332 1.332 0 0 0-.619.728c-.106.307-.09.64.045.936.157.278.417.489.73.592.313.103.655.09.958-.037a1.4 1.4 0 0 0 .659-.769 1.322 1.322 0 0 0-.051-.992 1.378 1.378 0 0 0-.849-.555 1.435 1.435 0 0 0-1.017.161" opacity=".6"/>
  <path fill="#263238" d="M171.129 348.132c-.135.048-.498-1.11-1.747-1.849a7.256 7.256 0 0 0-2.481-.74c0-.048.287-.185.844-.201a3.67 3.67 0 0 1 1.941.555c.583.346 1.044.85 1.325 1.447.178.482.169.788.118.788Zm-1.915 2.661c-.11.081-.743-.683-1.849-1.117a19.86 19.86 0 0 0-2.118-.499 2.63 2.63 0 0 1 2.312.073c1.241.49 1.781 1.503 1.655 1.543Zm5.275-5.941a22.607 22.607 0 0 0-2.735-1.906c-1.637-.844-3.199-.94-3.182-1.085a5.269 5.269 0 0 1 3.418.675 4.965 4.965 0 0 1 2.499 2.316Zm1.173-6.368c-.076.121-1.233-.498-2.819-.724-1.587-.225-2.878 0-2.912-.136a5.932 5.932 0 0 1 2.99-.321 5.803 5.803 0 0 1 2.741 1.181Zm.734-6.167a11.421 11.421 0 0 0-2.912-.804 11.9 11.9 0 0 0-3.013.378c0-.048.236-.281.785-.506a5.01 5.01 0 0 1 2.262-.338 5.192 5.192 0 0 1 2.186.667c.523.282.751.555.692.603Zm-2.709-2.002a1.69 1.69 0 0 1 .067-.804c.163-.72.473-1.403.912-2.01a2.612 2.612 0 0 1 1.24-1.053.973.973 0 0 1 .553.004c.179.055.337.16.452.302.204.29.288.642.236.989a3.041 3.041 0 0 1-1.095 1.795 3.324 3.324 0 0 1-2.045.721 3.87 3.87 0 0 1-2.07-.626 3.597 3.597 0 0 1-1.356-1.617 1.208 1.208 0 0 1 .059-1.029.895.895 0 0 1 .435-.324.945.945 0 0 1 .552-.022 3.114 3.114 0 0 1 1.368.876c.549.52.995 1.13 1.316 1.801.138.236.224.496.254.764a10.018 10.018 0 0 0-1.807-2.331 2.942 2.942 0 0 0-1.215-.732.502.502 0 0 0-.302.007.48.48 0 0 0-.238.178.822.822 0 0 0 0 .675 3.205 3.205 0 0 0 1.197 1.377c.53.339 1.152.526 1.791.537a2.886 2.886 0 0 0 1.736-.599c.49-.381.831-.91.964-1.5a.974.974 0 0 0-.135-.691.508.508 0 0 0-.548-.177 2.267 2.267 0 0 0-1.072.868 8.033 8.033 0 0 0-1.249 2.621Z"/>
  <path fill="#263238" d="m192.55 328.973 16.568-124.982-5.3-29.057-31.228 1.608-3.908 150.123a2.205 2.205 0 0 0 .523 1.495c.356.423.859.711 1.418.813l18.197 2.677c.43.062.869.042 1.291-.059a3.355 3.355 0 0 0 1.165-.532 3.15 3.15 0 0 0 .858-.921 3.01 3.01 0 0 0 .416-1.165Z"/>
  <path fill="#263238" d="m208.637 208.18 30.139 28.413-43.356 10.042 3.08 20.84 58.692-7.606a19.111 19.111 0 0 0 7.016-2.353 18.192 18.192 0 0 0 5.475-4.795c2.22-2.93 3.438-6.441 3.49-10.055.051-3.613-1.067-7.154-3.203-10.141l-45.728-63.934-20.424 6.343 4.819 33.246Z"/>
  <path fill="#455A64" d="M206.974 200.952a15.637 15.637 0 0 1 1.047 3.57 15.01 15.01 0 0 1 .616 3.658 16.329 16.329 0 0 1-1.047-3.57 16.025 16.025 0 0 1-.616-3.658Z"/>
  <path fill="#455A64" d="m202.56 249.24.717-.225 2.11-.627 8.086-2.34 29.422-8.426-.076.266-36.174-36.703.38-.113c-.718 5.765-1.469 11.787-2.228 17.93-3.731 29.748-7.242 56.698-9.951 76.171a1454.667 1454.667 0 0 1-3.376 23.042c-.481 2.702-.844 4.824-1.131 6.231-.152.7-.279 1.23-.363 1.608a8.619 8.619 0 0 1-.135.547s0-.193.093-.555c.093-.362.185-.916.32-1.608.304-1.415.591-3.529 1.047-6.239.844-5.443 1.958-13.314 3.258-23.059 2.642-19.473 6.094-46.415 9.824-76.179.768-6.142 1.519-12.164 2.237-17.929l.05-.442.321.322 36.081 36.766.186.193-.262.073-29.464 8.297-8.119 2.259-2.119.579c-.455.161-.734.161-.734.161Z"/>
  <path fill="#455A64" d="M192.829 326.617c-.118 0 3.325-26.532 7.689-59.247 4.363-32.715 8.001-59.206 8.119-59.19.118.016-3.317 26.532-7.681 59.246-4.363 32.715-8.001 59.199-8.127 59.191Zm10.921-138.891a9.35 9.35 0 0 1 .692 1.938 65.47 65.47 0 0 1 1.266 4.783c.422 1.882.751 3.602.945 4.824.149.669.22 1.351.211 2.035a10.018 10.018 0 0 1-.514-1.986 545.246 545.246 0 0 1-1.072-4.824c-.397-1.817-.844-3.425-1.131-4.824a9.262 9.262 0 0 1-.397-1.946Zm1.933-2.452s.422-.394 1.224-.129c.232.081.439.219.599.4.159.18.267.397.312.629.059.291.025.591-.097.863a1.51 1.51 0 0 1-.587.665 1.575 1.575 0 0 1-1.688-.169 1.224 1.224 0 0 1-.398-.592 1.168 1.168 0 0 1 .01-.702c.085-.3.287-.556.566-.716.194-.105.32-.105.329-.08a1.599 1.599 0 0 0-.591.86.884.884 0 0 0 .031.514c.061.165.171.31.315.419a1.194 1.194 0 0 0 1.249.104 1.15 1.15 0 0 0 .418-.482c.089-.195.12-.409.089-.619a1.063 1.063 0 0 0-.217-.478 1.122 1.122 0 0 0-.425-.326 2.343 2.343 0 0 0-1.139-.161Zm41.972 56.183c-.093.089-1.789-1.399-4.22-2.733-2.431-1.335-4.625-2.026-4.583-2.147 1.712.286 3.347.892 4.811 1.785a13.17 13.17 0 0 1 3.992 3.095Z"/>
  <path fill="#FFA840" d="m182.515 89.734-17.302 7.96 7.461 49.591-2.929 22.254a8.303 8.303 0 0 0 .524 4.178 8.691 8.691 0 0 0 2.523 3.452l27.945-.522 19.547-10.219 8.989-1.447-3.68-16.94 1.688-24.032 20.45 10.396a7.435 7.435 0 0 0 5.14.587l37.465-9.271-1.95-13.764-33.945 3.658-25.852-21.756-19.243-4.125-3.41-5.394h-19.691l-1.409.98a3.978 3.978 0 0 0-1.426 1.858l-.895 2.556Z"/>
  <path fill="#FFA840" d="M165.213 97.694c-3.596 2.356-6.322 5.732-7.79 9.648-1.975 5.853-6.44 29.515-6.44 29.515l-19.657-11.594L120 136.608l26.164 22.013a13.625 13.625 0 0 0 6.992 3.056 13.923 13.923 0 0 0 7.601-1.134 13.206 13.206 0 0 0 4.992-3.972 12.363 12.363 0 0 0 2.426-5.749l3.216-22.439-6.178-30.689Z"/>
  <path fill="#FFBE9D" d="m224.242 168.591-1.215-1.705-12.939 2.276-2.38 5.25 16.534-5.821Z"/>
  <path fill="#FFA840" d="M172.792 177.169c11.563 4.43 23.911 2.798 34.916-2.757 3.326-1.681 6.406-3.763 9.749-5.419 3.342-1.656 7.039-2.871 10.794-2.621 3.756.249 7.537 2.219 9.04 5.507 1.502 3.288 0 7.759-3.537 8.989l1.249 1.061c5.191-2.299 7.655-8.956 5.123-13.853-1.941-3.746-6.026-5.99-9.013-9.053-4.398-4.502-4.853-13.218-4.887-20.003"/>
  <path fill="#263238" d="M198.154 99.326a5.505 5.505 0 0 1-.844 0 3.347 3.347 0 0 0-2.051.901 4.455 4.455 0 0 0-1.021 3.143 10.23 10.23 0 0 0 .937 4.221l.329.692-.633-.451a33.49 33.49 0 0 1-4.363-3.674 30.515 30.515 0 0 1-6.702-9.776 21.543 21.543 0 0 1-1.088-3.393 8.217 8.217 0 0 1-.195-1.295 37.078 37.078 0 0 0 1.57 4.575 32.178 32.178 0 0 0 6.752 9.6 35.434 35.434 0 0 0 4.288 3.642l-.312.249a9.187 9.187 0 0 1-.718-2.259 9.48 9.48 0 0 1-.194-2.131 4.602 4.602 0 0 1 1.19-3.312 3.336 3.336 0 0 1 2.22-.86c.283.012.563.055.835.128Z"/>
  <path fill="#FFA840" d="M199.184 99.326c1.426-.587 3.536.274 4.558 1.383.675.74 1.055 1.753 1.941 2.235.886.483 3.705.86 4.524.265 0 0 .498-2.291.768-3.216a68.178 68.178 0 0 0 1.916-10.998c-2.718-1.263-1.967-2.919-6.871-2.597.708 2.133.769 4.412.178 6.577"/>
  <path fill="#263238" d="M206.206 92.95c-.051 0 .177-.619.279-1.76a12.338 12.338 0 0 0-.608-4.768l-.059-.193h.202a8.773 8.773 0 0 1 3.613.305 5.503 5.503 0 0 1 1.688 1.15 6.615 6.615 0 0 0 1.688 1.11l.135.064v.137c-.22 1.953-.464 4.084-.844 6.287a48.796 48.796 0 0 1-.912 4.157c-.354 1.326-.633 2.605-.928 3.811v.08l-.051.04a2.785 2.785 0 0 1-1.451.33 9.379 9.379 0 0 1-1.351-.08 9.098 9.098 0 0 1-1.266-.266 2.764 2.764 0 0 1-1.106-.571 10.642 10.642 0 0 1-1.299-1.704 4.515 4.515 0 0 0-1.334-1.15 4.926 4.926 0 0 0-2.431-.723 5.096 5.096 0 0 0-.911.128 1.96 1.96 0 0 1 .911-.249c.892-.023 1.771.2 2.532.643a4.656 4.656 0 0 1 1.444 1.19c.375.574.807 1.113 1.291 1.608a4.273 4.273 0 0 0 2.194.724c.428.054.86.075 1.292.064.422.013.841-.078 1.215-.265l-.076.112c.287-1.214.557-2.516.903-3.835.346-1.318.65-2.701.895-4.132.388-2.187.641-4.31.844-6.255l.118.2a7.193 7.193 0 0 1-1.823-1.18 4.959 4.959 0 0 0-1.545-1.094 8.676 8.676 0 0 0-3.443-.338l.143-.2c.496 1.58.66 3.239.482 4.88a8.786 8.786 0 0 1-.287 1.31 1.8 1.8 0 0 1-.144.434Zm28.831 75.89v-.917a5.498 5.498 0 0 0-.844-2.484 8.596 8.596 0 0 0-3.106-2.854 13.584 13.584 0 0 0-5.536-1.447c-2.144-.185-4.524-.073-7.082-.242a27.829 27.829 0 0 1-7.984-1.608c-2.852-1.04-5.345-2.816-7.199-5.129a11.7 11.7 0 0 1-2.068-4.125 15.066 15.066 0 0 1-.473-4.687c.127-3.216.895-6.199 1.359-9.125.464-2.811.746-5.647.844-8.491a67.312 67.312 0 0 0-3.604-23.862c-.354-1.102-.683-1.938-.894-2.509-.102-.273-.178-.49-.237-.659a.94.94 0 0 1-.067-.225s.042.064.11.209c.067.145.16.378.278.643.236.563.591 1.391.979 2.493a64.04 64.04 0 0 1 2.633 9.455 66.643 66.643 0 0 1 1.207 14.472 65.547 65.547 0 0 1-.844 8.546c-.455 2.943-1.215 5.95-1.342 9.077-.256 3.036.61 6.063 2.448 8.555 1.802 2.256 4.227 3.991 7.005 5.009a27.467 27.467 0 0 0 7.858 1.608c2.532.177 4.912.088 7.089.297a13.74 13.74 0 0 1 5.689 1.568 8.585 8.585 0 0 1 3.123 2.975c.474.779.741 1.657.776 2.557.012.233-.002.468-.042.699-.051.153-.067.201-.076.201Z"/>
  <path fill="#263238" d="M222.411 154.199c-.291.35-.616.673-.971.965-.32.297-.726.659-1.215 1.053-.49.394-1.03.869-1.688 1.327a46.436 46.436 0 0 1-4.667 3.079 49.023 49.023 0 0 1-12.795 5.106 47.587 47.587 0 0 1-5.579 1.005c-.802.12-1.528.16-2.169.209-.642.048-1.19.08-1.646.088a8.623 8.623 0 0 1-1.401 0c.46-.083.925-.134 1.392-.153.448 0 .996-.072 1.629-.153.633-.08 1.359-.128 2.153-.265a54.881 54.881 0 0 0 5.519-1.093 56.662 56.662 0 0 0 6.524-2.115 54.95 54.95 0 0 0 6.162-2.95 52.77 52.77 0 0 0 4.692-2.975c.65-.442 1.207-.893 1.688-1.271.481-.377.92-.715 1.258-.997a9.945 9.945 0 0 1 1.114-.86Zm-5.435-26.363c-.003.15-.029.299-.076.442l-.296 1.254a16.98 16.98 0 0 1-.557 1.962c-.253.756-.498 1.608-.895 2.557-.194.466-.388.957-.59 1.463-.203.507-.481 1.013-.726 1.552-.49 1.085-1.131 2.179-1.781 3.345-2.961 5.015-6.877 9.462-11.546 13.113-1.097.804-2.118 1.608-3.156 2.251-.507.33-.988.667-1.477.957l-1.41.804c-.844.538-1.747.924-2.49 1.294-.625.319-1.267.606-1.924.86l-1.249.499c-.144.061-.294.11-.448.145a2.1 2.1 0 0 1 .414-.225l1.207-.563a23.33 23.33 0 0 0 1.891-.925c.717-.394 1.569-.804 2.439-1.334l1.384-.804c.481-.29.954-.636 1.46-.965 1.013-.652 2.017-1.447 3.097-2.268a53.852 53.852 0 0 0 6.339-6.013 53.53 53.53 0 0 0 5.115-6.987c.658-1.158 1.308-2.235 1.797-3.305.262-.53.532-1.037.751-1.535l.608-1.448c.422-.908.684-1.768.954-2.516.27-.748.481-1.399.633-1.938l.371-1.23c.031-.154.085-.303.161-.442Zm-35.592 53.37a5.069 5.069 0 0 1-1.544-1.094 11.117 11.117 0 0 1-2.61-3.652 10.667 10.667 0 0 1-.91-4.332 4.824 4.824 0 0 1 .253-1.809c.076 0 0 .7.059 1.801.17 2.896 1.383 5.648 3.435 7.791.785.812 1.393 1.238 1.317 1.295Zm-.616-6.264c.127 0-.11 1.07 0 2.332.11 1.262.523 2.251.405 2.307a4.632 4.632 0 0 1-.414-4.639h.009Zm-8.33-28.783a1.247 1.247 0 0 1-.102-.378c-.059-.297-.126-.659-.211-1.093-.177-1.013-.422-2.412-.709-4.02a631.4 631.4 0 0 0-2.447-13.266c-1.013-5.17-2-9.849-2.701-13.234-.354-1.608-.65-2.991-.844-4.02-.093-.434-.16-.804-.219-1.085a1.146 1.146 0 0 1-.051-.394c.061.117.107.241.135.369.084.298.177.652.295 1.078.254.932.6 2.291 1.005 3.972.844 3.36 1.848 8.04 2.869 13.201a301.955 301.955 0 0 1 2.313 13.298c.262 1.713.456 3.096.574 4.02.05.443.093.804.126 1.11a1.22 1.22 0 0 1-.033.442Zm54.016 0a2.093 2.093 0 0 1-.043-.394v-5.346c0-3.546.203-8.442.633-13.837.431-5.395.996-10.267 1.435-13.789.228-1.712.414-3.119.557-4.165.068-.45.127-.828.177-1.133.014-.131.043-.261.085-.386.022.133.022.269 0 .402 0 .305-.059.683-.093 1.134-.101 1.053-.245 2.46-.414 4.18a851.427 851.427 0 0 0-1.308 13.789c-.464 5.395-.641 10.275-.759 13.813-.051 1.72-.093 3.135-.127 4.197l-.042 1.141a1.25 1.25 0 0 1-.101.394Zm-67.487 2.074c-.143.057-1.257-2.87-3.376-6.054-2.118-3.183-4.684-5.185-4.574-5.29a7.697 7.697 0 0 1 1.688 1.278 22.453 22.453 0 0 1 3.292 3.779 25.77 25.77 0 0 1 2.363 4.358c.286.617.49 1.265.607 1.929Z"/>
  <path fill="#263238" d="M160.419 144.72a15.001 15.001 0 0 1-.945-1.608 12.668 12.668 0 0 0-2.92-3.216 18.65 18.65 0 0 0-3.858-2.243 11.402 11.402 0 0 1-1.688-.804 6.85 6.85 0 0 1 1.832.514 14.972 14.972 0 0 1 4.017 2.195c1.209.942 2.2 2.11 2.912 3.433.322.536.542 1.121.65 1.729Z"/>
  <path fill="#FAFAFA" d="M169.112 125.424s-.042.129-.177.354a3.51 3.51 0 0 1-.768.86 5.208 5.208 0 0 1-1.946.962 5.372 5.372 0 0 1-2.19.099 8.213 8.213 0 0 1-2.979-1.235 7.802 7.802 0 0 1-2.22-2.262 16.724 16.724 0 0 1-1.688-3.216 27.682 27.682 0 0 1-.675-1.809 4.78 4.78 0 0 1-.236-2.026 2.75 2.75 0 0 1 1.03-1.825c.297-.205.639-.343.999-.404a2.563 2.563 0 0 1 1.085.05c.642.172 1.231.49 1.714.927.484.437.849.98 1.063 1.581a3.612 3.612 0 0 1-.346 3.289 4.294 4.294 0 0 1-2.405 1.761 4.006 4.006 0 0 1-2.532-.113 4.232 4.232 0 0 1-1.562-1.013 3.142 3.142 0 0 1-.658-.941c-.11-.241-.144-.37-.127-.378.238.442.543.848.903 1.206.436.403.957.713 1.528.909a3.84 3.84 0 0 0 2.321.048 3.964 3.964 0 0 0 2.186-1.656 3.3 3.3 0 0 0 .498-1.457 3.26 3.26 0 0 0-.22-1.518 3.478 3.478 0 0 0-.972-1.422 3.725 3.725 0 0 0-1.56-.821 2.113 2.113 0 0 0-.878-.036c-.292.05-.568.161-.81.325-.478.393-.78.946-.844 1.544-.152 1.246.439 2.468.844 3.626a15.793 15.793 0 0 0 1.688 3.216 7.579 7.579 0 0 0 2.091 2.189 7.97 7.97 0 0 0 2.821 1.236 5.319 5.319 0 0 0 2.088-.051 5.182 5.182 0 0 0 1.888-.849c.398-.34.749-.727 1.046-1.15Zm33.186 12.325-.236.185c-.169.137-.405.306-.7.523a18.799 18.799 0 0 1-2.904 1.736 9.15 9.15 0 0 1-2.371.756 6.499 6.499 0 0 1-2.963-.185c-2.277-.853-4.168-2.441-5.342-4.486a15.815 15.815 0 0 1-2.446-8.563 15.834 15.834 0 0 1 2.597-8.522 9.128 9.128 0 0 1 3.976-3.538 5.424 5.424 0 0 1 2.844-.345 3.934 3.934 0 0 1 2.532 1.375 3.8 3.8 0 0 1 .793 2.741 5.967 5.967 0 0 1-.911 2.734c-1.102 1.669-2.751 2.943-4.693 3.626a12.647 12.647 0 0 1-6.026.595 12.703 12.703 0 0 1-5.427-2.147c-2.982-2.163-5.208-5.134-6.389-8.522a9.914 9.914 0 0 1-.776-4.881 4.773 4.773 0 0 1 .987-2.219 3.567 3.567 0 0 1 2.059-1.278 4.729 4.729 0 0 1 2.305.166c.74.246 1.4.67 1.915 1.233.462.528.794 1.148.971 1.815a4.38 4.38 0 0 1 .051 2.036 6.005 6.005 0 0 1-1.731 3.216 8.25 8.25 0 0 1-2.852 1.777 13.444 13.444 0 0 1-5.36.804 32.36 32.36 0 0 1-3.376-.33l-.886-.136-.295-.057h.304l.886.097c.776.072 1.924.217 3.376.249a13.611 13.611 0 0 0 5.266-.804 7.93 7.93 0 0 0 2.743-1.745 5.742 5.742 0 0 0 1.629-3.111c.13-.63.11-1.28-.058-1.902a4.25 4.25 0 0 0-.912-1.692 4.254 4.254 0 0 0-1.784-1.124 4.419 4.419 0 0 0-2.133-.146 3.897 3.897 0 0 0-1.888 1.207 3.61 3.61 0 0 0-.855 2.009 9.37 9.37 0 0 0 .777 4.695c1.158 3.308 3.334 6.208 6.246 8.321a12.372 12.372 0 0 0 5.249 2.059c1.952.285 3.949.088 5.799-.571 1.85-.643 3.424-1.853 4.473-3.441a5.688 5.688 0 0 0 .844-2.557 3.37 3.37 0 0 0-.701-2.452 3.545 3.545 0 0 0-2.279-1.23 5.001 5.001 0 0 0-2.616.313 8.734 8.734 0 0 0-3.79 3.377 15.189 15.189 0 0 0-2.574 8.924 15.387 15.387 0 0 0 2.338 7.799c1.126 1.999 2.95 3.561 5.157 4.414a7.28 7.28 0 0 0 5.182-.49 20.996 20.996 0 0 0 2.929-1.664l.726-.483a1.5 1.5 0 0 1 .32-.161Zm-23.286-45.112a2.62 2.62 0 0 1-.27.716 10.9 10.9 0 0 1-1.088 1.809 13.7 13.7 0 0 1-5.455 4.438 14.465 14.465 0 0 1-7.054 1.246 12.023 12.023 0 0 1-2.152-.33 2.589 2.589 0 0 1-.759-.257c0-.073 1.114.233 2.928.297a15.142 15.142 0 0 0 6.847-1.336 14.395 14.395 0 0 0 5.4-4.227c1.089-1.383 1.519-2.396 1.603-2.356Zm12.466 3.417a7.967 7.967 0 0 0-2.38 1.117 7.33 7.33 0 0 0-1.544 2.059c-.051 0-.068-.322.101-.804a3.757 3.757 0 0 1 1.157-1.585 4.026 4.026 0 0 1 1.831-.827c.515-.073.835-.008.835.04Zm17.834 4.727a1.846 1.846 0 0 1-.717-.313 5.752 5.752 0 0 1-1.587-1.391 5.343 5.343 0 0 1-1.173-2.846 2.623 2.623 0 0 1 .523-1.81c.209-.299.504-.534.85-.676a2.038 2.038 0 0 1 1.1-.127c.362.087.694.263.963.51.27.246.467.555.573.897.107.314.128.649.06.973a1.879 1.879 0 0 1-.449.876c-.357.42-.844.724-1.392.868a2.855 2.855 0 0 1-1.663-.064 3.456 3.456 0 0 1-1.688-1.319 1.568 1.568 0 0 1-.312-.691s.152.233.456.595c.415.521.981.915 1.629 1.134.466.147.968.156 1.44.026a2.43 2.43 0 0 0 1.201-.758 1.53 1.53 0 0 0 .35-.707 1.49 1.49 0 0 0-.054-.78 1.67 1.67 0 0 0-.462-.709 1.79 1.79 0 0 0-.762-.409 1.6 1.6 0 0 0-.857.1 1.512 1.512 0 0 0-.662.527 2.33 2.33 0 0 0-.456 1.536 5.22 5.22 0 0 0 1.021 2.701 8.587 8.587 0 0 0 2.068 1.857Zm3.376-9.382a10.708 10.708 0 0 0-2.794-1.858 11.463 11.463 0 0 0-3.376-.546c0-.049.363-.193 1.013-.233a5.775 5.775 0 0 1 2.532.394c.792.31 1.502.785 2.076 1.39.439.467.6.829.549.853Zm23.21 9.358s-.051.04-.16.097l-.507.257c-.456.209-1.131.499-2.034.804a25.62 25.62 0 0 1-7.95 1.423 12.174 12.174 0 0 1-2.701-.249 6.031 6.031 0 0 1-2.659-1.238 3.783 3.783 0 0 1-.956-1.245 3.615 3.615 0 0 1-.352-1.505 4.536 4.536 0 0 1 1.123-3.023 6.6 6.6 0 0 1 3.132-1.733 6.835 6.835 0 0 1 3.62.125 7.955 7.955 0 0 1 3.355 1.832 7.43 7.43 0 0 1 2.029 3.137 7.006 7.006 0 0 1 .144 3.684 7.218 7.218 0 0 1-1.756 3.286 11.991 11.991 0 0 1-6.245 3.216 38.21 38.21 0 0 1-6.406.619 36.814 36.814 0 0 0-5.528.515c-2.657.413-5.069 1.723-6.795 3.69a7.554 7.554 0 0 0-1.299 2.501.48.48 0 0 1 0-.185c0-.121.059-.306.135-.531a6.668 6.668 0 0 1 .996-1.881c1.714-2.056 4.162-3.438 6.878-3.883 1.837-.337 3.7-.528 5.571-.571a37.748 37.748 0 0 0 6.33-.643c2.29-.428 4.39-1.51 6.017-3.104a6.807 6.807 0 0 0 1.65-3.102 6.603 6.603 0 0 0-.139-3.475 7.026 7.026 0 0 0-1.907-2.959 7.523 7.523 0 0 0-3.157-1.736 6.436 6.436 0 0 0-3.372-.109 6.219 6.219 0 0 0-2.924 1.605 4.156 4.156 0 0 0-1.047 2.773c.002.471.106.937.306 1.367.201.431.493.817.859 1.134a5.746 5.746 0 0 0 2.532 1.182c.858.185 1.736.274 2.616.265a26.75 26.75 0 0 0 7.9-1.278 36.94 36.94 0 0 0 2.043-.748c.211-.12.431-.225.658-.314Zm-21.049 31.573c-.076 0-.363-.675-1.14-1.608a8.65 8.65 0 0 0-3.842-2.726 9.071 9.071 0 0 0-4.775-.369c-1.224.225-1.933.563-1.967.498a4.7 4.7 0 0 1 1.899-.804 8.717 8.717 0 0 1 5.006.264 8.277 8.277 0 0 1 3.941 2.952c.434.526.734 1.139.878 1.793Zm9.858 6.079a3.918 3.918 0 0 1-1.157 1.608 7.236 7.236 0 0 1-4.504 2.008 7.343 7.343 0 0 1-4.78-1.309 4.106 4.106 0 0 1-1.409-1.431c.059-.056.54.547 1.587 1.182a7.696 7.696 0 0 0 4.549 1.125 7.691 7.691 0 0 0 4.313-1.792c.953-.772 1.333-1.44 1.401-1.391Zm2.565-16c0 .064-.548-.233-1.443-.458a6.486 6.486 0 0 0-3.541.066 6.211 6.211 0 0 0-2.924 1.904c-.591.683-.844 1.197-.895 1.173.088-.497.312-.963.65-1.35a5.9 5.9 0 0 1 3.035-2.128 6.191 6.191 0 0 1 3.768.053c.51.129.976.385 1.35.74Zm31.448-7.397c.066.195.116.394.152.595.056.243.09.491.101.74.031.34.031.681 0 1.021a9.868 9.868 0 0 1-2.422 5.99 10.964 10.964 0 0 1-3.604 2.87 11.675 11.675 0 0 1-5.267 1.15 14.76 14.76 0 0 1-6.023-1.396 14.061 14.061 0 0 1-4.822-3.71 8.008 8.008 0 0 1-1.528-2.79 5.06 5.06 0 0 1 .051-3.063 3.994 3.994 0 0 1 1.975-2.299 4.713 4.713 0 0 1 2.971-.33 5.048 5.048 0 0 1 2.532 1.262 5.596 5.596 0 0 1 1.384 2.179 7.012 7.012 0 0 1-.042 4.487 8.407 8.407 0 0 1-1.992 3.216 9.254 9.254 0 0 1-2.321 1.704 9.177 9.177 0 0 1-1.688.659 4.357 4.357 0 0 1-.642.113c.79-.231 1.553-.535 2.279-.909 1.945-1.071 3.405-2.789 4.102-4.824a6.77 6.77 0 0 0 0-4.285 5.118 5.118 0 0 0-1.308-2.026 4.683 4.683 0 0 0-2.313-1.15 4.352 4.352 0 0 0-2.701.306 3.561 3.561 0 0 0-1.755 2.074 4.603 4.603 0 0 0-.042 2.822 7.472 7.472 0 0 0 1.451 2.645 13.753 13.753 0 0 0 4.67 3.6 14.414 14.414 0 0 0 5.83 1.377 11.202 11.202 0 0 0 4.802-.938 10.684 10.684 0 0 0 3.866-2.873 10.026 10.026 0 0 0 2.489-5.813 15.374 15.374 0 0 0-.185-2.404Zm6.507 16.651a2.32 2.32 0 0 1-.515-.555 5.668 5.668 0 0 1-.92-1.817 7.07 7.07 0 0 1-.126-2.991c.198-1.201.48-2.388.844-3.553a25.022 25.022 0 0 1 3.021-5.934c.473-.707.844-1.278 1.165-1.656.134-.212.295-.406.481-.579-.398.834-.858 1.64-1.376 2.412a29.093 29.093 0 0 0-2.869 5.901 31.38 31.38 0 0 0-.844 3.49 7.146 7.146 0 0 0 0 2.862c.273.849.655 1.661 1.139 2.42Zm15.985-18.5c.117.179.202.374.254.579.189.537.33 1.088.422 1.648.649 3.759-.256 7.612-2.524 10.75-.331.471-.703.915-1.114 1.326-.295.29-.464.442-.49.426-.025-.016.566-.715 1.342-1.913a16.36 16.36 0 0 0 2.169-5.074c.411-1.795.505-3.642.279-5.467-.144-1.407-.414-2.251-.338-2.275Zm-55.231 37.603a1.938 1.938 0 0 1-.363-.185 10.754 10.754 0 0 0-1.03-.53 12.672 12.672 0 0 0-4.118-1.102 13.05 13.05 0 0 0-6.195.949 10.674 10.674 0 0 0-3.098 1.954 6.082 6.082 0 0 0-1.215 1.431 2.755 2.755 0 0 0-.422 1.768c.028.298.122.587.276.848.155.261.365.487.619.664a1.876 1.876 0 0 0 1.688.072c.524-.27.954-.682 1.233-1.184a2.766 2.766 0 0 0 .336-1.638 5.522 5.522 0 0 0-.893-2.808 5.885 5.885 0 0 0-2.238-2.016 6.407 6.407 0 0 0-4.135-.514 14.72 14.72 0 0 0-1.503.458c.107-.088.226-.161.355-.217a6.055 6.055 0 0 1 1.105-.402 6.433 6.433 0 0 1 4.322.418 6.189 6.189 0 0 1 2.406 2.112 5.8 5.8 0 0 1 .97 2.977 4.103 4.103 0 0 1-.363 1.817 2.777 2.777 0 0 1-1.435 1.391 2.335 2.335 0 0 1-2.135-.104 2.553 2.553 0 0 1-.755-.791 2.434 2.434 0 0 1-.343-1.018 3.099 3.099 0 0 1 .481-2.018 6.32 6.32 0 0 1 1.3-1.528 11.047 11.047 0 0 1 3.233-2.01 13.233 13.233 0 0 1 6.389-.892c1.459.157 2.872.583 4.161 1.254.351.175.687.377 1.004.603.262.137.38.225.363.241Zm3.055 6.649a5.148 5.148 0 0 1-1.021 1.841c-.667.957-1.283 1.681-1.384 1.608a5.165 5.165 0 0 1 1.021-1.841c.667-.949 1.283-1.672 1.384-1.608Zm10.719 11.505c-.067 0-.186-.281-.481-.699a4.296 4.296 0 0 0-1.491-1.298 4.534 4.534 0 0 0-1.944-.519c-.523 0-.844.04-.844 0s.295-.217.844-.273c.754-.057 1.508.1 2.169.45a3.743 3.743 0 0 1 1.544 1.519c.237.467.254.812.203.82Zm-34.866-4.1c0 .056-1.012.547-2.641 1.439a22.724 22.724 0 0 0-5.739 4.221 11.437 11.437 0 0 0-3.047 6.143c-.083.956-.066 1.917.05 2.87a2.352 2.352 0 0 1-.236-.756 6.918 6.918 0 0 1-.118-2.138c.267-2.383 1.326-4.622 3.021-6.392a20.666 20.666 0 0 1 5.908-4.213c.844-.41 1.536-.716 2.018-.917.245-.124.51-.211.784-.257Zm12.399 3.932s-.473-.266-.92-.965a5.168 5.168 0 0 1 .532-6.006 2.453 2.453 0 0 1 1.071-.804c.051.064-.362.362-.844.989a5.544 5.544 0 0 0-.498 5.684c.363.683.718 1.053.659 1.102Zm-19.378-14.569s-.152-.177-.49-.466a3.563 3.563 0 0 0-1.755-.74 4.577 4.577 0 0 0-2.946.579 8.772 8.772 0 0 0-2.794 2.814c-.844 1.222-1.536 2.693-2.608 4.124-1.135 1.553-2.766 2.714-4.65 3.313a9.03 9.03 0 0 1-6.389-.354c-2.159-.949-3.845-2.662-4.701-4.776a4.967 4.967 0 0 1-.144-3.384 4.778 4.778 0 0 1 2.195-2.557 5.27 5.27 0 0 1 3.258-.716 5.517 5.517 0 0 1 2.894 1.311 6.748 6.748 0 0 1 1.71 2.296c.395.871.591 1.812.578 2.761a8.071 8.071 0 0 1-1.57 4.591 9.64 9.64 0 0 1-3.055 2.733c-.907.519-1.88.924-2.895 1.206-.64.174-1.291.303-1.95.386l-.515.057h-.186c.225-.062.453-.107.684-.137.649-.115 1.289-.27 1.916-.466.991-.301 1.938-.72 2.819-1.247a9.414 9.414 0 0 0 2.92-2.693 7.836 7.836 0 0 0 1.469-4.43 6.191 6.191 0 0 0-.568-2.605 6.444 6.444 0 0 0-1.627-2.163 5.049 5.049 0 0 0-2.675-1.198 4.863 4.863 0 0 0-2.988.66 4.447 4.447 0 0 0-2 2.339 4.611 4.611 0 0 0 .143 3.12c.821 2.007 2.423 3.634 4.474 4.542a8.566 8.566 0 0 0 6.076.354c1.812-.563 3.384-1.668 4.482-3.152 1.055-1.374 1.781-2.846 2.642-4.076a8.938 8.938 0 0 1 2.937-2.854 4.707 4.707 0 0 1 3.089-.539 3.53 3.53 0 0 1 1.789.804c.176.163.322.353.431.563Zm.278 12.526a3.848 3.848 0 0 1-1.359-1.021 8.75 8.75 0 0 1-2.077-3.472 8.454 8.454 0 0 1-.261-3.989 3.73 3.73 0 0 1 .549-1.608c.076 0-.127.619-.236 1.608a9.372 9.372 0 0 0 .366 3.833 9.654 9.654 0 0 0 1.887 3.403c.667.796 1.182 1.19 1.131 1.246Zm3.106-18.532s-.591-.273-1.688-.683a21.204 21.204 0 0 0-12.154-.869 17.105 17.105 0 0 0-4.051 1.448 2.72 2.72 0 0 0-.831.636c-.23.262-.404.565-.511.891-.067.32-.02.651.132.942.153.292.404.526.712.666.152.031.31.023.458-.022a.898.898 0 0 0 .386-.235c.247-.251.421-.558.507-.892a7.04 7.04 0 0 0 .194-2.139 9.212 9.212 0 0 0-1.081-3.948 9.299 9.299 0 0 0-2.38-2.918 9.633 9.633 0 0 0-2.945-1.608 10.808 10.808 0 0 0-4.887-.467c-1.165.177-1.781.427-1.789.386.133-.083.278-.148.43-.193a9.828 9.828 0 0 1 6.356 0 10.09 10.09 0 0 1 3.072 1.608 9.764 9.764 0 0 1 2.532 3.007 9.577 9.577 0 0 1 1.148 4.109 7.462 7.462 0 0 1-.203 2.267c-.11.402-.321.772-.616 1.077a1.357 1.357 0 0 1-.607.352 1.411 1.411 0 0 1-.71.01 1.717 1.717 0 0 1-.596-.33 1.615 1.615 0 0 1-.408-.53 2.025 2.025 0 0 1-.186-1.238c.119-.384.318-.742.584-1.051.267-.31.597-.565.969-.75a16.79 16.79 0 0 1 4.178-1.463 20.982 20.982 0 0 1 7.478-.266c1.668.242 3.295.696 4.836 1.351.428.18.846.384 1.249.611.293.145.433.225.422.241Zm-65.773 2.308s.523-.386 1.359-1.19a11.124 11.124 0 0 0 2.65-4.02 8.362 8.362 0 0 0 .619-3.422 8.39 8.39 0 0 0-.83-3.38 8.713 8.713 0 0 0-2.692-3.168 7.82 7.82 0 0 0-4.22-1.519 5.064 5.064 0 0 0-2.228.442 2.783 2.783 0 0 0-1.486 1.439 1.99 1.99 0 0 0 .304 1.865c.391.531.95.928 1.595 1.134a4.597 4.597 0 0 0 1.897.089 4.508 4.508 0 0 0 1.758-.684 5.945 5.945 0 0 0 2.219-2.412 11.68 11.68 0 0 0 1.055-4.615c0-.531 0-.965.059-1.311a1.453 1.453 0 0 1 .043-.45c.023.149.023.301 0 .45v1.311c.065 1.653-.24 3.3-.895 4.832a6.24 6.24 0 0 1-2.296 2.557 4.84 4.84 0 0 1-1.909.758 4.964 4.964 0 0 1-2.066-.091 3.527 3.527 0 0 1-1.823-1.27 2.391 2.391 0 0 1-.466-1.072 2.34 2.34 0 0 1 .103-1.155 3.12 3.12 0 0 1 1.688-1.673 5.575 5.575 0 0 1 2.439-.49 8.225 8.225 0 0 1 4.499 1.608 9.071 9.071 0 0 1 2.802 3.336 8.105 8.105 0 0 1 .844 3.771 9.299 9.299 0 0 1-.692 3.297 10.966 10.966 0 0 1-2.828 4.02 7.47 7.47 0 0 1-1.063.804c-.287.144-.43.225-.439.209Zm17.496 11.963a3.06 3.06 0 0 1-.658-.667 12.972 12.972 0 0 1-1.452-2.09 14.267 14.267 0 0 1-1.832-8.017 14.405 14.405 0 0 1 2.921-7.718 13.476 13.476 0 0 1 1.688-1.889 3.59 3.59 0 0 1 .768-.563c.059.064-.996.917-2.211 2.645a14.813 14.813 0 0 0-2.737 7.576 14.662 14.662 0 0 0 1.665 7.853 31.328 31.328 0 0 0 1.848 2.87Zm16.492-17.487c-.076 0-.43-1.206-1.477-2.983a16.891 16.891 0 0 0-5.591-5.751 17.908 17.908 0 0 0-7.744-2.65c-2.127-.226-3.461-.049-3.461-.129.301-.09.614-.141.929-.153a16.214 16.214 0 0 1 2.532 0 17.254 17.254 0 0 1 7.965 2.595 16.192 16.192 0 0 1 5.623 5.968c.399.721.73 1.474.988 2.251.119.272.199.559.236.852Z"/>
  <path fill="#000" d="M192.575 167.465c-.844.33-.734 1.552-.059 2.083a3.766 3.766 0 0 0 2.532.514 33.809 33.809 0 0 0 14.132-3.928c4.334-2.319 8.055-5.552 10.876-9.45-7.596 5.957-17.639 8.216-27.27 10.291m-1.721-7.711c-.844-1.214-.27-2.918.844-3.947a14.299 14.299 0 0 1 3.899-2.211c5.007-2.369 9.02-6.29 11.377-11.12 1.536-3.167 2.692-7.051 6.094-8.353-.948 5.591-3.465 10.834-7.285 15.173-3.82 4.34-8.8 7.614-14.414 9.478m-24.468-40.707a77.853 77.853 0 0 1-1.941 26.275 21.143 21.143 0 0 0-.937 5.539 7.082 7.082 0 0 0 .836 2.877 7.444 7.444 0 0 0 1.966 2.325c1.401-3.079 1.426-6.046 2.017-9.358.532-2.983 1.427-9.954 1.427-10.058.126-6.095-1.385-11.321-3.849-16.812m16.382-27.183c1.265 6.493 4.601 12.456 9.554 17.077 1.865 1.728 4.22 3.328 6.794 3.216a14.502 14.502 0 0 1-1.308-9.471 41.778 41.778 0 0 0 6.955 3.601 14.43 14.43 0 0 0 7.764.804l1.604-13.29a2.38 2.38 0 0 0-.143-1.495.883.883 0 0 0-.247-.288.946.946 0 0 0-1.095-.018 1.25 1.25 0 0 0-.262.587c-.945 3.9-1.477 7.397-2.431 11.305-.683.643-2.785.377-4.169-.113-1.207-.426-1.688-1.375-2.465-2.332-.776-.956-.658-.804-1.84-1.27-2.177-.876-6.355-.177-7.266 1.68-.912 1.858-.22 4.31.388 6.143-6.084-3.78-10.473-9.58-12.314-16.273m46.504 18.998c-.169.322 5.258 17.753 5.258 17.753l-7.03-3.819 1.772-13.934Z" opacity=".3"/>
  <path fill="#FFBE9D" d="M185.351 59.496v27.746a6.523 6.523 0 0 0 1.688 4.334 20.97 20.97 0 0 0 5.857 4.615l5.908 3.16 4.862-4.141a6.794 6.794 0 0 0 1.683-2.149 6.481 6.481 0 0 0 .671-2.603c.085-2.026.076-4.02.076-4.02s8.238-.563 9.014-8.297c.363-3.65.481-11.112.498-17.986.034-3.81-1.451-7.49-4.155-10.299-2.703-2.808-6.424-4.535-10.412-4.832h-.228a15.766 15.766 0 0 0-5.911 1.002 15.19 15.19 0 0 0-5.035 3.117 14.37 14.37 0 0 0-3.36 4.74 13.79 13.79 0 0 0-1.156 5.613Z"/>
  <path fill="#EB996E" d="M206.029 86.374c-3.753-.307-7.335-1.633-10.322-3.82 0 0 2.127 5.87 10.305 5.814l.017-1.994Z"/>
  <path fill="#263238" d="M213.135 65.068a1.088 1.088 0 0 1-.388.75 1.2 1.2 0 0 1-.827.279 1.164 1.164 0 0 1-.432-.086 1.122 1.122 0 0 1-.363-.24 1.032 1.032 0 0 1-.311-.768c.022-.288.161-.557.388-.75a1.2 1.2 0 0 1 .828-.279c.148 0 .296.029.433.084.137.055.261.137.364.239a1.006 1.006 0 0 1 .308.771Zm.329-1.85c-.151.13-.979-.562-2.228-.659-1.249-.096-2.219.434-2.338.274-.118-.161.102-.314.532-.563a3.33 3.33 0 0 1 1.882-.394 3.13 3.13 0 0 1 1.764.7c.363.313.456.578.388.642Zm-12.111 1.287a1.093 1.093 0 0 1-.388.75 1.2 1.2 0 0 1-.827.28 1.173 1.173 0 0 1-.433-.087 1.13 1.13 0 0 1-.365-.238 1.068 1.068 0 0 1-.239-.355 1.02 1.02 0 0 1-.077-.414c.023-.288.163-.556.39-.748.226-.192.522-.293.825-.282a1.16 1.16 0 0 1 .8.323c.104.102.185.222.239.355.054.132.08.274.075.416Zm-.186-2.035c-.16.13-.987-.554-2.236-.65-1.249-.097-2.211.426-2.338.265-.127-.16.11-.314.532-.563.57-.32 1.23-.465 1.89-.418a3.18 3.18 0 0 1 1.764.7c.355.337.464.602.388.667Zm3.765 9.183a8.464 8.464 0 0 1 2.059-.194c.321 0 .633 0 .701-.24a1.47 1.47 0 0 0-.136-.917c-.236-.804-.481-1.56-.742-2.412-1.021-3.401-1.688-6.183-1.587-6.223.101-.04 1.089 2.685 2.11 6.086.245.804.481 1.608.701 2.412.171.382.195.81.067 1.206a.82.82 0 0 1-.236.26.868.868 0 0 1-.329.142 2.221 2.221 0 0 1-.549 0 9.13 9.13 0 0 1-2.059-.12Zm-3.748.53c.203 0 .093 1.303 1.173 2.308 1.081 1.005 2.532.98 2.532 1.157 0 .177-.337.234-.953.201a3.458 3.458 0 0 1-2.119-.9 2.745 2.745 0 0 1-.894-1.93c-.009-.538.168-.852.261-.836Zm.709-14.351c-.152.313-1.384.064-2.861.112-1.477.048-2.701.338-2.87 0-.075-.144.152-.434.659-.707a5.186 5.186 0 0 1 4.372-.113c.523.282.768.555.7.708Zm11.411 1.905c-.245.25-1.08-.096-2.11-.193-1.03-.096-1.924 0-2.101-.265-.085-.145.084-.41.489-.635a3.207 3.207 0 0 1 1.747-.3 3.15 3.15 0 0 1 1.629.67c.363.305.456.594.346.723Zm-18.391-8.064h-.05c-1.392.882-2.367 2.246-2.718 3.803v.16c-.515 2.18-.65 4.43-1.182 6.61-.531 2.178-.43 3.843-2.726 4.333-.6.127-1.226.077-1.795-.143a3.012 3.012 0 0 1-1.395-1.087 1.901 1.901 0 0 1-.211-1.029c0-5.37-1.097-7.453-.608-13.025a4.579 4.579 0 0 1 .726-2.106 4.86 4.86 0 0 1 1.654-1.56c1.3-.74 2.87-1.495 4.22-.804 1.351.691 2.87 3.288 3.832 4.406"/>
  <path fill="#FFBE9D" d="M187.782 63.186c-.127-.064-5.444-2.01-5.731 3.297-.287 5.306 5.376 4.486 5.393 4.333.017-.152.338-7.63.338-7.63Z"/>
  <path fill="#EB996E" d="M185.849 68.718s-.101.064-.27.129a.988.988 0 0 1-.726 0 2.303 2.303 0 0 1-.805-.927 2.177 2.177 0 0 1-.199-1.188c.008-.456.126-.905.346-1.31.06-.164.162-.31.296-.428.134-.118.296-.203.472-.248a.521.521 0 0 1 .331.046.489.489 0 0 1 .226.236c.067.152 0 .257.05.265.051.008.127-.08.093-.298a.556.556 0 0 0-.202-.345.706.706 0 0 0-.524-.161 1.391 1.391 0 0 0-.644.266 1.302 1.302 0 0 0-.419.538c-.258.45-.4.95-.414 1.463-.052.471.043.947.272 1.367.23.42.584.767 1.02.997a1.111 1.111 0 0 0 .894-.097c.186-.176.22-.289.203-.305Z"/>
  <path fill="#263238" d="M190.508 47.629c-1.19-2.227 2.827-4.969 5.638-5.58 2.81-.61 6.321.957 8.98 2.034 1.688.676 3.325 1.608 5.14 1.608a13.001 13.001 0 0 0 3.595-.57 9.57 9.57 0 0 1 3.621-.395 3.483 3.483 0 0 1 1.702.642c.494.359.875.84 1.1 1.393a1.912 1.912 0 0 1-.217 1.665c-.16.246-.375.456-.629.616-.254.16-.541.264-.842.307a2.863 2.863 0 0 1 2.543.152c.379.22.697.524.926.886.229.362.362.771.389 1.193.026.422-.056.844-.238 1.23-.183.385-.46.722-.81.983a2.81 2.81 0 0 1-1.197.512c-.436.076-.885.05-1.309-.075.844-.515 1.975.522 1.789 1.455a2.725 2.725 0 0 1-.776 1.189 2.929 2.929 0 0 1-1.292.668c-2.405.804-5.064.266-7.41-.691s-4.456-2.332-6.752-3.345c-2.296-1.013-6.161-2.814-8.617-2.195-1.815.45-3.207 2.372-4.161 1.841a3.289 3.289 0 0 1-1.085-1.074 3.103 3.103 0 0 1-.46-1.426 8.932 8.932 0 0 1 .372-3.007"/>
  <path fill="#455A64" d="M219.296 49.261c-.042 0-.32.362-.97.933a7.776 7.776 0 0 1-3.258 1.656 7.357 7.357 0 0 1-5.283-.627c-1.815-.949-3.292-2.694-5.022-4.366-1.594-1.673-3.689-2.84-6.001-3.344a6.74 6.74 0 0 0-2.905.06 6.551 6.551 0 0 0-2.581 1.274 4.615 4.615 0 0 0-1.136 1.508 4.41 4.41 0 0 0-.417 1.813c-.001.335.05.668.152.989.031.114.083.223.152.321a7.679 7.679 0 0 1-.093-1.302 4.459 4.459 0 0 1 1.604-3.056 6.224 6.224 0 0 1 2.422-1.118 6.389 6.389 0 0 1 2.692-.015 11.377 11.377 0 0 1 5.706 3.216c1.688 1.608 3.215 3.417 5.165 4.414a7.927 7.927 0 0 0 4.69.75 7.733 7.733 0 0 0 4.239-2.053 5.71 5.71 0 0 0 .659-.804c.143-.136.202-.24.185-.249Zm-32.907 13.588s.253-.129.498-.531c.33-.581.485-1.238.447-1.897 0-1.721-1.401-3.675-1.401-6.047a5.185 5.185 0 0 1 .895-3.111 4.216 4.216 0 0 1 2.228-1.536 3.838 3.838 0 0 1 1.874-.096c.447.104.675.225.7.185.026-.04-.185-.21-.633-.378a3.633 3.633 0 0 0-2.042-.072 4.523 4.523 0 0 0-2.532 1.608 5.43 5.43 0 0 0-1.03 3.4 9.348 9.348 0 0 0 .785 3.417c.38.843.641 1.73.776 2.638a3.973 3.973 0 0 1-.565 2.42Z"/>
  <path fill="#FFA840" d="M209.312 216.18h-1.258l-3.679.048c-3.241.048-8.018.169-14.163.45-6.144.281-13.656.804-22.34 1.769-4.33.498-8.972 1.061-13.859 1.833-4.887.772-10.035 1.672-15.394 2.838-5.36 1.166-10.972 2.549-16.644 4.326a114.338 114.338 0 0 0-17.26 6.777 56.14 56.14 0 0 0-8.271 5.041 25.61 25.61 0 0 0-6.752 7.059c-.211.354-.43.7-.625 1.062l-.472 1.133-.245.571c-.068.193-.101.394-.16.595l-.296 1.19a11.383 11.383 0 0 0 .253 4.913c.844 3.256 3.081 6.062 5.672 8.425 5.284 4.736 12.027 8.04 19.024 10.79a162.46 162.46 0 0 0 22.172 6.681 305.327 305.327 0 0 0 48.386 6.786 405.016 405.016 0 0 0 48.952.185 323.231 323.231 0 0 0 45.205-5.628 198.505 198.505 0 0 0 20.492-5.266 104.414 104.414 0 0 0 18.323-7.606 50.795 50.795 0 0 0 7.723-5.234 21.43 21.43 0 0 0 5.587-6.786l.422-.981a5.38 5.38 0 0 0 .355-.997l.253-1.013c.042-.169.101-.337.127-.506v-.523a9.66 9.66 0 0 0-.321-4.02 13.97 13.97 0 0 0-1.781-3.626 22.196 22.196 0 0 0-2.616-3.063 38.923 38.923 0 0 0-6.179-4.824 64.428 64.428 0 0 0-6.549-3.715 115.38 115.38 0 0 0-12.761-5.418 201.828 201.828 0 0 0-21.404-6.288 262.173 262.173 0 0 0-13.833-2.894c-1.587-.298-2.811-.491-3.621-.643l-1.241-.225s1.688.233 4.879.804c3.19.57 7.874 1.423 13.858 2.822a196.93 196.93 0 0 1 21.446 6.223 115.637 115.637 0 0 1 12.812 5.394 65.923 65.923 0 0 1 6.583 3.723 39.361 39.361 0 0 1 6.237 4.88 22.797 22.797 0 0 1 2.651 3.096 14.184 14.184 0 0 1 1.848 3.706 9.976 9.976 0 0 1 .338 4.181l-.043.53c0 .177-.084.346-.126.523l-.262 1.037a5.396 5.396 0 0 1-.363 1.021l-.422 1.005a21.847 21.847 0 0 1-5.663 6.899 50.688 50.688 0 0 1-7.782 5.29 104.73 104.73 0 0 1-18.365 7.654 197.46 197.46 0 0 1-20.535 5.298 322.836 322.836 0 0 1-45.263 5.628 403.948 403.948 0 0 1-49.011-.177 305.477 305.477 0 0 1-48.463-6.809 161.462 161.462 0 0 1-22.231-6.706c-7.014-2.782-13.79-6.086-19.142-10.878-2.625-2.412-4.929-5.258-5.781-8.619a11.781 11.781 0 0 1-.253-5.057l.312-1.23c.05-.209.093-.41.16-.611l.245-.587.498-1.158c.194-.37.422-.731.633-1.093a26.004 26.004 0 0 1 6.879-7.156 57.21 57.21 0 0 1 8.338-5.065 113.994 113.994 0 0 1 17.319-6.778c5.722-1.769 11.31-3.151 16.678-4.309a244.818 244.818 0 0 1 15.428-2.806 370.71 370.71 0 0 1 13.875-1.809 371.157 371.157 0 0 1 22.358-1.697c6.144-.281 10.93-.353 14.171-.377h4.937v-.008Z"/>
  <path fill="#FFA840" d="M140.34 155.26s-.481.105-1.418.282c-.936.177-2.337.434-4.169.804a264.032 264.032 0 0 0-15.901 3.626 168.31 168.31 0 0 0-24.324 8.209c-2.287.997-4.634 2.098-6.971 3.36a66.997 66.997 0 0 0-6.997 4.278 38.497 38.497 0 0 0-6.457 5.628 19.158 19.158 0 0 0-4.38 7.654 13.405 13.405 0 0 0 .7 8.997 23.182 23.182 0 0 0 5.84 7.79c4.997 4.559 11.336 8.04 18.08 10.991 13.596 5.885 29.117 9.833 45.575 12.776a399.539 399.539 0 0 0 52.328 5.499c18.852.808 37.739.488 56.548-.957 19.294-1.535 38.073-4.237 55.747-8.659a172.587 172.587 0 0 0 25.387-8.297 89.048 89.048 0 0 0 11.386-5.789 43.32 43.32 0 0 0 9.663-7.767c2.693-2.999 4.676-6.673 4.794-10.548.017-.48 0-.961-.05-1.439a9.997 9.997 0 0 0-.161-1.423l-.329-1.399a9.869 9.869 0 0 0-.481-1.351 20.191 20.191 0 0 0-2.895-4.929 39.123 39.123 0 0 0-8.566-7.533 79.485 79.485 0 0 0-9.799-5.459 143.205 143.205 0 0 0-20.071-7.502c-6.616-1.969-13.065-3.537-19.26-4.824a388.442 388.442 0 0 0-59.594-7.236c-7.09-.345-12.61-.361-16.349-.45l-4.22-.088-1.443-.048h1.443l4.22.048c3.739.064 9.284.048 16.357.378a384.29 384.29 0 0 1 59.654 7.115c6.203 1.303 12.66 2.854 19.294 4.824a142.291 142.291 0 0 1 20.129 7.509 78.904 78.904 0 0 1 9.858 5.419 39.63 39.63 0 0 1 8.651 7.598 20.44 20.44 0 0 1 2.954 5.025c.201.448.365.911.49 1.383l.346 1.431c.091.483.145.973.16 1.463.058.489.077.981.059 1.472a14.424 14.424 0 0 1-1.468 5.756 21.272 21.272 0 0 1-3.376 5.033 43.496 43.496 0 0 1-9.757 7.848 88.337 88.337 0 0 1-11.521 5.869 173.668 173.668 0 0 1-25.446 8.337c-17.724 4.43-36.503 7.14-55.823 8.675a472.732 472.732 0 0 1-56.548.949 400.262 400.262 0 0 1-52.328-5.523c-16.5-2.967-32.072-6.931-45.677-12.864-6.752-2.999-13.124-6.473-18.163-11.088a23.551 23.551 0 0 1-5.908-7.895 13.72 13.72 0 0 1-.692-9.198 19.342 19.342 0 0 1 4.448-7.75 38.364 38.364 0 0 1 6.524-5.692 66.423 66.423 0 0 1 7.03-4.278c2.347-1.262 4.702-2.364 6.998-3.36a167.654 167.654 0 0 1 24.416-8.145 254.527 254.527 0 0 1 15.935-3.554c3.672-.699 5.528-.981 5.528-.981Zm29.591 121.316-4.22.635c-2.76.418-6.82 1.086-12.01 2.163a160.08 160.08 0 0 0-18.568 4.993 89.907 89.907 0 0 0-11.057 4.583 47.63 47.63 0 0 0-5.604 3.264 28.588 28.588 0 0 0-5.157 4.374 15.989 15.989 0 0 0-2.042 2.797 10.872 10.872 0 0 0-1.258 3.216c-.042.29-.118.579-.143.877l-.059.884c0 .587.084 1.182.135 1.777.13.589.294 1.172.489 1.745l.355.844.177.426.236.394a20.108 20.108 0 0 0 5.064 5.684 41.786 41.786 0 0 0 6.803 4.35 92.938 92.938 0 0 0 15.909 6.327 170.294 170.294 0 0 0 17.724 4.318 275.836 275.836 0 0 0 39.044 4.446c14.067.661 28.165.427 42.2-.699 14.415-1.19 28.443-3.289 41.584-6.826a108.076 108.076 0 0 0 18.737-6.802 47.5 47.5 0 0 0 8.144-5.009c.642-.458 1.19-1.021 1.781-1.528.591-.506 1.072-1.109 1.612-1.656a14.472 14.472 0 0 0 2.397-3.819 9.816 9.816 0 0 0-.371-8.482 20.686 20.686 0 0 0-5.807-6.432c-4.65-3.522-9.934-5.894-15.091-7.863a132.084 132.084 0 0 0-15.352-4.688 197.915 197.915 0 0 0-14.551-2.983 302.704 302.704 0 0 0-44.732-3.899l-16.483-.08s5.866-.073 16.483 0c14.993.153 29.95 1.43 44.732 3.819 4.685.804 9.554 1.744 14.576 2.974a131.463 131.463 0 0 1 15.428 4.72c5.166 1.97 10.466 4.342 15.15 7.887a20.933 20.933 0 0 1 5.908 6.521 10.064 10.064 0 0 1 1.177 4.29 10.015 10.015 0 0 1-.797 4.369 14.867 14.867 0 0 1-2.431 3.883c-.548.555-1.046 1.158-1.637 1.68-.591.523-1.139 1.078-1.789 1.536a47.418 47.418 0 0 1-8.196 5.049 108.273 108.273 0 0 1-18.778 6.826 235.492 235.492 0 0 1-41.627 6.834 333.156 333.156 0 0 1-42.25.7 277.257 277.257 0 0 1-39.069-4.463 172.248 172.248 0 0 1-17.724-4.341 92.161 92.161 0 0 1-15.952-6.352 42.428 42.428 0 0 1-6.828-4.382 20.17 20.17 0 0 1-5.114-5.748l-.245-.402-.177-.434-.363-.853c-.228-.578-.321-1.19-.49-1.776-.168-.587-.135-1.214-.135-1.817l.059-.901c0-.297.102-.587.152-.884a10.944 10.944 0 0 1 1.275-3.305 16.178 16.178 0 0 1 2.068-2.822 28.565 28.565 0 0 1 5.19-4.398 49.008 49.008 0 0 1 5.638-3.272 89.03 89.03 0 0 1 10.989-4.591 158.664 158.664 0 0 1 18.627-4.961 216.688 216.688 0 0 1 12.019-2.114c2.734-.402 4.245-.603 4.245-.603Z"/>
  <path fill="#FFA840" d="M280.141 350.118a8.005 8.005 0 0 0-.701-2.935c-.785-1.841-2.887-4.132-6.187-6.207-6.625-4.156-17.724-7.646-31.666-9.784a201.547 201.547 0 0 0-22.991-2.147 232.293 232.293 0 0 0-26.544.466c-4.667.346-9.436.861-14.272 1.608-4.937.725-9.829 1.71-14.652 2.951a89.866 89.866 0 0 0-7.334 2.203 60.537 60.537 0 0 0-7.166 2.975 29.038 29.038 0 0 0-6.49 4.285c-1.916 1.705-3.477 4.02-3.519 6.593-.043 2.573 1.595 4.888 3.511 6.601a29.003 29.003 0 0 0 6.414 4.269 59.115 59.115 0 0 0 7.166 2.975 78.843 78.843 0 0 0 7.334 2.211 140.918 140.918 0 0 0 14.66 2.95c4.836.732 9.605 1.247 14.272 1.608 8.833.666 17.7.821 26.553.467a201.84 201.84 0 0 0 23.058-2.171c13.959-2.139 25.041-5.628 31.675-9.785 3.3-2.074 5.393-4.365 6.178-6.207a7.98 7.98 0 0 0 .701-2.926c0 .12 0 .321-.06.764a3.763 3.763 0 0 1-.177.932 5.722 5.722 0 0 1-.439 1.238c-.776 1.858-2.869 4.165-6.169 6.256-6.634 4.18-17.724 7.694-31.693 9.849a203.117 203.117 0 0 1-23.041 2.17 232.5 232.5 0 0 1-26.569-.45c-4.667-.354-9.436-.86-14.28-1.608a138.56 138.56 0 0 1-14.678-2.943 86.98 86.98 0 0 1-7.351-2.211 61.595 61.595 0 0 1-7.191-2.982 29.531 29.531 0 0 1-6.532-4.31 12.597 12.597 0 0 1-2.482-3.015 6.983 6.983 0 0 1-1.072-3.706c0-1.305.371-2.586 1.072-3.707a12.671 12.671 0 0 1 2.532-3.007 29.557 29.557 0 0 1 6.533-4.309 62.064 62.064 0 0 1 7.182-2.983c2.44-.852 4.896-1.608 7.36-2.211a141.32 141.32 0 0 1 14.669-2.943 198.481 198.481 0 0 1 14.28-1.608c8.839-.66 17.712-.81 26.569-.45 7.719.28 15.414 1.002 23.042 2.163 13.959 2.155 25.058 5.668 31.692 9.849 3.3 2.09 5.393 4.398 6.17 6.255.192.397.339.812.438 1.238.098.303.158.616.178.933-.009.466.008.675.017.796ZM93.684 225.417a2.482 2.482 0 0 1-.458 1.423 2.669 2.669 0 0 1-1.21.941 2.815 2.815 0 0 1-1.555.143c-.522-.1-1-.345-1.376-.704a2.53 2.53 0 0 1-.735-1.313 2.453 2.453 0 0 1 .155-1.481c.204-.468.55-.868.992-1.15a2.792 2.792 0 0 1 1.495-.431c.354 0 .705.066 1.032.196.327.129.624.319.874.558.25.239.449.522.584.835.134.312.203.646.202.983Zm240.979 4.302c1.487 0 2.692-1.148 2.692-2.565 0-1.416-1.205-2.565-2.692-2.565s-2.692 1.149-2.692 2.565c0 1.417 1.205 2.565 2.692 2.565Zm-107.205 92.018a2.485 2.485 0 0 1-.452 1.432 2.682 2.682 0 0 1-1.211.951 2.826 2.826 0 0 1-1.563.148 2.753 2.753 0 0 1-1.385-.704 2.54 2.54 0 0 1-.739-1.319c-.104-.5-.05-1.018.156-1.489.205-.47.553-.872.998-1.154a2.795 2.795 0 0 1 1.504-.43c.714 0 1.399.27 1.903.751.505.481.789 1.133.789 1.814Zm-81.826-65.96c0 .254-.079.503-.227.714a1.34 1.34 0 0 1-.606.474 1.416 1.416 0 0 1-.781.073 1.366 1.366 0 0 1-.691-.352 1.267 1.267 0 0 1-.37-.659 1.232 1.232 0 0 1 .077-.743c.102-.235.275-.436.498-.577a1.401 1.401 0 0 1 1.705.16c.253.241.395.568.395.91Zm167.543 31.098c0 .255-.08.504-.229.716-.148.211-.36.376-.607.473a1.397 1.397 0 0 1-1.473-.282 1.272 1.272 0 0 1-.367-.661 1.235 1.235 0 0 1 .08-.744c.104-.235.278-.435.501-.575a1.39 1.39 0 0 1 .753-.213c.356.002.698.138.949.379.252.241.393.567.393.907Z"/>
  <path fill="#FFA840" d="M206.78 346.235c0 .254-.079.503-.228.715-.149.212-.36.377-.608.474a1.415 1.415 0 0 1-.781.072 1.374 1.374 0 0 1-.691-.355 1.235 1.235 0 0 1-.288-1.404c.104-.235.278-.436.502-.576.223-.14.485-.214.752-.213.357.002.698.139.949.38.252.241.393.567.393.907Zm-70.288-224.051c.373 0 .675-.288.675-.643 0-.356-.302-.644-.675-.644-.373 0-.676.288-.676.644 0 .355.303.643.676.643Zm121.477 98.112c-32.722 8.249-64.263 7.622-98.639 0l-4.034-59.882c35.524 6.585 71.183 5.749 102.656-1.415l.017 61.297Z"/>
  <path fill="#fff" d="M257.969 220.296c-32.722 8.249-64.263 7.622-98.639 0l-4.034-59.882c35.524 6.585 71.183 5.749 102.656-1.415l.017 61.297Z" opacity=".8"/>
  <path fill="#FFA840" d="M252.896 211.171a.877.877 0 0 1-.211.096l-.616.249c-.549.209-1.342.547-2.397.909a93.761 93.761 0 0 1-9.056 2.701 123.997 123.997 0 0 1-31.042 3.377 189.979 189.979 0 0 1-31.11-3.168 248.851 248.851 0 0 1-9.284-1.857c-1.089-.233-1.933-.434-2.532-.571l-.65-.161c-.144-.04-.22-.064-.211-.072h.228l.658.121 2.532.49a341.96 341.96 0 0 0 9.284 1.721 200.3 200.3 0 0 0 31.059 3.047 128.216 128.216 0 0 0 30.967-3.216c3.874-.933 6.963-1.865 9.073-2.581 1.063-.33 1.865-.643 2.422-.804l.633-.209a.636.636 0 0 1 .253-.072Z"/>
  <path fill="#FFA840" d="M225.154 212.344a.786.786 0 0 1 0-.168v-.459c0-.434 0-1.029-.059-1.785 0-1.567-.076-3.81-.135-6.616-.085-5.628-.211-13.564-.355-22.738l.169.193c-4.306-.8-8.734-.8-13.04 0l.177-.201v.418c.136 12.591.262 23.968.347 32.088l-.127-.145a31.58 31.58 0 0 0 5.494.644 21.7 21.7 0 0 0 4.144-.33 20.118 20.118 0 0 0 2.532-.635l.633-.209a.968.968 0 0 1 .237-.065l-.203.089-.641.265a18.59 18.59 0 0 1-2.532.716 20.761 20.761 0 0 1-4.178.394 30.262 30.262 0 0 1-5.554-.579h-.118v-.161c-.126-8.12-.295-19.489-.481-32.08v-.603h.186a35.68 35.68 0 0 1 13.2 0l.169.041v.16c.076 9.214.135 17.166.185 22.842v8.78c0 .12-.042.144-.05.144Zm-40.318-.474s0-.33-.042-.908c-.042-.579 0-1.44-.051-2.461 0-2.138-.059-5.105-.093-8.635l.118.169a29.398 29.398 0 0 0-12.128-1.921l.203-.209v12.003l-.11-.16a24.479 24.479 0 0 0 4.861 1.318c1.494.257 2.803.402 3.891.507l2.532.201c.3.016.599.048.895.096a7.034 7.034 0 0 1-.895 0c-.591 0-1.443 0-2.532-.104-1.088-.105-2.414-.193-3.916-.427a23.415 23.415 0 0 1-4.963-1.278l-.109-.048v-12.317h.219a29.188 29.188 0 0 1 12.306 2.002l.126.04v.128c0 3.578-.076 6.585-.101 8.756 0 1.005 0 1.809-.051 2.412a4.587 4.587 0 0 1-.16.836Zm5.908-31.139c-.815.125-1.64.173-2.464.145-1.528 0-3.638 0-5.959-.137a88.824 88.824 0 0 1-5.908-.53 13.057 13.057 0 0 1-2.431-.419c.821-.019 1.642.024 2.456.129 1.519.113 3.613.273 5.908.402 2.296.129 4.414.209 5.908.257.833-.009 1.665.042 2.49.153Zm-1.882 2.621c-.719.069-1.442.069-2.161 0a244.562 244.562 0 0 1-5.207-.321 171.992 171.992 0 0 1-5.199-.443 11.223 11.223 0 0 1-2.136-.305 11.306 11.306 0 0 1 2.161 0c1.342.064 3.173.177 5.208.322 2.034.144 3.865.305 5.19.442.723.034 1.442.137 2.144.305Z"/>
  <path fill="#FFA840" d="M193.47 186.785v-.747c0-.475.042-1.206.085-2.075.084-1.817.211-4.373.371-7.517l.16.169a189.401 189.401 0 0 1-23.319-1.238l.244-.193v.659l-.042.675c0 .45-.051.901-.084 1.343-.051.892-.102 1.769-.161 2.629-.109 1.729-.211 3.401-.312 5.001l-.177-.209a205.348 205.348 0 0 0 16.694 1.278l4.836.137 1.266.04h.464c-.14.012-.281.012-.422 0-.287 0-.742 0-1.308.04h-4.844c-4.136-.08-9.976-.37-16.737-1.133h-.194v-.193c.093-1.608.194-3.273.295-5.001.051-.86.102-1.737.161-2.629l.076-1.343v-1.335l.245-.193a208.664 208.664 0 0 0 23.353 1.359h.169v.161c-.228 3.168-.414 5.757-.549 7.59-.067.852-.126 1.535-.169 2.034a3.43 3.43 0 0 1-.101.691Zm2.878 4.511a9.567 9.567 0 0 1-1.629-2.147 7.568 7.568 0 0 1-1.249-2.364 9.537 9.537 0 0 1 1.629 2.147 7.547 7.547 0 0 1 1.249 2.364ZM59.62 113.364l10.694 61.651s16.331 29.121 59.713 35.681l-6.997-55.026s-40.124-11.834-63.41-42.306Z"/>
  <path fill="#fff" d="m59.62 113.364 10.694 61.651s16.331 29.121 59.713 35.681l-6.997-55.026s-40.124-11.834-63.41-42.306Z" opacity=".8"/>
  <path fill="#FFA840" d="m124.431 206.29-.27-.064-.844-.217-3.055-.892c-1.326-.402-2.971-.804-4.803-1.528l-2.945-1.069a56.835 56.835 0 0 1-3.284-1.287c-2.253-.981-4.76-1.994-7.309-3.361-2.548-1.366-5.266-2.838-8.034-4.518a79.47 79.47 0 0 1-16.12-13.306 45.642 45.642 0 0 1-5.816-7.727l-4.895-30.15c-.591-3.762-1.072-6.777-1.401-8.892l-.355-2.412-.084-.619a.83.83 0 0 1 0-.217.766.766 0 0 1 .05.209l.127.619.43 2.412c.364 2.107.845 5.122 1.528 8.844 1.266 7.574 3.039 18.122 5.064 30.126v-.056a46.212 46.212 0 0 0 5.756 7.638 80.034 80.034 0 0 0 16.036 13.258c2.752 1.688 5.377 3.272 7.976 4.534 2.6 1.262 5.022 2.412 7.267 3.393 1.114.523 2.22.933 3.258 1.311l2.92 1.093c1.815.732 3.452 1.166 4.76 1.608l3.03.965.785.257c.078.009.154.025.228.048Z"/>
  <path fill="#FFA840" d="M120.616 188.393s0 .049-.143.129l-.465.354-1.797 1.334-6.803 4.977-.101.08-.085-.112a5327.258 5327.258 0 0 1-8.33-10.983l.253.04-6.389 4.342-.21.145-.094-.241c-2.532-6.432-5.292-13.668-8.237-21.282l-1.182-3.064h.397l-5.2 9.841-.227.427-.16-.451c-4.533-12.43-8.373-22.994-10.871-29.852h.228c-.684 2.749-1.224 4.912-1.595 6.432-.186.723-.338 1.286-.44 1.688l-.117.434a.484.484 0 0 1-.06.145v-.153c0-.112.051-.257.085-.434l.38-1.704c.346-1.52.844-3.691 1.485-6.432l.093-.386.143.378c2.532 6.842 6.44 17.382 11.04 29.788h-.388l5.19-9.841.228-.434.177.45 1.182 3.063c2.929 7.622 5.714 14.85 8.195 21.298l-.303-.088 6.414-4.31.143-.096.11.136 8.246 10.999h-.194l6.895-4.88 1.84-1.286.481-.322.186-.129Zm-1.494-29.563a4.083 4.083 0 0 1-.911-.193 55.134 55.134 0 0 1-2.423-.715 81.73 81.73 0 0 1-7.756-2.911 84.431 84.431 0 0 1-7.453-3.642c-.92-.514-1.688-.949-2.16-1.262a3.831 3.831 0 0 1-.751-.523c.296.096.58.226.844.386l2.228 1.142c1.882.957 4.507 2.243 7.478 3.521a131.76 131.76 0 0 0 7.714 3.015c.937.322 1.688.603 2.371.804.29.091.565.218.819.378Zm1.722 2.557a9.094 9.094 0 0 1-2.093-.354 50.204 50.204 0 0 1-4.921-1.399 50.304 50.304 0 0 1-4.735-1.889 9.267 9.267 0 0 1-1.848-.989 11.9 11.9 0 0 1 1.983.724 116.34 116.34 0 0 0 4.752 1.76 100.64 100.64 0 0 0 4.853 1.512c.689.152 1.361.365 2.009.635Z"/>
  <path fill="#FFA840" d="M103.753 184.188c0 .515-.329.925-.734.925-.405 0-.726-.41-.726-.925 0-.514.329-.924.726-.924.396 0 .734.418.734.924Zm-16.602-18.564c.401 0 .726-.414.726-.925 0-.51-.325-.924-.726-.924-.4 0-.725.414-.725.924 0 .511.325.925.725.925ZM71.85 144.366c0 .507-.33.925-.726.925-.397 0-.726-.418-.726-.925 0-.506.32-.924.726-.924.405 0 .726.418.726.924Zm270.814-20.035-5.359 62.631s-15.673 26.781-58.785 27.802l5.326-63.057s37.617-1.455 58.818-27.376Z"/>
  <path fill="#FFA840" d="M341.82 121.066c-1.401-4.333-4.811-10.516-12.913-11.802l-9.554 84.243s17.985-3.417 18.466-12.808c.043-.804 3.638-42.684 4.541-53.064a16.198 16.198 0 0 0-.54-6.569Z"/>
  <path fill="#fff" d="m342.664 124.331-5.359 62.631s-15.673 26.781-58.785 27.802l5.326-63.057s37.617-1.455 58.818-27.376Z" opacity=".8"/>
  <path fill="#FFA840" d="M304.836 178.287c0 .804-.405 1.407-.903 1.407s-.895-.627-.895-1.407.397-1.407.895-1.407.903.635.903 1.407Zm10.82-26.034c0 .804-.405 1.407-.903 1.407s-.895-.635-.895-1.407c0-.771.397-1.407.895-1.407s.903.628.903 1.407Z"/>
  <path fill="#FFA840" d="M340.841 143.321a1.905 1.905 0 0 1-.144.354l-.489 1.021c-.456.908-1.089 2.195-1.891 3.819l-6.853 13.596-.093.184-.185-.112-16.247-9.793.32-.096c-.211.498-.447 1.037-.675 1.608l-10.491 24.449-.076.169-.16-.088a833.093 833.093 0 0 0-9.656-5.106 129.496 129.496 0 0 0-2.667-1.35l-.7-.322-.245-.105c1.288.413 2.526.952 3.697 1.608 2.329 1.142 5.655 2.847 9.731 4.985l-.236.081 10.398-24.514c.228-.539.464-1.078.675-1.608l.101-.233.22.136 16.222 9.841-.279.073c2.878-5.572 5.292-10.227 6.997-13.524l2.017-3.754.54-.989c.047-.114.103-.225.169-.33Z"/>
</svg>
