<svg xmlns="http://www.w3.org/2000/svg" width="23" height="23" viewBox="0 0 38 28" fill="#BBBBBB">
  <path d="M37.0768 3.56389C37.0768 1.50059 35.6137 0 33.5129 0C23.6841 0 13.8927 0 4.06389 0C2.26319 0 0.95018 1.05041 0.57503 2.8136C0.57503 2.85111 0.53751 2.88863 0.5 2.92614V24.4971C0.57503 24.6846 0.61254 24.8722 0.68757 25.0598C1.13775 26.4478 2.41325 27.3857 3.91383 27.4232C4.81418 27.4232 5.71454 27.4232 6.57737 27.4232C15.5434 27.4232 24.5094 27.4232 33.5129 27.4232C35.2386 27.4232 36.5891 26.4103 37.0018 24.8347C37.0768 24.5346 37.1143 24.197 37.1143 23.8968C37.0768 17.1067 37.0768 10.3165 37.0768 3.56389ZM34.1131 2.32591C28.9736 6.79015 23.8716 11.1794 18.7696 15.6061C13.6676 11.1794 8.6032 6.79015 3.42614 2.32591H34.1131ZM34.7884 5.21454C34.7884 11.4045 34.7884 17.5569 34.7884 23.7468C34.7884 24.7222 34.3757 25.1348 33.4003 25.1348H4.17644C3.20105 25.1348 2.78839 24.7222 2.78839 23.7468V4.80188C2.93845 4.91442 3.01348 4.98945 3.08851 5.06448C8.0029 9.3411 12.9549 13.6178 17.8693 17.8945C18.507 18.4572 19.0322 18.4572 19.67 17.8945C24.5844 13.6178 29.4988 9.3787 34.4132 5.102C34.4883 5.02697 34.6008 4.95194 34.7509 4.80188V5.21454H34.7884Z" fill="#BBBBBB"/>
</svg>