<svg width="28" height="28" viewBox="0 0 26 32" fill="currentColor" xmlns="http://www.w3.org/2000/svg">
<path d="M3.06324 14.5796C3.06324 13.6727 3.41949 12.8954 4.09962 12.28C4.6826 11.7295 5.39513 11.5027 6.20482 11.4704V11.1141C6.20482 10.0777 6.17243 9.0089 6.20482 7.97249C6.26959 5.6082 7.24121 3.72972 9.15208 2.33706C10.9658 1.00917 13.0386 0.782453 15.2086 1.1711C18.1235 1.6893 20.5201 4.24792 20.7792 7.19519C20.9088 8.4907 20.844 9.7862 20.844 11.0817C20.844 11.2113 20.844 11.3408 20.844 11.4704C20.9088 11.4704 20.9412 11.5027 20.9735 11.5027C22.7872 11.6647 23.9856 12.9602 23.9856 14.7415C23.9856 17.9803 24.018 21.2514 23.9856 24.4902C23.9532 27.6641 21.3298 30.3199 18.1558 30.3199C15.0466 30.3523 11.9698 30.3523 8.86062 30.3199C5.71903 30.2875 3.09563 27.6641 3.06324 24.5225C3.03085 21.1866 3.06324 17.8831 3.06324 14.5796ZM18.674 7.32474C18.4149 5.05761 16.4069 3.24391 14.1074 3.11436C13.0386 3.04958 11.9698 3.11436 10.9982 3.63256C9.28165 4.5718 8.3424 6.02924 8.27763 7.97249C8.24524 9.13845 8.27763 10.272 8.27763 11.4704H18.7388C18.7388 11.1789 18.7388 10.8874 18.7388 10.5959C18.7388 9.49471 18.8036 8.39353 18.674 7.32474ZM5.16843 24.2311C5.16843 26.5306 6.85256 28.2147 9.15208 28.2147C12.0993 28.2147 15.0143 28.2147 17.9615 28.2147C20.2287 28.2147 21.9128 26.5306 21.9128 24.2311C21.9128 21.0895 21.9128 17.9155 21.9128 14.7739C21.9128 13.9318 21.5242 13.5432 20.6821 13.5432H6.39913C5.55706 13.5432 5.16843 13.9318 5.16843 14.7739C5.16843 17.9479 5.16843 21.0895 5.16843 24.2311Z" fill="#BBBBBB"/>
<path d="M13.5244 17.8831C12.8766 17.8831 12.3261 18.2718 12.0993 18.8871C11.8726 19.5025 12.067 20.1826 12.5852 20.5713C12.7147 20.6684 12.7471 20.7656 12.7471 20.9275C12.7471 21.6401 12.7471 22.385 12.7471 23.0975C12.7471 23.5833 13.0709 23.9396 13.5244 23.9396C13.9454 23.9396 14.2693 23.5833 14.2693 23.0975C14.2693 22.385 14.2693 21.6725 14.2693 20.9599C14.2693 20.798 14.3017 20.6684 14.4636 20.5713C14.9818 20.1826 15.1761 19.5025 14.9494 18.8871C14.7551 18.2718 14.1721 17.8831 13.5244 17.8831Z" fill="#BBBBBB"/>
</svg>
