<svg xmlns="http://www.w3.org/2000/svg" width="50" height="50" fill="none" viewBox="0 0 50 50">
  <path fill="#393838" d="M24.955 25.3 22.5 22.845a.68.68 0 0 0-1 0l-.97 1a.665.665 0 0 0 0 .97L24 28.22a1.35 1.35 0 0 0 1.945 0L33 21.135a.671.671 0 0 0 0-1l-.97-.97a.67.67 0 0 0-.975 0l-6.1 6.135Z"/>
  <path fill="#393838" d="M35.905 27.075c.267-1.42.267-2.88 0-4.3l2.3-1.95a2.14 2.14 0 0 0 .5-2.65l-1-1.75a2.055 2.055 0 0 0-1.8-1 1.595 1.595 0 0 0-.7.15l-2.9 1.05a11.176 11.176 0 0 0-3.7-2.15l-.5-2.95a1.96 1.96 0 0 0-2.05-1.55h-2a1.925 1.925 0 0 0-2.05 1.55l-.5 2.9a10.793 10.793 0 0 0-3.75 2.15l-2.95-1.05a3.497 3.497 0 0 0-.7-.15 2.1 2.1 0 0 0-1.8 1l-1 1.75a2.08 2.08 0 0 0 .5 2.65l2.3 1.95c-.14.708-.208 1.428-.2 2.15-.01.722.057 1.442.2 2.15L11.805 29a2.14 2.14 0 0 0-.5 2.65l1 1.75a2.054 2.054 0 0 0 1.8 1c.242.004.481-.048.7-.15l2.9-1.05a11.174 11.174 0 0 0 3.7 2.15l.5 3a2.05 2.05 0 0 0 2.05 1.7h2a2.09 2.09 0 0 0 2.05-1.75l.5-3a11.03 11.03 0 0 0 3.9-2.3l2.7 1.05a4 4 0 0 0 .75.15 2.1 2.1 0 0 0 1.8-1l.95-1.65a1.836 1.836 0 0 0-.4-2.5l-2.3-1.975Zm-1.695-4.67-2.275 2.28v.39a6.925 6.925 0 1 1-3.35-5.905l1.225-1.22a2.42 2.42 0 0 1 3.445 0l1 1a2.45 2.45 0 0 1 .715 1.85 2.33 2.33 0 0 1-.76 1.605Z"/>
</svg>
