<svg width="23" height="23" viewBox="0 0 29 32" fill="#BBBBBB" xmlns="http://www.w3.org/2000/svg">
<path d="M13.6192 3.85759C16.8426 3.85759 19.4831 6.49805 19.4831 9.72147C19.4831 12.9449 16.8426 15.5853 13.6192 15.5853C10.3958 15.5853 7.75536 12.9449 7.75536 9.72147C7.75536 6.46376 10.3615 3.85759 13.6192 3.85759ZM13.6192 2.14301C9.43565 2.14301 6.04077 5.53788 6.04077 9.72147C6.04077 13.9051 9.43565 17.2999 13.6192 17.2999C17.8028 17.2999 21.1977 13.9051 21.1977 9.72147C21.1977 5.53788 17.8028 2.14301 13.6192 2.14301Z" fill="#BBBBBB"/>
<path d="M13.6193 20.009C20.3748 20.009 24.5241 22.6495 24.5241 24.5698C24.5241 26.4901 20.3748 29.1306 13.6193 29.1306C6.86387 29.1306 2.71458 26.4901 2.71458 24.5698C2.71458 22.6495 6.86387 20.009 13.6193 20.009ZM13.6193 18.2944C6.65812 18.2944 1 21.1063 1 24.5698C1 28.0333 6.65812 30.8452 13.6193 30.8452C20.5805 30.8452 26.2387 28.0333 26.2387 24.5698C26.2387 21.0721 20.5805 18.2944 13.6193 18.2944Z" fill="#BBBBBB"/>
</svg>
