<svg xmlns="http://www.w3.org/2000/svg" width="16" height="16" fill="none" viewBox="0 0 16 16">
  <path fill="#616161" fill-rule="evenodd" d="M2.965 1.834a.8.8 0 1 0-1.13 1.132l11.2 11.2a.8.8 0 0 0 1.13-1.132l-1.178-1.178A8.012 8.012 0 0 0 15.634 8 8.003 8.003 0 0 0 4.39 3.259L2.965 1.834Zm3.41 3.41 1.21 1.21a1.602 1.602 0 0 1 1.96 1.96l1.212 1.212a3.2 3.2 0 0 0-4.383-4.383Z" clip-rule="evenodd"/>
  <path fill="#616161" d="M9.963 13.357 7.8 11.194A3.2 3.2 0 0 1 4.806 8.2L1.868 5.262A7.984 7.984 0 0 0 .366 8a8.004 8.004 0 0 0 9.597 5.357Z"/>
</svg>
