<svg xmlns="http://www.w3.org/2000/svg" width="86" height="71" fill="none" viewBox="0 0 86 71">
  <path fill="#BA68C8" d="m83 21.458-8.826-4.75c-1.181-.735-2.757-.73-4.502.21l-.63.342c.174-1.156.262-2.32.264-3.488a17.368 17.368 0 0 0-.577-4.603l4.549-1.034-8.732-4.711c-2.396-1.269-5.526-1.173-8.948.672-3.422 1.845-6.715 5.263-9.138 9.277a20.168 20.168 0 0 0-1.019-6.056l3.972-1.42-8.44-4.534c-3.088-1.903-7.223-1.87-11.779.583-9.552 5.168-17.306 18.992-17.306 30.9a23.13 23.13 0 0 0 .32 3.938l-1.196.634C4.902 40.696 0 49.466 0 57.075c0 4.18 1.507 7.16 3.877 8.447l8.826 4.762 1.46-6.975 12.859-6.938L69.686 33.38c3.626-1.947 6.559-7.16 6.606-11.68l5.133 2.574L83 21.458Z"/>
  <path fill="#fff" d="m83 21.458-8.826-4.75c-1.181-.735-2.757-.73-4.502.21l-.63.342c.174-1.156.262-2.32.264-3.488a17.368 17.368 0 0 0-.577-4.603l4.549-1.034-8.732-4.711c-2.396-1.269-5.526-1.173-8.948.672-3.422 1.845-6.715 5.263-9.138 9.277a20.168 20.168 0 0 0-1.019-6.056l3.972-1.42-8.44-4.534c-3.088-1.903-7.223-1.87-11.779.583-9.552 5.168-17.306 18.992-17.306 30.9a23.13 23.13 0 0 0 .32 3.938l-1.196.634C4.902 40.696 0 49.466 0 57.075c0 4.18 1.507 7.16 3.877 8.447l8.826 4.762 1.46-6.975 12.859-6.938L69.686 33.38c3.626-1.947 6.559-7.16 6.606-11.68l5.133 2.574L83 21.458Z" opacity=".1"/>
  <path fill="#BA68C8" d="M64.574 3.424c-2.397-1.269-5.527-1.174-8.949.672a20.587 20.587 0 0 0-4.515 3.386l11.264 6.113 6.701-2.841a15.377 15.377 0 0 0-.333-1.585l4.536-1.034-8.704-4.711ZM45.835 8.63c-.116-.45-.245-.888-.394-1.307l3.395-1.198.394-.336-8.222-4.439c-3.09-1.902-7.224-1.87-11.78.583-4.338 2.34-8.296 6.468-11.338 11.414l13.687 7.375L45.835 8.63ZM12.207 36.784l-3.625 2.295c-3.303 2.888-5.77 6.509-7.17 10.527l10.306 5.554L21 41.56l-8.792-4.775Z"/>
  <path fill="#fff" d="M64.574 3.424c-2.397-1.269-5.527-1.174-8.949.672a20.587 20.587 0 0 0-4.515 3.386l11.264 6.113 6.701-2.841a15.377 15.377 0 0 0-.333-1.585l4.536-1.034-8.704-4.711ZM45.835 8.63c-.116-.45-.245-.888-.394-1.307l3.395-1.198.394-.336-8.222-4.439c-3.09-1.902-7.224-1.87-11.78.583-4.338 2.34-8.296 6.468-11.338 11.414l13.687 7.375L45.835 8.63ZM12.207 36.784l-3.625 2.295c-3.303 2.888-5.77 6.509-7.17 10.527l10.306 5.554L21 41.56l-8.792-4.775Z" opacity=".4"/>
  <path fill="#BA68C8" d="m78.499 21.68-.632.342c.175-1.157.263-2.325.265-3.494 0-9.416-6.11-13.747-13.701-9.67-3.51 1.902-6.708 5.263-9.132 9.27-.34-11.344-7.95-16.454-17.292-11.413-9.54 5.149-17.306 18.991-17.306 30.88A23.24 23.24 0 0 0 21 41.56l-1.195.634C13.695 45.47 8.792 54.24 8.792 61.85c0 7.578 4.93 11.224 11.013 7.94l16.016-8.631 42.678-23.024c3.652-1.966 6.606-7.248 6.606-11.788 0-4.547-2.954-6.633-6.606-4.667Z"/>
  <path fill="#fff" d="m78.499 21.68-.632.342c.175-1.157.263-2.325.265-3.494 0-9.416-6.11-13.747-13.701-9.67-3.51 1.902-6.708 5.263-9.132 9.27-.34-11.344-7.95-16.454-17.292-11.413-9.54 5.149-17.306 18.991-17.306 30.88A23.24 23.24 0 0 0 21 41.56l-1.195.634C13.695 45.47 8.792 54.24 8.792 61.85c0 7.578 4.93 11.224 11.013 7.94l16.016-8.631 42.678-23.024c3.652-1.966 6.606-7.248 6.606-11.788 0-4.547-2.954-6.633-6.606-4.667Z" opacity=".6"/>
  <path fill="#fff" d="m78.499 21.68-.632.342c.175-1.157.263-2.325.265-3.494 0-9.416-6.11-13.747-13.701-9.67-3.51 1.902-6.708 5.263-9.132 9.27-.34-11.344-7.95-16.454-17.292-11.413-9.54 5.149-17.306 18.991-17.306 30.88A23.24 23.24 0 0 0 21 41.56l-1.195.634C13.695 45.47 8.792 54.24 8.792 61.85c0 7.578 4.93 11.224 11.013 7.94l16.016-8.631 42.678-23.024c3.652-1.966 6.606-7.248 6.606-11.788 0-4.547-2.954-6.633-6.606-4.667Z" opacity=".6"/>
</svg>
