<svg width="24" height="24" viewBox="0 0 24 24" fill="none" xmlns="http://www.w3.org/2000/svg">
<g id="administrator_line_icon_236151 1" clip-path="url(#clip0_416_885)">
<path id="Vector" d="M9.78669 9.87332C8.89507 9.87332 8.02349 9.60884 7.28223 9.11334C6.54097 8.61785 5.96334 7.91361 5.62244 7.08974C5.28154 6.26586 5.19268 5.35938 5.36711 4.48499C5.54155 3.6106 5.97143 2.8076 6.60236 2.1776C7.2333 1.5476 8.03693 1.11891 8.91158 0.94577C9.78623 0.772633 10.6926 0.862832 11.5159 1.20495C12.3393 1.54707 13.0427 2.12574 13.5371 2.86774C14.0315 3.60973 14.2947 4.4817 14.2934 5.37332C14.2898 6.56686 13.8137 7.71042 12.9691 8.55376C12.1245 9.3971 10.9802 9.87156 9.78669 9.87332ZM9.78669 2.19999C9.15907 2.19999 8.54554 2.3861 8.02368 2.73479C7.50183 3.08348 7.0951 3.57909 6.85492 4.15894C6.61473 4.73879 6.55189 5.37684 6.67433 5.99241C6.79678 6.60797 7.09901 7.17341 7.54281 7.61721C7.98661 8.061 8.55204 8.36323 9.16761 8.48568C9.78317 8.60812 10.4212 8.54528 11.0011 8.3051C11.5809 8.06492 12.0765 7.65818 12.4252 7.13633C12.7739 6.61448 12.96 6.00095 12.96 5.37332C12.96 4.5317 12.6257 3.72455 12.0306 3.12944C11.4355 2.53432 10.6283 2.19999 9.78669 2.19999Z" fill="white"/>
<path id="Vector_2" d="M10.9466 21.12C10.8009 20.9743 10.6885 20.7987 10.6171 20.6053C10.5458 20.412 10.5172 20.2055 10.5333 20H2.66659V16.1467C3.61185 15.138 4.75839 14.3391 6.03198 13.8017C7.30557 13.2642 8.67782 13.0002 10.0599 13.0267H10.5399C10.5093 12.8032 10.5307 12.5756 10.6024 12.3617C10.6741 12.1478 10.7941 11.9533 10.9533 11.7933L11.0333 11.72C10.7199 11.72 10.3666 11.68 10.0599 11.68C8.43352 11.6414 6.81886 11.9647 5.3327 12.6265C3.84654 13.2883 2.526 14.272 1.46659 15.5067C1.38004 15.6221 1.33325 15.7624 1.33325 15.9067V20C1.33325 20.3536 1.47373 20.6928 1.72378 20.9428C1.97382 21.1929 2.31296 21.3333 2.66659 21.3333H11.1333L10.9466 21.12Z" fill="white"/>
<path id="Vector_3" d="M17.9133 10.86C17.9463 10.8532 17.9803 10.8532 18.0133 10.86C17.9803 10.854 17.9464 10.854 17.9133 10.86Z" fill="white"/>
<path id="Vector_4" d="M22.4534 15.5467L21.1201 15.14C21.0248 14.8139 20.8952 14.4988 20.7334 14.2L21.4001 12.96C21.4218 12.9104 21.427 12.8552 21.415 12.8024C21.403 12.7496 21.3744 12.702 21.3334 12.6667L20.3668 11.7C20.3302 11.6604 20.2814 11.6343 20.2282 11.6258C20.175 11.6174 20.1205 11.6271 20.0734 11.6533L18.8468 12.32C18.5447 12.1502 18.225 12.0138 17.8934 11.9133L17.4868 10.58C17.4695 10.5309 17.4368 10.4888 17.3935 10.4599C17.3502 10.4311 17.2987 10.4171 17.2468 10.42H15.8801C15.8276 10.4194 15.7763 10.436 15.7342 10.4673C15.6921 10.4986 15.6613 10.5429 15.6468 10.5933L15.2401 11.9267C14.9062 12.0238 14.5842 12.158 14.2801 12.3267L13.0668 11.66C13.0207 11.6342 12.9673 11.6248 12.9153 11.6333C12.8632 11.6418 12.8156 11.6676 12.7801 11.7067L11.7934 12.6667C11.7568 12.7052 11.7333 12.7542 11.7261 12.8069C11.7189 12.8595 11.7285 12.9131 11.7534 12.96L12.4201 14.1733C12.2438 14.4738 12.1028 14.7937 12.0001 15.1267L10.6668 15.5267C10.6163 15.5412 10.5721 15.572 10.5408 15.6141C10.5094 15.6563 10.4928 15.7075 10.4934 15.76V17.1267C10.4974 17.1748 10.5162 17.2206 10.5472 17.2576C10.5783 17.2946 10.62 17.3211 10.6668 17.3333L12.0001 17.74C12.0986 18.067 12.2328 18.3823 12.4001 18.68L11.7334 19.9533C11.708 19.999 11.6981 20.0516 11.7053 20.1034C11.7126 20.1551 11.7365 20.2031 11.7734 20.24L12.7401 21.2067C12.7778 21.2443 12.8265 21.2691 12.8792 21.2775C12.9319 21.2859 12.9858 21.2774 13.0334 21.2533L14.2801 20.5867C14.5768 20.7462 14.8897 20.8736 15.2134 20.9667L15.6134 22.3C15.6298 22.3493 15.661 22.3925 15.7028 22.4235C15.7445 22.4545 15.7948 22.4719 15.8468 22.4733H17.2134C17.2657 22.4729 17.3164 22.4558 17.3583 22.4247C17.4003 22.3935 17.4312 22.3499 17.4468 22.3L17.8534 20.9333C18.1729 20.8402 18.4814 20.7128 18.7734 20.5533L20.0334 21.22C20.0797 21.2446 20.1328 21.2534 20.1846 21.245C20.2364 21.2365 20.284 21.2114 20.3201 21.1733L21.3334 20.2667C21.3607 20.2275 21.3753 20.181 21.3753 20.1333C21.3753 20.0857 21.3607 20.0391 21.3334 20L20.6668 18.7467C20.8286 18.4526 20.9582 18.1419 21.0534 17.82L22.3868 17.4133C22.4372 17.3988 22.4815 17.368 22.5128 17.3259C22.5441 17.2837 22.5607 17.2325 22.5601 17.18V15.78C22.5662 15.735 22.5594 15.6892 22.5406 15.6479C22.5217 15.6066 22.4915 15.5715 22.4534 15.5467ZM16.5668 18.6667C16.1258 18.668 15.6944 18.5383 15.3272 18.2942C14.96 18.05 14.6736 17.7023 14.5042 17.2952C14.3348 16.8881 14.2902 16.4398 14.3759 16.0072C14.4616 15.5747 14.6738 15.1773 14.9856 14.8655C15.2974 14.5537 15.6948 14.3415 16.1273 14.2558C16.5599 14.1701 17.0081 14.2148 17.4153 14.3841C17.8224 14.5535 18.1701 14.8399 18.4143 15.2071C18.6584 15.5743 18.7881 16.0057 18.7868 16.4467C18.785 17.0349 18.5505 17.5986 18.1346 18.0145C17.7186 18.4305 17.155 18.6649 16.5668 18.6667Z" fill="white"/>
</g>
<defs>
<clipPath id="clip0_416_885">
<rect width="24" height="24" fill="white"/>
</clipPath>
</defs>
</svg>
