<svg width="21" height="21" viewBox="0 0 21 21" fill="none" xmlns="http://www.w3.org/2000/svg">
<path d="M20.6475 9.10718L17.4649 5.82721V2.03829C17.4649 1.3532 16.9262 0.797992 16.2604 0.797992C15.5962 0.797992 15.0575 1.3532 15.0575 2.03829V3.34631L12.6878 0.904019C11.5162 -0.302773 9.4791 -0.300632 8.31015 0.906203L0.352326 9.10718C-0.117442 9.59228 -0.117442 10.3772 0.352326 10.8615C0.822306 11.3465 1.58541 11.3465 2.05522 10.8615L10.0123 2.66034C10.2715 2.3946 10.7284 2.3946 10.9862 2.65956L18.9447 10.8615C19.1806 11.104 19.4883 11.2247 19.7959 11.2247C20.1041 11.2247 20.4123 11.1039 20.6476 10.8615C21.1175 10.3772 21.1175 9.59232 20.6475 9.10718Z" fill="#4746B8"/>
<path d="M10.9182 5.01466C10.687 4.77653 10.3127 4.77653 10.0822 5.01466L3.08247 12.2263C2.97195 12.3401 2.9093 12.4956 2.9093 12.6578V17.9177C2.9093 19.1519 3.88038 20.1526 5.07798 20.1526H8.54355V14.6215H12.4561V20.1526H15.9217C17.1193 20.1526 18.0904 19.1519 18.0904 17.9177V12.6578C18.0904 12.4956 18.0283 12.3401 17.9172 12.2263L10.9182 5.01466Z" fill="#4746B8"/>
</svg>
