<svg xmlns="http://www.w3.org/2000/svg" width="24" height="24" fill="#000" viewBox="0 0 24 24">
  <path fill="#000" fill-opacity=".3" d="M4.51 14.149a2.19 2.19 0 0 1-1.552-.647 2.218 2.218 0 0 1 0-3.126 2.188 2.188 0 0 1 3.105 0 2.217 2.217 0 0 1 0 3.126 2.19 2.19 0 0 1-1.552.647Zm7.318 0a2.19 2.19 0 0 1-1.552-.647 2.218 2.218 0 0 1 0-3.126 2.188 2.188 0 0 1 3.104 0 2.217 2.217 0 0 1 0 3.126 2.19 2.19 0 0 1-1.552.647Zm7.317 0a2.19 2.19 0 0 1-1.552-.647 2.218 2.218 0 0 1 0-3.126 2.187 2.187 0 0 1 3.105 0 2.218 2.218 0 0 1 0 3.126 2.19 2.19 0 0 1-1.553.647Z"/>
</svg>
