<?xml version="1.0" encoding="UTF-8"?>
<svg id="Layer_1" data-name="Layer 1" xmlns="http://www.w3.org/2000/svg" version="1.1" viewBox="0 0 310 173">
  <defs>
    <style>
      .cls-1 {
        fill: #FFFFFF;
      }

      .cls-1, .cls-2, .cls-3 {
        stroke-width: 0px;
      }

      .cls-2 {
        fill: #FFFFFF;
      }

      .cls-3 {
        fill: #FFFFFF;
      }
    </style>
  </defs>
  <path class="cls-1" d="M264.5,14.1c4.2-.3,8.5.1,12.6,1.4,8.2,2.5,15,6.9,19.2,14.6,2.6,4.8,4.2,10,5,15.5.5,3.6.8,7.1.8,10.7,0,5-.7,9.9-2.2,14.7-.7,2.3-1.4,4.6-2.3,6.8-3.4,7.8-9.4,12.8-17.2,15.9-3.7,1.5-7.6,2-11.6,2.4-5.3.5-10.4.2-15.5-1-10.6-2.5-18.6-8.5-22.8-18.9-2.6-6.4-3.7-13-3.7-19.8,0-6.2.6-12.3,2.3-18.2,3-10.5,9.5-17.8,19.8-21.7,5-1.9,10.2-2.6,15.7-2.3ZM241.6,54.2c0,5.8.5,10.5,2,15.2,2.4,7.3,7.2,11.6,14.9,12.6,4.3.6,8.6.7,12.8-.2,5.1-1,9.5-3.4,12-8.4,2.1-4.2,3-8.6,3.4-13.2.7-6.7.2-13.2-1.7-19.6-1.9-6.4-6.2-10.5-12.7-12.1-5-1.2-10-1.2-15.1-.2-6.4,1.3-10.8,4.9-13.1,11.1-1.9,5.1-2.4,10.4-2.5,14.9Z"/>
  <path class="cls-1" d="M199.6,72.6c-12.9,0-25.8.1-38.7.2,0,1,0,3,1.3,5,.2.4,1,1.6,2.6,2.8,1.5,1.1,3.9,2.5,8.2,2.6,7.6.2,14.9-1.2,21.5-5,.2-.1.4-.2.7-.2,0,0,.2,0,.4,0v13.7c-2.6,1.6-5.5,2.3-8.3,3-5.2,1.2-10.4,1.9-15.7,1.5-5.8-.4-11.3-1.9-16.2-5.3-4.2-3-6.7-7-8.3-11.8-2-6-2.2-12.1-1.8-18.2.4-5.6,1.5-11.1,4.4-16,3.2-5.3,7.6-8.9,13.7-10.4,5.9-1.5,11.8-1.7,17.7,0,3.1.9,5.8,2.2,8.1,4,0,0,3.5,2.7,6.2,7.2,6,9.9,4.4,24.8,4.2,26.9ZM184.4,58.9c0-1.1-.3-2.6-1-4.3-.4-1-1.3-3.3-3.4-5.2-.6-.6-4.7-4.3-10.3-3.2-3.6.7-5.7,3-6.5,3.8-2.6,3.1-2.9,6.9-3.1,8.4,0,.4,0,.7,0,.9,4,0,8.2,0,12.4,0,4,0,7.9-.2,11.8-.3Z"/>
  <path class="cls-1" d="M95.2,50v-12.9c.6-.3,1.1-.7,1.8-.9,6.1-2,12.4-3.2,18.8-2.9,5.6.3,11.1,1.4,15.9,4.8,3.9,2.8,6.7,6.4,8.1,11.1.9,2.7,1.3,5.4,1.3,8.2,0,5,.3,10,.3,14.9,0,2.4,0,4.9-.5,7.2-1.5,6.3-4.7,11.3-10.9,13.9-4.4,1.8-9,2.7-13.6,2.8-5.5,0-10.8-.7-15.9-3.1-6.1-2.7-9.6-7.6-10.7-13.8-.9-4.9-.8-10,2.6-14.3,2.2-2.9,5-5.2,8.3-6.6,3.7-1.5,7.4-2.6,11.5-2.9,4.3-.4,8.5-.6,12.8,0,.2,0,.4-.1.8-.2,0-.5.3-1,.2-1.5-.8-2.8-2.2-5.2-5.2-6.1-1.6-.5-3.3-.8-5-.9-4.9-.3-9.8,0-14.6,1.4-1.8.6-3.7,1.1-5.9,1.8ZM126.4,67.9c-.3,0-.8,0-1.5,0-3.5,0-6.6-.2-10.3,0-4.7.3-6.3.8-7.6,1.7-1.2.8-1.8,1.6-2.1,2-.2.3-1.2,1.8-1.1,3.9,0,2.6,1,4.6,3.4,5.6,1.5.7,3.2,1.2,4.9,1.4,3.7.5,7.3.3,10.7-1.2,1-.4,1.8-1.1,2.4-1.9.4-.5.6-1.1.8-1.8.7-3,.3-9,.3-9.7Z"/>
  <path class="cls-1" d="M80,33.6v-14.7c-7-2.7-19.6-6.3-34.7-3.6-2.7.5-5.3,1.1-7.6,1.9-4.9,1.5-9.3,4.5-12.7,8.4h0c-8.7,10.1-8.9,22.4-8.9,29,0,6.7-.2,18.3,7.7,28.5,0,0,0,0,0,.1,4.1,5.2,9.9,8.8,16.4,10.5,4.3,1.1,9.6,2,15.6,2,12.5,0,22.1-3.6,27.3-6.1v-15.3h-14.7v5.9c-3.4,1.1-8.6,2.2-15,1.9-4.3-.2-8-1.1-10.7-1.9-1.7-.9-4.2-2.4-6.3-5-4.5-5.3-4.7-11.5-5-18.2-.3-7.1-.5-13.8,3.9-20.1,0,0,0,0,0-.1,3-4.4,7.8-7.2,13-8s5.6-.7,8.8-.7c10.3,0,18.4,3.1,23,5.4Z"/>
  <path class="cls-1" d="M48.2,62.6c0,.9.2,3.5,2,5.9,0,0,0,0,0,0,1.8,2.4,4.6,3.6,7.6,3.6h25.5v-9.9s-34.7.3-35.2.3Z"/>
  <circle class="cls-3" cx="52.8" cy="54.2" r="5.7"/>
  <path class="cls-3" d="M67.9,48.4h15.3v11.6h-15.3c-3.2,0-5.8-2.6-5.8-5.8h0c0-3.2,2.6-5.8,5.8-5.8Z"/>
  <rect class="cls-1" x="205.3" y="12.5" width="14.9" height="82.9"/>
  <rect class="cls-1" x="71.4" y="106.5" width="12" height="59.8"/>
  <rect class="cls-1" x="71.4" y="106.5" width="40.9" height="10.2"/>
  <rect class="cls-1" x="71.4" y="131" width="36.9" height="10.2"/>
  <rect class="cls-1" x="90.3" y="131.4" width="59.7" height="10.8" transform="translate(256.9 16.6) rotate(90)"/>
  <path class="cls-1" d="M149.5,122.1c-12.6,0-22.9,10.1-22.9,22.6s10.2,22.6,22.9,22.6,22.9-10.1,22.9-22.6-10.2-22.6-22.9-22.6ZM149.5,158.1c-6.7,0-12.2-6-12.2-13.5s5.4-13.5,12.2-13.5,12.2,6,12.2,13.5-5.4,13.5-12.2,13.5Z"/>
  <path class="cls-1" d="M171.7,117.3h14l11.3,32.8c-1.5.5-3.3.9-5.3,1.2-2.2.3-4.2.4-5.9.3-4.7-11.5-9.4-22.9-14.1-34.4Z"/>
  <path class="cls-1" d="M195.5,117.3l9,24.5-2.3,6.5c3.6-1.9,7.8-4.4,12.2-7.8,3.5-2.7,6.4-5.4,8.8-7.9l5.8-15.5h-11.5l-5,16.6-6-16.8s-11,.2-11,.4Z"/>
  <polygon class="cls-1" points="190.7 161 207.9 157.4 204 167 193.1 167 190.7 161"/>
  <polygon class="cls-1" points="220.8 167.5 231.1 167.5 244.6 134 227.7 147 225.7 153.1 224.3 149.2 215.3 154.5 220.8 167.5"/>
  <path class="cls-2" d="M178.2,137.7c-.5.6-2.4,3.3-2,7,.3,2.4,1.4,4,2,4.8.5.4,1.2.8,2.1,1.3,12.9,7.1,31.9-4.7,40.7-10.3,6.8-4.2,16.5-11.4,25.8-23.1-1-1-2-1.9-3-2.9l17.3-6.7-3,18.7-3.5-2.9c-14.4,18.2-29.7,26.7-38.7,30.7-8.9,4-24.8,11.1-35.2,4.1-1.2-.8-7.4-4.9-7.3-11.4,0-5.1,3.9-8.6,4.9-9.5Z"/>
  <path class="cls-2" d="M60.8,102.2c-5-.2-21.3-16.1-28.3-23.1-11.1-11.1-22.2-23.4-23.7-26.3-.3-.5-1.4-2.8-.6-3.6.6-.6,2,0,3,.2.4.1.8.3,2.1.9.7.4,1.7.9,2.8,1.6,0,.3,0,.6,0,.9-2.7-1.7-4.7-2.5-5.8-3-.5-.2-1.1-.4-1.4,0-.1.1-.3.6.7,2.6,3.2,6.2,43.1,48,51.4,49,.2,0,.7,0,1-.2.8-.8-.5-3.4-1.8-5.6.3,0,.7,0,1,0,.6,1,2.8,4.7,1.6,6.1-.5.6-1.5.6-1.8.6Z"/>
  <circle class="cls-2" cx="21.3" cy="68.2" r="2.9"/>
  <path class="cls-2" d="M22.1,97.2c-.6,0-1.1-.2-1.6-.5-.8-.6-1.1-1.5-.9-2.4,3.7-17.5,10-34.3,18.9-49.8,7.9-13.8,17.7-26.5,29.1-37.7.7-.7,1.9-.9,2.8-.5,1,.4,1.6,1.3,1.5,2.4,0,1.7-.4,3.3-.6,3.7-.3.9-.7,2.1-1.2,3.4-.3,0-.6-.1-.9-.2.5-1.3.9-2.4,1.3-3.4,0,0,.5-1.5.6-3.5,0-.2,0-.5-.2-.9-.2-.3-.5-.5-.7-.7-.5-.2-1.2-.2-1.8.3-11.4,11.2-21.1,23.8-28.9,37.5-8.9,15.5-15.2,32.2-18.8,49.6-.1.6,0,1.2.6,1.5.5.4,1.1.4,1.7.2h.3c4-2,6-5.4,6.8-7.3l.9.4c-.9,2-3,5.6-7.3,7.6l-.3.2c-.3.2-.7.2-1.1.2Z"/>
  <circle class="cls-2" cx="66.7" cy="8.4" r="2.9"/>
</svg>