<svg xmlns="http://www.w3.org/2000/svg" width="36" height="12" fill="none" viewBox="0 0 36 12">
  <path fill="#fff" d="M8.999 7.172v1.207H5.832a1.206 1.206 0 0 1-1.209-1.207H9ZM5.557 2.893c-.476.75-.989 1.646-1.538 2.688-.44.823-.824 1.627-1.172 2.377-.018-.055-.036-.11-.055-.183 0-.018 0-.036-.018-.054.33-.714.696-1.463 1.098-2.231.421-.823.952-1.756 1.502-2.615h.146c0 .018.018.018.037.018Zm-2.655 7.918c-.732.97-1.061 1.134-1.226 1.134-.055 0-.092-.018-.11-.037-.092-.054-.366-.2.256-1.956.037.036.073.091.128.146-.42 1.207-.402 1.627-.293 1.664.092.037.421-.128 1.099-1.042.018.018.055.036.073.055.037 0 .055.018.073.036ZM.779 7.264C.724 7.172.65 7.099.596 7.008.21 6.458-.174 5.764.083 5.47c.128-.128.348-.146.659-.036 0 .055-.018.11-.018.164C.358 5.47.229 5.544.193 5.58c-.11.128-.037.53.512 1.317l.019.018c.018.146.036.238.055.348ZM6.93 11.89a.387.387 0 0 1-.293.11c-.348 0-.86-.256-1.264-.512a1.526 1.526 0 0 1-.22-.146h.331c.824.493 1.227.548 1.337.42.073-.091.055-.274-.055-.53.055 0 .11-.018.165-.037.128.33.128.567 0 .695ZM7.882.022c-.147-.073-.366.037-.64.311-.056-.018-.11-.037-.166-.037a.367.367 0 0 0-.366.366c0 .073.018.146.055.201-.091.128-.201.256-.293.384.073 0 .128.019.202.019.073-.11.164-.202.238-.293.054.037.11.037.164.037a.367.367 0 0 0 .366-.366.275.275 0 0 0-.073-.201c.22-.22.366-.311.44-.275.091.037.11.366-.165 1.28.055.019.11.037.165.037.384-1.298.146-1.408.073-1.463Z"/>
  <path fill="#fff" d="M1.895 9.787c.092-.274.22-.567.348-.878l-.33-.329a.31.31 0 0 1-.182.055.367.367 0 0 1-.293-.585C1.2 7.776.962 7.5.778 7.245c-.018-.11-.018-.22-.036-.329.22.33.513.677.824 1.024.055-.018.11-.036.165-.036.2 0 .366.164.366.365a.309.309 0 0 1-.055.183c.091.092.183.183.274.293.147-.33.293-.677.458-1.024 0 .018 0 .036.018.055-.128-.44-.183-.951-.183-1.536 0-.586.073-1.116.183-1.537.128-.42.275-.75.458-.969a1.81 1.81 0 0 1 .64-.53c.275-.146.532-.22.77-.256.256-.037.549-.055.878-.055h-.146c.384-.622.769-1.189 1.117-1.664.073 0 .128.018.201.018-.33.42-.696.97-1.117 1.646.934 0 1.83.183 2.71.549l.384.164v-1.81l-.183-.073a9.116 9.116 0 0 0-3.13-.567c-.458 0-.897.036-1.282.11-.403.073-.824.237-1.245.457a4.068 4.068 0 0 0-1.098.914c-.311.366-.55.878-.75 1.5a7.519 7.519 0 0 0-.294 2.12c0 .805.092 1.5.275 2.122.183.622.44 1.116.75 1.5.055.073.129.146.202.219a.792.792 0 0 1-.11-.128.764.764 0 0 0 .073-.183Z"/>
  <path fill="#fff" d="M2.793 9.458c-.147-.146-.293-.274-.421-.402-.11.274-.22.548-.312.804-.036.092-.055.165-.091.238.256.274.549.494.878.677.422.237.843.384 1.245.475.403.073.824.11 1.3.11h-.238a17.936 17.936 0 0 1-2.361-1.902Z"/>
  <path fill="#fff" d="M7.15 8.69v.713a6.31 6.31 0 0 1-1.63.201c-.33 0-.622-.018-.879-.055a3.025 3.025 0 0 1-.787-.256 2.058 2.058 0 0 1-.659-.53c-.183-.22-.33-.548-.458-.97.019.056.037.129.055.184-.146.31-.274.622-.402.914.146.146.31.311.476.457.897.841 1.812 1.555 2.563 2.012h.018-.055c1.19 0 2.343-.256 3.423-.768l.165-.073v-1.81H7.15V8.69Zm5.51-5.157c-.787 0-1.538.128-2.234.402l-.183.073v1.683l.366-.128c.66-.22 1.282-.33 1.868-.33.604 0 1.025.11 1.281.311.183.165.311.42.366.75a8.39 8.39 0 0 0-.97-.055c-1.08 0-1.959.22-2.6.64-.677.44-1.006 1.08-1.006 1.865 0 .165.018.348.036.513.037.182.11.402.238.676s.311.512.531.713c.22.201.55.366.989.512.42.147.915.22 1.464.22.531 0 1.025-.073 1.428-.201.421-.147.75-.311.97-.512.22-.202.403-.44.531-.695.129-.256.202-.476.238-.64.037-.165.055-.33.055-.512V6.75c0-1.024-.293-1.828-.897-2.395-.586-.549-1.428-.823-2.471-.823Zm-1.117 4.773c.128-.128.275-.22.476-.293.22-.073.44-.128.64-.146a2.94 2.94 0 0 1 .55-.055c.366 0 .677.018.952.055v.896c0 .402-.146.878-1.318.878h-.018c-1.428 0-1.428-.677-1.428-.915-.019-.164.036-.292.146-.42Zm8.293-4.773c-2.8 0-3.386 2.176-3.386 3.986 0 .732.11 1.372.31 1.884.202.548.513.95.88 1.225.347.256.732.439 1.098.549.366.11.787.164 1.226.164h.037c.952 0 1.812-.164 2.581-.475l.165-.073v-1.81l-.403.219c-.622.329-1.41.493-2.306.493-.934 0-1.465-.402-1.666-1.261h4.796l.018-.256c.037-.311.037-.659.037-.988 0-1.097-.311-1.993-.915-2.652-.605-.658-1.428-1.005-2.472-1.005Zm1.501 3.2h-3.002c.073-.53.201-.914.403-1.134.22-.238.604-.366 1.098-.366.275 0 .531.055.733.165.2.11.347.238.439.42.11.202.201.403.256.586.037.128.055.22.073.329ZM25.548.955h-1.85v10.277h1.85V.955ZM5.978 6.148a.691.691 0 0 1-.678.695h-.055a.681.681 0 0 1-.64-.676c0-.366.274-.659.64-.677H5.3a.66.66 0 0 1 .678.658Zm3.02-.676v1.371H7.113a.675.675 0 1 1 0-1.353h1.885v-.018Zm26.564-1.335c-.183-.622-.44-1.116-.75-1.482a4.07 4.07 0 0 0-1.1-.914 4.568 4.568 0 0 0-1.244-.476 7.119 7.119 0 0 0-1.282-.11 7.28 7.28 0 0 0-1.281.11c-.403.074-.824.238-1.263.476-.44.238-.806.549-1.117.914-.311.366-.55.878-.75 1.482-.184.603-.275 1.316-.275 2.12 0 .805.091 1.5.274 2.122.183.622.44 1.116.75 1.481.312.366.678.677 1.118.915.42.237.842.384 1.263.475.403.073.824.11 1.281.11.44 0 .879-.037 1.282-.11a4.041 4.041 0 0 0 1.245-.475 3.81 3.81 0 0 0 1.098-.915c.311-.365.55-.877.75-1.48.184-.604.275-1.318.275-2.122.019-.805-.073-1.518-.274-2.121Zm-4.376-1.262c.311 0 .586.018.824.055.22.036.476.128.732.256.257.128.458.31.623.53.165.22.311.549.42.97.129.438.184.95.184 1.554 0 .585-.055 1.115-.183 1.536-.11.42-.256.75-.421.969-.165.22-.366.402-.623.53a2.2 2.2 0 0 1-.732.256 5.478 5.478 0 0 1-.824.055c-.31 0-.585-.018-.823-.055a2.706 2.706 0 0 1-.733-.256 1.753 1.753 0 0 1-.622-.53c-.165-.22-.311-.549-.44-.97-.128-.438-.183-.95-.183-1.535 0-.586.055-1.116.183-1.537.129-.42.257-.75.44-.969.165-.22.366-.402.622-.53a2.2 2.2 0 0 1 .733-.256c.238-.055.512-.073.823-.073Z"/>
</svg>
