<svg xmlns="http://www.w3.org/2000/svg" width="48" height="16" fill="none" viewBox="0 0 48 16">
  <g clip-path="url(#a)">
    <path fill="#fff" d="M12 9.563v1.609H7.776a1.608 1.608 0 0 1-1.612-1.61H12h-.002ZM7.41 3.857c-.635 1-1.319 2.195-2.05 3.584a62.093 62.093 0 0 0-1.563 3.17c-.024-.074-.048-.147-.074-.244 0-.024 0-.048-.024-.072.44-.952.928-1.951 1.464-2.975a43.035 43.035 0 0 1 2.003-3.487h.195c0 .024.024.024.049.024ZM3.87 14.415c-.976 1.293-1.415 1.512-1.635 1.512-.073 0-.122-.024-.146-.05-.123-.072-.488-.266.34-2.608.05.048.098.122.172.195-.56 1.61-.536 2.17-.391 2.219.123.049.561-.171 1.465-1.39.024.024.074.048.098.074.049 0 .073.024.097.048Zm-2.83-4.73c-.074-.122-.173-.22-.245-.341C.281 8.611-.23 7.685.111 7.294c.17-.171.464-.195.879-.049 0 .074-.024.147-.024.219-.488-.17-.66-.072-.708-.024-.147.17-.05.707.683 1.756l.025.024c.024.195.048.319.073.465Zm8.2 6.168a.515.515 0 0 1-.39.147c-.464 0-1.147-.341-1.685-.683a2.038 2.038 0 0 1-.294-.194h.442c1.098.657 1.636.73 1.782.56.098-.122.074-.366-.073-.707a.69.69 0 0 0 .22-.05c.17.44.17.757 0 .927H9.24ZM10.51.03c-.196-.097-.488.05-.853.415-.075-.024-.147-.05-.222-.05a.49.49 0 0 0-.488.489c0 .097.024.194.074.268-.122.17-.268.341-.391.512.097 0 .17.025.27.025.097-.147.218-.27.317-.39.072.049.146.049.218.049a.49.49 0 0 0 .467-.632.367.367 0 0 0-.076-.124c.293-.294.488-.415.586-.367.122.05.147.488-.22 1.707a.69.69 0 0 0 .22.049c.512-1.73.195-1.877.098-1.95Z"/>
    <path fill="#fff" d="M2.526 13.05c.123-.366.294-.757.464-1.171l-.44-.439a.414.414 0 0 1-.242.074.489.489 0 0 1-.391-.78 16.183 16.183 0 0 1-.88-1.074c-.024-.146-.024-.293-.048-.438.293.44.684.902 1.099 1.365a.725.725 0 0 1 .22-.048.49.49 0 0 1 .488.486.412.412 0 0 1-.074.245c.122.122.244.244.366.39.196-.44.39-.902.61-1.365 0 .024 0 .048.024.073-.17-.587-.244-1.268-.244-2.048 0-.781.098-1.488.244-2.05.17-.56.367-1 .61-1.291.227-.299.519-.54.854-.707.367-.195.71-.293 1.027-.341a8.27 8.27 0 0 1 1.17-.074H7.19a34.22 34.22 0 0 1 1.49-2.218c.097 0 .17.024.267.024-.44.56-.928 1.293-1.49 2.194a9.29 9.29 0 0 1 3.614.732l.512.22V2.394l-.244-.098a12.154 12.154 0 0 0-4.173-.756c-.61 0-1.196.048-1.71.147-.537.098-1.098.316-1.66.61a5.424 5.424 0 0 0-1.463 1.218c-.415.488-.734 1.17-1 2a10.01 10.01 0 0 0-.392 2.827c0 1.073.122 2 .366 2.83.244.829.587 1.487 1 2 .074.097.172.194.27.291a1.054 1.054 0 0 1-.147-.17c.043-.077.075-.16.097-.245Z"/>
    <path fill="#fff" d="M3.724 12.61c-.196-.194-.391-.365-.562-.535-.146.365-.293.73-.416 1.072-.048.122-.073.22-.121.317.341.365.732.659 1.17.903a6.126 6.126 0 0 0 1.66.633 9.588 9.588 0 0 0 1.734.147h-.317a23.914 23.914 0 0 1-3.148-2.536Z"/>
    <path fill="#fff" d="M9.533 11.587v.95c-.71.184-1.44.274-2.173.268-.44 0-.83-.024-1.172-.073a4.035 4.035 0 0 1-1.05-.341 2.745 2.745 0 0 1-.878-.707c-.244-.293-.44-.73-.61-1.293.025.074.049.172.073.245-.195.413-.366.83-.536 1.219.194.194.413.414.634.61 1.196 1.12 2.416 2.072 3.418 2.682h.024-.074c1.587 0 3.124-.342 4.564-1.024l.22-.098v-2.413h-2.44v-.025ZM16.88 4.71c-1.05 0-2.05.17-2.979.536l-.244.097v2.244l.488-.17c.88-.294 1.71-.44 2.49-.44.806 0 1.367.146 1.709.414.244.22.415.56.488 1a11.19 11.19 0 0 0-1.294-.073c-1.44 0-2.611.293-3.466.853-.903.587-1.341 1.44-1.341 2.487 0 .22.024.464.047.684.05.242.147.536.318.901.17.365.415.683.708.95.293.269.733.489 1.319.683.56.196 1.22.294 1.952.294.707 0 1.366-.098 1.904-.268.56-.196 1-.415 1.293-.683.293-.27.537-.587.708-.927a3.71 3.71 0 0 0 .317-.853c.05-.22.073-.44.073-.683V9c0-1.365-.39-2.437-1.196-3.193-.78-.732-1.904-1.096-3.294-1.096Zm-1.49 6.364c.171-.17.367-.294.635-.39a3.88 3.88 0 0 1 .854-.196c.241-.047.487-.072.733-.073.488 0 .903.024 1.27.073v1.195c0 .536-.196 1.17-1.758 1.17H17.1c-1.904 0-1.904-.902-1.904-1.22-.025-.218.048-.389.194-.56ZM26.448 4.71c-3.733 0-4.515 2.901-4.515 5.314 0 .976.147 1.83.413 2.512.27.731.684 1.267 1.174 1.634.463.341.976.585 1.464.732.488.146 1.05.218 1.634.218h.05c1.27 0 2.416-.218 3.441-.633l.22-.097v-2.414l-.537.292c-.83.44-1.88.658-3.075.658-1.245 0-1.953-.536-2.221-1.682h6.395l.024-.34c.049-.416.049-.88.049-1.318 0-1.463-.415-2.658-1.22-3.536-.807-.878-1.904-1.34-3.296-1.34Zm2.001 4.266h-4.003c.098-.706.268-1.218.538-1.512.293-.317.805-.488 1.464-.488.366 0 .708.074.977.22.267.147.463.318.585.56.147.27.268.538.342.782.05.17.073.293.097.438Zm5.615-7.704h-2.467v13.703h2.467V1.273ZM7.97 8.197a.921.921 0 0 1-.904.927h-.074a.908.908 0 0 1-.853-.901.89.89 0 0 1 .853-.903h.074a.88.88 0 0 1 .904.877Zm4.026-.9v1.827H9.484a.902.902 0 1 1 0-1.804h2.513v-.024Zm35.419-1.78c-.244-.83-.587-1.489-1-1.977a5.428 5.428 0 0 0-1.467-1.219 6.091 6.091 0 0 0-1.658-.634 9.492 9.492 0 0 0-1.71-.147 9.706 9.706 0 0 0-1.708.147c-.537.098-1.098.317-1.684.634a5.187 5.187 0 0 0-1.49 1.22c-.414.487-.732 1.17-1 1.975-.244.804-.366 1.755-.366 2.827 0 1.073.122 2 .366 2.83.244.828.586 1.487 1 1.974.416.488.904.902 1.49 1.22.56.316 1.123.512 1.684.633a9.513 9.513 0 0 0 1.708.147c.587 0 1.172-.05 1.71-.147a5.388 5.388 0 0 0 1.66-.633 5.08 5.08 0 0 0 1.463-1.22c.415-.487.734-1.17 1-1.974.246-.805.367-1.757.367-2.829.026-1.073-.097-2.024-.365-2.828ZM41.58 3.832c.415 0 .781.024 1.099.074.293.048.635.17.976.341.343.17.61.413.83.707.22.293.415.732.56 1.293.172.584.246 1.267.246 2.072 0 .78-.074 1.487-.244 2.048-.147.56-.342 1-.562 1.292-.22.293-.487.536-.83.707-.303.17-.633.286-.976.341a7.29 7.29 0 0 1-1.099.073c-.413 0-.78-.024-1.097-.073a3.61 3.61 0 0 1-.977-.341 2.338 2.338 0 0 1-.83-.707c-.22-.293-.414-.732-.587-1.293-.17-.584-.244-1.267-.244-2.047 0-.781.074-1.488.245-2.05.172-.56.342-1 .586-1.291.22-.294.488-.536.83-.707.303-.17.633-.286.977-.341.317-.074.682-.098 1.097-.098Z"/>
  </g>
  <defs>
    <clipPath id="a">
      <path fill="#fff" d="M0 0h48v16H0z"/>
    </clipPath>
  </defs>
</svg>
