<svg width="24" height="24" viewBox="0 0 20 20" fill="none" xmlns="http://www.w3.org/2000/svg">
<path d="M10.0001 18.3333C5.39771 18.3333 1.66675 14.6023 1.66675 9.99996C1.66675 5.39758 5.39771 1.66663 10.0001 1.66663C14.6024 1.66663 18.3334 5.39758 18.3334 9.99996C18.3334 14.6023 14.6024 18.3333 10.0001 18.3333ZM10.0001 16.6666C13.682 16.6666 16.6667 13.6819 16.6667 9.99996C16.6667 6.31806 13.682 3.33329 10.0001 3.33329C6.31818 3.33329 3.33341 6.31806 3.33341 9.99996C3.33341 13.6819 6.31818 16.6666 10.0001 16.6666ZM9.16675 12.5H10.8334V14.1666H9.16675V12.5ZM10.8334 11.1292V11.6666H9.16675V10.4166C9.16675 9.95638 9.53983 9.58329 10.0001 9.58329C10.6904 9.58329 11.2501 9.02363 11.2501 8.33329C11.2501 7.64293 10.6904 7.08329 10.0001 7.08329C9.39367 7.08329 8.88808 7.51515 8.77408 8.0881L7.13951 7.76118C7.40539 6.42428 8.58508 5.41663 10.0001 5.41663C11.6109 5.41663 12.9167 6.72246 12.9167 8.33329C12.9167 9.65454 12.0382 10.7706 10.8334 11.1292Z" fill="white"/>
</svg>
