<svg width="18" height="18" viewBox="0 0 18 18" fill="none" xmlns="http://www.w3.org/2000/svg">
<path d="M17.6979 8.13435L14.9699 5.20475V1.82056C14.9699 1.20865 14.5081 0.712751 13.9375 0.712751C13.3682 0.712751 12.9064 1.20865 12.9064 1.82056V2.98885L10.8752 0.807452C9.87099 -0.270431 8.12494 -0.268519 7.12298 0.809403L0.301994 8.13435C-0.100665 8.56763 -0.100665 9.2687 0.301994 9.70131C0.704833 10.1345 1.35893 10.1345 1.76162 9.70131L8.58196 2.37616C8.80414 2.13881 9.19575 2.13881 9.41678 2.37546L16.2383 9.70131C16.4405 9.91791 16.7043 10.0256 16.9679 10.0256C17.2321 10.0256 17.4962 9.91779 17.6979 9.70131C18.1007 9.26874 18.1007 8.56767 17.6979 8.13435Z" fill="white"/>
<path d="M9.35822 4.47898C9.16005 4.26628 8.83918 4.26628 8.64159 4.47898L2.64183 10.9202C2.54711 11.0219 2.49341 11.1608 2.49341 11.3056V16.0037C2.49341 17.1061 3.32576 17.9999 4.35228 17.9999H7.32276V13.0596H10.6764V17.9999H13.6469C14.6734 17.9999 15.5057 17.1061 15.5057 16.0037V11.3056C15.5057 11.1608 15.4525 11.0219 15.3573 10.9202L9.35822 4.47898Z" fill="white"/>
</svg>
