<svg width="21" height="21" viewBox="0 0 21 21" fill="none" xmlns="http://www.w3.org/2000/svg">
<path d="M10.5 18.8333C15.3325 18.8333 19.25 15.1023 19.25 10.5C19.25 5.89759 15.3325 2.16663 10.5 2.16663C5.66751 2.16663 1.75 5.89759 1.75 10.5C1.75 15.1023 5.66751 18.8333 10.5 18.8333Z" stroke="white" stroke-width="1.5" stroke-linecap="square"/>
<path d="M10.5 18.8333C12.8333 16.8131 14 14.0353 14 10.5C14 6.96461 12.8333 4.18683 10.5 2.16663C8.16667 4.18683 7 6.96461 7 10.5C7 14.0353 8.16667 16.8131 10.5 18.8333Z" stroke="white" stroke-width="1.5" stroke-linecap="round"/>
<path d="M2.1875 8H18.8125M2.1875 13H18.8125" stroke="white" stroke-width="1.5" stroke-linecap="round"/>
</svg>
