<svg width="24" height="24" viewBox="0 0 21 21" fill="none" xmlns="http://www.w3.org/2000/svg">
<path fill-rule="evenodd" clip-rule="evenodd" d="M17.5513 17.299C17.5537 18.104 16.9023 18.7593 16.0973 18.7617L11.514 18.7753C11.3483 18.7758 11.1891 18.7104 11.0715 18.5936C10.954 18.4767 10.8877 18.3179 10.8872 18.1522C10.8867 17.9864 10.952 17.8272 11.0689 17.7097C11.1858 17.5921 11.3445 17.5258 11.5103 17.5253L16.0936 17.5117C16.1489 17.5115 16.2018 17.4894 16.2407 17.4502C16.2797 17.411 16.3015 17.358 16.3013 17.3027L16.2579 2.71945C16.2576 2.60445 16.164 2.5114 16.049 2.51174L11.4657 2.52538C11.2999 2.52587 11.1407 2.4605 11.0232 2.34364C10.9056 2.22678 10.8393 2.068 10.8388 1.90224C10.8383 1.73648 10.9037 1.57732 11.0205 1.45976C11.1374 1.3422 11.2962 1.27588 11.4619 1.27538L16.0453 1.26174C16.432 1.26059 16.8034 1.41313 17.0777 1.68581C17.352 1.95848 17.5068 2.32896 17.5079 2.71573L17.5513 17.299ZM4.18949 9.42206L6.93084 6.51056C7.04 6.38921 7.09737 6.22997 7.09066 6.06688C7.08396 5.90379 7.01372 5.74979 6.89496 5.63782C6.7762 5.52584 6.61834 5.46476 6.45514 5.46765C6.29194 5.47053 6.13634 5.53715 6.02161 5.65326L2.28341 9.62274C2.17368 9.73917 2.11278 9.89325 2.11326 10.0532C2.11374 10.2132 2.17555 10.367 2.28597 10.4827L6.04773 14.4299C6.16315 14.5453 6.31914 14.611 6.48236 14.6129C6.64557 14.6148 6.80306 14.5528 6.92115 14.4401C7.03925 14.3275 7.10857 14.173 7.1143 14.0099C7.12004 13.8468 7.06173 13.6879 6.95184 13.5672L4.19321 10.6721L11.0732 10.6516C11.2389 10.6511 11.3977 10.5848 11.5146 10.4672C11.6314 10.3497 11.6968 10.1905 11.6963 10.0247C11.6958 9.85897 11.6295 9.70019 11.5119 9.58333C11.3944 9.46647 11.2352 9.40109 11.0695 9.40159L4.18949 9.42206Z" fill="white"/>
</svg>
