<svg width="24" height="24" viewBox="0 0 24 24" fill="none" xmlns="http://www.w3.org/2000/svg">
<g clip-path="url(#clip0_416_781)">
<path d="M19 7H23V22H6V18H7V21H22V8H19V7ZM1 17V2H18V17H1ZM2 11.967L3.683 10.284C3.75934 10.2078 3.8627 10.1648 3.97059 10.1644C4.07847 10.164 4.18213 10.2063 4.259 10.282C4.29542 10.3206 4.33915 10.3515 4.38765 10.3731C4.43614 10.3946 4.48844 10.4063 4.54149 10.4074C4.59453 10.4085 4.64727 10.399 4.69663 10.3796C4.746 10.3601 4.79099 10.331 4.829 10.294L7.753 7.37C7.825 7.29791 7.92137 7.25537 8.02315 7.25075C8.12493 7.24612 8.22476 7.27974 8.303 7.345L11.235 9.788C11.3056 9.84706 11.3942 9.88049 11.4862 9.88285C11.5783 9.88521 11.6684 9.85636 11.742 9.801L13.511 8.474C13.5897 8.4151 13.687 8.38652 13.7851 8.3935C13.8831 8.40047 13.9754 8.44254 14.045 8.512L17 11.467V3H2V11.967ZM17 16V12.881L13.7 9.581L12.342 10.6C12.0885 10.7907 11.778 10.8901 11.4608 10.8821C11.1437 10.8741 10.8386 10.7592 10.595 10.556L8.078 8.459L5.536 11C5.40764 11.1292 5.25492 11.2315 5.0867 11.3012C4.91847 11.3709 4.73809 11.4065 4.556 11.406C4.38792 11.4058 4.22125 11.3754 4.064 11.316L2 13.381V16H17ZM11.5 6.5C11.6978 6.5 11.8911 6.44135 12.0556 6.33147C12.22 6.22159 12.3482 6.06541 12.4239 5.88268C12.4996 5.69996 12.5194 5.49889 12.4808 5.30491C12.4422 5.11093 12.347 4.93275 12.2071 4.79289C12.0673 4.65304 11.8891 4.5578 11.6951 4.51921C11.5011 4.48063 11.3 4.50043 11.1173 4.57612C10.9346 4.65181 10.7784 4.77998 10.6685 4.94443C10.5586 5.10888 10.5 5.30222 10.5 5.5C10.5 5.76522 10.6054 6.01957 10.7929 6.20711C10.9804 6.39464 11.2348 6.5 11.5 6.5Z" fill="white"/>
</g>
<defs>
<clipPath id="clip0_416_781">
<rect width="24" height="24" fill="white"/>
</clipPath>
</defs>
</svg>
