<svg width="17" height="17" viewBox="0 0 17 17" fill="none" xmlns="http://www.w3.org/2000/svg">
<path d="M12.9774 10.16L12.3107 9.05336C12.1707 8.80669 12.044 8.34002 12.044 8.06669V6.38002C12.0432 5.63605 11.8318 4.9075 11.4342 4.27867C11.0366 3.64985 10.4691 3.14644 9.79736 2.82669C9.6259 2.52225 9.37582 2.26945 9.07326 2.09472C8.77069 1.91998 8.42674 1.82971 8.07736 1.83336C7.35069 1.83336 6.69736 2.22669 6.35069 2.84669C5.05069 3.49336 4.15069 4.83336 4.15069 6.38002V8.06669C4.15069 8.34002 4.02403 8.80669 3.88403 9.04669L3.21069 10.16C2.94403 10.6067 2.88403 11.1 3.05069 11.5534C3.21069 12 3.59069 12.3467 4.08403 12.5134C5.37736 12.9534 6.73736 13.1667 8.09736 13.1667C9.45736 13.1667 10.8174 12.9534 12.1107 12.52C12.5774 12.3667 12.9374 12.0134 13.1107 11.5534C13.284 11.0934 13.2374 10.5867 12.9774 10.16ZM9.97069 13.84C9.8305 14.2281 9.57421 14.5637 9.23666 14.801C8.89912 15.0384 8.49667 15.166 8.08403 15.1667C7.55736 15.1667 7.03736 14.9534 6.67069 14.5734C6.45736 14.3734 6.29736 14.1067 6.20403 13.8334C6.29069 13.8467 6.37736 13.8534 6.47069 13.8667C6.62403 13.8867 6.78403 13.9067 6.94403 13.92C7.32403 13.9534 7.71069 13.9734 8.09736 13.9734C8.47736 13.9734 8.85736 13.9534 9.23069 13.92C9.37069 13.9067 9.51069 13.9 9.64403 13.88L9.97069 13.84Z" fill="white"/>
</svg>
