<svg xmlns="http://www.w3.org/2000/svg" width="16" height="16" fill="none" viewBox="0 0 18 19">
  <mask id="a" fill="#fff">
    <path d="M15.044.812a.718.718 0 0 1 .442.663v4.06c0 .397-.32.718-.716.718h-4.055a.717.717 0 0 1-.507-1.225l1.532-1.534A6.924 6.924 0 0 0 4.164 4.99a6.947 6.947 0 0 0 0 9.813 6.921 6.921 0 0 0 9.799 0 6.933 6.933 0 0 0 1.975-5.774.718.718 0 1 1 1.423-.178 8.37 8.37 0 0 1-2.385 6.967 8.354 8.354 0 0 1-11.826 0 8.384 8.384 0 0 1 0-11.844 8.356 8.356 0 0 1 9.67-1.562L14.263.967a.716.716 0 0 1 .78-.155Z"/>
  </mask>
  <path stroke="#4746B8" fill="#fff" d="M15.044.812a.718.718 0 0 1 .442.663v4.06c0 .397-.32.718-.716.718h-4.055a.717.717 0 0 1-.507-1.225l1.532-1.534A6.924 6.924 0 0 0 4.164 4.99a6.947 6.947 0 0 0 0 9.813 6.921 6.921 0 0 0 9.799 0 6.933 6.933 0 0 0 1.975-5.774.718.718 0 1 1 1.423-.178 8.37 8.37 0 0 1-2.385 6.967 8.354 8.354 0 0 1-11.826 0 8.384 8.384 0 0 1 0-11.844 8.356 8.356 0 0 1 9.67-1.562L14.263.967a.716.716 0 0 1 .78-.155Z"/>
  <path fill="#fff" d="m15.044.812 1.532-3.695L15.044.812ZM10.053 5.81 6.356 7.338v.001l3.697-1.529Zm.155-.782-2.83-2.826 2.83 2.826Zm1.532-1.534 2.83 2.826 4.209-4.215-5.494-2.3-1.545 3.689ZM4.164 4.99l-2.83-2.827 2.83 2.827Zm0 9.813 2.83-2.826-2.83 2.826ZM15.938 9.03l3.97-.496-3.97.496Zm.622-.802-.497-3.969.497 3.97Zm.8.624 3.97-.497-3.97.497Zm-2.384 6.967 2.831 2.827-2.83-2.826Zm-11.826 0 2.83-2.826-2.83 2.826Zm0-11.844 2.83 2.827-2.83-2.827Zm9.67-1.562-1.8 3.572 2.586 1.302 2.045-2.048-2.83-2.826ZM14.263.967l2.83 2.827-2.83-2.827Zm-.752 3.54a3.282 3.282 0 0 1-2.025-3.032h8a4.718 4.718 0 0 0-2.91-4.358l-3.065 7.39Zm-2.025-3.032v4.06h8v-4.06h-8Zm0 4.06a3.283 3.283 0 0 1 3.284-3.282v8a4.717 4.717 0 0 0 4.716-4.717h-8Zm3.284-3.282h-4.055v8h4.055v-8Zm-4.055 0c1.331 0 2.527.804 3.034 2.028L6.356 7.34a4.717 4.717 0 0 0 4.359 2.914v-8Zm3.034 2.03a3.281 3.281 0 0 1-.71 3.571L7.377 2.202a4.719 4.719 0 0 0-1.021 5.136l7.393-3.056Zm-.71 3.571L14.57 6.32 8.91.667 7.376 2.202l5.662 5.652Zm.246-8.05a10.924 10.924 0 0 0-11.952 2.36l5.661 5.652a2.924 2.924 0 0 1 3.2-.633l3.091-7.379ZM1.333 2.164c-4.265 4.27-4.265 11.194 0 15.465l5.661-5.652a2.947 2.947 0 0 1 0-4.161l-5.66-5.653Zm0 15.465c4.269 4.275 11.192 4.275 15.46 0l-5.66-5.652a2.922 2.922 0 0 1-4.139 0l-5.66 5.652Zm15.46 0a10.933 10.933 0 0 0 3.114-9.096l-7.938.992a2.933 2.933 0 0 1-.837 2.452l5.661 5.652Zm3.114-9.097a3.282 3.282 0 0 1-2.849 3.664l-.996-7.937a4.718 4.718 0 0 0-4.093 5.267l7.938-.994Zm-2.85 3.665a3.283 3.283 0 0 1-3.665-2.85l7.938-.993a4.717 4.717 0 0 0-5.267-4.095l.994 7.938Zm-3.665-2.85a4.37 4.37 0 0 1-1.246 3.645l5.661 5.653a12.37 12.37 0 0 0 3.523-10.29l-7.938.992Zm-1.246 3.645a4.354 4.354 0 0 1-6.165 0L.32 18.645c4.828 4.835 12.659 4.835 17.487 0l-5.661-5.653Zm-6.165 0a4.384 4.384 0 0 1 0-6.191L.32 1.148c-4.825 4.832-4.825 12.664 0 17.497l5.66-5.653Zm0-6.191a4.356 4.356 0 0 1 5.04-.817l3.598-7.145C9.99-3.493 4.193-2.73.32 1.15L5.982 6.8Zm9.67-1.563 1.442-1.444-5.66-5.653L9.99-.414l5.66 5.652Zm1.442-1.444a3.284 3.284 0 0 1-3.582.712l3.065-7.39a4.716 4.716 0 0 0-5.144 1.025l5.661 5.653Z" mask="url(#a)"/>
</svg>
