<svg width="24" height="24" viewBox="0 0 20 22" fill="none" xmlns="http://www.w3.org/2000/svg">
<path fill-rule="evenodd" clip-rule="evenodd" d="M6.29289 0.29289C6.48043 0.10536 6.73478 0 7 0H15C16.6569 0 18 1.34315 18 3V7C18 7.55228 17.5523 8 17 8C16.4477 8 16 7.55228 16 7V3C16 2.44772 15.5523 2 15 2H8V7C8 7.55228 7.5523 8 7 8H2V19C2 19.5523 2.44772 20 3 20H7C7.5523 20 8 20.4477 8 21C8 21.5523 7.5523 22 7 22H3C1.34315 22 0 20.6569 0 19V7C0 6.73478 0.10536 6.48043 0.29289 6.29289L6.29289 0.29289ZM3.41421 6H6V3.41421L3.41421 6ZM17.1716 17.7574C17.6951 16.967 18 16.0191 18 15C18 12.2386 15.7614 10 13 10C10.2386 10 8 12.2386 8 15C8 17.7614 10.2386 20 13 20C14.0191 20 14.967 19.6951 15.7574 19.1716L18.2929 21.7071C18.6834 22.0976 19.3166 22.0976 19.7071 21.7071C20.0976 21.3166 20.0976 20.6834 19.7071 20.2929L17.1716 17.7574ZM10 15C10 13.3431 11.3431 12 13 12C14.6569 12 16 13.3431 16 15C16 16.6569 14.6569 18 13 18C11.3431 18 10 16.6569 10 15Z" fill="white" stroke="white" stroke-width="0.008"/>
</svg>
