<svg width="17" height="17" viewBox="0 0 17 17" fill="none" xmlns="http://www.w3.org/2000/svg">
<g clip-path="url(#clip0_1476_1032)">
<path d="M13.9603 7.0993C12.706 7.0993 12.1932 6.15907 12.8169 5.00583C13.1772 4.33739 12.9624 3.48532 12.3318 3.10335L11.1329 2.37615C10.5855 2.03091 9.87861 2.23658 9.5529 2.81688L9.47667 2.95644C8.85299 4.10968 7.82736 4.10968 7.19675 2.95644L7.12052 2.81688C7.04581 2.67803 6.94581 2.55632 6.82631 2.45883C6.70682 2.36134 6.57023 2.29001 6.42448 2.249C6.27874 2.20798 6.12676 2.1981 5.97738 2.21993C5.828 2.24176 5.68421 2.29486 5.55437 2.37615L4.3555 3.10335C3.72488 3.48532 3.51006 4.34474 3.87041 5.01318C4.50103 6.15907 3.98822 7.0993 2.73391 7.0993C2.01321 7.0993 1.41724 7.72366 1.41724 8.49494V9.78774C1.41724 10.5517 2.00628 11.1834 2.73391 11.1834C3.98822 11.1834 4.50103 12.1236 3.87041 13.2769C3.51006 13.9453 3.72488 14.7974 4.3555 15.1793L5.55437 15.9065C6.10183 16.2518 6.80867 16.0461 7.13438 15.4658L7.21061 15.3262C7.83429 14.173 8.85991 14.173 9.49053 15.3262L9.56676 15.4658C9.89247 16.0461 10.5993 16.2518 11.1468 15.9065L12.3456 15.1793C12.9763 14.7974 13.1911 13.9379 12.8307 13.2769C12.2001 12.1236 12.7129 11.1834 13.9672 11.1834C14.6879 11.1834 15.2839 10.559 15.2839 9.78774V8.49494C15.2803 8.12471 15.1394 7.77085 14.8918 7.50974C14.6442 7.24863 14.3096 7.1012 13.9603 7.0993ZM8.34711 11.5286C7.10666 11.5286 6.0949 10.4562 6.0949 9.14134C6.0949 7.8265 7.10666 6.75406 8.34711 6.75406C9.58755 6.75406 10.5993 7.8265 10.5993 9.14134C10.5993 10.4562 9.58755 11.5286 8.34711 11.5286Z" fill="white"/>
</g>
<defs>
<clipPath id="clip0_1476_1032">
<rect width="16" height="16" fill="white" transform="translate(0.0839844 0.5)"/>
</clipPath>
</defs>
</svg>
