<svg xmlns="http://www.w3.org/2000/svg" width="900" height="900" fill="none" viewBox="0 0 900 900">
  <g filter="url(#a)">
    <ellipse cx="449.622" cy="449.615" fill="url(#b)" fill-opacity=".6" rx="318.345" ry="318.44" transform="rotate(-48.094 449.622 449.615)"/>
  </g>
  <g filter="url(#c)">
    <path fill="#fff" fill-opacity=".16" d="m742.777 604.832-17.174-1.249a43.342 43.342 0 0 0-4.902-11.866l11.241-13.008a3.126 3.126 0 0 0-.156-4.253l-8.831-8.831a3.122 3.122 0 0 0-4.246-.156l-12.996 11.26a43.532 43.532 0 0 0-11.866-4.927l-1.249-17.18a3.123 3.123 0 0 0-3.122-2.873h-12.491a3.128 3.128 0 0 0-2.132.833 3.127 3.127 0 0 0-.99 2.065l-1.249 17.18a43.493 43.493 0 0 0-11.866 4.902l-13.015-11.241a3.118 3.118 0 0 0-4.246.156l-8.831 8.831a3.124 3.124 0 0 0-.156 4.252l11.26 12.99a43.35 43.35 0 0 0-4.927 11.866l-17.174 1.249a3.12 3.12 0 0 0-2.879 3.122v12.491a3.124 3.124 0 0 0 2.904 3.122l17.174 1.249a43.493 43.493 0 0 0 4.902 11.866l-11.241 13.014a3.123 3.123 0 0 0 .156 4.247l8.831 8.831a3.121 3.121 0 0 0 4.246.156l12.996-11.26a43.487 43.487 0 0 0 11.866 4.927l1.249 17.174a3.12 3.12 0 0 0 3.122 2.879h12.491a3.124 3.124 0 0 0 3.122-2.904l1.249-17.174a43.493 43.493 0 0 0 11.866-4.902l13.014 11.241a3.123 3.123 0 0 0 4.247-.156l8.831-8.831a3.121 3.121 0 0 0 .156-4.246l-11.26-12.996a43.5 43.5 0 0 0 4.927-11.866l17.174-1.249a3.12 3.12 0 0 0 2.879-3.122v-12.491a3.124 3.124 0 0 0-2.904-3.122Zm-59.547 28.103a18.732 18.732 0 0 1-17.309-11.566 18.735 18.735 0 1 1 17.309 11.566Z"/>
  </g>
  <path fill="#fff" d="M345.319 756.951s1.747 12.992 3.464 14.959c5.765 6.628 18.743 4.387 25.182.389 4.072-2.526.289-11.265.289-11.265l-28.935-4.083Z"/>
  <path fill="#192351" d="M365.794 743.609s4.013 8.864 4.652 9.803c.649.938 11.58 14.355-2.95 17.315-14.525 2.96-17.799.878-21.238-8.94-1.977-5.675.174-16.691.174-16.691s.794 3.275 5.79 3.349c8.765.115 12.603-1.662 13.572-4.836Z"/>
  <path fill="#fff" d="m364.162 750.178-11.091 1.557a.748.748 0 0 1-.849-.649.745.745 0 0 1 .649-.848l11.091-1.563a.749.749 0 0 1 .849.649.754.754 0 0 1-.649.854Zm.694 3.004-11.091 1.558a.746.746 0 0 1-.849-.649.752.752 0 0 1 .649-.854l11.091-1.557a.747.747 0 0 1 .848.649.76.76 0 0 1-.648.853Zm.763 3.524-11.086 1.557a.751.751 0 0 1-.853-.648.752.752 0 0 1 .649-.854l11.09-1.557c.42-.06.794.229.854.649a.76.76 0 0 1-.654.853Z"/>
  <path fill="#000" d="M344.61 606.018c-6.064-25.57-7.911-51.62-7.911-51.62L312.906 535.8l-51.94 18.972c-1.732 23.175-.419 127.025-.489 141.305-.075 14.28-.16 48.096-.16 48.096s17.14 3.808 23.983-1.967c0 0 3.449-24.921 4.288-36.571 2.83-39.736 10.152-106.749 10.152-106.749s11.161 31.794 20.719 56.946l22.511 85.147c21.153 2.051 27.158-3.389 27.158-3.389s-20.43-114.362-24.518-131.572Z"/>
  <path fill="#D9D9D9" d="M298.74 599.23a.342.342 0 0 1-.334-.275l-3.105-15.882c-.03-.185.09-.359.26-.389.189-.03.364.09.389.259l3.105 15.883c.03.189-.085.364-.26.389-.015.015-.025.015-.055.015Z"/>
  <path fill="#C47249" d="M284.63 498.795c-16.746 2.625-45.451 9.643-45.451 9.643 1.123-17.14 3.189-30.712 5.73-41.438 9.039-38.209 26.729-40.574 26.729-40.574l13.097 6.643 15.173 6.439s1.473 56.656-15.278 59.287Z"/>
  <path fill="#C47249" d="M265.833 502.244s7.392 20.734-7.078 22.93c-5.281.808-30.422-19.506-30.422-19.506l16.621-10.497 20.879 7.073Z"/>
  <path fill="#fff" d="M283.735 433.069c-1.098 14.32-3.958 32.628-11.38 34.221-9.214 1.961-22.411.549-28.461-.29 9.039-38.209 24.907-40.879 24.907-40.879l14.934 6.948Z"/>
  <path fill="#192351" d="M263.177 468.428a.182.182 0 0 1-.189-.185c0-.12.708-10.906 2.166-16.736.03-.105.13-.16.214-.13.105.025.16.13.13.215-1.457 5.82-2.151 16.561-2.151 16.676a.17.17 0 0 1-.17.16Z"/>
  <path fill="#C47249" d="M276.604 437.212c.06-.16 14.31 14.944 23.609 11.899 10.397-3.424 15.044-24.607 15.044-24.607l-1.648-21.268-.015-.345-.025-1.272-2.051.748-8.161 2.975-3.274 1.198-8.376 3.05s-.144 5.5-1.182 9.962c-.115.475-.22.909-.335 1.343a7.862 7.862 0 0 1-.968 2.007c-.894 1.402-2.007 2.296-2.007 2.311-2.106 4.432-10.541 11.999-10.611 11.999Z"/>
  <path fill="#C47249" d="M279.768 396.967c2.626 11.555 7.278 23.12 18.463 21.403 7.827-1.213 15.363-12.059 17.056-22.007.863-5.141 1.672-9.618 1.662-12.998-.015-2.67-.145-4.342-.145-4.342l-1.922-5.805-1.143-3.394s-2.51-2.036-5.326-4.332c-3.508-2.875-8.909 1.287-8.994 1.083-.145-.305-15.872-2.496-20.809 3.798-.015.015-.03.03-.03.045-.444.574-.793 1.153-1.008 1.747-.19.489-.274.993-.274 1.497 0 .969.045 2.426.099 4.263.045.764.075 1.602.13 2.496.09 1.502.22 3.149.39 4.881.349 3.624.923 7.667 1.851 11.665Z"/>
  <path fill="#192351" d="M281.121 402.268c2.416 10.556 6.903 17.125 17.23 16.102 9.873-.969 15.074-11.525 16.616-20.619-.838-2.152-1.702-7.482-1.702-7.482s-2.525-3.929-2.5-3.784c.334 1.632.219 12.778-4.577 14.165-5.211 1.518-7.073 2.86-9.065 2.831-1.991-.03-2.585-.719-4.332-.29-1.762.434-2.96 1.358-5.331.953-2.221-.359-4.677 1.213-6.339-1.876Z"/>
  <path fill="#192351" d="M317.468 383.236s1.876-25.296-12.868-25.296c0 0-11.48-5.371-24.168 1.951-8.345 4.807-5.331 14.899-4.492 18.393.519 2.196 1.412 4.013 1.702 3.899.809-.33.898-2.526 3.858-1.847 11.999 2.745 19.521-6.254 22.885-4.288 3.365 1.962 10.597 21.702 10.597 21.702s.609-9.328 2.486-14.514Z"/>
  <path fill="#C47249" d="M314.548 385.432s6.643-4.767 6.728 2.136c.09 6.903-6.324 10.197-6.324 10.197l-.404-12.333Z"/>
  <path fill="#fff" d="M290.594 409.096s.16.274.52.609c.623.604 1.836 1.427 3.668 1.213 1.807-.215 2.945-1.388 3.539-2.197.314-.459.474-.793.474-.793l-8.201 1.168Zm57.032 25.289c-10.804 20.489-12.649 88.052-10.015 123.793-23.715 5.584-57.788 8.35-77.985 2.782 2.925-38.172-1.774-101.174 9.347-134.985 0 0 12.665-3.639 20.982-3.975-7.006 9.473 19.262 12.039 24.815 0 0 0 26.78 5.553 32.856 12.385Z"/>
  <path fill="#192351" d="M263.177 468.428a.182.182 0 0 1-.189-.185c0-.12.708-10.906 2.166-16.736.03-.105.13-.16.214-.13.105.025.16.13.13.215-1.457 5.82-2.151 16.561-2.151 16.676a.17.17 0 0 1-.17.16Z"/>
  <path fill="#C47249" d="M382.08 507.485c3.295 13.127-8.14 18.567-32.832 9.358-11.67-4.347-20.086-5.879-22.831-8.345l1.518-13.547c2.051.624 14.929.939 26.508 2.456l-10.002-22.136c2.725-.215 13.222-2.686 22.351-11.146 8.385 18.308 12.458 32.099 15.288 43.36Z"/>
  <path fill="#192351" d="M376.984 504.485a.172.172 0 0 1-.144-.075c-5.341-7.377-22.237-6.843-22.397-6.828-.099 0-.169-.075-.184-.175 0-.1.07-.19.169-.19.045 0 4.348-.139 9.274.624 4.562.719 10.582 2.411 13.442 6.354.055.085.045.2-.045.26a.26.26 0 0 1-.115.03Z"/>
  <path fill="#C47249" d="M311.039 509.232c1.517-.994 3.364-1.383 9.648-.475 3.784.549 9.833-.838 11.48-1.198l-.609-11.654c-2.44-.634-6.408-3.25-9.368-4.647-3.714-1.747-7.787-4.737-10.901-3.669-5.301 1.792-11.595 4.922-10.817 6.903.809 1.977 7.048.025 7.048.025s-3.209 1.762-2.805 3.903c.404 2.137 3.219 2.84 3.219 2.84-1.512 2.227 1.213 4.293 1.213 4.293-1.237 2.006.679 4.462 1.892 3.679Z"/>
  <path fill="#192351" d="M309.162 505.738c-.055 0-.1-.03-.144-.07a.19.19 0 0 1 .029-.26c.1-.075 2.371-1.951 5.935-2.166h.015c.1 0 .175.07.19.17 0 .104-.075.189-.175.189-3.439.215-5.705 2.067-5.72 2.082a.178.178 0 0 1-.13.055Zm-1.213-4.288c-.054 0-.099-.015-.129-.06-.07-.07-.055-.184.015-.259.114-.1 2.96-2.581 6.324-3.13.104-.03.189.04.219.145.015.1-.06.185-.144.214-3.265.535-6.125 3.03-6.155 3.045a.216.216 0 0 1-.13.045Zm-.419-6.743c-.055 0-.13-.03-.154-.085-.045-.09-.015-.205.069-.245.03-.015 2.96-1.647 6.469-1.647.115 0 .245.055.23.185 0 .105-.085.19-.185.19h-.06c-3.404 0-6.249 1.572-6.279 1.587-.03 0-.06.015-.09.015Z"/>
  <path fill="#6F747C" d="M322.374 510.444h-50.821v-4.127h47.198a3.61 3.61 0 0 1 3.608 3.608v.519h.015Z"/>
  <path fill="#6F747C" d="M218.804 510.444h85.063l-8.566-54.924h-85.057l8.56 54.924Z"/>
  <path fill="#fff" d="M261.625 484.095c.08.42.115.839.115 1.263 0 .419-.035.839-.115 1.253a6.61 6.61 0 0 1-.888 2.291c-.22.344-.465.659-.744.948a5.525 5.525 0 0 1-.904.774 5.418 5.418 0 0 1-1.033.564c-.359.15-.734.259-1.118.329-.384.07-.774.1-1.163.085a5.455 5.455 0 0 1-1.163-.159 5.81 5.81 0 0 1-2.151-1.029 6.14 6.14 0 0 1-.903-.828 6.34 6.34 0 0 1-.744-.999c-.22-.359-.4-.733-.549-1.128a6.872 6.872 0 0 1-.34-1.217 6.713 6.713 0 0 1-.114-1.263c0-.42.034-.839.114-1.248a6.45 6.45 0 0 1 .34-1.198 6.74 6.74 0 0 1 .549-1.098 6.22 6.22 0 0 1 .744-.948 6.01 6.01 0 0 1 .903-.774 5.918 5.918 0 0 1 1.033-.564 5.439 5.439 0 0 1 2.281-.414c.394.01.784.064 1.168.159.384.095.754.23 1.118.4.36.174.704.384 1.028.629.33.244.629.519.904.828.279.31.524.639.744.998.219.36.399.734.549 1.128.149.4.264.804.339 1.218Z"/>
  <path fill="#C47249" d="M233.504 510.405s.709-.335.374-3.524c-.329-3.18.649-6.299 3.714-5.95 0 0 2.61-3.165 5.341-.03 0 0 3.159-1.427 5.24 1.198 0 0 2.616-1.458 3.929.479 1.312 1.932 1.961 7.537.015 8.92-1.967 1.387-6.973 2.151-11.565 2.081-4.592-.07-7.048-3.174-7.048-3.174Z"/>
  <path fill="#192351" d="M237.592 509.751c-.03 0-.06-.01-.09-.025-.085-.06-.115-.16-.07-.25 1.817-3.115 0-8.445-.015-8.49-.03-.1.015-.2.115-.23s.205.015.23.115c.074.235 1.891 5.545 0 8.795a.21.21 0 0 1-.17.085Zm5.34.274c-.03 0-.045 0-.075-.01a.211.211 0 0 1-.099-.249c1.587-3.639 0-8.765-.015-8.82-.025-.1.03-.205.114-.23a.188.188 0 0 1 .235.115c.07.215 1.647 5.326 0 9.079-.015.075-.09.115-.16.115Zm4.592.479a.225.225 0 0 1-.099-.03.181.181 0 0 1-.06-.244c1.906-2.905.634-8.041.619-8.086-.025-.1.029-.205.129-.215.105-.03.205.025.22.13.055.215 1.328 5.341-.664 8.37a.182.182 0 0 1-.145.075Z"/>
  <path fill="#244076" d="M661.884 623.907H404.721c-4.822 0-8.011-4.188-7.118-9.354l43.839-256.094c.794-4.632 5.181-8.75 9.818-9.224l245.823-24.662c5.53-.549 9.558 3.074 8.969 8.126l-32.434 280.886c-.663 5.7-5.934 10.322-11.734 10.322Z"/>
  <path fill="#fff" d="M655.081 617.124H397.923c-4.827 0-8.016-4.188-7.123-9.359l43.839-256.089c.794-4.637 5.186-8.75 9.818-9.229l245.828-24.663c5.53-.549 9.558 3.075 8.964 8.131L666.82 606.797c-.648 5.705-5.919 10.327-11.739 10.327Z"/>
  <path fill="#7B7B7B" d="m652.685 602.869-249.147 1.213 37.989-225.164L681.679 358l-28.994 244.869Z"/>
  <path fill="#fff" d="M453.901 359.023c-.36 2.166-2.411 4.073-4.577 4.272-2.167.205-3.609-1.382-3.25-3.534.365-2.151 2.396-4.057 4.562-4.277 2.151-.2 3.614 1.372 3.265 3.539Zm27.407-2.586c-.35 2.181-2.426 4.118-4.637 4.318-2.206.204-3.694-1.398-3.349-3.564.344-2.166 2.426-4.103 4.622-4.318 2.206-.204 3.708 1.383 3.364 3.564Zm-13.776 1.303c-.359 2.166-2.411 4.098-4.607 4.302-2.181.2-3.654-1.387-3.289-3.553.359-2.167 2.41-4.088 4.592-4.288 2.176-.215 3.663 1.373 3.304 3.539Zm112.045 57.785c-2.206 16.241-17.599 30.307-34.206 31.3-16.416.983-27.651-11.2-25.296-27.128 2.341-15.812 17.27-29.603 33.527-30.916 16.447-1.313 28.156 10.612 25.975 26.744Z"/>
  <path fill="#192351" d="M543.51 447.419c-7.362 0-13.816-2.64-18.323-7.567-4.792-5.226-6.798-12.418-5.645-20.23 2.365-15.967 17.614-30.032 34.005-31.345 8.286-.664 15.578 1.892 20.62 7.207 4.876 5.151 6.972 12.284 5.919 20.11-2.241 16.507-17.804 30.742-34.699 31.765-.619.03-1.258.06-1.877.06Zm12.578-58.204c-.809 0-1.617.03-2.456.1-15.927 1.288-30.771 14.944-33.067 30.467-1.108 7.497.808 14.37 5.385 19.376 4.667 5.102 11.57 7.642 19.382 7.163 16.416-.983 31.545-14.829 33.711-30.856 1.013-7.492-.978-14.335-5.645-19.262-4.288-4.547-10.382-6.988-17.31-6.988Z"/>
  <path fill="#192351" d="M560.301 409.645c-.749 5.241-5.73 9.823-11.116 10.182-5.356.374-9.069-3.569-8.301-8.78.764-5.196 5.701-9.733 11.046-10.137 5.356-.404 9.124 3.509 8.371 8.735Zm2.86 23.798-32.01 2.062 1.183-8.026c.39-2.626 2.86-4.897 5.531-5.081l22.176-1.533c2.715-.184 4.622 1.807 4.248 4.463l-1.128 8.115Z"/>
  <path fill="#D9D9D9" d="m563.735 585.449-74.109 3.324.468-2.902 74.065-3.394-.424 2.972Z"/>
  <g filter="url(#d)">
    <path fill="#192351" d="M434.364 306.928s-16.356 13.327-47.387 12.489v52.154s21.183 49.08 47.417 49.08c26.235 0 47.358-49.08 47.358-49.08v-52.154c-31.026.838-47.388-12.489-47.388-12.489Z"/>
  </g>
  <g filter="url(#e)">
    <path fill="#fff" d="M477.38 323.864v46.694c-1.488 3.234-6.354 13.386-13.327 23.364-7.232 10.337-18.253 22.656-29.673 22.656h-.03c-11.406-.015-22.436-12.334-29.674-22.671-6.988-9.963-11.864-20.115-13.342-23.359v-46.699c22.097-.589 36.652-7.737 43.016-11.65 6.384 3.923 20.938 11.071 43.03 11.665Z"/>
  </g>
  <mask id="f" width="49" height="110" x="432" y="309" maskUnits="userSpaceOnUse" style="mask-type:luminance">
    <path fill="#fff" d="M480.015 309.833h-47.277v108.611h47.277V309.833Z"/>
  </mask>
  <g mask="url(#f)">
    <path fill="#fff" d="M477.38 323.864v46.694c-1.488 3.234-6.354 13.386-13.327 23.364-7.232 10.337-18.253 22.656-29.673 22.656h-.03V312.199c6.384 3.923 20.938 11.071 43.03 11.665Z"/>
  </g>
  <path fill="#244076" d="m427.478 379.834-11.182-14.956a3.396 3.396 0 0 1 .692-4.769c1.511-1.117 3.647-.824 4.765.692l6.774 9.072 28.472-24.825c1.407-1.242 3.573-1.088 4.801.327a3.408 3.408 0 0 1-.326 4.806l-33.996 29.653Z"/>
  <path fill="#192351" d="M576.083 768.546a.535.535 0 0 1-.534-.534v-9.244c0-.3.245-.534.534-.534a.54.54 0 0 1 .534.534v9.244a.541.541 0 0 1-.534.534Z"/>
  <g filter="url(#g)">
    <path fill="#fff" d="M465.017 464.595a8 8 0 0 1 7.668-6.732l139.798-4.04c4.903-.141 8.777 4.121 8.17 8.988l-1.234 9.89a8 8 0 0 1-7.76 7.007l-140.001 3.132c-4.994.111-8.867-4.33-8.078-9.262l1.437-8.983Z"/>
  </g>
  <g filter="url(#h)">
    <path fill="#fff" d="M459.017 502.595a8 8 0 0 1 7.668-6.732l139.798-4.04c4.903-.141 8.777 4.121 8.17 8.988l-1.234 9.89a8 8 0 0 1-7.76 7.007l-140.001 3.132c-4.994.111-8.867-4.33-8.078-9.262l1.437-8.983Z"/>
  </g>
  <g filter="url(#i)">
    <path fill="#244076" d="M484.233 548.608a8.001 8.001 0 0 1 7.771-7.062l82.159-1.791c4.768-.104 8.567 3.96 8.142 8.71l-.374 4.189a8 8 0 0 1-7.859 7.287l-82.199 1.126c-4.833.066-8.621-4.136-8.055-8.936l.415-3.523Z"/>
  </g>
  <path fill="#192351" d="m514.28 509.743-1.305 2.145-3.104.091 3.016-4.433-2.497-3.961 3.173-.093 1.289 2.074 1.325-2.151 3.103-.091-3.078 4.37 2.545 4.04-3.178.093-1.289-2.084Zm9.05-.265-1.31 2.145-3.103.091 3.021-4.433-2.498-3.961 3.173-.093 1.289 2.074 1.325-2.151 3.104-.091-3.078 4.37 2.545 4.04-3.178.093-1.29-2.084Zm9.051-.265-1.311 2.145-3.103.091 3.021-4.433-2.498-3.961 3.174-.093 1.289 2.074 1.325-2.151 3.103-.09-3.083 4.369 2.545 4.04-3.173.093-1.289-2.084Zm9.05-.265-1.31 2.145-3.104.091 3.022-4.433-2.503-3.961 3.178-.093 1.289 2.075 1.32-2.151 3.103-.091-3.077 4.369 2.545 4.04-3.174.093-1.289-2.084Zm9.05-.265-1.31 2.146-3.103.09 3.021-4.432-2.503-3.962 3.178-.093 1.289 2.075 1.321-2.151 3.103-.091-3.078 4.369 2.545 4.041-3.173.092-1.29-2.084Zm9.046-.265-1.306 2.146-3.103.09 3.016-4.432-2.498-3.962 3.174-.093 1.289 2.075 1.325-2.151 3.103-.091-3.078 4.37 2.545 4.04-3.178.093-1.289-2.085Zm-41.247-36.675-1.305 2.145-3.104.091 3.016-4.433-2.497-3.961 3.173-.093 1.289 2.074 1.325-2.151 3.103-.091-3.078 4.37 2.545 4.04-3.178.093-1.289-2.084Zm9.05-.265-1.31 2.145-3.103.091 3.021-4.433-2.498-3.961 3.173-.093 1.289 2.074 1.325-2.151 3.104-.091-3.078 4.37 2.545 4.04-3.178.093-1.29-2.084Zm9.051-.265-1.311 2.145-3.103.091 3.021-4.433-2.498-3.961 3.174-.093 1.289 2.074 1.325-2.151 3.103-.09-3.083 4.369 2.545 4.04-3.173.093-1.289-2.084Zm9.05-.265-1.31 2.145-3.104.091 3.022-4.433-2.503-3.961 3.178-.093 1.289 2.075 1.32-2.151 3.103-.091-3.077 4.369 2.545 4.04-3.174.093-1.289-2.084Zm9.05-.265-1.31 2.146-3.103.09 3.021-4.432-2.503-3.962 3.178-.093 1.289 2.075 1.321-2.151 3.103-.091-3.078 4.369 2.545 4.041-3.173.092-1.29-2.084Zm9.046-.265-1.306 2.146-3.103.09 3.016-4.432-2.498-3.962 3.174-.093 1.289 2.075 1.325-2.151 3.103-.091-3.078 4.37 2.545 4.04-3.178.093-1.289-2.085Z"/>
  <g filter="url(#j)">
    <path fill="#fff" fill-opacity=".26" d="m511.779 644.882-11.612 17.379a52.582 52.582 0 0 0-15.463-1.937l-6.993-19.663a3.79 3.79 0 0 0-4.582-2.384l-14.614 4.028a3.787 3.787 0 0 0-2.71 4.389l4.095 20.467a52.83 52.83 0 0 0-12.313 9.571l-18.882-8.979a3.79 3.79 0 0 0-4.904 1.574l-7.487 13.184a3.786 3.786 0 0 0-.397 2.75c.22.934.786 1.75 1.585 2.282l17.385 11.616a52.82 52.82 0 0 0-1.937 15.463l-19.666 7a3.79 3.79 0 0 0-2.381 4.576l4.028 14.614a3.792 3.792 0 0 0 4.396 2.714l20.46-4.1a52.62 52.62 0 0 0 9.571 12.313l-8.975 18.876a3.787 3.787 0 0 0 1.57 4.911l13.184 7.486a3.791 3.791 0 0 0 5.036-1.194l11.612-17.379a52.759 52.759 0 0 0 15.463 1.938l7 19.666a3.792 3.792 0 0 0 4.576 2.38l14.614-4.028a3.79 3.79 0 0 0 2.71-4.389l-4.096-20.466a52.768 52.768 0 0 0 12.313-9.571l18.877 8.975a3.79 3.79 0 0 0 4.91-1.571l7.486-13.183a3.787 3.787 0 0 0-1.193-5.037l-17.379-11.612a52.787 52.787 0 0 0 1.937-15.463l19.666-7a3.789 3.789 0 0 0 2.381-4.576l-4.029-14.613a3.787 3.787 0 0 0-4.388-2.71l-20.467 4.095a52.81 52.81 0 0 0-9.571-12.313l8.975-18.876a3.79 3.79 0 0 0-1.57-4.91l-13.184-7.487a3.792 3.792 0 0 0-5.037 1.194Zm-6.027 79.698a22.744 22.744 0 0 1-22.582 11.338 22.743 22.743 0 0 1 1.157-45.249 22.737 22.737 0 0 1 23.573 16.638 22.742 22.742 0 0 1-2.148 17.273Z"/>
  </g>
  <g filter="url(#k)">
    <path fill="#fff" fill-opacity=".16" d="m626.779 174.882-11.612 17.379a52.582 52.582 0 0 0-15.463-1.937l-6.993-19.663a3.79 3.79 0 0 0-4.582-2.384l-14.614 4.028a3.787 3.787 0 0 0-2.71 4.389l4.095 20.467a52.83 52.83 0 0 0-12.313 9.571l-18.882-8.979a3.79 3.79 0 0 0-4.904 1.574l-7.487 13.184a3.786 3.786 0 0 0-.397 2.75c.22.934.786 1.75 1.585 2.282l17.385 11.616a52.82 52.82 0 0 0-1.937 15.463l-19.666 7a3.79 3.79 0 0 0-2.381 4.576l4.028 14.614a3.792 3.792 0 0 0 4.396 2.714l20.46-4.1a52.62 52.62 0 0 0 9.571 12.313l-8.975 18.876a3.787 3.787 0 0 0 1.57 4.911l13.184 7.486a3.791 3.791 0 0 0 5.036-1.194l11.612-17.379a52.759 52.759 0 0 0 15.463 1.938l7 19.666a3.792 3.792 0 0 0 4.576 2.38l14.614-4.028a3.79 3.79 0 0 0 2.71-4.389l-4.096-20.466a52.768 52.768 0 0 0 12.313-9.571l18.877 8.975a3.79 3.79 0 0 0 4.91-1.571l7.486-13.183a3.787 3.787 0 0 0-1.193-5.037l-17.379-11.612a52.787 52.787 0 0 0 1.937-15.463l19.666-7a3.789 3.789 0 0 0 2.381-4.576l-4.029-14.613a3.787 3.787 0 0 0-4.388-2.71l-20.467 4.095a52.81 52.81 0 0 0-9.571-12.313l8.975-18.876a3.79 3.79 0 0 0-1.57-4.91l-13.184-7.487a3.792 3.792 0 0 0-5.037 1.194Zm-6.027 79.698a22.744 22.744 0 0 1-22.582 11.338 22.743 22.743 0 0 1 1.157-45.249 22.737 22.737 0 0 1 23.573 16.638 22.742 22.742 0 0 1-2.148 17.273Z"/>
  </g>
  <g clip-path="url(#l)">
    <path fill="#E78F25" fill-opacity=".56" d="M431.925 231.723a.841.841 0 0 0-.428-.252l-17.612-3.95a.845.845 0 0 0-.756.204l-13.228 12.281a.839.839 0 0 0-.243.432l18.427 4.135 13.84-12.85Z"/>
    <path fill="#E78F25" fill-opacity=".56" d="m418.085 244.573 5.262 19.477a.842.842 0 0 0 .353-.195l13.228-12.281a.848.848 0 0 0 .24-.836l-5.043-18.666a.82.82 0 0 0-.2-.349l-13.84 12.85Z"/>
    <path fill="#E78F25" fill-opacity=".56" d="M399.658 240.438a.845.845 0 0 0 .003.403l5.043 18.666a.843.843 0 0 0 .627.602l17.612 3.95c.134.03.273.027.404-.009l-5.262-19.477-18.427-4.135Z"/>
    <g filter="url(#m)">
      <path fill="#1D1D1D" fill-opacity=".05" d="M438.682 224.689a1.253 1.253 0 0 0-.642-.378l-26.418-5.925a1.251 1.251 0 0 0-1.134.306l-19.842 18.421a1.259 1.259 0 0 0-.364.649l27.641 6.201 20.759-19.274Z"/>
      <path fill="url(#n)" fill-opacity=".2" d="M438.682 224.689a1.253 1.253 0 0 0-.642-.378l-26.418-5.925a1.251 1.251 0 0 0-1.134.306l-19.842 18.421a1.259 1.259 0 0 0-.364.649l27.641 6.201 20.759-19.274Z"/>
      <path stroke="url(#o)" stroke-opacity=".1" stroke-width="1.388" d="m411.47 219.063 25.977 5.826-19.729 18.317-26.267-5.893 19.509-18.112v-.001a.57.57 0 0 1 .51-.137Z"/>
    </g>
    <g filter="url(#p)">
      <path fill="#1D1D1D" fill-opacity=".05" d="m417.922 243.962 7.892 29.216a1.26 1.26 0 0 0 .53-.293l19.841-18.421a1.265 1.265 0 0 0 .359-1.253l-7.563-27.999a1.238 1.238 0 0 0-.299-.524l-20.76 19.274Z"/>
      <path fill="url(#q)" fill-opacity=".2" d="m417.922 243.962 7.892 29.216a1.26 1.26 0 0 0 .53-.293l19.841-18.421a1.265 1.265 0 0 0 .359-1.253l-7.563-27.999a1.238 1.238 0 0 0-.299-.524l-20.76 19.274Z"/>
      <path stroke="url(#r)" stroke-opacity=".1" stroke-width="1.388" d="m438.438 225.861 7.436 27.531a.56.56 0 0 1-.161.563l-19.486 18.092-7.526-27.862 19.737-18.324Z"/>
    </g>
    <g filter="url(#s)">
      <path fill="#1D1D1D" fill-opacity=".05" d="M390.282 237.761c-.047.199-.046.407.005.605l7.563 27.999a1.26 1.26 0 0 0 .941.902l26.418 5.926c.2.045.408.04.606-.013l-7.892-29.217-27.641-6.202Z"/>
      <path fill="url(#t)" fill-opacity=".2" d="M390.282 237.761c-.047.199-.046.407.005.605l7.563 27.999a1.26 1.26 0 0 0 .941.902l26.418 5.926c.2.045.408.04.606-.013l-7.892-29.217-27.641-6.202Z"/>
      <path stroke="url(#u)" stroke-opacity=".1" stroke-width="1.388" d="m424.888 272.41-25.945-5.82 25.945 5.82Zm0 0-7.526-27.862-26.279-5.896 7.437 27.532v.001a.572.572 0 0 0 .423.405l25.945 5.82Z"/>
    </g>
  </g>
  <path fill="#fff" d="M342.615 431s8.086 3.812 15.216 15.234c6.455 10.345 12.957 23.129 11.619 24.592-8.219 9.102-27.201 10.174-27.201 10.174l-8.623-15.319L342.615 431Z"/>
  <g clip-path="url(#v)">
    <path fill="#E78F25" fill-opacity=".56" d="M240.351 314.533a.382.382 0 0 0-.229.021l-7.678 3.3a.384.384 0 0 0-.229.282l-1.627 8.197a.388.388 0 0 0 .026.228l8.034-3.452 1.703-8.576Zm-1.703 8.576 7.261 5.877a.395.395 0 0 0 .08-.169l1.627-8.197a.387.387 0 0 0-.137-.378l-6.958-5.633a.385.385 0 0 0-.17-.076l-1.703 8.576Z"/>
    <path fill="#E78F25" fill-opacity=".56" d="M230.614 326.561c.024.058.062.11.111.15l6.958 5.633a.397.397 0 0 0 .399.055l7.678-3.3a.394.394 0 0 0 .149-.113l-7.261-5.877-8.034 3.452Z"/>
    <g filter="url(#w)">
      <path fill="#1D1D1D" fill-opacity=".05" d="M240.976 310.06a.587.587 0 0 0-.344.032l-11.517 4.949a.594.594 0 0 0-.342.423l-2.442 12.296a.581.581 0 0 0 .04.342l12.051-5.177 2.554-12.865Z"/>
      <path fill="url(#x)" fill-opacity=".2" d="M240.976 310.06a.587.587 0 0 0-.344.032l-11.517 4.949a.594.594 0 0 0-.342.423l-2.442 12.296a.581.581 0 0 0 .04.342l12.051-5.177 2.554-12.865Z"/>
      <path stroke="url(#y)" stroke-opacity=".1" stroke-width="1.388" d="m229.442 315.656 10.621-4.564-2.251 11.339-10.621 4.564 2.251-11.339Z"/>
    </g>
    <g filter="url(#z)">
      <path fill="#1D1D1D" fill-opacity=".05" d="m238.421 322.924 10.892 8.817a.6.6 0 0 0 .119-.254l2.441-12.296a.582.582 0 0 0-.206-.567l-10.437-8.449a.574.574 0 0 0-.255-.115l-2.554 12.864Z"/>
      <path fill="url(#A)" fill-opacity=".2" d="m238.421 322.924 10.892 8.817a.6.6 0 0 0 .119-.254l2.441-12.296a.582.582 0 0 0-.206-.567l-10.437-8.449a.574.574 0 0 0-.255-.115l-2.554 12.864Z"/>
      <path stroke="url(#B)" stroke-opacity=".1" stroke-width="1.388" d="m239.183 322.649 2.264-11.405 9.732 7.877-2.264 11.405-9.732-7.877Z"/>
    </g>
    <g filter="url(#C)">
      <path fill="#1D1D1D" fill-opacity=".05" d="M226.37 328.102a.601.601 0 0 0 .166.226l10.438 8.448a.589.589 0 0 0 .598.083l11.517-4.949a.574.574 0 0 0 .224-.169l-10.892-8.816-12.051 5.177Z"/>
      <path fill="url(#D)" fill-opacity=".2" d="M226.37 328.102a.601.601 0 0 0 .166.226l10.438 8.448a.589.589 0 0 0 .598.083l11.517-4.949a.574.574 0 0 0 .224-.169l-10.892-8.816-12.051 5.177Z"/>
      <path stroke="url(#E)" stroke-opacity=".1" stroke-width="1.388" d="m237.359 336.195-9.732-7.877 10.683-4.59 9.732 7.877-10.683 4.59Z"/>
    </g>
  </g>
  <g filter="url(#F)">
    <path fill="url(#G)" fill-rule="evenodd" d="M443.903 765.796c171.268 0 310.108-138.472 310.108-309.285 0-170.812-138.84-309.284-310.108-309.284S133.795 285.699 133.795 456.511c0 170.813 138.84 309.285 310.108 309.285Zm0 38.131c192.384 0 348.341-155.543 348.341-347.416 0-191.872-155.957-347.415-348.341-347.415-192.383 0-348.34 155.543-348.34 347.415 0 191.873 155.957 347.416 348.34 347.416Z" clip-rule="evenodd"/>
  </g>
  <defs>
    <filter id="a" width="836.801" height="836.781" x="31.222" y="31.225" color-interpolation-filters="sRGB" filterUnits="userSpaceOnUse">
      <feFlood flood-opacity="0" result="BackgroundImageFix"/>
      <feGaussianBlur in="BackgroundImageFix" stdDeviation="50"/>
      <feComposite in2="SourceAlpha" operator="in" result="effect1_backgroundBlur_1810_727"/>
      <feBlend in="SourceGraphic" in2="effect1_backgroundBlur_1810_727" result="shape"/>
    </filter>
    <filter id="c" width="124.901" height="129.678" x="620.78" y="551.749" color-interpolation-filters="sRGB" filterUnits="userSpaceOnUse">
      <feFlood flood-opacity="0" result="BackgroundImageFix"/>
      <feBlend in="SourceGraphic" in2="BackgroundImageFix" result="shape"/>
      <feColorMatrix in="SourceAlpha" result="hardAlpha" values="0 0 0 0 0 0 0 0 0 0 0 0 0 0 0 0 0 0 127 0"/>
      <feOffset dy="4.777"/>
      <feGaussianBlur stdDeviation="2.388"/>
      <feComposite in2="hardAlpha" k2="-1" k3="1" operator="arithmetic"/>
      <feColorMatrix values="0 0 0 0 1 0 0 0 0 1 0 0 0 0 1 0 0 0 0.4 0"/>
      <feBlend in2="shape" result="effect1_innerShadow_1810_727"/>
    </filter>
    <filter id="d" width="102.775" height="121.722" x="382.977" y="306.928" color-interpolation-filters="sRGB" filterUnits="userSpaceOnUse">
      <feFlood flood-opacity="0" result="BackgroundImageFix"/>
      <feColorMatrix in="SourceAlpha" result="hardAlpha" values="0 0 0 0 0 0 0 0 0 0 0 0 0 0 0 0 0 0 127 0"/>
      <feOffset dy="4"/>
      <feGaussianBlur stdDeviation="2"/>
      <feComposite in2="hardAlpha" operator="out"/>
      <feColorMatrix values="0 0 0 0 0 0 0 0 0 0 0 0 0 0 0 0 0 0 0.25 0"/>
      <feBlend in2="BackgroundImageFix" result="effect1_dropShadow_1810_727"/>
      <feBlend in="SourceGraphic" in2="effect1_dropShadow_1810_727" result="shape"/>
    </filter>
    <filter id="e" width="94.045" height="112.378" x="387.334" y="312.199" color-interpolation-filters="sRGB" filterUnits="userSpaceOnUse">
      <feFlood flood-opacity="0" result="BackgroundImageFix"/>
      <feColorMatrix in="SourceAlpha" result="hardAlpha" values="0 0 0 0 0 0 0 0 0 0 0 0 0 0 0 0 0 0 127 0"/>
      <feOffset dy="4"/>
      <feGaussianBlur stdDeviation="2"/>
      <feComposite in2="hardAlpha" operator="out"/>
      <feColorMatrix values="0 0 0 0 0 0 0 0 0 0 0 0 0 0 0 0 0 0 0.25 0"/>
      <feBlend in2="BackgroundImageFix" result="effect1_dropShadow_1810_727"/>
      <feBlend in="SourceGraphic" in2="effect1_dropShadow_1810_727" result="shape"/>
    </filter>
    <filter id="g" width="165.238" height="37.022" x="459.477" y="453.82" color-interpolation-filters="sRGB" filterUnits="userSpaceOnUse">
      <feFlood flood-opacity="0" result="BackgroundImageFix"/>
      <feColorMatrix in="SourceAlpha" result="hardAlpha" values="0 0 0 0 0 0 0 0 0 0 0 0 0 0 0 0 0 0 127 0"/>
      <feOffset dy="4"/>
      <feGaussianBlur stdDeviation="2"/>
      <feComposite in2="hardAlpha" operator="out"/>
      <feColorMatrix values="0 0 0 0 0 0 0 0 0 0 0 0 0 0 0 0 0 0 0.25 0"/>
      <feBlend in2="BackgroundImageFix" result="effect1_dropShadow_1810_727"/>
      <feBlend in="SourceGraphic" in2="effect1_dropShadow_1810_727" result="shape"/>
    </filter>
    <filter id="h" width="165.238" height="37.022" x="453.477" y="491.82" color-interpolation-filters="sRGB" filterUnits="userSpaceOnUse">
      <feFlood flood-opacity="0" result="BackgroundImageFix"/>
      <feColorMatrix in="SourceAlpha" result="hardAlpha" values="0 0 0 0 0 0 0 0 0 0 0 0 0 0 0 0 0 0 127 0"/>
      <feOffset dy="4"/>
      <feGaussianBlur stdDeviation="2"/>
      <feComposite in2="hardAlpha" operator="out"/>
      <feColorMatrix values="0 0 0 0 0 0 0 0 0 0 0 0 0 0 0 0 0 0 0.25 0"/>
      <feBlend in2="BackgroundImageFix" result="effect1_dropShadow_1810_727"/>
      <feBlend in="SourceGraphic" in2="effect1_dropShadow_1810_727" result="shape"/>
    </filter>
    <filter id="i" width="106.576" height="29.315" x="479.762" y="539.753" color-interpolation-filters="sRGB" filterUnits="userSpaceOnUse">
      <feFlood flood-opacity="0" result="BackgroundImageFix"/>
      <feColorMatrix in="SourceAlpha" result="hardAlpha" values="0 0 0 0 0 0 0 0 0 0 0 0 0 0 0 0 0 0 127 0"/>
      <feOffset dy="4"/>
      <feGaussianBlur stdDeviation="2"/>
      <feComposite in2="hardAlpha" operator="out"/>
      <feColorMatrix values="0 0 0 0 0 0 0 0 0 0 0 0 0 0 0 0 0 0 0.25 0"/>
      <feBlend in2="BackgroundImageFix" result="effect1_dropShadow_1810_727"/>
      <feBlend in="SourceGraphic" in2="effect1_dropShadow_1810_727" result="shape"/>
    </filter>
    <filter id="j" width="150.418" height="155.196" x="410.767" y="638.14" color-interpolation-filters="sRGB" filterUnits="userSpaceOnUse">
      <feFlood flood-opacity="0" result="BackgroundImageFix"/>
      <feBlend in="SourceGraphic" in2="BackgroundImageFix" result="shape"/>
      <feColorMatrix in="SourceAlpha" result="hardAlpha" values="0 0 0 0 0 0 0 0 0 0 0 0 0 0 0 0 0 0 127 0"/>
      <feOffset dy="4.777"/>
      <feGaussianBlur stdDeviation="2.388"/>
      <feComposite in2="hardAlpha" k2="-1" k3="1" operator="arithmetic"/>
      <feColorMatrix values="0 0 0 0 1 0 0 0 0 1 0 0 0 0 1 0 0 0 0.4 0"/>
      <feBlend in2="shape" result="effect1_innerShadow_1810_727"/>
    </filter>
    <filter id="k" width="150.418" height="155.196" x="525.767" y="168.14" color-interpolation-filters="sRGB" filterUnits="userSpaceOnUse">
      <feFlood flood-opacity="0" result="BackgroundImageFix"/>
      <feBlend in="SourceGraphic" in2="BackgroundImageFix" result="shape"/>
      <feColorMatrix in="SourceAlpha" result="hardAlpha" values="0 0 0 0 0 0 0 0 0 0 0 0 0 0 0 0 0 0 127 0"/>
      <feOffset dy="4.777"/>
      <feGaussianBlur stdDeviation="2.388"/>
      <feComposite in2="hardAlpha" k2="-1" k3="1" operator="arithmetic"/>
      <feColorMatrix values="0 0 0 0 1 0 0 0 0 1 0 0 0 0 1 0 0 0 0.4 0"/>
      <feBlend in2="shape" result="effect1_innerShadow_1810_727"/>
    </filter>
    <filter id="m" width="81.705" height="58.913" x="373.63" y="201.703" color-interpolation-filters="sRGB" filterUnits="userSpaceOnUse">
      <feFlood flood-opacity="0" result="BackgroundImageFix"/>
      <feGaussianBlur in="BackgroundImageFix" stdDeviation="8.326"/>
      <feComposite in2="SourceAlpha" operator="in" result="effect1_backgroundBlur_1810_727"/>
      <feBlend in="SourceGraphic" in2="effect1_backgroundBlur_1810_727" result="shape"/>
      <feColorMatrix in="SourceAlpha" result="hardAlpha" values="0 0 0 0 0 0 0 0 0 0 0 0 0 0 0 0 0 0 127 0"/>
      <feOffset dy="2.775"/>
      <feGaussianBlur stdDeviation="5.551"/>
      <feComposite in2="hardAlpha" k2="-1" k3="1" operator="arithmetic"/>
      <feColorMatrix values="0 0 0 0 1 0 0 0 0 1 0 0 0 0 1 0 0 0 0.15 0"/>
      <feBlend in2="shape" result="effect2_innerShadow_1810_727"/>
    </filter>
    <filter id="p" width="61.97" height="81.795" x="401.27" y="208.035" color-interpolation-filters="sRGB" filterUnits="userSpaceOnUse">
      <feFlood flood-opacity="0" result="BackgroundImageFix"/>
      <feGaussianBlur in="BackgroundImageFix" stdDeviation="8.326"/>
      <feComposite in2="SourceAlpha" operator="in" result="effect1_backgroundBlur_1810_727"/>
      <feBlend in="SourceGraphic" in2="effect1_backgroundBlur_1810_727" result="shape"/>
      <feColorMatrix in="SourceAlpha" result="hardAlpha" values="0 0 0 0 0 0 0 0 0 0 0 0 0 0 0 0 0 0 127 0"/>
      <feOffset dy="2.775"/>
      <feGaussianBlur stdDeviation="5.551"/>
      <feComposite in2="hardAlpha" k2="-1" k3="1" operator="arithmetic"/>
      <feColorMatrix values="0 0 0 0 1 0 0 0 0 1 0 0 0 0 1 0 0 0 0.15 0"/>
      <feBlend in2="shape" result="effect2_innerShadow_1810_727"/>
    </filter>
    <filter id="s" width="68.872" height="68.767" x="373.595" y="221.109" color-interpolation-filters="sRGB" filterUnits="userSpaceOnUse">
      <feFlood flood-opacity="0" result="BackgroundImageFix"/>
      <feGaussianBlur in="BackgroundImageFix" stdDeviation="8.326"/>
      <feComposite in2="SourceAlpha" operator="in" result="effect1_backgroundBlur_1810_727"/>
      <feBlend in="SourceGraphic" in2="effect1_backgroundBlur_1810_727" result="shape"/>
      <feColorMatrix in="SourceAlpha" result="hardAlpha" values="0 0 0 0 0 0 0 0 0 0 0 0 0 0 0 0 0 0 127 0"/>
      <feOffset dy="2.775"/>
      <feGaussianBlur stdDeviation="5.551"/>
      <feComposite in2="hardAlpha" k2="-1" k3="1" operator="arithmetic"/>
      <feColorMatrix values="0 0 0 0 1 0 0 0 0 1 0 0 0 0 1 0 0 0 0.15 0"/>
      <feBlend in2="shape" result="effect2_innerShadow_1810_727"/>
    </filter>
    <filter id="w" width="47.959" height="51.359" x="209.669" y="293.395" color-interpolation-filters="sRGB" filterUnits="userSpaceOnUse">
      <feFlood flood-opacity="0" result="BackgroundImageFix"/>
      <feGaussianBlur in="BackgroundImageFix" stdDeviation="8.326"/>
      <feComposite in2="SourceAlpha" operator="in" result="effect1_backgroundBlur_1810_727"/>
      <feBlend in="SourceGraphic" in2="effect1_backgroundBlur_1810_727" result="shape"/>
      <feColorMatrix in="SourceAlpha" result="hardAlpha" values="0 0 0 0 0 0 0 0 0 0 0 0 0 0 0 0 0 0 127 0"/>
      <feOffset dy="2.775"/>
      <feGaussianBlur stdDeviation="5.551"/>
      <feComposite in2="hardAlpha" k2="-1" k3="1" operator="arithmetic"/>
      <feColorMatrix values="0 0 0 0 1 0 0 0 0 1 0 0 0 0 1 0 0 0 0.15 0"/>
      <feBlend in2="shape" result="effect2_innerShadow_1810_727"/>
    </filter>
    <filter id="z" width="46.768" height="54.986" x="221.769" y="293.407" color-interpolation-filters="sRGB" filterUnits="userSpaceOnUse">
      <feFlood flood-opacity="0" result="BackgroundImageFix"/>
      <feGaussianBlur in="BackgroundImageFix" stdDeviation="8.326"/>
      <feComposite in2="SourceAlpha" operator="in" result="effect1_backgroundBlur_1810_727"/>
      <feBlend in="SourceGraphic" in2="effect1_backgroundBlur_1810_727" result="shape"/>
      <feColorMatrix in="SourceAlpha" result="hardAlpha" values="0 0 0 0 0 0 0 0 0 0 0 0 0 0 0 0 0 0 127 0"/>
      <feOffset dy="2.775"/>
      <feGaussianBlur stdDeviation="5.551"/>
      <feComposite in2="hardAlpha" k2="-1" k3="1" operator="arithmetic"/>
      <feColorMatrix values="0 0 0 0 1 0 0 0 0 1 0 0 0 0 1 0 0 0 0.15 0"/>
      <feBlend in2="shape" result="effect2_innerShadow_1810_727"/>
    </filter>
    <filter id="C" width="56.247" height="47.286" x="209.718" y="306.272" color-interpolation-filters="sRGB" filterUnits="userSpaceOnUse">
      <feFlood flood-opacity="0" result="BackgroundImageFix"/>
      <feGaussianBlur in="BackgroundImageFix" stdDeviation="8.326"/>
      <feComposite in2="SourceAlpha" operator="in" result="effect1_backgroundBlur_1810_727"/>
      <feBlend in="SourceGraphic" in2="effect1_backgroundBlur_1810_727" result="shape"/>
      <feColorMatrix in="SourceAlpha" result="hardAlpha" values="0 0 0 0 0 0 0 0 0 0 0 0 0 0 0 0 0 0 127 0"/>
      <feOffset dy="2.775"/>
      <feGaussianBlur stdDeviation="5.551"/>
      <feComposite in2="hardAlpha" k2="-1" k3="1" operator="arithmetic"/>
      <feColorMatrix values="0 0 0 0 1 0 0 0 0 1 0 0 0 0 1 0 0 0 0.15 0"/>
      <feBlend in2="shape" result="effect2_innerShadow_1810_727"/>
    </filter>
    <filter id="F" width="766.682" height="764.831" x="48.563" y="62.096" color-interpolation-filters="sRGB" filterUnits="userSpaceOnUse">
      <feFlood flood-opacity="0" result="BackgroundImageFix"/>
      <feColorMatrix in="SourceAlpha" result="hardAlpha" values="0 0 0 0 0 0 0 0 0 0 0 0 0 0 0 0 0 0 127 0"/>
      <feOffset dy="4"/>
      <feGaussianBlur stdDeviation="2"/>
      <feComposite in2="hardAlpha" operator="out"/>
      <feColorMatrix values="0 0 0 0 0 0 0 0 0 0 0 0 0 0 0 0 0 0 0.25 0"/>
      <feBlend in2="BackgroundImageFix" result="effect1_dropShadow_1810_727"/>
      <feColorMatrix in="SourceAlpha" result="hardAlpha" values="0 0 0 0 0 0 0 0 0 0 0 0 0 0 0 0 0 0 127 0"/>
      <feOffset dx="-12" dy="-12"/>
      <feGaussianBlur stdDeviation="17.5"/>
      <feComposite in2="hardAlpha" operator="out"/>
      <feColorMatrix values="0 0 0 0 0 0 0 0 0 0 0 0 0 0 0 0 0 0 0.25 0"/>
      <feBlend in2="effect1_dropShadow_1810_727" result="effect2_dropShadow_1810_727"/>
      <feBlend in="SourceGraphic" in2="effect2_dropShadow_1810_727" result="shape"/>
      <feColorMatrix in="SourceAlpha" result="hardAlpha" values="0 0 0 0 0 0 0 0 0 0 0 0 0 0 0 0 0 0 127 0"/>
      <feOffset dx="-10" dy="-12"/>
      <feGaussianBlur stdDeviation="30"/>
      <feComposite in2="hardAlpha" k2="-1" k3="1" operator="arithmetic"/>
      <feColorMatrix values="0 0 0 0 0 0 0 0 0 0 0 0 0 0 0 0 0 0 0.25 0"/>
      <feBlend in2="shape" result="effect3_innerShadow_1810_727"/>
      <feColorMatrix in="SourceAlpha" result="hardAlpha" values="0 0 0 0 0 0 0 0 0 0 0 0 0 0 0 0 0 0 127 0"/>
      <feOffset dx="-10" dy="12"/>
      <feGaussianBlur stdDeviation="12.5"/>
      <feComposite in2="hardAlpha" k2="-1" k3="1" operator="arithmetic"/>
      <feColorMatrix values="0 0 0 0 0 0 0 0 0 0 0 0 0 0 0 0 0 0 0.25 0"/>
      <feBlend in2="effect3_innerShadow_1810_727" result="effect4_innerShadow_1810_727"/>
    </filter>
    <linearGradient id="b" x1="131.277" x2="890.652" y1="131.175" y2="514.459" gradientUnits="userSpaceOnUse">
      <stop stop-color="#fff" stop-opacity=".64"/>
      <stop offset="1" stop-color="#EDEDED" stop-opacity="0"/>
    </linearGradient>
    <linearGradient id="n" x1="386.817" x2="442.516" y1="224.935" y2="235.318" gradientUnits="userSpaceOnUse">
      <stop stop-color="#87FFE1"/>
      <stop offset=".776" stop-color="#5C6DFF"/>
    </linearGradient>
    <linearGradient id="o" x1="388.644" x2="435.531" y1="225.689" y2="213.024" gradientUnits="userSpaceOnUse">
      <stop stop-color="#3CDEB6"/>
      <stop offset=".656" stop-color="#364AFF"/>
    </linearGradient>
    <linearGradient id="q" x1="414.482" x2="445.552" y1="231.225" y2="227.556" gradientUnits="userSpaceOnUse">
      <stop stop-color="#87FFE1"/>
      <stop offset=".776" stop-color="#5C6DFF"/>
    </linearGradient>
    <linearGradient id="r" x1="415.758" x2="439.344" y1="232.926" y2="226.555" gradientUnits="userSpaceOnUse">
      <stop stop-color="#3CDEB6"/>
      <stop offset=".656" stop-color="#364AFF"/>
    </linearGradient>
    <linearGradient id="t" x1="390.135" x2="421.204" y1="237.801" y2="234.133" gradientUnits="userSpaceOnUse">
      <stop stop-color="#87FFE1"/>
      <stop offset=".776" stop-color="#5C6DFF"/>
    </linearGradient>
    <linearGradient id="u" x1="391.41" x2="414.997" y1="239.503" y2="233.132" gradientUnits="userSpaceOnUse">
      <stop stop-color="#3CDEB6"/>
      <stop offset=".656" stop-color="#364AFF"/>
    </linearGradient>
    <linearGradient id="x" x1="221.589" x2="245.299" y1="324.232" y2="313.006" gradientUnits="userSpaceOnUse">
      <stop stop-color="#87FFE1"/>
      <stop offset=".776" stop-color="#5C6DFF"/>
    </linearGradient>
    <linearGradient id="y" x1="222.479" x2="236.627" y1="324.019" y2="306.54" gradientUnits="userSpaceOnUse">
      <stop stop-color="#3CDEB6"/>
      <stop offset=".656" stop-color="#364AFF"/>
    </linearGradient>
    <linearGradient id="A" x1="233.673" x2="244.331" y1="319.081" y2="309.271" gradientUnits="userSpaceOnUse">
      <stop stop-color="#87FFE1"/>
      <stop offset=".776" stop-color="#5C6DFF"/>
    </linearGradient>
    <linearGradient id="B" x1="234.613" x2="241.731" y1="319.373" y2="310.58" gradientUnits="userSpaceOnUse">
      <stop stop-color="#3CDEB6"/>
      <stop offset=".656" stop-color="#364AFF"/>
    </linearGradient>
    <linearGradient id="D" x1="226.326" x2="236.984" y1="328.157" y2="318.347" gradientUnits="userSpaceOnUse">
      <stop stop-color="#87FFE1"/>
      <stop offset=".776" stop-color="#5C6DFF"/>
    </linearGradient>
    <linearGradient id="E" x1="227.266" x2="234.384" y1="328.449" y2="319.656" gradientUnits="userSpaceOnUse">
      <stop stop-color="#3CDEB6"/>
      <stop offset=".656" stop-color="#364AFF"/>
    </linearGradient>
    <linearGradient id="G" x1="-34.88" x2="913.793" y1="449.845" y2="457.251" gradientUnits="userSpaceOnUse">
      <stop stop-color="#312A2A"/>
      <stop offset=".435" stop-color="#312A2A"/>
      <stop offset="1" stop-color="#1110A0"/>
    </linearGradient>
    <clipPath id="l">
      <path fill="#fff" d="M383.629 225.798 438.41 211l14.798 54.782-54.782 14.798z"/>
    </clipPath>
    <clipPath id="v">
      <path fill="#fff" d="m220.63 325.424 16.53-20.421 20.42 16.53-16.53 20.421z"/>
    </clipPath>
  </defs>
</svg>
