<svg xmlns="http://www.w3.org/2000/svg" width="100%" height="100%" fill="none" viewBox="0 0 616 611">
  <g filter="url(#a)">
    <path fill="url(#b)" fill-rule="evenodd" d="M296 490.262c115.542 0 209.207-93.466 209.207-208.762S411.542 72.738 296 72.738c-115.542 0-209.207 93.466-209.207 208.762S180.458 490.262 296 490.262ZM296 516c129.787 0 235-104.989 235-234.5S425.787 47 296 47 61 151.989 61 281.5 166.213 516 296 516Z" clip-rule="evenodd"/>
  </g>
  <g filter="url(#c)">
    <path fill="#EB9124" d="M120.194 384.935C112.11 397.91 94.976 401.89 82 393.804c-12.976-8.084-16.956-25.217-8.871-38.192 8.084-12.975 25.218-16.956 38.194-8.872 12.975 8.084 16.955 25.219 8.871 38.195Z"/>
    <path fill="#EB9124" d="M119.581 384.553c-7.874 12.638-24.561 16.513-37.2 8.64-12.637-7.874-16.513-24.562-8.64-37.2 7.874-12.638 24.562-16.515 37.2-8.64 12.638 7.875 16.514 24.562 8.64 37.2Z"/>
    <path fill="#fff" d="M108.43 351.624c10.337 6.44 13.496 20.04 7.056 30.377-6.44 10.336-20.04 13.497-30.377 7.055-10.337-6.44-13.496-20.041-7.056-30.377 6.44-10.336 20.04-13.494 30.377-7.055Z"/>
    <path fill="#fff" d="M114.413 381.333c-6.095 9.783-19.012 12.784-28.795 6.689-9.782-6.095-12.782-19.014-6.687-28.796 6.094-9.783 19.012-12.784 28.794-6.689 9.783 6.095 12.783 19.014 6.688 28.796Z"/>
    <path fill="#EB9124" d="m86.16 385.043-1.98 3.178a1.116 1.116 0 0 0 1.894 1.179l1.979-3.178a1.116 1.116 0 0 0-1.893-1.179Zm24.919-5.787a1.116 1.116 0 0 0 .357 1.536l3.177 1.979a1.116 1.116 0 0 0 1.179-1.893l-3.177-1.979a1.116 1.116 0 0 0-1.536.357Zm-3.809-28.097-1.979 3.178a1.116 1.116 0 0 0 1.893 1.179l1.98-3.178a1.118 1.118 0 0 0-.357-1.536 1.117 1.117 0 0 0-1.537.357Zm-30.075 6.986a1.116 1.116 0 0 0 .357 1.536l3.177 1.979a1.116 1.116 0 0 0 1.18-1.893l-3.178-1.979a1.116 1.116 0 0 0-1.536.357Zm.897-12.143-2.28-3.752a.649.649 0 0 1 .218-.893l4.3-2.617a.649.649 0 0 1 .896.217l2.28 3.749a.654.654 0 0 1-.217.898l-4.3 2.614a.653.653 0 0 1-.897-.216ZM66.93 364.124l-4.371-.394a.65.65 0 0 0-.708.591l-.453 5.012a.653.653 0 0 0 .59.709l4.37.394a.651.651 0 0 0 .71-.591l.452-5.012a.652.652 0 0 0-.59-.709Zm.24-8.962a.637.637 0 0 1-.875.201l-2.681-1.669a.638.638 0 0 1-.204-.876l3.41-5.47a.636.636 0 0 1 .874-.204l2.681 1.671a.634.634 0 0 1 .203.874l-3.409 5.473Z"/>
    <path fill="#EB9124" d="M69.05 355.115a6.944 6.944 0 0 1-8.099.551 6.941 6.941 0 0 1 7.34-11.781 6.942 6.942 0 0 1 3.077 7.515l1.454.906c1.12-3.633-.287-7.712-3.662-9.817-4.017-2.501-9.321-1.27-11.824 2.747-2.503 4.018-1.27 9.322 2.746 11.826 3.375 2.102 7.657 1.566 10.425-1.041l-1.457-.906Z"/>
    <path fill="#EB9124" d="M72.66 355.319c.398-.638.817-1.255 1.257-1.851l-3.87-2.41-1.882 3.023 3.82 2.38c.215-.384.44-.763.675-1.142Zm25.061 13.202a2.033 2.033 0 1 1-2.15 3.452 2.033 2.033 0 0 1 2.15-3.452Z"/>
    <path fill="#EB9124" d="m88.795 355.432 8.48 14.472a.767.767 0 0 1-.272 1.049.768.768 0 0 1-1.047-.273c-.034-.06.288.617-7.16-15.248Z"/>
    <path fill="#EB9124" d="m113.418 368.494-16.582 2.528a.764.764 0 1 1-.23-1.512c.065-.01-.681.04 16.812-1.016Z"/>
    <path fill="#EB9124" d="M97.085 369.542a.832.832 0 0 1-.878 1.411.832.832 0 0 1 .878-1.411Z"/>
    <path fill="#fff" fill-opacity=".55" d="M133.271 286.196c-11.036 4.262-16.522 16.659-12.266 27.694 4.26 11.031 16.663 16.522 27.694 12.261 11.032-4.261 16.523-16.659 12.262-27.693-4.26-11.032-16.659-16.523-27.69-12.262Zm3.009 7.806c-6.721 2.596-10.063 10.151-7.469 16.872 2.597 6.721 10.15 10.066 16.875 7.47 6.721-2.595 10.067-10.149 7.465-16.871-2.594-6.721-10.15-10.066-16.871-7.471Zm27.62-7.954c.44.358 1.051.432 1.567.194 2.527-1.172 7.511-.924 10.025-.498l4.776 12.359c-1.579 2.004-5.1 5.54-7.76 6.372-.54.168-.94.633-1.027 1.195l-1.613 10.289a1.499 1.499 0 0 0 .62 1.453c2.278 1.604 4.555 6.043 5.445 8.435l-8.317 10.312c-2.523-.365-7.349-1.647-9.398-3.532a1.496 1.496 0 0 0-1.551-.297l-9.713 3.754a1.484 1.484 0 0 0-.948 1.26c-.253 2.773-2.959 6.966-4.585 8.932l-13.092-2.046c-.944-2.367-2.245-7.187-1.634-9.905a1.503 1.503 0 0 0-.524-1.488l-8.105-6.537a1.492 1.492 0 0 0-1.567-.194c-2.527 1.172-7.511.923-10.029.497l-4.772-12.359c1.579-2.004 5.1-5.539 7.76-6.372.54-.168.939-.633 1.027-1.195l1.608-10.288a1.485 1.485 0 0 0-.611-1.454c-2.282-1.604-4.555-6.043-5.449-8.435l8.317-10.312c2.527.362 7.349 1.647 9.398 3.532.42.384 1.023.501 1.55.294l9.714-3.752c.528-.203.898-.69.948-1.259.253-2.773 2.963-6.966 4.584-8.932l13.089 2.046c.952 2.367 2.249 7.187 1.642 9.905a1.484 1.484 0 0 0 .52 1.488l8.105 6.538Z"/>
    <path fill="#fff" fill-opacity=".3" d="M137.04 473.475c-8.782-2.683-18.075 2.257-20.762 11.038-2.683 8.778 2.259 18.073 11.04 20.756 8.782 2.686 18.072-2.257 20.759-11.035 2.683-8.781-2.259-18.076-11.037-20.759Zm-1.901 6.213c-5.347-1.637-11.012 1.374-12.646 6.723-1.633 5.349 1.376 11.011 6.726 12.647 5.347 1.635 11.009-1.376 12.643-6.725 1.637-5.349-1.373-11.011-6.723-12.645Zm20.679 8.374c.1.431.433.768.865.869 2.104.497 5.028 3.038 6.363 4.5l-3.01 9.837c-1.922.467-5.769.938-7.79.172a1.164 1.164 0 0 0-1.201.236l-5.913 5.515c-.322.3-.446.76-.319 1.181.621 2.07-.117 5.876-.717 7.762l-10.021 2.314c-1.366-1.433-3.699-4.528-4.046-6.662a1.161 1.161 0 0 0-.806-.923l-7.728-2.363a1.159 1.159 0 0 0-1.184.313c-1.483 1.575-5.148 2.838-7.08 3.261l-7.014-7.522c.556-1.901 2.069-5.465 3.744-6.836.343-.278.494-.729.398-1.157l-1.822-7.877a1.155 1.155 0 0 0-.862-.867c-2.107-.497-5.031-3.038-6.366-4.502l3.01-9.834c1.925-.471 5.769-.941 7.793-.175.412.155.879.064 1.198-.237l5.913-5.511c.322-.303.449-.761.322-1.184-.624-2.07.114-5.873.714-7.762l10.021-2.311c1.369 1.43 3.699 4.527 4.049 6.661.072.436.384.793.803.921l7.732 2.365c.422.128.878.005 1.184-.315 1.482-1.575 5.144-2.838 7.079-3.259l7.015 7.52c-.556 1.901-2.073 5.465-3.748 6.836a1.16 1.16 0 0 0-.394 1.157l1.818 7.877Z"/>
    <path fill="#fff" fill-opacity=".52" d="M427.238 340.026c-5.808 11.053-1.559 24.721 9.495 30.528 11.052 5.809 24.722 1.558 30.53-9.495 5.809-11.053 1.555-24.722-9.495-30.529-11.054-5.808-24.723-1.557-30.53 9.496Zm7.818 4.109c-3.539 6.733-.947 15.061 5.786 18.6 6.735 3.539 15.062.948 18.601-5.786 3.537-6.734.947-15.061-5.786-18.599-6.733-3.539-15.061-.949-18.601 5.785Zm16.427-25.511a1.578 1.578 0 0 0 1.376-.934c1.196-2.687 5.332-5.953 7.626-7.363l12.379 6.505c.14 2.689-.204 7.947-1.741 10.457a1.585 1.585 0 0 0 .014 1.665l5.872 9.295c.319.505.902.787 1.498.724 2.925-.307 7.82 1.641 10.189 2.922l.556 13.974c-2.26 1.466-6.986 3.797-9.927 3.723a1.578 1.578 0 0 0-1.435.843l-5.112 9.732c-.28.53-.233 1.174.12 1.66 1.729 2.379 2.488 7.594 2.563 10.285l-11.823 7.469c-2.398-1.224-6.781-4.151-8.186-6.735a1.575 1.575 0 0 0-1.449-.821l-10.984.435a1.585 1.585 0 0 0-1.379.935c-1.196 2.688-5.329 5.952-7.623 7.364l-12.381-6.505c-.138-2.69.205-7.948 1.738-10.457a1.58 1.58 0 0 0-.009-1.665l-5.872-9.295a1.579 1.579 0 0 0-1.499-.726c-2.924.307-7.82-1.641-10.188-2.922l-.559-13.975c2.26-1.465 6.986-3.794 9.927-3.721a1.577 1.577 0 0 0 1.435-.842l5.115-9.732a1.58 1.58 0 0 0-.12-1.66c-1.729-2.381-2.491-7.594-2.565-10.285l11.825-7.469c2.398 1.224 6.78 4.151 8.186 6.733.285.527.847.846 1.446.823l10.987-.437Z"/>
    <path fill="#fff" d="m252.867 172.792-4.812-.711-.761-6.578-7.027-1.764-1.519-4.973-2.891.241 2.032 6.654 6.659 1.671.792 6.844 7.242 1.071.285-2.455Zm230.843 81.985-5.725 1.012-3.122-4.877 1.178-.756 2.62 4.09 5.896-1.043 2.668 6.168 3.825-1.174.301 1.374-4.919 1.509-2.722-6.303ZM93.964 433.286l-1.091-5.711 4.833-3.193.772 1.17-4.053 2.678 1.124 5.881-6.131 2.749 1.226 3.811-1.37.317-1.576-4.893 6.266-2.809Zm194.47-299.168-2.944-6.961-7.404-1.523a1.04 1.04 0 0 1-.473-1.802l5.715-4.953-.843-7.512c-.094-.856.833-1.45 1.568-1.006l6.474 3.903 6.887-3.123a1.04 1.04 0 0 1 1.442 1.182l-1.712 7.365 5.095 5.584c.583.635.181 1.66-.675 1.733l-7.533.649-3.735 6.574c-.425.748-1.526.683-1.862-.11Zm157.898 48.791 4.167-1.063.771-5.294 6.019-.534.076-3.557.928.098-.093 4.313-6.115.54-.754 5.182-4.768 1.217-.231-.902Zm-66.781-36.238-4.5 1.161-2.2-5.679-4.549 1.909-1.969-5.711-4.179.167-1.776-4.286-2.627.779-.266-1.336 3.495-1.037 1.856 4.477 4.239-.167 1.857 5.395 4.507-1.89 2.253 5.809 4.359-1.125 2.546 4.505-.927.779-2.119-3.75ZM78.322 305.437l2.497.62-.039 2.937 2.729 1.314-.288 3.417 3.367.51-.15 3.763 3.067.857.39 3.183-.799.096-.325-2.649-3.164-.883.147-3.678-3.4-.515.305-3.616-2.692-1.297.038-2.811-1.876-.465.193-.783Z"/>
    <path fill="#466EB6" d="M434.009 496.867H164.352c-12.922 0-23.398-10.476-23.398-23.397V278.743c0-12.923 10.476-23.398 23.398-23.398h269.657c12.926 0 23.401 10.475 23.401 23.398V473.47c0 12.921-10.475 23.397-23.401 23.397Z"/>
    <path fill="#184655" d="M439.99 475.537H160.215c-6.812 0-12.333-5.182-12.333-11.572V272.581c0-6.391 5.521-11.574 12.333-11.574H439.99c6.81 0 12.333 5.183 12.333 11.574v191.384c0 6.39-5.523 11.572-12.333 11.572Z"/>
    <path fill="#355389" d="M140.954 482.317v8.197c0 3.51 7.54 6.353 16.841 6.353h323.411c9.301 0 16.842-2.843 16.842-6.353v-8.197H140.954Z"/>
    <path fill="#CBCBCB" d="M441.43 465.014H160.251V268.392H441.43v196.622Z"/>
    <path fill="#fff" d="M140.468 169.106c-22.961 9.251-23.048 42.118-.102 51.684 4.121 1.718 7.431 4.945 9.425 8.941l6.86 13.748a8.121 8.121 0 0 0 10.302 3.906l8.698-3.505a8.121 8.121 0 0 0 4.716-9.957c-4.612-14.745-7.38-19.848-3.994-27.642 9.904-22.797-12.939-46.428-35.905-37.175Z"/>
    <path fill="#FAE0B2" d="M157.868 187.095c-.363 1.876.409 3.998 1.143 6.474 1.703-1.546 3.66-3.443 3.939-5.642.196-1.543-.834-3.431-2.371-3.478-.165-.005-2.456 1.332-2.711 2.646Zm-20.032 14.169c1.507 1.037 3.669 1.157 6.607.357-1.001-2.072-2.201-3.869-4.018-4.93-4.098-2.393-5.116 2.833-2.589 4.573Zm18.417 30.904c-4.43-12.528-9.646-25.631-11.249-29.318-13.496 3.808-11.522-11.757-3.908-7.309 2.171 1.265 3.526 3.341 4.64 5.696a36.206 36.206 0 0 0 12.17-6.705c-.927-3.124-1.777-5.46-1.345-7.69.652-3.368 4.354-5.071 6.605-2.435.845.99 1.269 2.403 1.106 3.688-.348 2.742-2.733 5.036-4.842 6.887a600.605 600.605 0 0 0 9.831 30.039l-1.255.448a603.804 603.804 0 0 1-9.687-29.551 37.48 37.48 0 0 1-12.033 6.54c2.036 4.719 7.064 17.505 11.222 29.264l-1.255.446Z"/>
    <path fill="#466EB6" d="M149.605 229.396c.059.113.128.221.186.335l6.86 13.748a8.121 8.121 0 0 0 10.302 3.906l8.698-3.505a8.121 8.121 0 0 0 4.716-9.957c-2.051-6.558-3.736-11.208-4.679-15.036l-26.083 10.509Z"/>
    <path fill="#EB9124" d="m120.369 162.189-10.037-11.42a2.664 2.664 0 0 1 4.003-3.518l10.036 11.417a2.666 2.666 0 0 1-4.002 3.521Zm-8.546 34.955-15.841 2.114a2.663 2.663 0 1 1-.705-5.28l15.841-2.114a2.664 2.664 0 1 1 .705 5.28Zm-4.758 51.081a2.665 2.665 0 0 1-.8-3.683 87.094 87.094 0 0 1 10.208-12.973 2.664 2.664 0 1 1 3.856 3.678 81.635 81.635 0 0 0-9.582 12.178 2.665 2.665 0 0 1-3.682.8Zm51.536-95.322a2.663 2.663 0 0 1-2.552-2.772c.288-6.98-.152-14.014-1.308-20.903a2.664 2.664 0 1 1 5.255-.882 106.612 106.612 0 0 1 1.376 22.005 2.664 2.664 0 0 1-2.771 2.552Zm20.466 16.397a2.664 2.664 0 0 1 1.015-3.628l15.065-8.48a2.663 2.663 0 1 1 2.614 4.642l-15.065 8.481a2.667 2.667 0 0 1-3.629-1.015Zm36.144 37.05a2.607 2.607 0 0 1-.726.059 83.586 83.586 0 0 1-17.625-2.868 2.664 2.664 0 0 1 1.413-5.137 78.423 78.423 0 0 0 16.5 2.686 2.666 2.666 0 0 1 .438 5.26Z"/>
    <path fill="#fff" d="m486.889 305.062-2.949-2.582-3.798.966a.54.54 0 0 1-.627-.734l1.544-3.603-2.093-3.314a.54.54 0 0 1 .506-.824l3.903.356 2.504-3.014a.54.54 0 0 1 .942.225l.867 3.822 3.638 1.452a.538.538 0 0 1 .078.963l-3.364 2.007-.256 3.911a.54.54 0 0 1-.895.369ZM215.505 135.506l-2.948-2.583-3.799.968a.54.54 0 0 1-.628-.737l1.545-3.6-2.092-3.314a.539.539 0 0 1 .504-.825l3.903.356 2.506-3.014a.538.538 0 0 1 .939.226l.868 3.821 3.641 1.452a.539.539 0 0 1 .076.963l-3.367 2.006-.256 3.912a.538.538 0 0 1-.892.369Zm64.218 77.14-3.513-3.077-4.526 1.152a.642.642 0 0 1-.748-.876l1.84-4.291-2.492-3.951a.64.64 0 0 1 .601-.979l4.65.423 2.986-3.592a.642.642 0 0 1 1.119.269l1.034 4.554 4.338 1.728a.643.643 0 0 1 .09 1.149l-4.011 2.391-.305 4.659a.642.642 0 0 1-1.063.441Z"/>
    <path fill="#F8A492" d="M345.988 278.312c2.521-1.715 6.642-3.847 6.447-6.127-.194-2.279-5.671-7.951-5.671-7.951-3.88 2.474-6.886 9.502-6.886 9.502l6.11 4.576Z"/>
    <path fill="#233F75" d="M302.208 465.053h-23.961l.92-3.98-6.53-29.094-9.244-57.509 29.321-8.396 7.754 20.089s5.061 47.938 2.114 76.638a22.671 22.671 0 0 1-.374 2.252Z"/>
    <path fill="#2B549E" d="m244.363 465.053 1.421-4.022 2.867-71.542 6.653-22.367 33.656.69.925 17.753-17.019 79.488h-28.503Z"/>
    <path fill="#fff" d="m285.612 286.65 34.125 19.715 19.991-34.623 8.313 6.57s-12.059 46.094-18.236 49.966c-7.864 4.928-36.678-5.726-36.678-5.726l-7.515-35.902Z"/>
    <path fill="#ABAFB8" d="M258.98 285.072s-11.27 1.425-13.901 3.358c-2.964 2.176-12.142 12.327-12.142 12.327s19.103 54.72 18.362 64.455c-.738 9.736-2.833 24.154-2.833 24.154s37.094 2.341 51.143-3.203c0 0-4.436-22.061-4.436-27.853 0-5.792-6.521-62.892-8.296-65.925-1.772-3.032-13.337-7.648-13.337-7.648l-14.56.335Z"/>
    <path fill="#fff" d="M309.906 432.282c.238-1.165-7.621-56.374-7.782-58.331-1.59-19.447-8.876-78.555-15.712-86.77-.822-.763-2.858-1.4-5.091-1.676-3.749-.458-7.781-.768-7.781-.768s4.771 3.771 5.908 5.381c5.096 7.208 7.176 15.567 8.301 24.478 3.261 25.843 6.228 120.081 7.384 120.499 1.295.465 14.246-.234 14.773-2.813Z"/>
    <path fill="#643438" d="M261.756 234.983s-6.789-4.589-9.659 3.451c.022-.064-2.398-.042-2.725.069-1.396.473-2.745 1.927-3.99 2.725-4.434 2.838-6.478 8.352-6.719 13.416-.293 6.146 2.247 10.639 6.288 15.077 1.191 1.31 2.464 2.585 4.025 3.422 1.88 1.007 3.367.207 5.135.635 1.489.362 2.013 1.932 3.768 1.366 2.462-.795 5.047-3.877 8.097-3.422 3.05.456 10.087-2.286 10.105-2.294 9.044-3.525 2.936-21.024 1.203-27.238-1.629-5.839-9.935-9.319-15.528-7.207Z"/>
    <path fill="#F7A491" d="m269.924 274.748 2.351 6.407 1.265 3.582s.086 6.41-1.408 8.072c-2.572 2.858-13.152-7.737-13.152-7.737l-3.353-20.158 14.297 9.834Z"/>
    <path fill="#F47458" d="M256.715 271.447c4.025 6.24 10.957 9.091 15.582 9.767l-2.373-6.466-14.297-9.834 1.088 6.533Z"/>
    <path fill="#F7A491" d="M258.377 244.209c5.386-3.296 12.458-.795 14.673 5.019a76.46 76.46 0 0 1 2.9 9.312c2.065 8.606-.551 18.002-4.475 18.866-3.921.867-16.001-2.331-19.1-14.509-1.915-7.517.347-15.232 6.002-18.688Z"/>
    <path fill="#F7A491" d="M255.479 263.23c.421 1.905-.502 3.729-2.06 4.074-1.558.344-3.163-.923-3.584-2.829-.421-1.905.502-3.729 2.06-4.074 1.558-.344 3.163.923 3.584 2.829Z"/>
    <path fill="#fff" d="M258.98 285.072s-16.478 1.624-20.668 4.377c-2.664 1.752-.579 21.268-.579 21.268s3.771 29.483 3.248 44.376a141.2 141.2 0 0 1-.214 4.246c-1.464 22.415-13.444 76.086-12.401 77.034 6.748 3.766 43.572 3.613 43.998.635 3.601-25.219-13.384-151.936-13.384-151.936Z"/>
    <path fill="#D5DCE8" d="M241.013 353.889c-.008.411-.019.812-.032 1.204-.05 1.42-.121 2.811-.209 4.177l22.424-10.447-22.183 5.066Z"/>
    <path fill="#F8A492" d="M287.362 332.323c-.765.352-2.018.967-2.853 1.528-.903.606-1.922.882-2.757 1.278-1.654.79-2.853 1.383-2.846 1.3.008-.109-.425-.18.399-.749.992-.684 3.414-1.686 4.798-2.804.785-.632 2.503-1.858 2.503-1.858s2.26-2.321 2.169-2.494c-.485-.933-2.469.237-3.424 1.229-.931.334-2.7 1.674-2.7 1.674s-4.178 1.932-4.449 1.358c-.113-.243 2.312-1.725 4.471-3.542 2.003-1.689 3.759-3.71 3.49-4.14-.45-.734-2.872.91-2.872.91s-1.635 1.239-2.211 1.61c-.672.436-2.784 1.591-2.784 1.591s-7.533 3.69-7.739 3.126c-.21-.564-.151-2.24.241-2.624.391-.387 1.401-.825 1.863-1.12.606-.387 1.536-1.366 1.108-1.864-.431-.497-3.985.827-3.985.827s-2.103.968-3.045 2.255c-3.269 4.466-2.403 4.808-2.836 5.369-.515.665-11.087 4.524-11.087 4.524s-31.741 7.875-33.441 8.444l4.221 12.803c1.955-.274 37.478-14.504 41.082-16.19 0 0 5.01-.468 8.148-.862 3.136-.396 5.975-2.144 6.844-2.39.13-.035 2.983-1.017 6.195-3.139 2.77-1.829-.669-1.322-.669-1.322s-5.723 2.496-5.832 2.021c-.083-.364 3.117-1.548 6.201-3.542a195.36 195.36 0 0 0 2.289-1.494c1.874-1.238 1.669-2.708-.492-1.713Z"/>
    <path fill="#fff" d="M239.713 288.781s-5.337.734-9.94 7.341c-4.603 6.602-14.753 35.081-17.924 45.978-3.203 11.009-1.578 17.123 5.627 18.923 7.205 1.802 45.72-12.2 45.72-12.2l-3.603-13.209s-25.516 5.644-26.418 5.204l8.006-13.81s6.271-22.349-1.468-38.227Z"/>
    <path fill="#643438" d="M267.736 266.238s-5.17 1.689-5.593 3.587c-.421 1.9.212 4.642 2.745 6.754 2.533 2.11 7.948.808 9.425-.352 1.477-1.162 2.602-6.085 1.125-8.83-1.477-2.742-7.702-1.159-7.702-1.159Z"/>
    <path fill="#F7A491" d="M266.047 270.211s.032 2.117.738 2.499c.687.369 1.554.679 2.359.755 1.299.123 2.474-.43 3.158-1.435.069-.098.13-.199.182-.305.527-1.056.633-2.92.633-2.92s-2.181-.529-3.446-.317c-1.266.212-3.624 1.723-3.624 1.723Z"/>
  </g>
  <path fill="#373D43" d="M420.205 294.514v-45.741c0-.389-.158-.769-.432-1.043a1.487 1.487 0 0 0-1.042-.432h-30.466v2.949h28.991v44.267h2.949Z"/>
  <g filter="url(#d)">
    <path fill="#373D43" d="M328.01 194.134s9.893 26.816 14.579 42.957c4.686 16.142 7.55 46.342 7.55 49.986v13.279s17.702-7.03 43.735-6.248c26.033.78 56.753 3.905 56.753 3.905l-4.687-43.478-9.111-40.094-8.07-38.792s-80.182 16.923-100.749 18.485Z"/>
  </g>
  <path fill="#373D43" d="m328.01 194.134-.46.171s.154.417.433 1.182c1.956 5.348 10.042 27.646 14.134 41.741 2.33 8.021 4.217 19.597 5.517 29.606a398.71 398.71 0 0 1 1.495 13.212c.341 3.586.519 6.167.518 7.031v13.279c0 .163.081.315.215.407.135.091.307.11.458.05l.176-.068c1.795-.679 17.1-6.208 39.337-6.207 1.319 0 2.661.02 4.026.06 13.004.39 27.186 1.366 38.114 2.245a1056.864 1056.864 0 0 1 17.235 1.522l1.368.136a.49.49 0 0 0 .539-.542l-4.686-43.477-.01-.056-9.11-40.09-8.069-38.787a.492.492 0 0 0-.582-.38c-.004 0-1.253.264-3.485.73-7.812 1.63-27.628 5.726-47.736 9.586-20.102 3.858-40.524 7.481-49.464 8.159a.49.49 0 0 0-.423.661l.46-.171.038.49c10.345-.787 35.516-5.408 58.144-9.836 22.619-4.427 42.668-8.658 42.668-8.658l-.101-.481-.481.101 8.071 38.791.001.009 9.104 40.065 4.684 43.45.489-.052.05-.49c-.007 0-30.73-3.125-56.788-3.907a136.189 136.189 0 0 0-4.056-.061c-23.894.001-39.837 6.329-39.875 6.344l.181.457h.491v-13.279c-.001-.957-.181-3.517-.523-7.124-1.028-10.808-3.513-30.822-7.045-42.998-4.697-16.173-14.589-42.985-14.591-42.991l-.461.17Z"/>
  <path fill="#777F8C" d="M429.143 290.057a510.629 510.629 0 0 0-7.082-.798c.162-.702.448-2.225.448-4.236 0-2.762-.541-6.457-2.703-10.185-2.161-3.73-5.942-7.473-12.339-10.339-5.859-2.625-10.167-4.172-13.565-4.888l-.197-1.572c1.411.174 2.877.281 4.24.283 1.518-.002 2.901-.131 3.965-.482.532-.177.991-.411 1.343-.749.352-.333.578-.803.573-1.317l-.001-.129c3.452 1.8 8.224 4.554 9.829 6.766.556 1.448.81 2.487.814 2.502l-.001-.003a1.474 1.474 0 0 0 1.433 1.132h.03l.028-.003.228-.028.025-.003c1.117 1.259 2.257 2.119 3.148 2.119.475 0 .88-.245 1.172-.804.768-1.47.437-9.227.042-17.386a1.47 1.47 0 0 0 .115-2.198 11.92 11.92 0 0 0-.233-.225 592.673 592.673 0 0 1-.353-8.093c.266.207.588.312.908.312h.004c.364 0 .735-.136 1.019-.41v.001a1.474 1.474 0 0 0 .043-2.084 29.862 29.862 0 0 0-2.07-1.917 104.121 104.121 0 0 0-.227-5.599c.39-.011.779-.179 1.06-.494h-.001a1.474 1.474 0 0 0-.121-2.081 21.732 21.732 0 0 0-1.255-1.016c-.278-2.542-.687-5.176-1.28-7.736l.022.001h.002c.551 0 1.08-.315 1.33-.846l-.001.001c.097-.203.143-.419.143-.63a1.478 1.478 0 0 0-.842-1.332l-.001-.001a23.593 23.593 0 0 0-1.587-.644c-.704-2.239-1.581-4.354-2.673-6.221.125.032.252.048.377.048h.001a1.474 1.474 0 0 0 .449-2.878c-.031-.01-.319-.099-.809-.222a58.382 58.382 0 0 1 3.045-.946c4.364-1.233 8.644-1.911 11.348-1.911h.01c.47 0 .889-.22 1.158-.562l5.647 28.237-10.005 2.001 3.347 57.565Zm-62.199-.006c-.585-2.447-3.389-14.141-4.595-18.364-1.349-4.717-8.728-28.2-8.729-28.204l-.104-.326-6.131-.305-7.089-31.151c1.159-.5 4.818-2.099 8.711-4.046 2.358-1.18 4.801-2.485 6.837-3.757 2.037-1.28 3.658-2.489 4.427-3.626 2.157-3.235 2.634-5.653 2.738-6.577l13.213-2.642c.358 2.07 2.151 12.37 3.296 17.774.331 1.563.697 3.516 1.086 5.76-.467-.033-1.12-.081-1.916-.148-.886-1.359-4.57-6.486-9.71-6.486-1.742 0-3.652.589-5.677 2.114a11.522 11.522 0 0 0-1.755 1.641 40.492 40.492 0 0 1-1.25-.364c-2.346-.722-4.514-.994-6.446-.994-5.696.001-9.326 2.356-9.571 2.519h-.001a1.471 1.471 0 0 0-.408 2.044c.283.424.75.656 1.224.656h.004c.28 0 .565-.081.815-.246l.032-.021c.354-.22 3.362-1.995 7.932-1.995h.006c1.657.001 3.52.232 5.546.855l.367.111c-.066.126-.133.256-.197.383-1.088.455-1.745.81-1.792.834l.003-.001a1.472 1.472 0 0 0-.582 2.002v-.001c.223.406.61.665 1.031.742-.579 2.113-.898 4.422-1.027 6.808-.571.365-.897.6-.93.623l.001-.001-.001.001a1.47 1.47 0 0 0-.311 2.061v.001c.287.387.73.596 1.177.599.033 2.613.249 5.256.565 7.783-.625.697-.991 1.174-1.058 1.261a1.473 1.473 0 0 0 1.171 2.365h.004c.134 0 .269-.018.4-.055.307 1.876.65 3.634.987 5.208-1.165 1.429-1.863 2.502-1.957 2.646v-.001a1.464 1.464 0 0 0-.233.797 1.472 1.472 0 0 0 1.471 1.475h.004c.482 0 .957-.24 1.237-.676l.001-.001c.004-.006.103-.158.287-.42.479 2.372.974 5.013 1.472 7.7a22.17 22.17 0 0 0-.863 1.162 1.479 1.479 0 0 0 .389 2.048l.001.001c.253.171.543.255.827.255h.004c.093 0 .187-.009.278-.027 1.472 7.944 2.909 15.445 3.93 16.676.307.369.632.536.966.536.939 0 1.944-1.314 2.786-3.11.068-.109.123-.229.162-.355.424-.961.802-2.036 1.098-3.113.836-3.02 6.37-8.306 9.084-10.761.408.021.829.065 1.261.135h.001l.239.02h.003c.716 0 1.332-.523 1.448-1.239v-.002l.019-.235c0-.712-.514-1.336-1.238-1.455a19.254 19.254 0 0 0-.236-.037v-2.881c.183.196.364.403.543.619.29.348.711.53 1.131.53h.004c.255 0 .513-.067.744-.203.77.525 1.597.962 2.445 1.329.132 1.072.259 2.117.382 3.128-1.197.27-2.277.711-3.314 1.281-1.788.982-3.454 2.327-5.472 3.847-3.797 2.867-5.793 7.225-6.859 10.846-1.064 3.625-1.196 6.534-1.198 6.56l-.001.031.62 7.446c-1.808.275-3.112.499-3.759.613Zm14.743-60.214a70.307 70.307 0 0 0-.234-4.527c.262.167.524.345.783.533-.084.597-.292 2.068-.549 3.994Zm.147-7.719a18.051 18.051 0 0 0-.834-.419 33.644 33.644 0 0 0-.426-2.119 1.46 1.46 0 0 0 .227-.787 1.463 1.463 0 0 0-.315-.91h.001a14.126 14.126 0 0 0-.3-.369c.429.029.742.049.921.058.237 1.438.479 2.96.726 4.546Zm9.561-3.521a14.276 14.276 0 0 0-1.45-1.027 10.554 10.554 0 0 0-1.249-.658h.053l.026-.002.207-.022.025-.003.027-.006a46.36 46.36 0 0 0 2.74-.703c.006.646.034 1.299.08 1.955-.155.151-.308.306-.459.466Zm-3.64-4.27-2.935-15.631-1.044-9.154 11.983-2.397 1.301 4.555 32.191 6.036.464 2.318a1.469 1.469 0 0 0-.719-.186c-2.983.002-7.512.728-12.168 2.042a59.006 59.006 0 0 0-6.176 2.106 12.29 12.29 0 0 0-3.266-1.902c-1.536-.596-2.938-.853-4.214-.853-7.74 0-10.818 9.433-10.818 9.433a18.73 18.73 0 0 0-.424 2.35c-2.084.64-3.493.95-3.517.953h.002a1.462 1.462 0 0 0-.66.33Z"/>
  <path fill="#777F8C" d="m366.205 291.187-.109-.456c0-.002-.209-.88-.544-2.275-.337-1.394-.797-3.303-1.301-5.357-1.006-4.108-2.181-8.809-2.848-11.141-1.001-3.508-5.408-17.612-7.547-24.437l-1.072-3.417-6.192-.308-7.437-32.678.38-.16c.001-.001.609-.259 1.62-.706a188.615 188.615 0 0 0 4.026-1.835c3.198-1.505 7.153-3.484 10.142-5.352 1.99-1.237 3.557-2.461 4.13-3.339 2.464-3.696 2.594-6.193 2.603-6.424v-.418l34.399-6.88 1.384 4.842 32.246 6.047 6.872 34.369-10.13 2.026 3.366 57.89-.586-.073c-.004-.001-1.384-.173-3.675-.433-2.29-.26-5.487-.607-9.107-.953-7.241-.692-16.185-1.384-22.962-1.384-1.355 0-2.623.027-3.771.088-7.665.403-14.608 1.294-18.909 1.937l.156-.035c.001 0 .135-.032.41-.088 1.924-.391 10.548-1.976 24.084-1.976h.002c7.218 0 15.835.451 25.58 1.773l.417.057.12-.403c.003-.009.047-.158.109-.429 3.403.36 5.981.666 7.082.798l-3.347-57.565 10.005-2.001-5.647-28.237a1.477 1.477 0 0 0-.439-2.2l-.464-2.318-32.191-6.036-1.301-4.555-11.983 2.397-.093-.818-7.606 1.487.082.474s.021.13.063.368l-13.213 2.642c-.104.924-.581 3.342-2.738 6.577-.769 1.137-2.39 2.346-4.427 3.626-2.036 1.272-4.479 2.577-6.837 3.757a180.304 180.304 0 0 1-8.711 4.046l7.089 31.151 6.131.305.104.326c.001.004 7.38 23.487 8.729 28.204 1.206 4.223 4.01 15.917 4.595 18.364.647-.114 1.951-.338 3.759-.613l.082.982c-.88.134-1.637.255-2.254.357-1.202.198-1.864.323-1.866.323l-.46.087Z"/>
  <path fill="#373D43" d="M378.894 214.766s-6.682-11.41-15.593-4.699c-8.91 6.713-6.126 25.508-3.899 35.577 2.228 10.068 5.012 28.863 6.683 30.877 1.671 2.014 3.899-2.014 5.012-6.042 1.115-4.026 10.581-12.082 10.581-12.082v-20.808c0-6.042.557-16.11-2.784-22.823Z"/>
  <path fill="#ABAFB8" d="M357.165 227.34a.49.49 0 0 1-.479-.491.493.493 0 0 1 .199-.396h.001c.007-.006.109-.081.297-.209-.01.364-.016.73-.018 1.096Zm25.05-2.707a16.563 16.563 0 0 0-.883-.545 43.817 43.817 0 0 0-.15-1.202c.282.146.564.302.844.468l.187 1.23.002.049Z"/>
  <path fill="#777F8C" d="m357.178 227.341-.013-.001c.002-.366.008-.731.018-1.096 1.481-1.004 8.282-5.288 15.822-5.288h.032c2.684.002 5.456.532 8.145 1.93.056.399.105.801.15 1.203-2.731-1.567-5.596-2.159-8.335-2.159h-.011c-8.232.014-15.371 5.217-15.517 5.315a.495.495 0 0 1-.291.096Z"/>
  <path fill="#ABAFB8" d="M357.168 228.324a1.479 1.479 0 0 1-1.177-.599v-.001a1.47 1.47 0 0 1 .311-2.061c.033-.023.359-.258.93-.623-.021.4-.037.801-.049 1.204-.188.128-.29.203-.297.209h-.001a.493.493 0 0 0 .28.887c-.001.327 0 .654.003.984Zm25.068-2.481a15.703 15.703 0 0 0-.783-.533 61.513 61.513 0 0 0-.121-1.221c.296.17.591.35.883.544.013.313.031.636.056.971l-.035.239Zm-.21-2.489a16.82 16.82 0 0 0-.844-.468 35.328 35.328 0 0 0-.182-1.187c.279.131.557.271.834.419l.192 1.236Z"/>
  <path fill="#777F8C" d="M357.176 228.324h-.008a64.67 64.67 0 0 1-.003-.984.057.057 0 0 0 .013.001v.983h-.002Zm.004 0h-.002v-.983a.489.489 0 0 0 .291-.097c.146-.097 7.285-5.3 15.517-5.314h.011c2.739 0 5.604.592 8.335 2.159.045.406.084.813.121 1.221-2.754-1.752-5.655-2.395-8.467-2.397h-.032c-7.799 0-14.849 5.073-14.901 5.123-.261.192-.57.288-.873.288Z"/>
  <path fill="#ABAFB8" d="m356.302 225.663.001-.002-.001.002Z"/>
  <path fill="#777F8C" d="M357.183 226.244c.012-.403.028-.804.049-1.204 2.315-1.475 8.651-5.055 15.805-5.067h.011c2.6 0 5.311.485 7.952 1.726.067.393.128.789.182 1.187-2.689-1.398-5.461-1.928-8.145-1.93h-.032c-7.54 0-14.341 4.283-15.822 5.288Z"/>
  <path fill="#ABAFB8" d="M357.848 238.75a.491.491 0 0 1-.391-.787c.034-.044.187-.244.448-.554.059.43.122.856.187 1.278a.496.496 0 0 1-.244.063Z"/>
  <path fill="#777F8C" d="M358.092 238.687a78.377 78.377 0 0 1-.187-1.278 30.323 30.323 0 0 1 3.979-3.917c2.645-2.16 6.266-4.302 10.278-4.517.227-.013.452-.018.677-.018 3.012.002 5.857 1.108 8.523 3.351l-.15 1.173c-2.587-2.333-5.417-3.54-8.399-3.54h-.009c-.192 0-.386.005-.58.015h-.001c-3.887.214-7.35 2.362-9.861 4.436-2.513 2.08-4.073 4.102-4.123 4.166l.001-.001a.505.505 0 0 1-.148.13Z"/>
  <path fill="#ABAFB8" d="M357.85 239.733h-.002v-.982c.085 0 .17-.022.244-.064.051.333.103.664.158.991a1.473 1.473 0 0 1-.4.055Zm-.004 0a1.473 1.473 0 0 1-1.171-2.365c.067-.087.434-.564 1.058-1.261.054.437.112.871.172 1.302-.261.311-.414.51-.448.554a.491.491 0 0 0 .391.788v.982h-.002Z"/>
  <path fill="#777F8C" d="M358.249 239.678a86.003 86.003 0 0 1-.157-.991.505.505 0 0 0 .148-.13l-.001.001c.05-.064 1.61-2.086 4.123-4.166 2.511-2.074 5.974-4.222 9.861-4.436h.001c.194-.01.388-.015.58-.015h.009c2.982 0 5.812 1.207 8.399 3.54l-.116.931-.034.276c-2.602-2.531-5.357-3.762-8.258-3.764-.176 0-.352.004-.529.014h.001c-3.546.185-6.863 2.201-9.288 4.211-2.423 2.004-3.955 3.988-3.966 4.004l-.001.001a1.468 1.468 0 0 1-.772.524Zm-.345-2.269c-.059-.43-.117-.865-.172-1.302a31.618 31.618 0 0 1 3.531-3.376c2.735-2.228 6.512-4.498 10.846-4.738.243-.012.487-.019.73-.019h.01c3.074 0 5.987 1.085 8.662 3.187l-.149 1.147c-2.666-2.243-5.511-3.349-8.523-3.351-.225 0-.45.006-.677.018-4.012.215-7.633 2.357-10.278 4.517a30.412 30.412 0 0 0-3.98 3.917Z"/>
  <path fill="#ABAFB8" d="M358.519 248.821a.49.49 0 0 1-.412-.757v-.001c.065-.101.562-.864 1.4-1.939.09.413.181.839.272 1.276a22.691 22.691 0 0 0-.845 1.195.493.493 0 0 1-.415.226Z"/>
  <path fill="#777F8C" d="M359.779 247.4a133.98 133.98 0 0 0-.272-1.276 34.624 34.624 0 0 1 3.021-3.395c2.621-2.575 6.181-5.113 9.998-5.351h.001c.209-.013.417-.019.623-.019 2.569.002 4.989 1.05 7.239 3.196-.044.428-.086.85-.126 1.263-2.16-2.273-4.569-3.476-7.126-3.476h-.006c-.178 0-.358.005-.538.017-3.734.251-7.1 2.815-9.573 5.282a35.325 35.325 0 0 0-3.241 3.759Z"/>
  <path fill="#ABAFB8" d="M358.522 249.803h-.003v-.982a.49.49 0 0 0 .414-.226c.019-.03.318-.488.846-1.195.088.425.178.86.268 1.306-.184.262-.283.414-.287.42l-.001.001c-.28.436-.755.676-1.237.676Zm-.004 0a1.471 1.471 0 0 1-1.471-1.475 1.464 1.464 0 0 1 .233-.797v.001c.094-.144.792-1.217 1.957-2.646l.165.758c.036.157.07.318.105.48a28.613 28.613 0 0 0-1.4 1.939v.001a.49.49 0 0 0 .412.757v.982h-.001Z"/>
  <path fill="#777F8C" d="M360.047 248.706c-.09-.446-.18-.881-.268-1.306a35.325 35.325 0 0 1 3.241-3.759c2.473-2.467 5.839-5.031 9.573-5.282.18-.011.36-.017.538-.017h.006c2.557 0 4.966 1.203 7.126 3.476-.044.457-.085.903-.122 1.334-2.208-2.584-4.555-3.826-7.01-3.828a7.53 7.53 0 0 0-.474.016c-3.307.201-6.55 2.593-8.941 4.996a34.103 34.103 0 0 0-3.669 4.37Zm-.54-2.582c-.035-.162-.069-.323-.105-.48l-.165-.758a35.378 35.378 0 0 1 2.604-2.859c2.703-2.645 6.406-5.349 10.622-5.629l-.001.001c.23-.016.459-.024.688-.024h.009c2.633 0 5.113 1.017 7.359 2.967-.045.408-.087.814-.129 1.213-2.25-2.146-4.67-3.194-7.239-3.196-.206 0-.414.006-.623.019h-.001c-3.817.238-7.377 2.776-9.998 5.351a34.624 34.624 0 0 0-3.021 3.395Z"/>
  <path fill="#ABAFB8" d="M361.874 258.889a.484.484 0 0 1-.275-.085h.001a.487.487 0 0 1-.131-.683c.026-.038.125-.183.291-.41l.216 1.167a.498.498 0 0 1-.102.011Z"/>
  <path fill="#777F8C" d="m361.976 258.878-.216-1.167a30.773 30.773 0 0 1 3.81-4.253c2.434-2.246 5.738-4.447 9.288-4.614h.001c.161-.008.32-.012.478-.012 1.782.002 3.474.511 5.083 1.543a8.499 8.499 0 0 0 1.059 2.064c-1.894-1.72-3.974-2.623-6.17-2.623h-.005c-.132 0-.265.004-.397.01-3.463.179-6.575 2.397-8.856 4.538-2.28 2.148-3.725 4.246-3.769 4.31v-.001a.484.484 0 0 1-.306.205Z"/>
  <path fill="#ABAFB8" d="M361.877 259.872h-.003v-.983a.498.498 0 0 0 .102-.011l.179.967a1.44 1.44 0 0 1-.278.027Zm-.004 0c-.284 0-.574-.084-.827-.255l-.001-.001a1.479 1.479 0 0 1-.389-2.048c.057-.084.357-.519.863-1.162l.241 1.305c-.166.227-.265.372-.291.41a.487.487 0 0 0 .131.683h-.001c.085.058.18.085.275.085v.983h-.001Zm21.479-4.699c-.42 0-.841-.182-1.131-.53-.18-.216-.36-.423-.543-.619v-1.312c.257.339.536.656.834.952.488.487 1.022.92 1.588 1.306a1.467 1.467 0 0 1-.744.203h-.004Z"/>
  <path fill="#777F8C" d="m362.155 259.845-.179-.967a.486.486 0 0 0 .306-.204v.001c.044-.065 1.489-2.163 3.769-4.311 2.281-2.141 5.393-4.359 8.856-4.538.132-.006.265-.01.397-.01h.005c2.196 0 4.276.904 6.17 2.623.065.093.131.183.199.273v1.312c-2.012-2.177-4.143-3.223-6.374-3.225-.116 0-.232.003-.349.009-3.054.14-6.034 2.196-8.231 4.271-2.198 2.068-3.617 4.128-3.629 4.147v.001a1.478 1.478 0 0 1-.94.618Zm-.395-2.134-.241-1.305a31.65 31.65 0 0 1 3.386-3.671c2.519-2.315 5.974-4.673 9.906-4.872h-.001c.176-.009.352-.013.527-.013h.011c1.649 0 3.226.403 4.718 1.185a8.9 8.9 0 0 0 .354 1.341c-1.609-1.032-3.301-1.542-5.083-1.544-.158 0-.317.004-.478.012h-.001c-3.55.167-6.854 2.368-9.288 4.614a30.773 30.773 0 0 0-3.81 4.253Z"/>
  <path fill="#ABAFB8" d="m381.682 258.89-.084-.007a11.974 11.974 0 0 0-.411-.06c.312-.273.491-.426.491-.426v-.497l.078.012c.241.038.413.25.413.485l-.007.08a.483.483 0 0 1-.48.413Z"/>
  <path fill="#777F8C" d="m368.592 273.656-.03-.001a.49.49 0 0 1-.465-.489v-.021c.007-.166.113-2.48.863-5.257.747-2.782 2.143-6.01 4.647-8.05 1.715-1.398 3.729-2.097 6.07-2.1.643 0 1.31.054 2.001.162v.497s-.179.153-.49.426a11.596 11.596 0 0 0-1.489-.099h-.012c-2.082 0-3.933.629-5.454 1.871-2.418 1.982-3.676 5.11-4.364 7.739-.685 2.632-.786 4.783-.79 4.848v.002a.492.492 0 0 1-.487.472Z"/>
  <path fill="#ABAFB8" d="M369.837 273.947c.054-.117.109-.235.162-.355a1.524 1.524 0 0 1-.162.355Zm11.848-14.074h-.003l-.239-.02h-.001c-.432-.07-.853-.114-1.261-.135.408-.367.751-.672 1.006-.895.136.018.274.037.411.06l.084.007a.483.483 0 0 0 .48-.413l.007-.08a.493.493 0 0 0-.412-.485l-.079-.012v-.995l.236.037a1.476 1.476 0 0 1 1.238 1.455l-.019.235v.002a1.471 1.471 0 0 1-1.448 1.239Z"/>
  <path fill="#777F8C" d="M368.589 274.639h-.006l-.049-.001h-.007a1.474 1.474 0 0 1-1.413-1.472l.001-.062v.002c.009-.215.118-2.588.896-5.475.78-2.882 2.221-6.298 4.974-8.553 1.882-1.542 4.146-2.323 6.68-2.323h.012c.65 0 1.317.051 2.001.15v.995a12.96 12.96 0 0 0-2.001-.162c-2.341.003-4.355.702-6.07 2.1-2.504 2.04-3.9 5.268-4.647 8.05-.75 2.777-.856 5.091-.863 5.257v.021a.49.49 0 0 0 .465.489l.03.001a.492.492 0 0 0 .487-.472v-.002c.004-.065.105-2.216.79-4.848.688-2.629 1.946-5.757 4.364-7.739 1.521-1.242 3.372-1.871 5.454-1.871h.012c.483 0 .979.033 1.488.099-.255.223-.598.528-1.006.895a9.773 9.773 0 0 0-.482-.011c-1.894.003-3.494.552-4.845 1.65-2.152 1.748-3.379 4.693-4.035 7.225-.658 2.527-.758 4.625-.759 4.644v-.001c-.004.127-.026.25-.061.367-.053.12-.108.238-.162.355a1.473 1.473 0 0 1-1.248.692Z"/>
  <path fill="#ABAFB8" d="M358.522 217.273a.495.495 0 0 1-.432-.255l-.002-.004.001.003-.061-.236a.492.492 0 0 1 .256-.431l.003-.002v.001c.008-.006.262-.144.715-.356-.164.414-.316.839-.456 1.273l-.024.007Z"/>
  <path fill="#777F8C" d="M379.328 219.285a.484.484 0 0 1-.387-.187 12.159 12.159 0 0 0-1.759-1.826c.579.053 1.112.098 1.588.136.323.334.638.694.943 1.082h.001a.488.488 0 0 1 .104.303c0 .148-.063.29-.187.387l-.011.009.012-.009a.488.488 0 0 1-.304.105Zm-20.782-2.019c.14-.434.292-.859.456-1.273a27.903 27.903 0 0 1 2.89-1.146c.618.155 1.246.303 1.879.442-2.897.779-4.938 1.883-5.011 1.92l-.002.001-.003.002-.209.054Z"/>
  <path fill="#ABAFB8" d="M380.574 219.58a25.805 25.805 0 0 0-.578-2.079l.191.013c.101.12.201.243.3.369h-.001c.212.268.316.593.315.91a1.46 1.46 0 0 1-.227.787Zm-22.315-1.348a1.477 1.477 0 0 1-1.031-.742v.001a1.472 1.472 0 0 1 .582-2.002l-.003.001c.047-.024.704-.379 1.792-.834-.215.433-.414.878-.597 1.337-.453.212-.707.35-.715.356v-.001l-.003.002a.492.492 0 0 0-.256.431l.061.236-.001-.003.002.004a.495.495 0 0 0 .432.255l.024-.007a23.59 23.59 0 0 0-.287.966Z"/>
  <path fill="#777F8C" d="M379.325 220.268a1.47 1.47 0 0 1-1.157-.564c-.896-1.138-1.893-1.995-2.95-2.627.7.074 1.356.139 1.964.195a12.159 12.159 0 0 1 1.759 1.826.487.487 0 0 0 .387.187v.983h-.003Zm.005 0h-.002v-.983a.494.494 0 0 0 .304-.105l-.012.009.011-.009a.487.487 0 0 0 .187-.387.488.488 0 0 0-.104-.303h-.001c-.305-.388-.62-.748-.943-1.082.467.038.878.068 1.226.093.219.675.411 1.37.578 2.079a1.47 1.47 0 0 1-1.244.688Zm-20.81-2.013c-.088 0-.175-.007-.261-.023.09-.327.185-.649.287-.966l.209-.054.003-.002.002-.001c.073-.037 2.114-1.141 5.011-1.92a81.89 81.89 0 0 0 2.376.484c-3.752.63-6.757 2.209-6.915 2.298-.224.124-.47.184-.71.184h-.002Zm.482-2.262c.183-.459.382-.904.597-1.337.197-.081.41-.168.634-.255.542.155 1.097.304 1.659.446-1.256.42-2.263.854-2.89 1.146Zm17.13-1.793c-2.796-.287-6.365-.736-9.865-1.409a21.02 21.02 0 0 1 2.888-.211h.034c2.288 0 4.699.435 6.943 1.62Z"/>
  <path fill="#373D43" d="M392.354 210.694s4.176-12.797 15.032-8.58c10.857 4.218 12.505 23.176 12.624 33.521.12 10.344 1.768 29.302.521 31.688-1.245 2.384-4.527-.951-6.653-4.572-2.127-3.621-13.884-8.997-13.884-8.997l-5.021-20.195c-1.458-5.862-4.464-15.49-2.619-22.865Z"/>
  <path fill="#ABAFB8" d="m418.204 217.415-.212-.048.002.001a1.375 1.375 0 0 0-.069-.032 55.628 55.628 0 0 0-.323-1.202c.511.205.798.338.81.344h.002c.178.084.28.26.281.445l-.048.209v.002a.49.49 0 0 1-.443.281Z"/>
  <path fill="#777F8C" d="M392.852 219.916a16.922 16.922 0 0 0-.709-.68c4.028-4.202 9.071-5.45 13.71-5.453h.02c5.235 0 9.907 1.625 11.729 2.351.112.399.219.799.323 1.202-.671-.3-5.924-2.576-12.041-2.58h-.022c-4.366 0-9.206 1.191-13.01 5.16Z"/>
  <path fill="#ABAFB8" d="M391.929 219.046a16.056 16.056 0 0 0-.534-.449c.151-.16.304-.315.459-.466.021.304.046.609.075.915Zm26.277-.648h-.002l-.022-.001a51.2 51.2 0 0 0-.257-1.06.968.968 0 0 1 .069.031l-.002-.001.212.048a.49.49 0 0 0 .443-.281v-.002l.048-.209a.49.49 0 0 0-.281-.444h-.002c-.012-.007-.299-.14-.81-.344a44.297 44.297 0 0 0-.354-1.189c.963.357 1.535.62 1.587.644.53.253.843.781.843 1.333 0 .211-.046.427-.143.63l.001-.001a1.47 1.47 0 0 1-1.33.846Z"/>
  <path fill="#777F8C" d="M393.519 220.642a8.998 8.998 0 0 0-.301-.343 13.142 13.142 0 0 0-.366-.382c3.804-3.97 8.644-5.161 13.01-5.161h.022c6.117.005 11.37 2.28 12.041 2.581.089.351.175.705.257 1.06a1.464 1.464 0 0 1-.608-.141h-.002c-.047-.027-5.466-2.518-11.669-2.518h-.019c-4.225.003-8.776 1.132-12.365 4.904Z"/>
  <path fill="#ABAFB8" d="m418.836 215.591-.001-.002.001.002Z"/>
  <path fill="#777F8C" d="m392.143 219.236-.214-.19a35.975 35.975 0 0 1-.075-.915c4.174-4.095 9.337-5.331 13.978-5.331h.021c4.854.003 9.17 1.323 11.394 2.146.124.392.242.79.355 1.189-1.822-.727-6.494-2.352-11.729-2.352h-.02c-4.639.004-9.682 1.251-13.71 5.453Z"/>
  <path fill="#ABAFB8" d="m419.737 228.741-.031-.001a84.4 84.4 0 0 0-.107-1.249c.267.217.427.359.464.392.11.099.164.23.164.368a.486.486 0 0 1-.49.49Z"/>
  <path fill="#777F8C" d="M419.706 228.74a.49.49 0 0 1-.296-.122c-.089-.079-1.731-1.513-4.233-2.956-2.523-1.451-5.914-2.912-9.464-2.915a12 12 0 0 0-1.678.115c-2.821.394-5.308 1.841-7.39 4.247-.105-.364-.218-.73-.338-1.097 2.178-2.352 4.715-3.717 7.599-4.124.611-.085 1.22-.125 1.825-.125h.01c3.646 0 7.162 1.453 9.796 2.955a30.199 30.199 0 0 1 4.062 2.773c.039.42.075.838.107 1.249Z"/>
  <path fill="#ABAFB8" d="M419.779 229.724a93.49 93.49 0 0 0-.073-.984l.031.001a.485.485 0 0 0 .366-.164.48.48 0 0 0 .124-.326.487.487 0 0 0-.164-.368 13.554 13.554 0 0 0-.464-.392c-.042-.45-.087-.902-.137-1.358.731.554 1.174.944 1.255 1.016a1.474 1.474 0 0 1 .121 2.081h.001c-.28.315-.67.483-1.06.494Z"/>
  <path fill="#777F8C" d="M419.74 229.724h-.006c-.346 0-.697-.124-.977-.371l-.003-.002-.001-.001c-.008-.009-1.63-1.434-4.067-2.836-2.435-1.405-5.69-2.784-8.961-2.784h-.012c-.514 0-1.029.033-1.541.105-2.756.391-5.166 1.856-7.215 4.44a33.992 33.992 0 0 0-.312-1.166c2.082-2.406 4.569-3.853 7.39-4.247a12 12 0 0 1 1.678-.115c3.55.003 6.941 1.464 9.464 2.915 2.502 1.443 4.144 2.877 4.233 2.955.088.078.19.116.296.123.026.332.051.659.073.984h-.039Zm-.141-2.233a30.238 30.238 0 0 0-4.061-2.773c-2.635-1.502-6.151-2.955-9.797-2.955h-.01c-.605 0-1.214.039-1.825.125-2.884.407-5.421 1.772-7.599 4.124a23.746 23.746 0 0 0-.37-1.037c2.239-2.272 4.869-3.649 7.833-4.061a14.309 14.309 0 0 1 1.961-.134c3.912.002 7.568 1.534 10.292 3.083a31.92 31.92 0 0 1 3.439 2.27c.05.456.095.908.137 1.358Z"/>
  <path fill="#ABAFB8" d="M421.011 238.75a.485.485 0 0 1-.354-.15 19.296 19.296 0 0 0-.599-.585 183.26 183.26 0 0 1-.032-1.37c.789.706 1.269 1.2 1.34 1.274a.485.485 0 0 1 .137.341.485.485 0 0 1-.151.354v.001a.488.488 0 0 1-.341.135Z"/>
  <path fill="#777F8C" d="M420.058 238.015a35.579 35.579 0 0 0-3.902-3.178c-2.654-1.85-6.154-3.724-9.688-3.732-.394 0-.789.024-1.182.075-2.516.324-4.672 1.764-6.402 4.183l-.594-.85c1.893-2.54 4.185-3.955 6.873-4.308.431-.056.864-.083 1.297-.083h.017c3.592 0 7.251 1.844 10.036 3.76a35.32 35.32 0 0 1 3.513 2.763c.009.444.019.902.032 1.37Z"/>
  <path fill="#ABAFB8" d="M421.01 239.733a1.48 1.48 0 0 1-.908-.312 281.64 281.64 0 0 1-.044-1.406c.371.35.581.566.599.585a.486.486 0 0 0 .354.151v.982h-.001Zm.003 0h-.002v-.982a.49.49 0 0 0 .341-.136v-.001a.485.485 0 0 0 .151-.354.485.485 0 0 0-.137-.341 26.394 26.394 0 0 0-1.34-1.274 124.55 124.55 0 0 1-.02-1.322 29.862 29.862 0 0 1 2.07 1.917 1.474 1.474 0 0 1-.043 2.084v-.001a1.47 1.47 0 0 1-1.02.41Z"/>
  <path fill="#777F8C" d="M420.102 239.421a1.361 1.361 0 0 1-.154-.141c-.02-.02-1.787-1.841-4.356-3.637-2.564-1.8-5.934-3.555-9.103-3.555h-.021c-.354 0-.707.021-1.056.067-2.296.301-4.274 1.629-5.926 4.067l-.602-.859c1.73-2.419 3.886-3.859 6.402-4.183a9.185 9.185 0 0 1 1.182-.075c3.534.008 7.034 1.882 9.688 3.732a35.579 35.579 0 0 1 3.902 3.178c.013.458.028.927.044 1.406Zm-.076-2.776a35.32 35.32 0 0 0-3.513-2.763c-2.785-1.916-6.444-3.76-10.036-3.76h-.016c-.434 0-.867.027-1.298.083-2.688.353-4.979 1.768-6.873 4.308l-.374-.534c-.01-.112-.025-.291-.05-.527 1.959-2.421 4.373-3.864 7.171-4.222.475-.061.95-.09 1.424-.09 3.933.006 7.733 1.962 10.609 3.932a36.299 36.299 0 0 1 2.936 2.251l.004.312c.004.328.009.665.016 1.01Zm-.374 12.632a.482.482 0 0 1-.346-.142l-.001-.001c-.049-.048-1.657-1.618-4.041-3.188-2.385-1.567-5.542-3.154-8.753-3.161-.433 0-.867.03-1.299.093a7.903 7.903 0 0 0-2.383.74c-.038-.374-.075-.723-.109-1.04a9.07 9.07 0 0 1 2.356-.674c.477-.069.957-.102 1.437-.102h.014c3.296 0 6.604 1.569 9.113 3.199 2.514 1.629 4.224 3.304 4.357 3.436a.483.483 0 0 1 .146.349.486.486 0 0 1-.142.346.482.482 0 0 1-.349.145Z"/>
  <path fill="#ABAFB8" d="M420.573 249.937c-.038-.806-.078-1.615-.118-2.423.125.118.204.196.233.225.291.287.438.669.437 1.047a1.468 1.468 0 0 1-.552 1.151Z"/>
  <path fill="#777F8C" d="M419.654 250.26h-.002v-.983a.482.482 0 0 0 .349-.145.486.486 0 0 0 .142-.346.483.483 0 0 0-.146-.349c-.133-.132-1.843-1.807-4.357-3.436-2.509-1.63-5.817-3.199-9.113-3.199h-.014c-.48 0-.96.033-1.437.102a9.07 9.07 0 0 0-2.356.674l-.109-1.021a9.933 9.933 0 0 1 2.323-.625 10.931 10.931 0 0 1 1.579-.113c3.611.005 7.062 1.675 9.661 3.357a31.41 31.41 0 0 1 4.281 3.338c.04.808.08 1.617.118 2.423a1.474 1.474 0 0 1-.919.323Zm-.005 0c-.371 0-.747-.143-1.033-.425h.001c-.037-.035-1.604-1.561-3.893-3.068-2.296-1.518-5.323-2.999-8.196-2.999h-.017c-.389 0-.775.026-1.156.082a7.085 7.085 0 0 0-2.417.819c-.037-.367-.073-.719-.109-1.051a7.903 7.903 0 0 1 2.383-.74 8.998 8.998 0 0 1 1.299-.093c3.211.007 6.368 1.594 8.753 3.161 2.383 1.57 3.992 3.14 4.04 3.188l.002.001a.486.486 0 0 0 .346.142v.983h-.003Zm-1.032-.424v-.001.001Zm-2.741 15.222a.492.492 0 0 1-.453-.376l-.001-.003c-.015-.062-.528-2.155-1.706-4.607-1.18-2.447-3.015-5.275-5.769-6.756a8.136 8.136 0 0 0-3.882-.971h-.004c-.138 0-.276.004-.414.01-.025-.32-.05-.649-.078-.985a9.066 9.066 0 0 1 4.847 1.083c2.849 1.521 4.839 4.421 6.107 7.007 1.269 2.582 1.818 4.832 1.856 4.994l.001.005-.001-.004.013.114a.49.49 0 0 1-.353.47l-.163.019Z"/>
  <path fill="#ABAFB8" d="M415.93 266.042h-.03a1.474 1.474 0 0 1-1.433-1.132l.001.003c-.004-.015-.258-1.054-.814-2.502.083.115.159.228.224.34.692 1.179 1.506 2.327 2.333 3.258l-.025.003-.228.027-.028.003Z"/>
  <path fill="#777F8C" d="M416.211 266.009c-.827-.931-1.641-2.079-2.333-3.258a4.13 4.13 0 0 0-.224-.34 26.19 26.19 0 0 0-.823-1.913c-1.129-2.359-2.899-5.013-5.348-6.315a7.15 7.15 0 0 0-3.765-.847l-.071-.981c.138-.006.276-.01.414-.01h.004c1.37 0 2.678.326 3.881.971 2.755 1.481 4.59 4.309 5.77 6.756 1.178 2.452 1.691 4.545 1.706 4.607l.001.003a.492.492 0 0 0 .453.376l.163-.019a.49.49 0 0 0 .353-.47l-.013-.114.001.005-.001-.006c-.038-.161-.587-2.412-1.856-4.994-1.268-2.586-3.258-5.486-6.107-7.007a9.066 9.066 0 0 0-4.847-1.083c-.026-.321-.054-.648-.083-.98.195-.01.39-.015.583-.015h.005c1.689 0 3.304.406 4.806 1.211 3.136 1.686 5.206 4.76 6.525 7.44 1.318 2.685 1.881 4.991 1.93 5.202v-.001a1.475 1.475 0 0 1-1.093 1.775l-.027.007h-.004Zm-21.123-54.029c1.454-2.318 3.36-3.799 5.437-4.738 2.001-.904 4.164-1.293 6.199-1.393a29.34 29.34 0 0 0-1.89 1.104c-1.281.195-2.582.542-3.828 1.107a11.488 11.488 0 0 0-4.255 3.275c-.566.23-1.123.446-1.663.645Z"/>
  <path fill="#ABAFB8" d="m414.952 207.79-.15-.022a15.97 15.97 0 0 0-1.005-.278 18.876 18.876 0 0 0-.869-1.175c1.327.253 2.156.51 2.174.516a.49.49 0 0 1 .341.468l-.023.149a.49.49 0 0 1-.468.342Z"/>
  <path fill="#777F8C" d="M413.797 207.49a26.182 26.182 0 0 0-2.633-.507 46.566 46.566 0 0 1 1.691-.682l.073.014c.302.375.591.768.869 1.175Zm-20.129 4.993c1.604-3.076 3.933-5.002 6.453-6.137 2.552-1.151 5.295-1.507 7.738-1.507.292 0 .581.005.863.015-.687.318-1.355.649-1.998.995-2.035.1-4.199.489-6.199 1.393-2.077.939-3.983 2.42-5.437 4.738-.489.18-.963.348-1.42.503Zm3.083-1.148a11.48 11.48 0 0 1 4.255-3.275c1.246-.565 2.546-.911 3.828-1.107-.29.185-.573.373-.847.565-.525.368-1.068.72-1.626 1.055-.32.114-.636.24-.949.382-.735.334-1.444.747-2.11 1.255a47.06 47.06 0 0 1-2.551 1.125Z"/>
  <path fill="#ABAFB8" d="M414.953 208.773h-.001c-.125 0-.252-.016-.377-.048a21.522 21.522 0 0 0-.778-1.235c.559.138.915.249 1.005.278l.15.022a.488.488 0 0 0 .467-.342l.024-.149a.491.491 0 0 0-.341-.468 21.515 21.515 0 0 0-2.174-.516.572.572 0 0 1-.025-.032 52.742 52.742 0 0 1 1.69-.61c.49.123.778.212.809.222a1.476 1.476 0 0 1 .954 1.852 1.474 1.474 0 0 1-1.403 1.026Z"/>
  <path fill="#777F8C" d="m414.575 208.725-.07-.021c-.195-.063-2.317-.717-5.099-.922a40.706 40.706 0 0 1 1.758-.799c1.083.152 1.991.348 2.633.507.27.398.53.81.778 1.235Zm-1.647-2.41a1.875 1.875 0 0 0-.073-.014l.048-.018.025.032Z"/>
  <path fill="#ABAFB8" d="M380.943 216.579a94.749 94.749 0 0 1-1.3-.089 19.298 19.298 0 0 0-.419-1.021c.656.052 1.183.089 1.551.113.056.326.112.66.168.997Zm-35.846-1.992a.492.492 0 0 1-.41-.219v-.001a.491.491 0 0 1 .136-.681v.001c.148-.1 3.607-2.355 9.02-2.355h.007c1.839 0 3.907.259 6.156.952.287.087.578.174.873.257-.203.276-.395.561-.579.856a40.14 40.14 0 0 1-.582-.175 19.815 19.815 0 0 0-5.835-.898c-5.155.003-8.418 2.117-8.513 2.179a.5.5 0 0 1-.273.084Z"/>
  <path fill="#777F8C" d="m379.643 216.49-.43-.032c-.41-.402-.832-.767-1.265-1.097.465.041.893.078 1.276.108.148.333.288.674.419 1.021Zm-17.791-2.667a49.088 49.088 0 0 1-1.551-.426c.183-.295.375-.58.578-.856.934.266 1.907.509 2.899.733-.685.169-1.33.356-1.926.549Z"/>
  <path fill="#ABAFB8" d="M377.579 216.32a136.2 136.2 0 0 1-2.051-.199c-2.041-1.163-4.272-1.587-6.397-1.587h-.033a19.043 19.043 0 0 0-2.935.242 77.046 77.046 0 0 1-2.379-.489 23.856 23.856 0 0 1 2.455-.501c3.413.65 6.862 1.088 9.603 1.373.594.326 1.175.711 1.737 1.161Z"/>
  <path fill="#ABAFB8" d="M379.213 216.458c-.479-.037-1.028-.083-1.634-.138a12.057 12.057 0 0 0-1.737-1.161c.763.079 1.469.146 2.106.202.433.33.855.695 1.265 1.097Zm-3.685-.337c-2.698-.283-6.04-.713-9.365-1.345.94-.148 1.928-.241 2.935-.242h.033c2.125 0 4.356.424 6.397 1.587Zm-11.744-1.834a66.596 66.596 0 0 1-1.932-.464 28.725 28.725 0 0 1 1.926-.549c.81.184 1.635.354 2.461.512-.859.127-1.683.302-2.455.501Zm17.324 3.285c-.179-.01-.493-.029-.921-.058-.099-.12-.2-.237-.303-.352a23.16 23.16 0 0 0-.241-.672c.569.042 1.011.071 1.3.089l.165.993Zm-.333-1.99c-.368-.024-.895-.061-1.551-.113a18.894 18.894 0 0 0-.33-.703s-.07-.12-.206-.327c.796.067 1.449.115 1.916.147.057.326.114.658.171.996Zm-35.681-.013a1.475 1.475 0 0 1-.816-2.701h.001c.245-.162 3.875-2.517 9.571-2.519 1.932 0 4.1.273 6.446.995.406.126.824.247 1.25.364-.233.267-.455.545-.667.833-.295-.083-.586-.17-.873-.257-2.249-.693-4.317-.952-6.156-.952h-.007c-5.413 0-8.872 2.255-9.02 2.355v-.001a.491.491 0 0 0-.136.681v.001a.489.489 0 0 0 .683.135c.096-.062 3.358-2.176 8.513-2.179 1.748 0 3.713.246 5.835.898.192.059.386.118.583.175-.177.284-.345.576-.505.876l-.367-.111a18.828 18.828 0 0 0-5.546-.855h-.006c-4.57 0-7.578 1.775-7.932 1.995l-.032.021a1.48 1.48 0 0 1-.815.246h-.004Z"/>
  <path fill="#777F8C" d="M379.884 217.162a14.56 14.56 0 0 0-.671-.704l.43.032c.083.222.164.445.241.672Zm-4.666-.085c-2.632-.28-5.847-.697-9.071-1.304a17.771 17.771 0 0 1 2.931-.256h.02c2.08.004 4.2.411 6.12 1.56Zm4.006-1.608c-.383-.03-.811-.067-1.276-.108a13.013 13.013 0 0 0-1.816-1.161c.953.097 1.817.177 2.556.239.136.207.206.327.206.327.114.23.224.465.33.703Zm-18.991-1.068-.437-.128c.16-.3.328-.592.504-.876.508.149 1.026.29 1.552.426-.593.192-1.136.389-1.619.578Zm3.545-1.127a54.257 54.257 0 0 1-2.899-.733c.212-.288.434-.566.667-.833 1.502.413 3.104.771 4.721 1.083-.871.122-1.706.291-2.489.483Z"/>
  <path fill="#ABAFB8" d="M378.77 217.408c-.476-.038-1.009-.083-1.588-.136a11.21 11.21 0 0 0-1.654-1.151 136.2 136.2 0 0 0 2.051.199c.407.327.805.689 1.191 1.088Zm-14.999-2.119a65.338 65.338 0 0 1-1.879-.442 27.146 27.146 0 0 1 1.892-.56c.786.175 1.583.338 2.379.489-.842.134-1.645.313-2.392.513Zm12.071-.131c-2.741-.284-6.19-.722-9.603-1.373a19.785 19.785 0 0 1 2.891-.223h.025c2.245.005 4.553.424 6.687 1.596Z"/>
  <path fill="#CCCFD3" d="m380.187 217.514-.191-.013a13.365 13.365 0 0 0-.112-.338c.102.114.204.232.303.351Z"/>
  <path fill="#ABAFB8" d="M379.996 217.501c-.348-.025-.759-.055-1.226-.093-.386-.399-.784-.76-1.191-1.088.606.055 1.155.1 1.634.138.228.223.451.458.671.705.039.112.076.225.112.338Zm-2.814-.229c-.608-.056-1.264-.121-1.964-.195-1.92-1.149-4.04-1.556-6.12-1.56h-.02a17.88 17.88 0 0 0-2.931.256 81.89 81.89 0 0 1-2.376-.484c.747-.2 1.551-.379 2.392-.513 3.326.632 6.667 1.062 9.365 1.345a11.21 11.21 0 0 1 1.654 1.151Zm.766-1.911c-.637-.056-1.343-.123-2.106-.202-2.133-1.173-4.442-1.592-6.687-1.597h-.025c-.987 0-1.959.085-2.891.223a70.936 70.936 0 0 1-2.461-.511 25.072 25.072 0 0 1 2.489-.483c3.5.673 7.069 1.122 9.865 1.409.62.328 1.228.713 1.816 1.161Zm-16.056-.514a55.433 55.433 0 0 1-1.659-.446 28.784 28.784 0 0 1 1.619-.578c.634.163 1.28.317 1.932.464-.675.173-1.311.365-1.892.56Zm26.81 1.082a.493.493 0 0 1-.458-.388l-.011-.104a.49.49 0 0 1 .388-.479l.001-.001h.001c.043-.011 1.305-.286 3.21-.855-.025.347-.041.696-.05 1.048a44.916 44.916 0 0 1-2.929.763l-.152.016Z"/>
  <path fill="#777F8C" d="M391.783 215.15c.009-.352.025-.701.05-1.048a59.33 59.33 0 0 0 1.645-.518c.074.337.264.647.55.863-.818.274-1.576.508-2.245.703Zm4.637-1.56c.29-.525.606-1.005.943-1.443 2.392-.989 4.943-2.256 7.188-3.824.206-.145.418-.287.635-.429.74-.104 1.477-.156 2.193-.17-.805.447-1.564.914-2.265 1.404-2.73 1.914-5.889 3.386-8.694 4.462Z"/>
  <path fill="#ABAFB8" d="M412.764 205.285a32.146 32.146 0 0 0-.874-.143c-.134-.136-.27-.27-.408-.401a58.699 58.699 0 0 1 5.613-1.886c4.575-1.293 9.057-2.005 11.891-2.005h.01a.491.491 0 0 1 0 .983c-2.853.002-7.18.695-11.625 1.947a58.953 58.953 0 0 0-4.607 1.505Z"/>
  <path fill="#777F8C" d="M411.89 205.142a31.762 31.762 0 0 0-1.061-.136c.216-.09.434-.178.653-.265.138.131.274.265.408.401Z"/>
  <path fill="#ABAFB8" d="m394.919 213.764-.222-.054h-.001a.494.494 0 0 1-.269-.439l.003-.009c.427-.15.868-.309 1.318-.478-.135.229-.266.467-.391.713a.49.49 0 0 1-.438.267Zm14.293-6.98a23.082 23.082 0 0 0-2.086-.036 36.753 36.753 0 0 1 1.798-.904c.712.031 1.391.09 2.02.164-.59.249-1.168.507-1.732.776Z"/>
  <path fill="#ABAFB8" d="M394.028 214.447a1.477 1.477 0 0 1-.55-.863c.309-.101.626-.209.952-.322l-.003.009c.001.18.098.351.269.439h.001l.222.054v.378c-.304.106-.601.209-.891.305Zm.891-.305v-.378a.49.49 0 0 0 .438-.268c.125-.245.256-.483.391-.712.527-.198 1.067-.41 1.615-.637-.337.438-.653.918-.943 1.443-.514.197-1.016.381-1.501.552Zm10.267-6.248a27.8 27.8 0 0 1 1.94-1.146 23.068 23.068 0 0 1 2.086.036c-.631.301-1.244.615-1.833.94-.716.014-1.453.066-2.193.17Z"/>
  <path fill="#CCCFD3" d="M412.221 205.491c-.109-.118-.22-.235-.331-.349.307.046.599.094.874.143a68.37 68.37 0 0 0-.543.206Z"/>
  <path fill="#ABAFB8" d="M410.944 206.008a27.602 27.602 0 0 0-2.02-.164c.619-.29 1.254-.57 1.905-.838.37.041.724.087 1.061.136.112.114.223.231.331.349a45.36 45.36 0 0 0-1.277.517Zm-22.195 10.904h-.053a7.76 7.76 0 0 0-.492-.197l-.449-2.388c.182-.159.406-.276.66-.33h-.002c.024-.003 1.433-.313 3.517-.953-.04.349-.073.703-.097 1.058-1.905.569-3.167.844-3.21.855h-.001l-.001.001a.49.49 0 0 0-.388.479l.011.104a.493.493 0 0 0 .458.388l.152-.016a44.916 44.916 0 0 0 2.929-.763c-.01.341-.012.682-.009 1.026a46.36 46.36 0 0 1-2.74.703l-.027.006-.025.003-.207.022-.026.002Z"/>
  <path fill="#777F8C" d="M391.774 216.176c-.003-.344-.001-.685.009-1.026a60.196 60.196 0 0 0 2.246-.703c.067.052.141.098.22.139l-.001-.001c.214.11.445.162.671.162h.001c.534 0 1.051-.293 1.312-.803.062-.12.125-.238.189-.354 2.804-1.076 5.963-2.548 8.693-4.462.701-.49 1.461-.957 2.266-1.404.129-.002.259-.003.388-.003h.013c.56 0 1.104.023 1.625.061-1.369.664-2.633 1.384-3.729 2.152-4.711 3.293-10.538 5.281-13.903 6.242Zm.059-2.074a24.3 24.3 0 0 1 .097-1.058 57.92 57.92 0 0 0 1.738-.561l-.061.118v.001a1.472 1.472 0 0 0-.129.982 59.33 59.33 0 0 1-1.645.518Zm5.53-1.955a10.332 10.332 0 0 1 1.939-1.937 36.289 36.289 0 0 0 3.059-1.637 14.397 14.397 0 0 1 2.825-.679c-.217.142-.429.284-.635.429-2.245 1.569-4.796 2.835-7.188 3.824Z"/>
  <path fill="#ABAFB8" d="M414.593 205.673a27.268 27.268 0 0 0-1.829-.388 58.953 58.953 0 0 1 4.607-1.505c4.445-1.252 8.772-1.945 11.625-1.947a.49.49 0 1 0 0-.983h-.01c-2.834 0-7.316.712-11.891 2.005a58.586 58.586 0 0 0-5.612 1.886 14.178 14.178 0 0 0-.831-.725 59.006 59.006 0 0 1 6.176-2.106c4.656-1.314 9.185-2.04 12.168-2.042.261 0 .506.067.719.186l.439 2.2a1.47 1.47 0 0 1-1.158.562h-.01c-2.704 0-6.984.678-11.348 1.911a58.382 58.382 0 0 0-3.045.946Z"/>
  <path fill="#ABAFB8" d="m430.154 202.254-.439-2.2a1.476 1.476 0 0 1 .439 2.2Z"/>
  <path fill="#777F8C" d="M410.829 205.006a27.558 27.558 0 0 0-2.107-.153 46.33 46.33 0 0 1 1.93-.837c.285.229.562.472.831.725-.22.087-.438.175-.654.265Z"/>
  <path fill="#ABAFB8" d="m394.43 213.262.052-.214v.001c.191-.375.395-.731.606-1.069.54-.199 1.097-.415 1.663-.645-.357.443-.693.925-1.003 1.449-.45.169-.891.328-1.318.478Zm16.734-6.279a26.103 26.103 0 0 0-1.952-.199 41.575 41.575 0 0 1 1.732-.776c.708.084 1.351.188 1.912.293-.573.218-1.139.445-1.692.682Zm-6.33-.03c.599-.383 1.231-.75 1.89-1.104.381-.019.759-.027 1.129-.027h.017c.358 0 .71.007 1.054.022-.62.291-1.22.593-1.798.904-.746.023-1.516.086-2.292.205Z"/>
  <path fill="#ABAFB8" d="M394.92 214.747h-.001v-.605c.485-.171.988-.354 1.502-.552-.064.116-.127.234-.189.354-.261.51-.779.803-1.312.803Zm-.001 0c-.226 0-.457-.052-.671-.162l.001.001a1.5 1.5 0 0 1-.221-.139c.29-.096.587-.199.891-.305v.605Zm-1.441-1.163a1.476 1.476 0 0 1 .129-.982v-.001l.061-.118a58.71 58.71 0 0 0 1.42-.503c-.211.338-.415.694-.606 1.069v-.001l-.052.214c-.326.113-.643.221-.952.322Zm2.27-.8c.31-.524.646-1.006 1.003-1.449a47.06 47.06 0 0 0 2.551-1.125c-.7.534-1.352 1.173-1.939 1.937-.548.227-1.088.439-1.615.637Zm6.613-4.211a27.957 27.957 0 0 0 1.626-1.055c.274-.192.557-.38.847-.565a19.005 19.005 0 0 1 2.292-.205 27.8 27.8 0 0 0-1.94 1.146c-.947.133-1.901.35-2.825.679Zm7.045-.791a22.352 22.352 0 0 0-1.625-.061h-.013l-.389.003a35.696 35.696 0 0 1 1.833-.94c.694.044 1.35.115 1.952.199-.601.257-1.189.523-1.758.799Z"/>
  <path fill="#CCCFD3" d="M412.903 206.283a18.042 18.042 0 0 0-.682-.792l.543-.206c.754.134 1.377.275 1.829.388-.569.195-1.134.398-1.69.61Z"/>
  <path fill="#ABAFB8" d="M412.855 206.301a28.769 28.769 0 0 0-1.911-.293c.421-.178.846-.35 1.277-.517.235.256.461.519.682.791l-.048.019Zm-6.131-.452a37.94 37.94 0 0 1 1.998-.996c.742.025 1.449.08 2.107.153-.651.268-1.286.548-1.905.838a24.232 24.232 0 0 0-1.054-.022h-.017c-.37 0-.748.008-1.129.027Zm-13.838 53.569a18.795 18.795 0 0 0-3.15-.289h-.016c-.641 0-1.247.042-1.825.122a733.61 733.61 0 0 0-.31-2.538c.175.063.35.124.524.183 1.124.372 2.776.739 4.589 1.006l.188 1.516Zm-10.366-39.269c-.151-.948-.3-1.871-.446-2.76a1.47 1.47 0 0 0 .739-1.201l.001-.002.001-.076c0-.715-.51-1.32-1.201-1.45a169.816 169.816 0 0 0-1.135-6.036c-.634-2.993-1.472-7.523-2.152-11.301-.34-1.888-.64-3.59-.855-4.82l-.264-1.511 5.619-1.099 1.021 8.949 3.302 17.588a4.777 4.777 0 0 0-.804-.072h-.004c-.583 0-1.156.124-1.674.408-.783.427-1.412 1.198-1.829 2.309-.123.327-.23.685-.319 1.074Z"/>
  <path fill="#CCCFD3" d="M382.074 217.389a362.06 362.06 0 0 0-.46-2.729c.691.13 1.201.735 1.201 1.45l-.001.076-.001.002c-.028.519-.319.96-.739 1.201Z"/>
  <path fill="#ABAFB8" d="M393.902 259.611a24.565 24.565 0 0 0-1.016-.193l-.188-1.516c.331.049.667.095 1.007.137l.197 1.572Zm-6.975-.184c-.123-1.011-.25-2.056-.382-3.128.345.149.692.287 1.04.414.107.867.211 1.712.31 2.538a12.4 12.4 0 0 0-.968.176Zm-4.701-37.093a24.578 24.578 0 0 0-.392-.216 524.344 524.344 0 0 0-.726-4.546l.155.009.006.001.059.001h.014c.265 0 .516-.071.732-.194.146.889.295 1.812.446 2.76a13.42 13.42 0 0 0-.294 2.185Z"/>
  <path fill="#CCCFD3" d="m382.213 224.584-.187-1.23.166.101v.101c0 .329.007.672.021 1.028Z"/>
  <path fill="#CCCFD3" d="m382.192 223.455-.166-.101-.192-1.236c.131.071.263.143.392.216-.02.356-.032.729-.034 1.121Z"/>
  <path fill="#ABAFB8" d="M387.793 216.581a5.98 5.98 0 0 0-.643-.151l-3.302-17.588-1.021-8.949-5.619 1.099.264 1.511c.215 1.23.515 2.932.855 4.82.68 3.778 1.518 8.308 2.152 11.301.346 1.633.728 3.681 1.135 6.036a1.4 1.4 0 0 0-.196-.022c-.015-.001-.305-.017-.814-.051a164.309 164.309 0 0 0-1.086-5.76c-1.145-5.405-2.938-15.704-3.296-17.774l7.554-1.511 1.044 9.154 2.935 15.631a1.474 1.474 0 0 0 .038 2.254Z"/>
  <path fill="#ABAFB8" d="m376.221 191.052-.062-.367-.082-.474 7.606-1.487.093.818-7.555 1.51Z"/>
  <path fill="#CCCFD3" d="m381.349 216.6-.04-.001a19.69 19.69 0 0 1-.366-.02c-.056-.337-.112-.671-.168-.997.366.024.574.036.591.036a.491.491 0 0 1 .466.492v.026-.001a.491.491 0 0 1-.483.465Z"/>
  <path fill="#CCCFD3" d="M381.342 217.583h-.014l-.059-.001-.006-.001a7.687 7.687 0 0 1-.155-.009l-.165-.993c.193.012.318.018.366.02l.04.001a.491.491 0 0 0 .483-.465v.001-.026a.49.49 0 0 0-.466-.491c-.017-.001-.225-.013-.591-.037-.057-.338-.114-.67-.171-.995.509.034.799.05.814.051a1.4 1.4 0 0 1 .196.022c.15.87.304 1.781.46 2.729a1.479 1.479 0 0 1-.732.194Zm6.862-.868a6.14 6.14 0 0 0-.411-.134 1.471 1.471 0 0 1-.543-1.144c0-.433.19-.835.505-1.11l.449 2.388Z"/>
  <path fill="#ABAFB8" d="M397.92 257.339c-1.38 0-2.895-.12-4.341-.307l-4.369-34.958-.79-4.209c.334.153.673.336 1.012.544.456.279.911.604 1.352.958a1.471 1.471 0 0 0-.13.608 1.47 1.47 0 0 0 1.471 1.474h.005c.031 0 .063-.001.094-.003.335 2.25.821 4.466 1.322 6.522-.067.102-.134.205-.2.311a1.475 1.475 0 0 0 .456 2.034v.001c.12.076.248.133.38.171.286 1.105.558 2.138.791 3.074l2.912 11.714a17.35 17.35 0 0 0-1.507 2.319 1.474 1.474 0 0 0 1.293 2.183h.003c.455 0 .9-.214 1.182-.597l.543 2.186a1.478 1.478 0 0 0-.562 1.738l-.001-.002a1.47 1.47 0 0 0 1.732.923c.502.238 1.299.622 2.262 1.111.009.24.013.456.013.64-.005.249-.081.417-.274.612-.289.288-.895.553-1.708.714-.811.164-1.818.239-2.909.239h-.032Z"/>
  <path fill="#777F8C" d="M402.83 255.133a96.724 96.724 0 0 0-2.262-1.11 1.91 1.91 0 0 0 .163-.05h-.001a10.561 10.561 0 0 1 2.009-.537c.043.645.075 1.222.091 1.697Zm-3.431-3.769-.543-2.187a1.52 1.52 0 0 0 .108-.169v.001c.899-1.634 1.915-2.872 3.048-3.733.137 1.35.286 2.863.418 4.334l.078.876a13.51 13.51 0 0 0-2.8.721 1.496 1.496 0 0 0-.309.157Zm-1.514-6.091-2.912-11.714c-.233-.937-.505-1.969-.791-3.074.133.038.27.057.407.057h.004c.485 0 .963-.243 1.243-.684.118-.185.237-.366.356-.542a39.354 39.354 0 0 1 .721 4.476c.024.258.034.393.034.394l.009.136.129.183c-.321.468-.626.968-.918 1.495l-.006.01.007-.01a1.462 1.462 0 0 0-.187.714c0 .518.275 1.021.759 1.291h.002c.224.124.471.184.712.184h.004c.516 0 1.018-.275 1.287-.758.057-.104.116-.206.174-.306l2.63 3.757.121 1.114c-1.41.748-2.676 1.848-3.785 3.277Zm-4.339-17.305c-.501-2.056-.987-4.273-1.322-6.522a1.45 1.45 0 0 0 .562-.152c1.015 1.211 1.804 2.821 2.402 4.491a20.388 20.388 0 0 0-1.642 2.183Z"/>
  <path fill="#CCCFD3" d="M391.995 220.448a.486.486 0 0 1-.335-.321c.113.106.225.213.335.321Z"/>
  <path fill="#CCCFD3" d="M392.13 221.449h-.002v-.681c.03.226.063.453.096.678a1.475 1.475 0 0 1-.094.003Zm-.005 0a1.475 1.475 0 0 1-1.341-2.082c.3.241.593.496.876.76a.492.492 0 0 0 .335.321l.104.104.029.216v.681h-.003Z"/>
  <path fill="#ABAFB8" d="M392.224 221.446a50.249 50.249 0 0 1-.096-.678v-.187c.126.128.249.256.369.386.099.105.195.214.289.327a1.45 1.45 0 0 1-.562.152Zm-.096-.678-.029-.216a.78.78 0 0 0 .029.028v.188Zm2.463 8.791a.488.488 0 0 1-.492-.492c0-.091.025-.179.077-.262.44-.693.899-1.333 1.377-1.923.121.392.232.783.334 1.169-.304.405-.597.832-.881 1.28a.487.487 0 0 1-.415.228Z"/>
  <path fill="#CCCFD3" d="M394.182 230.485a1.47 1.47 0 0 1-.38-.171v-.001a1.475 1.475 0 0 1-.456-2.035c.066-.105.133-.208.2-.31.212.871.427 1.712.636 2.517Z"/>
  <path fill="#ABAFB8" d="M394.592 230.542h-.001v-.983c.164 0 .322-.08.415-.228.284-.448.577-.875.881-1.28a32.483 32.483 0 0 1 .305 1.265c-.119.176-.238.357-.356.542-.28.441-.758.684-1.244.684Zm-.003 0c-.137 0-.274-.019-.407-.057-.209-.805-.424-1.646-.636-2.517a20.388 20.388 0 0 1 1.642-2.183c.131.365.253.731.365 1.097a20.4 20.4 0 0 0-1.377 1.923.486.486 0 0 0 .152.678.488.488 0 0 0 .263.076v.983h-.002Zm2.866 6.665-.238-.062a.492.492 0 0 1-.253-.431l.062-.237.001-.001c.215-.386.436-.755.664-1.104l.61.87c-.142.23-.281.467-.416.712h.001a.493.493 0 0 1-.431.253Z"/>
  <path fill="#ABAFB8" d="M397.458 238.189h-.004c-.241 0-.488-.06-.712-.184v.001l-.002-.001a1.478 1.478 0 0 1-.759-1.291c0-.242.061-.489.187-.714l-.007.01.006-.01c.292-.527.597-1.026.918-1.495l.606.867c-.228.349-.449.718-.664 1.104l-.001.001-.062.237c.001.174.09.34.253.431l.238.062a.493.493 0 0 0 .431-.253h-.001c.135-.245.274-.482.416-.712l.618.883c-.058.1-.117.202-.174.306a1.474 1.474 0 0 1-1.287.758Z"/>
  <path fill="#CCCFD3" d="m397.671 248.792-.236-.061a.49.49 0 0 1-.256-.431l.061-.235c.305-.553.623-1.069.954-1.548l.324 1.3c-.143.232-.281.472-.416.72l-.001.001a.487.487 0 0 1-.43.254Z"/>
  <path fill="#ABAFB8" d="M398.518 247.817c-.106-.421-.214-.856-.324-1.3 1.06-1.529 2.256-2.678 3.588-3.46.037.339.075.707.115 1.097-1.278.847-2.41 2.079-3.379 3.663Z"/>
  <path fill="#CCCFD3" d="M397.674 249.775h-.003a1.473 1.473 0 0 1-1.293-2.183c.464-.849.967-1.624 1.507-2.319l.309 1.244c-.331.478-.649.994-.954 1.548l-.061.235a.49.49 0 0 0 .256.431l.236.061a.487.487 0 0 0 .43-.254l.001-.001c.135-.248.273-.488.416-.72l.338 1.36a1.469 1.469 0 0 1-1.182.598Z"/>
  <path fill="#ABAFB8" d="m398.856 249.177-.338-1.36c.969-1.584 2.101-2.816 3.38-3.663l.114 1.122c-1.133.861-2.149 2.099-3.048 3.733v-.001a1.52 1.52 0 0 1-.108.169Zm-.662-2.66-.309-1.244c1.109-1.429 2.375-2.529 3.784-3.277.022.198.046.417.07.653l.044.408c-1.333.782-2.529 1.931-3.589 3.46Zm2.025 6.564a.49.49 0 0 1-.46-.32l-.001-.001-.031-.17c0-.2.123-.388.322-.461a12.642 12.642 0 0 1 2.541-.662c.029.337.054.667.079.985-.745.112-1.506.313-2.28.599l-.17.03Z"/>
  <path fill="#CCCFD3" d="M400.219 254.064a1.472 1.472 0 0 1-1.383-.964l.001.002a1.475 1.475 0 0 1 .562-1.738l.595 2.39s.207.095.574.269a1.533 1.533 0 0 1-.349.041Z"/>
  <path fill="#ABAFB8" d="M400.568 254.023a56.637 56.637 0 0 0-.574-.269l-.595-2.39c.095-.063.198-.116.309-.157a13.51 13.51 0 0 1 2.8-.721c.028.332.057.66.082.98-.822.121-1.67.342-2.541.663a.49.49 0 0 0-.321.461l.03.17.001.001a.49.49 0 0 0 .46.32l.17-.03a11.535 11.535 0 0 1 2.28-.599c.026.341.049.671.07.984-.648.103-1.318.281-2.009.537h.001a1.91 1.91 0 0 1-.163.05Zm-14.166 1.132a13.38 13.38 0 0 1-1.666-.942 1.471 1.471 0 0 0-.248-1.458c-.892-1.071-1.829-1.975-2.81-2.703v-6.329c.219-.051.429-.154.612-.307l.001-.001a1.47 1.47 0 0 0 .177-2.077 19.56 19.56 0 0 0-.79-.884v-2.643c.088-.768.18-1.538.272-2.299.226.13.48.196.731.196h.004a1.471 1.471 0 0 0 1.079-.472 1303.015 1303.015 0 0 1 2.638 19.919Zm-2.971-22.27c-.337-.343-.68-.668-1.026-.976.153-1.182.299-2.269.425-3.191.2 1.367.401 2.76.601 4.167Z"/>
  <path fill="#777F8C" d="M381.678 250.052a12.159 12.159 0 0 0-.432-.306 8.582 8.582 0 0 1-.351-2.49c-.001-.883.068-2.102.183-3.518.087.016.174.024.261.024h.004c.112 0 .225-.014.335-.039v6.329Zm0-9.598a13.468 13.468 0 0 0-.262-.27c.082-.777.17-1.574.262-2.373v2.643Z"/>
  <path fill="#CCCFD3" d="M382.683 234.725a.493.493 0 0 1-.356-.153v-.001a17.745 17.745 0 0 0-.23-.24c.051-.415.103-.825.154-1.227.265.252.528.515.789.79a.489.489 0 0 1-.019.695l-.009.01.009-.009a.49.49 0 0 1-.338.135Z"/>
  <path fill="#CCCFD3" d="M382.681 235.708a1.47 1.47 0 0 1-.731-.196l.121-.979.026-.202c.076.078.154.159.23.24v.001a.493.493 0 0 0 .694.018l-.01.009.01-.01a.489.489 0 0 0 .019-.695 21.777 21.777 0 0 0-.789-.79l.154-1.195c.346.308.689.633 1.026.976l.333 2.351a1.471 1.471 0 0 1-1.079.472h-.004Zm-1.003 6.938v-.72l.038.045.001.001a.49.49 0 0 1-.039.674Z"/>
  <path fill="#ABAFB8" d="M381.341 242.779a.529.529 0 0 1-.177-.033c.037-.412.078-.837.12-1.27.132.146.263.296.394.45v.72l-.021.018.001-.001a.487.487 0 0 1-.317.116Z"/>
  <path fill="#CCCFD3" d="M381.678 243.723v-1.077a.49.49 0 0 0 .039-.674l-.001-.001-.038-.045v-1.472c.267.281.531.576.79.884a1.472 1.472 0 0 1-.177 2.077l-.001.001a1.476 1.476 0 0 1-.612.307Z"/>
  <path fill="#ABAFB8" d="M381.343 243.762h-.004a1.44 1.44 0 0 1-.261-.024c.027-.321.055-.652.086-.992a.487.487 0 0 0 .494-.083l-.001.001.021-.018v1.077c-.11.025-.223.039-.335.039Zm.335-1.836a19.8 19.8 0 0 0-.394-.45c.042-.423.086-.854.132-1.292.088.088.175.178.262.27v1.472Z"/>
  <path fill="#CCCFD3" d="M383.814 253.525a9.408 9.408 0 0 1-.607-.556 8.267 8.267 0 0 1-.984-1.184 17.517 17.517 0 0 1 1.509 1.599.48.48 0 0 1 .082.141Z"/>
  <path fill="#CCCFD3" d="M384.736 254.213c-.321-.214-.63-.444-.922-.689a.489.489 0 0 0-.082-.14 17.517 17.517 0 0 0-1.509-1.599 7.537 7.537 0 0 1-.545-.937v-.796c.981.728 1.918 1.632 2.81 2.703a1.471 1.471 0 0 1 .248 1.458Z"/>
  <path fill="#ABAFB8" d="M381.678 250.848a7.502 7.502 0 0 1-.432-1.103c.145.099.289.201.432.307v.796Z"/>
  <path fill="#CCCFD3" d="M392.571 256.889c-1.665-.258-3.163-.595-4.15-.926-.326-.108-.65-.225-.971-.353-1.122-9.035-2.581-19.907-3.983-29.304a1.47 1.47 0 0 0 1.362-1.47c0-.446-.205-.891-.589-1.18a20 20 0 0 0-1.056-.739c.062-2.078.444-3.473.974-4.319.292-.466.622-.772.981-.969.36-.196.76-.289 1.207-.289h.012c.309 0 .642.048.989.137l.892 4.749 4.332 34.663Z"/>
  <path fill="#E0E3E4" d="m383.354 225.327-.035-.001-.126-.835c-.005-.132-.008-.261-.011-.389.156.11.312.224.467.34a.49.49 0 0 1 .098.689.49.49 0 0 1-.393.196Z"/>
  <path fill="#E0E3E4" d="m383.467 226.306-.148-.98.035.001a.49.49 0 0 0 .492-.491.49.49 0 0 0-.197-.394c-.155-.117-.311-.23-.467-.34a20.294 20.294 0 0 1 .002-1.185 20 20 0 0 1 1.056.739 1.479 1.479 0 0 1 .294 2.064 1.47 1.47 0 0 1-1.067.586Z"/>
  <path fill="#CCCFD3" d="M393.579 257.032a40.764 40.764 0 0 1-1.008-.143l-4.332-34.663-.892-4.749c.345.09.706.221 1.073.388l.79 4.209 4.369 34.958Zm-6.129-1.422a16.171 16.171 0 0 1-1.048-.455 1303.015 1303.015 0 0 0-2.638-19.919 1.47 1.47 0 0 0 .393-1.003 1.469 1.469 0 0 0-.403-1.014 34.506 34.506 0 0 0-.323-.334c-.2-1.407-.401-2.8-.601-4.167l.052-.386a459 459 0 0 1 .283-2.034c.062.008.125.012.188.012h.003c.037 0 .073-.001.111-.004 1.402 9.397 2.861 20.269 3.983 29.304Z"/>
  <path fill="#E0E3E4" d="M383.319 225.326a.464.464 0 0 1-.083-.014 27.814 27.814 0 0 1-.043-.821l.126.835Z"/>
  <path fill="#E0E3E4" d="M383.357 226.31h-.004c-.063 0-.126-.004-.188-.012l.085-.606.008-.054-.004-.053-.018-.273a.464.464 0 0 0 .083.014l.148.98a1.38 1.38 0 0 1-.11.004Zm.407 8.926-.333-2.351c.108.11.215.221.323.334.269.284.404.651.403 1.014a1.47 1.47 0 0 1-.393 1.003Z"/>
  <path fill="#ABAFB8" d="M397.945 258.322a35.767 35.767 0 0 1-4.24-.283l-.126-1.007c1.446.187 2.961.307 4.341.307h.032c1.091 0 2.098-.075 2.909-.239.813-.161 1.419-.426 1.708-.714.193-.195.269-.363.274-.612 0-.185-.004-.4-.013-.641.316.161.649.332.995.512l.001.129c.005.514-.221.984-.573 1.317-.352.338-.811.572-1.343.749-1.064.351-2.447.48-3.965.482Zm-7.161-38.955a13.11 13.11 0 0 0-1.352-.958 9.376 9.376 0 0 0-1.012-.544l-.196-1.041c.15.054.309.085.472.088.42.184.837.407 1.249.658.495.304.981.651 1.45 1.026-.122.128-.243.259-.363.392a1.466 1.466 0 0 0-.248.379Z"/>
  <path fill="#777F8C" d="M403.825 255.645c-.346-.18-.679-.351-.995-.512a53.603 53.603 0 0 0-.091-1.697c.332-.053.658-.086.979-.1.062.927.102 1.725.107 2.309Zm-1.317-5.159-.078-.876c-.133-1.47-.281-2.984-.418-4.334.301-.229.61-.431.926-.607a346.728 346.728 0 0 1 .548 5.721c-.324.017-.65.049-.978.096Zm-.839-8.49c-.057-.539-.1-.927-.12-1.114l-2.63-3.757c.184-.317.373-.617.567-.903l3.012 4.303.014.124.099.907c-.32.13-.634.277-.942.44Zm-4.584-7.491-.129-.183-.009-.136c0-.001-.01-.136-.034-.394a39.354 39.354 0 0 0-.721-4.476c.249-.364.504-.711.765-1.041.049.201.097.399.143.595.451 1.97.671 3.685.766 4.582-.269.333-.53.684-.781 1.053Zm-1.897-8.72c-.598-1.67-1.387-3.28-2.402-4.491.161-.08.31-.191.437-.333v.001c.098-.109.197-.216.296-.32 1.029 1.225 1.815 2.752 2.418 4.333-.255.259-.504.529-.749.81Z"/>
  <path fill="#CCCFD3" d="M392.087 220.465a.48.48 0 0 1-.092-.017c-.11-.108-.222-.215-.335-.321a.492.492 0 0 1 .102-.481c.068-.076.136-.149.205-.223.036.347.076.695.12 1.042Z"/>
  <path fill="#ABAFB8" d="m392.128 220.466-.041-.001a46.145 46.145 0 0 1-.12-1.042l.176-.187c.244.221.481.449.709.68-.121.126-.241.256-.36.388a.48.48 0 0 1-.364.162Z"/>
  <path fill="#CCCFD3" d="m392.099 220.552-.104-.104a.48.48 0 0 0 .092.017l.012.087Zm-.439-.425a15.729 15.729 0 0 0-.876-.76c.061-.136.144-.263.248-.379.12-.133.241-.264.363-.391.18.145.359.295.534.449l.038.377-.205.223a.496.496 0 0 0-.102.481Z"/>
  <path fill="#ABAFB8" d="M392.786 221.294a7.02 7.02 0 0 0-.289-.327c-.12-.13-.243-.258-.369-.386v-.115a.48.48 0 0 0 .364-.162c.119-.132.239-.262.36-.388.125.126.247.254.366.383.103.111.203.226.301.343a15.34 15.34 0 0 0-.296.32v-.001a1.452 1.452 0 0 1-.437.333Zm-.658-.713-.029-.029-.012-.087.041.001v.115Zm-.161-1.158-.038-.377c.072.063.144.126.214.19-.06.062-.118.124-.176.187Zm3.92 8.628a29.646 29.646 0 0 0-.334-1.169c.246-.304.497-.594.753-.87.121.367.234.733.339 1.097-.259.3-.512.613-.758.942Z"/>
  <path fill="#ABAFB8" d="m396.193 229.316-.052-.227a32.483 32.483 0 0 0-.254-1.038c.246-.329.499-.642.758-.942.113.394.217.784.312 1.166-.261.33-.516.677-.764 1.041Zm-.64-2.434a24.292 24.292 0 0 0-.365-1.097c.245-.281.494-.551.749-.81.132.344.255.69.37 1.037-.257.276-.508.566-.754.87Zm2.747 9.36-.609-.87c.195-.3.394-.586.599-.859l.594.85c-.2.28-.395.573-.584.879Z"/>
  <path fill="#ABAFB8" d="m398.919 237.125-.618-.883c.188-.306.383-.599.583-.879l.602.859c-.194.286-.383.586-.567.903Zm-1.228-1.753-.606-.867c.251-.369.512-.72.781-1.053.025.236.04.415.05.527l.374.534c-.205.273-.404.559-.599.859Zm4.206 8.782c-.04-.39-.078-.758-.115-1.097.306-.179.619-.339.938-.479.033.317.071.666.109 1.04a8.454 8.454 0 0 0-.932.536Z"/>
  <path fill="#ABAFB8" d="m402.013 245.276-.115-1.122c.302-.2.613-.38.931-.536.036.332.072.684.109 1.051a7.695 7.695 0 0 0-.925.607Zm-.23-2.219-.044-.407-.069-.654c.307-.163.621-.31.941-.439l.109 1.021c-.319.14-.632.3-.937.479Zm.886 9.395c-.025-.318-.05-.648-.079-.986.331-.048.657-.08.979-.096.028.336.053.665.078.985a9.41 9.41 0 0 0-.978.097Z"/>
  <path fill="#ABAFB8" d="M402.739 253.436a108.06 108.06 0 0 0-.07-.984c.329-.05.656-.082.978-.097l.071.981a8.573 8.573 0 0 0-.979.1Zm-.149-1.969c-.025-.321-.054-.649-.082-.981.328-.047.654-.079.978-.096.029.332.057.659.083.98-.322.016-.648.048-.979.097Z"/>
  <path fill="#CCCFD3" d="M388.696 216.912a1.473 1.473 0 0 1-.472-.088l-.021-.109c.165.059.329.125.493.197Z"/>
  <path fill="#ABAFB8" d="M386.545 256.299a14.694 14.694 0 0 1-2.445-1.329c.069-.04.135-.085.197-.137l.004-.003-.002.001c.203-.169.351-.385.437-.618a13.38 13.38 0 0 0 1.666.942l.143 1.144Zm-4.867-18.488v-.222c0-.704.008-1.463.016-2.264.079.073.166.135.256.187-.092.761-.184 1.531-.272 2.299Zm.727-5.902a19.683 19.683 0 0 0-.697-.591 125.75 125.75 0 0 0-.021-1.481c.257-1.926.465-3.397.549-3.994.063.045.125.09.188.138.134.899.27 1.811.406 2.737-.126.922-.272 2.009-.425 3.191Z"/>
  <path fill="#777F8C" d="M381.246 249.745a11.866 11.866 0 0 0-1.18-.71 9.842 9.842 0 0 1-.155-1.779c.001-1.03.088-2.461.23-4.104l.072.085-.001-.001c.229.274.54.443.866.502-.115 1.416-.184 2.635-.183 3.518a8.57 8.57 0 0 0 .351 2.489Zm.17-9.562a16.69 16.69 0 0 0-.898-.841c.167-1.537.355-3.124.544-4.655.184.18.368.367.552.56h-.001c.026.027.053.054.081.078-.008.801-.016 1.56-.016 2.264v.222c-.092.799-.18 1.596-.262 2.372Zm.292-8.865-.197-.157.176-1.324c.01.499.017.995.021 1.481Z"/>
  <path fill="#CCCFD3" d="m382.221 224.637-.006-.004-.002-.049.008.053Zm.203 1.343a11.16 11.16 0 0 0-.188-.137l.034-.239a32.368 32.368 0 0 1-.055-.971l.006.004.203 1.343Zm-.327 8.351a20.45 20.45 0 0 0-.391-.389c.004-.434.006-.879.007-1.331.18.159.359.323.538.493-.051.402-.103.812-.154 1.227Z"/>
  <path fill="#ABAFB8" d="M381.706 233.943a16.306 16.306 0 0 0-.494-.462l.15-1.173c.117.098.234.2.351.303-.001.452-.003.897-.007 1.332Z"/>
  <path fill="#CCCFD3" d="M381.95 235.512a1.433 1.433 0 0 1-.256-.187c.005-.448.009-.91.012-1.383.131.127.261.256.391.389l-.026.202-.121.979Zm.301-2.408c-.179-.17-.358-.334-.538-.493 0-.425-.001-.855-.005-1.293.234.189.466.386.697.591l-.154 1.195Z"/>
  <path fill="#ABAFB8" d="M381.694 235.325c-.028-.024-.054-.051-.081-.078h.001c-.184-.193-.367-.38-.552-.559l.034-.276.116-.931c.166.149.331.303.494.462-.002.472-.007.934-.012 1.382Zm.019-2.714a22.854 22.854 0 0 0-.35-.303l.148-1.147c.066.052.133.104.197.157.004.438.005.868.005 1.293Zm-.549 10.135a.473.473 0 0 1-.198-.141l-.001-.001a16.988 16.988 0 0 0-.702-.786c.04-.413.082-.835.126-1.263.301.287.6.595.895.921-.043.433-.083.858-.12 1.27Z"/>
  <path fill="#ABAFB8" d="M381.078 243.738a1.464 1.464 0 0 1-.865-.502l.001.001-.073-.085c.037-.431.078-.877.122-1.334.238.249.471.511.702.786l.001.001a.473.473 0 0 0 .198.141c-.031.34-.059.671-.086.992Zm.206-2.262a17.465 17.465 0 0 0-.895-.921c.042-.399.084-.805.129-1.213.304.264.603.544.898.841-.046.439-.09.87-.132 1.293Z"/>
  <path fill="#CCCFD3" d="M383.354 254.19a.485.485 0 0 1-.378-.177 15.996 15.996 0 0 0-1.298-1.39v-1.319c.183.154.364.314.545.481.29.426.621.82.984 1.184.194.194.396.379.607.556a.492.492 0 0 1-.145.552l.002-.001a.49.49 0 0 1-.317.114Z"/>
  <path fill="#ABAFB8" d="M381.678 252.623a11.403 11.403 0 0 0-.199-.184 8.499 8.499 0 0 1-1.059-2.064c.424.274.844.583 1.258.929v1.319Z"/>
  <path fill="#CCCFD3" d="M384.1 254.97c-.566-.386-1.1-.819-1.588-1.306a9.034 9.034 0 0 1-.834-.952v-.089c.443.419.876.883 1.298 1.39a.496.496 0 0 0 .695.063l-.002.001a.487.487 0 0 0 .145-.553c.292.245.601.475.922.689a1.466 1.466 0 0 1-.437.618l.002-.001-.004.003a1.388 1.388 0 0 1-.197.137Zm-1.877-3.185a15.911 15.911 0 0 0-.545-.481v-.456c.161.329.343.641.545.937Z"/>
  <path fill="#ABAFB8" d="M381.678 252.712a9.077 9.077 0 0 1-.199-.273c.067.06.133.122.199.184v.089Zm0-1.408a12.774 12.774 0 0 0-1.258-.929 8.855 8.855 0 0 1-.354-1.34c.399.209.793.446 1.18.71.118.389.263.755.432 1.103v.456Z"/>
  <path fill="#CCCFD3" d="M392.698 257.902c-1.813-.267-3.465-.634-4.589-1.006-.174-.059-.349-.12-.524-.183l-.135-1.103c.321.128.645.245.971.353.987.331 2.485.668 4.15.926l.127 1.013Z"/>
  <path fill="#CCCFD3" d="M393.705 258.039c-.34-.042-.676-.088-1.007-.137l-.127-1.013c.33.051.667.099 1.008.143l.126 1.007Zm-6.12-1.326a19.385 19.385 0 0 1-1.04-.414l-.143-1.144c.344.164.694.315 1.048.455l.135 1.103Zm-4.401-33.796-.257-.164c-.137-.889-.272-1.756-.407-2.604.089-.389.196-.747.319-1.074.417-1.111 1.046-1.882 1.829-2.309a3.452 3.452 0 0 1 1.674-.408h.004c.266.001.535.025.804.072l.197 1.047a4.016 4.016 0 0 0-.989-.137h-.012c-.447 0-.847.093-1.207.289-.359.197-.689.503-.981.969-.53.846-.912 2.241-.974 4.319Z"/>
  <path fill="#E0E3E4" d="M383.193 224.49a62.333 62.333 0 0 0-.065-.425l.053.037.012.388Z"/>
  <path fill="#E0E3E4" d="M383.182 224.102a1 1 0 0 1-.053-.037l-.202-1.312.257.164a21.965 21.965 0 0 0-.002 1.185Z"/>
  <path fill="#CCCFD3" d="M382.83 228.718c-.136-.926-.272-1.838-.406-2.737l.045.033c.21.158.451.252.696.284a459 459 0 0 0-.283 2.034l-.052.386Zm.097-5.965a18.248 18.248 0 0 0-.701-.419 13.42 13.42 0 0 1 .294-2.185c.135.849.27 1.715.407 2.604Z"/>
  <path fill="#E0E3E4" d="M383.236 225.312a.481.481 0 0 1-.176-.083 17.129 17.129 0 0 0-.839-.592c-.003-.018-.006-.034-.007-.053a24.435 24.435 0 0 1-.022-1.028v-.101c.313.19.626.394.936.61l.065.425c.01.266.024.54.043.822Z"/>
  <path fill="#E0E3E4" d="M383.165 226.298a1.474 1.474 0 0 1-.696-.284l-.045-.033-.203-1.344c.281.186.561.383.839.592a.465.465 0 0 0 .176.083l.018.273.004.054-.008.053-.085.606Zm-.037-2.233c-.31-.216-.623-.42-.936-.61.002-.392.014-.765.034-1.121.235.134.468.272.701.419l.201 1.312Z"/>
  <path fill="#CCCFD3" d="M388.42 217.865a6.655 6.655 0 0 0-1.073-.388l-.197-1.047c.214.038.429.088.643.151.129.104.274.187.431.243l.196 1.041Z"/>
  <path fill="#E0E3E4" d="M388.224 216.824a1.466 1.466 0 0 1-.431-.243c.136.039.274.084.411.134l.02.109Z"/>
  <path fill="#ABAFB8" d="m371.673 289.25-.605-7.272.005-.094c.04-.615.281-3.511 1.356-6.871 1.074-3.363 2.983-7.175 6.304-9.674 2.031-1.531 3.673-2.85 5.353-3.769.946-.517 1.901-.913 2.958-1.162.149 1.252.29 2.448.42 3.577a370.2 370.2 0 0 1 .707 6.609c.167 1.738.259 2.981.258 3.526.001 2.3-.381 5.573-.765 8.255a148.5 148.5 0 0 1-.527 3.399c-.143.86-.239 1.381-.239 1.382l-.066.363c-8.215.45-13.508 1.401-15.159 1.731Zm49.439-.248c-9.613-1.284-18.126-1.724-25.277-1.724-.693 0-1.372.004-2.038.012l3.534-.246-3.301-26.399c3.239.723 7.403 2.223 13.035 4.75 6.239 2.799 9.834 6.392 11.891 9.936 2.054 3.544 2.571 7.054 2.571 9.692a19.21 19.21 0 0 1-.262 3.2c-.055.321-.109.583-.153.779Z"/>
  <path fill="#CCCFD3" d="M387.975 286.711c.351-2.034 1.433-8.584 1.436-12.591-.001-.63-.094-1.865-.261-3.62-.242-2.518-.638-6.086-1.138-10.273a12.508 12.508 0 0 1 1.724-.116h.016c.972 0 2.048.104 3.262.327l3.212 25.698-8.251.575Z"/>
  <path fill="#CCCFD3" d="m386.832 287.519.066-.363c0-.001.096-.522.239-1.382a148.5 148.5 0 0 0 .527-3.399c.384-2.681.766-5.955.765-8.255.001-.545-.091-1.788-.258-3.526a362.28 362.28 0 0 0-.708-6.609 794.54 794.54 0 0 0-.419-3.577c.313-.073.635-.133.968-.181.5 4.187.896 7.755 1.138 10.273.167 1.755.26 2.99.261 3.62-.003 4.007-1.085 10.557-1.436 12.591l8.251-.575-3.212-25.698c.328.06.667.129 1.016.207l3.301 26.399-3.535.246c-2.509.03-4.835.113-6.964.229Z"/>
  <path fill="#777F8C" d="m370.788 290.451-.003-.031.398-.06-.395.091Z"/>
  <path fill="#ABAFB8" d="m370.703 289.438-.62-7.446.001-.031c.002-.026.134-2.935 1.198-6.56 1.066-3.621 3.062-7.979 6.859-10.846 2.017-1.52 3.684-2.865 5.472-3.847 1.037-.57 2.117-1.011 3.314-1.281l.117.981c-1.057.249-2.012.645-2.958 1.162-1.68.919-3.322 2.238-5.354 3.769-3.32 2.499-5.229 6.311-6.303 9.674-1.075 3.36-1.316 6.256-1.356 6.871l-.005.094.605 7.273c1.651-.331 6.943-1.282 15.158-1.732l-.021.123a208.99 208.99 0 0 0-16.107 1.796Zm51.358-.179-.534-.056c-7.708-.808-19.285-1.85-27.664-1.851-.349 0-.693.002-1.031.006l.964-.068c.667-.008 1.346-.012 2.039-.012 7.151 0 15.664.44 25.277 1.724.044-.196.098-.458.153-.779.131-.768.261-1.872.261-3.2 0-2.638-.517-6.148-2.571-9.692-2.056-3.543-5.651-7.137-11.89-9.936-5.632-2.527-9.796-4.027-13.035-4.75l-.128-1.034c3.398.716 7.706 2.263 13.565 4.888 6.397 2.866 10.177 6.609 12.339 10.339 2.162 3.728 2.703 7.423 2.703 10.185 0 2.011-.286 3.534-.448 4.236Z"/>
  <path fill="#ABAFB8" d="m370.785 290.42-.082-.982a208.99 208.99 0 0 1 16.107-1.796l-.026.137 6.048-.421c.339-.004.683-.006 1.031-.006 8.38.001 19.956 1.043 27.665 1.851l.533.056c-.062.271-.106.42-.109.429l-.12.403-.416-.057c-9.746-1.322-18.363-1.773-25.581-1.773h-.002c-13.536 0-22.16 1.585-24.084 1.976-.275.056-.409.088-.41.088l-.156.035-.398.06Z"/>
  <path fill="#CCCFD3" d="M393.014 260.438c-1.214-.223-2.29-.327-3.262-.327h-.016c-.612 0-1.183.041-1.724.116l-.117-.976a13.28 13.28 0 0 1 1.825-.122h.016c.962.001 2.004.093 3.15.289l.128 1.02Zm-6.204 27.204.022-.123a164.14 164.14 0 0 1 6.964-.229l-.964.068c-.985.01-1.92.038-2.792.083a172.81 172.81 0 0 0-3.23.201Z"/>
  <path fill="#CCCFD3" d="m386.784 287.779.026-.137a172.81 172.81 0 0 1 3.23-.201 67.775 67.775 0 0 1 2.792-.083l-6.048.421Zm7.246-27.134a26.26 26.26 0 0 0-1.016-.207l-.128-1.02c.331.056.668.119 1.016.193l.128 1.034Zm-6.986-.237-.117-.981a12.4 12.4 0 0 1 .968-.176l.117.976c-.333.048-.655.108-.968.181Z"/>
  <path fill="#F8A492" d="M341 272c1.062-5.882 2.455-8.176 4.447-10.114 1.991-1.938 2.577-3.922 3.001-3.886.537.049 1.463 3.364-1.716 7.273C344.165 268.095 341 272 341 272Z"/>
  <defs>
    <filter id="a" width="602" height="611" x="14" y="0" color-interpolation-filters="sRGB" filterUnits="userSpaceOnUse">
      <feFlood flood-opacity="0" result="BackgroundImageFix"/>
      <feColorMatrix in="SourceAlpha" result="hardAlpha" values="0 0 0 0 0 0 0 0 0 0 0 0 0 0 0 0 0 0 127 0"/>
      <feOffset dx="50" dy="60"/>
      <feGaussianBlur stdDeviation="17.5"/>
      <feColorMatrix values="0 0 0 0 0.306545 0 0 0 0 0.325997 0 0 0 0 0.38368 0 0 0 0.2 0"/>
      <feBlend in2="BackgroundImageFix" result="effect1_dropShadow_367_125"/>
      <feColorMatrix in="SourceAlpha" result="hardAlpha" values="0 0 0 0 0 0 0 0 0 0 0 0 0 0 0 0 0 0 127 0"/>
      <feOffset dx="-12" dy="-12"/>
      <feGaussianBlur stdDeviation="17.5"/>
      <feColorMatrix values="0 0 0 0 1 0 0 0 0 1 0 0 0 0 1 0 0 0 0.5 0"/>
      <feBlend in2="effect1_dropShadow_367_125" result="effect2_dropShadow_367_125"/>
      <feBlend in="SourceGraphic" in2="effect2_dropShadow_367_125" result="shape"/>
      <feColorMatrix in="SourceAlpha" result="hardAlpha" values="0 0 0 0 0 0 0 0 0 0 0 0 0 0 0 0 0 0 127 0"/>
      <feOffset dx="-10" dy="-12"/>
      <feGaussianBlur stdDeviation="6"/>
      <feComposite in2="hardAlpha" k2="-1" k3="1" operator="arithmetic"/>
      <feColorMatrix values="0 0 0 0 1 0 0 0 0 1 0 0 0 0 1 0 0 0 0.3 0"/>
      <feBlend in2="shape" result="effect3_innerShadow_367_125"/>
      <feColorMatrix in="SourceAlpha" result="hardAlpha" values="0 0 0 0 0 0 0 0 0 0 0 0 0 0 0 0 0 0 127 0"/>
      <feOffset dx="-10" dy="12"/>
      <feGaussianBlur stdDeviation="12.5"/>
      <feComposite in2="hardAlpha" k2="-1" k3="1" operator="arithmetic"/>
      <feColorMatrix values="0 0 0 0 0.000347137 0 0 0 0 0.000347137 0 0 0 0 0.000347137 0 0 0 0.19 0"/>
      <feBlend in2="effect3_innerShadow_367_125" result="effect4_innerShadow_367_125"/>
    </filter>
    <filter id="c" width="482.009" height="450.237" x="36.04" y="94.21" color-interpolation-filters="sRGB" filterUnits="userSpaceOnUse">
      <feFlood flood-opacity="0" result="BackgroundImageFix"/>
      <feColorMatrix in="SourceAlpha" result="hardAlpha" values="0 0 0 0 0 0 0 0 0 0 0 0 0 0 0 0 0 0 127 0"/>
      <feOffset dy="4"/>
      <feGaussianBlur stdDeviation="10"/>
      <feComposite in2="hardAlpha" operator="out"/>
      <feColorMatrix values="0 0 0 0 0 0 0 0 0 0 0 0 0 0 0 0 0 0 0.25 0"/>
      <feBlend in2="BackgroundImageFix" result="effect1_dropShadow_367_125"/>
      <feBlend in="SourceGraphic" in2="effect1_dropShadow_367_125" result="shape"/>
    </filter>
    <filter id="d" width="182.616" height="184.706" x="298.01" y="149.649" color-interpolation-filters="sRGB" filterUnits="userSpaceOnUse">
      <feFlood flood-opacity="0" result="BackgroundImageFix"/>
      <feColorMatrix in="SourceAlpha" result="hardAlpha" values="0 0 0 0 0 0 0 0 0 0 0 0 0 0 0 0 0 0 127 0"/>
      <feOffset dy="4"/>
      <feGaussianBlur stdDeviation="15"/>
      <feComposite in2="hardAlpha" operator="out"/>
      <feColorMatrix values="0 0 0 0 0.50868 0 0 0 0 0.50868 0 0 0 0 0.50868 0 0 0 0.98 0"/>
      <feBlend in2="BackgroundImageFix" result="effect1_dropShadow_367_125"/>
      <feBlend in="SourceGraphic" in2="effect1_dropShadow_367_125" result="shape"/>
    </filter>
    <linearGradient id="b" x1="-27" x2="613" y1="277" y2="281.994" gradientUnits="userSpaceOnUse">
      <stop stop-color="#4746B8"/>
      <stop offset=".543" stop-color="#705884"/>
      <stop offset="1" stop-color="#936859"/>
    </linearGradient>
  </defs>
</svg>
