<svg xmlns="http://www.w3.org/2000/svg" width="100%" height="100%" fill="none" viewBox="0 0 661 748">
  <g filter="url(#a)">
    <g filter="url(#b)" opacity=".14">
      <path fill="#fff" d="M545 399.5C545 526.802 441.802 630 314.5 630S84 526.802 84 399.5 187.198 169 314.5 169 545 272.198 545 399.5Z" shape-rendering="crispEdges"/>
      <path stroke="#000" stroke-opacity=".11" stroke-width="18" d="M314.5 639C446.772 639 554 531.772 554 399.5S446.772 160 314.5 160 75 267.228 75 399.5 182.228 639 314.5 639Z" shape-rendering="crispEdges"/>
    </g>
    <g filter="url(#c)">
      <path fill="url(#d)" d="M453.501 350.697 256.537 244.409c-6.865-3.675-14.523.192-14.773 7.514l-5.556 163.739a12.074 12.074 0 0 0 6.424 10.755l196.964 106.288c6.864 3.675 14.522-.192 14.765-7.506l5.563-163.747a12.073 12.073 0 0 0-6.423-10.755Z" opacity=".05"/>
      <path fill="url(#e)" d="m447.621 494.536-1.205 35.779c-.228 7.352-7.893 11.197-14.75 7.491L234.702 431.512a11.998 11.998 0 0 1-6.46-10.734l5.57-163.746c.228-7.352 7.894-11.204 14.751-7.499l84.562 45.624-4.446 130.856c-.008 1.874.5 3.715 1.467 5.321a10.227 10.227 0 0 0 4.015 3.787l107.529 58.312a9.493 9.493 0 0 0 5.931 1.103Z" opacity=".3"/>
      <path fill="#E6EFF3" d="M254.457 273.626c1.488-1.52 1.411-4.01-.172-5.561-1.583-1.551-4.073-1.577-5.561-.057-1.489 1.52-1.412 4.009.171 5.561 1.584 1.551 4.073 1.577 5.562.057Zm10.871 5.678c1.488-1.52 1.412-4.009-.172-5.561-1.583-1.551-4.073-1.576-5.561-.057-1.488 1.52-1.412 4.01.171 5.561 1.584 1.551 4.074 1.577 5.562.057Zm11.573 5.684c1.488-1.52 1.411-4.01-.172-5.561-1.583-1.551-4.073-1.577-5.561-.057-1.489 1.52-1.412 4.009.171 5.561 1.583 1.551 4.073 1.577 5.562.057Z"/>
      <path fill="url(#f)" d="m458.91 348.469-4.726 138.605a7.589 7.589 0 0 1-6.563 7.454 9.617 9.617 0 0 1-5.931-1.073l-107.551-58.312a10.246 10.246 0 0 1-5.453-9.108l4.409-130.856.258-7.705v-23.26a3.757 3.757 0 0 1 5.644-3.242l38.041 22.224a3.678 3.678 0 0 1 1.837 2.874c.272 2.875.838 8.543 1.507 13.703l73.008 39.595a10.297 10.297 0 0 1 5.52 9.101Z" opacity=".43"/>
      <path fill="#E6EFF3" d="m422.508 457.587-69.18-38.617-.132 3.132 69.173 38.617.139-3.132Zm-15.801-.595-43.163-23.29-.132 3.132 43.156 23.29.139-3.132ZM262.162 323.058c4.168-1.774 5.005-9.188 1.87-16.559-3.136-7.371-9.057-11.908-13.225-10.134-4.168 1.774-5.005 9.188-1.87 16.559 3.136 7.371 9.057 11.908 13.225 10.134Zm59.41 15.186-51.233-28.539-.14 3.132 51.24 28.538.133-3.131Zm-25.936-6.22-25.216-13.21-.14 3.131 25.223 13.211.133-3.132Z"/>
      <path fill="#E6EFF3" d="m308.673 371.457-60.338-33.61-.155 3.69 60.332 33.611.161-3.691Zm-.213 9.381-60.022-32.266-.162 3.691 60.023 32.265.161-3.69Zm.213 13.262-60.338-33.611-.155 3.691 60.332 33.61.161-3.69Zm-30.536-7.322-29.699-15.556-.162 3.683 29.699 15.556.162-3.683Z" opacity=".8"/>
      <path fill="#CCD4D8" d="m222.391 276.881-.646-1.176v-8.337a.547.547 0 0 1 .267-.471.546.546 0 0 1 .541-.007l14.625 7.991a.518.518 0 0 1 .28.39l1.822 11.306-16.889-9.696Z"/>
      <path fill="#CCD4D8" d="M219.782 273.97h4.961l42.37 21.885a2.805 2.805 0 0 1 1.469 2.941l-5.526 35.287-43.274-60.113Z"/>
      <path fill="#E6EFF3" d="m262.879 297.274-41.561-22.43a2.003 2.003 0 0 0-3.116 1.581l-1.176 34.552a2.547 2.547 0 0 0 1.353 2.301l41.575 22.437a2.017 2.017 0 0 0 3.124-1.588l1.168-34.552a2.537 2.537 0 0 0-1.367-2.301Z"/>
      <path fill="url(#g)" d="M231.887 289.511c1.227 1.36 2.455 2.72 3.675 4.065 4.365 4.774 8.733 9.542 13.103 14.306.236.324.443.669.618 1.029v.221c-.184.11-.346.301-.559.323-1.595.118-3.204.199-4.806.316-.279 0-.478-.095-.735-.507-2.22-3.377-4.449-6.741-6.688-10.094a.855.855 0 0 0-.272-.286l1.389 3.455c1.161 2.896 2.327 5.795 3.498 8.697a.877.877 0 0 1 .052.772c-.801 1.698-1.573 3.425-2.367 5.146a2.219 2.219 0 0 1-.389.5l-.397-.228a11.555 11.555 0 0 1-.412-1.125 37052.29 37052.29 0 0 1-6.335-25.818 3.312 3.312 0 0 0-.103-.339v-.852l.728.419Z"/>
      <path fill="#E6EFF3" d="m218.834 278.52-.646-1.176v-8.329a.536.536 0 0 1 .264-.477.539.539 0 0 1 .544-.008l14.625 7.991a.51.51 0 0 1 .28.389l1.822 11.307-16.889-9.697Z"/>
      <path fill="#E6EFF3" d="M403.451 385.05v-.095c0-.441.037-.868 0-1.316-.073-1.647-.257-3.352-.227-4.94a35.231 35.231 0 0 0-.934-8.682 2.404 2.404 0 0 1-.088-.736c.117-2.99-.16-5.984-.823-8.902a14.106 14.106 0 0 1-.265-2.206 23.473 23.473 0 0 0-.896-6.388 10.2 10.2 0 0 0-2.771-4.712 13.23 13.23 0 0 1-2.131-2.426c-.596-.846-1.184-1.691-1.808-2.478a5.645 5.645 0 0 1-1.206-2.742c.229-.207.417-.457.551-.735a36.32 36.32 0 0 0 .559-1.801c.963.272 1.191-1.779.735-2.654-.25-.448-.456-.529-.61-.493.2-.654.291-1.337.272-2.021a8.534 8.534 0 0 0-.698-2.941 2.828 2.828 0 0 0-1.117-1.36 4.5 4.5 0 0 0-1.786-1.874c-1.47-.978-3.205-1.125-3.675.382a7.723 7.723 0 0 0-.081 3.764c-.154-.243-.382-.449-.647-.272-.485.323-.249 2.69.735 3.514.111.536.25 1.088.405 1.624.154.537.382 1.213.565 1.816.069.146.111.303.125.463-.139.581-.323 1.103-.823 1.199-.823.161-1.595.433-2.41.603a2.327 2.327 0 0 1-1.206 0c-1.991-.655-3.086.419-3.674 2.514a18.512 18.512 0 0 0-.493 4.778c0 .335-.044.669-.132.993a23.608 23.608 0 0 0-.955 8.38c.008.218-.025.434-.096.64a18.549 18.549 0 0 0-.86 4.734c-.11 2.367-.184 4.757-.272 7.146 0 .434-.051.86-.044 1.308v1.838s0 3.007.169 3.911c.159.802.37 1.593.632 2.367.257.598.549 1.18.875 1.743.308.456.779 1.058.647.375-.133-.684-.831-1.801-.978-2.412l.86.934c.169.176.176-.096.176-.096a6.562 6.562 0 0 0-1.227-2.087 4.843 4.843 0 0 1 .037-1.412c.198-.926.426-1.242.786-1.007.36.235.47 1.279.889 1.86.419.581.537.14.537.14-.397-.78-.257-2.022-.382-2.875a4.266 4.266 0 0 0-.529-1.47 2.753 2.753 0 0 1 .08-.735c.662-2.514 1.353-5.007 1.889-7.624a24.11 24.11 0 0 0 .316-4.293 5.856 5.856 0 0 1 .162-1.61c.36-1.154.691-2.33 1.036-3.499.037-.118.081-.236.118-.346l.147.096c.169 3.051.367 6.116.485 9.145a36.703 36.703 0 0 1-.074 4.337c-.272 3.162-.735 6.19-.904 9.403-.12 4.414.198 8.829.948 13.181a52.1 52.1 0 0 1 .632 8.035 14.678 14.678 0 0 1-.264 2.11c-.103.662-.265 1.272-.331 1.956a33.329 33.329 0 0 0 .61 8.682c.471 2.58 1.073 5.19 1.654 7.792a21.78 21.78 0 0 1 .61 3.676 7.434 7.434 0 0 0-.36 1.713c0 .809-1.948 1.47-2.205 2.323a1.297 1.297 0 0 0 .154 1.279l4.748 2.735c.485.287.735-.052.735-.846 0-.794-.529-5.454-.573-5.837a68.633 68.633 0 0 1 .095-11.225 33.731 33.731 0 0 0-.404-8.712 7.684 7.684 0 0 1 .147-3.271c.232-.826.38-1.673.441-2.529.309-4.742.58-9.513.867-14.269a148 148 0 0 1 .118-1.757.615.615 0 0 1 .11.36c.287 5.19.566 10.38.867 15.578.005 1.425.17 2.846.493 4.234a7.743 7.743 0 0 1 .169 3.558 28.805 28.805 0 0 0-.412 7.999c.088.97.206 1.97.221 2.903.036 2.941.124 5.882-.089 8.616 0 0-.566 4.411-.566 5.205a1.883 1.883 0 0 0 .735 1.72l4.748 2.743s.412 0 .147-1.103-2.205-4.036-2.205-4.882a13.407 13.407 0 0 0-.36-2.124 9.109 9.109 0 0 1 .632-2.941 39.7 39.7 0 0 0 1.845-6.895 25.48 25.48 0 0 0 .309-7.933c-.133-1.051-.441-2.205-.471-3.175-.065-2.675.139-5.35.61-7.984.735-4.293 1.33-8.668.794-13.821-.221-2.161-.375-4.293-.537-6.425-.132-1.75-.338-3.551-.323-5.22 0-2.205.176-4.359.316-6.513.066-1.088.213-2.125.323-3.183.522 1.985.949 3.896 1.375 5.815.014.122.014.245 0 .367 0 1.265-.066 2.492.073 3.801a103.497 103.497 0 0 0 2.065 11.226c.068.299.1.605.096.911a1.168 1.168 0 0 0-.559.897c-.125.735 0 2.117-.382 2.434 0 0 .118.573.537.477.419-.095.522-1.021.889-.83.368.191.588.735.786 1.918.087.486.102.981.045 1.471-.441.051-1.096.206-1.228.676 0 0 0 .287.177.294l.859.066c-.147.434-.859.735-.977 1.279-.118.544.338.471.647.375.331-.193.627-.441.874-.735a6.637 6.637 0 0 0 .632-1.632c.14-.735.177-3.676.177-3.676l-.03-1.654Z" opacity=".5"/>
      <path fill="#FFCFCD" d="M348.728 426.961s2.52-17.055 5.225-19.386c2.705-2.33 14.589-12.497 15.625-11.578 1.47 1.316-7.026 11.093-6.651 12.306.375 1.213 9.4 4.499 8.282 8.785-1.117 4.286-9.421 16.614-9.421 16.614l-4.947 4.102-7.555-4.293-.558-6.55Z"/>
      <path fill="#E8E8E8" d="M205.245 530.396c2.043 9.712 9.907 17.644 15.353 20.334 5.446 2.691 18.594 7.271 34.094 6.073 14.853-1.147 26.62.97 30.302-4.918.169-.258.323-.508.47-.736 2.705-4.41 5.049-9.704 5.314-14.967.367-7.433-2.308-14.527-3.352-21.797-1.154-7.999.625-16.019 1.47-23.966.86-7.837 1.529-5.014 1.529-6.403 0-.331.066-2.941.125-6.8.198-12.66.33-38.618-2.117-40.117-3.197-1.963-21.512-4.007-22.702-4.521-1.191-.515-5.27-4.617-9.18-6.823-3.909-2.205-20.953-8.351-29.309-11.762a21.553 21.553 0 0 0-15.838 0s-10.223 5.462-10.399 16.908c-.177 11.447 4.777 39.698 4.777 41.904 0 18.805-4.248 39.021-.537 57.591Z"/>
      <path fill="#FFCFCD" d="M224.207 426.866c.228.889 5.468 5.491 17.469 4.602 9.018-.669 15.765-1.471 18.572-1.875l1.433-.191s-2.359-13.02-1.984-15.313c.375-2.294 4.086-4.345 5.879-5.146 1.794-.802 5.108-5.492 5.108-7.411 0-1.588-.691-8.314-.94-10.645-.052-.499-.081-.801-.081-.801s.97-1.816.389-2.602a14.45 14.45 0 0 1-1.286-3.073s-2.425-9.712-3.675-11.763c-1.249-2.051-3.571-12.137-9.833-12.269-6.262-.132-34.241 31.949-34.241 31.949s5.49 15.218 6.254 17.769c.765 2.551-.786 8.741-3.123 10.093-2.337 1.353-.154 5.786.059 6.676Z"/>
      <path fill="#3A4666" d="M262.629 389.152c0 .383 2.066 6.852 2.066 6.852l-2.44 1.081s-2.83-6.918-4.476-6.984c-1.647-.066-6.372 7.719-6.372 9.189 0 1.47-5.777 11.762-10.627 13.233-2.286.698-5.424.382-8.085-.125a43.933 43.933 0 0 1-5.328-1.397s-2.315-6.094-3.616-7.109c-1.301-1.014-7.577-7.954-10.054-19.305-2.477-11.35.507-25.914 15.853-30.641 0 0 1.999-.478 4.667-1.022 3.674-.786 8.466-1.676 10.906-1.676 3.675 0 8.408 1.426 10.407 2.794.257.145.492.326.698.537 1.271 1.396 5.88 5.484 6.122 6.756a57.808 57.808 0 0 0 2.315 5.932s-.544 3.617-.095 4.536a4.513 4.513 0 0 1-.162 2.25 47.872 47.872 0 0 0-1.169 5.146c-.103 1.926-.61 9.571-.61 9.953Z"/>
      <path fill="#262626" d="m245.469 399.342 1.514.683 6.614-6.822 12.09-6.278c.397-.206.838-.507 1.301-.316.451.259.804.66 1.006 1.139a2.935 2.935 0 0 0 2.146 1.404 2.204 2.204 0 0 0 2.477-1.654c.177-.632.346-1.264.5-1.904.323-1.284.6-2.582.83-3.896a.874.874 0 0 0-.198-.742 15.347 15.347 0 0 0-2.08-2.537c-1.565-1.426-3.675-2.139-5.512-3.146l.515 1.632c.036.133.093.259.169.375.126.146.288.258.47.323l3.381 1.632c.94.736 1.132.736 1.132 1.471a.6.6 0 0 1-.059.323.54.54 0 0 1-.213.169c-5.498 3.132-12.127 7.014-17.639 10.145l-.096.052-8.348 7.947Zm22.231-13.704a.669.669 0 0 1 .17-.124l1.513-.868 1.823-1.044.64-.367s.235-.103.242-.14c-.125.831.39 3.382 0 4.087a1.654 1.654 0 0 1-1.073.735c-.47.18-.986.203-1.47.067a2.546 2.546 0 0 1-.999-.853 4.859 4.859 0 0 1-.809-1.125c-.117-.191-.117-.287-.037-.368Z"/>
      <path fill="#E8E8E8" d="M268.531 453.772c-4.733 11.108-4.733 20.474-4.16 23.613.125.639.257 1.007.39 1.08.786.464 25.98 9.403 39.091 10.829a251.768 251.768 0 0 0 29.508 1.323c3.124-.08 5.982-.83 11.678-11.894 5.696-11.064 17.859-41.705 17.257-45.249a4.997 4.997 0 0 0-1.338-2.573c-1.712-1.874-4.777-3.102-7.967-4.682-4.476-2.206-8.937 3.153-8.937 3.153l-18.079 33.589a86.63 86.63 0 0 1-9.062-5.146c-2.205-1.411-6.82-4.712-11.715-8.285l-.044-.044h-.037c-7.82-5.72-16.374-12.115-17.278-12.578-1.47-.787-13.604 3.455-19.307 16.864Z"/>
      <path fill="#D1D1D1" d="M264.371 477.385c.125.639.257 1.007.39 1.08.786.464 25.98 9.403 39.091 10.829a251.768 251.768 0 0 0 29.508 1.323c3.124-.08 5.982-.83 11.678-11.894 5.696-11.064 17.859-41.705 17.257-45.249a4.997 4.997 0 0 0-1.338-2.573c-2.036 6.507-7.423 23.628-8.283 25.407-1.065 2.206-12.494 24.054-14.324 26.179-1.83 2.124-14.397 1.352-20.821 1.183-6.423-.169-25.987-1.374-33.682-3.198-7.695-1.823-19.476-3.087-19.476-3.087Z" style="mix-blend-mode:multiply"/>
      <path fill="#E8E8E8" d="m262.872 431.578-2.006-6.977s-17.845 1.809-20.013 1.596c-2.168-.214-16.088-7.624-16.088-7.624l1.742-1.911-3.719 2.609-.874 6.154 3.917 8.468 13.464 1.75 23.577-4.065Z"/>
      <path fill="#262626" d="M246.071 432.842a101.097 101.097 0 0 1-17.256-1.426c-5.409-.941-8.452-2.727-9.047-5.322-1.095-4.727 6.776-10.292 7.099-10.535l-.308 1c-.074.059-6.997 5.146-6.02 9.358.515 2.25 3.344 3.838 8.408 4.72a105.828 105.828 0 0 0 34.417.037l.735.735a109.295 109.295 0 0 1-18.028 1.433Z"/>
      <path fill="#3A4666" d="M270.148 367.164c-1.205 2.728-3.675 4.668-5.711 6.852a12.516 12.516 0 0 0-2.506 3.492l-3.77-.096c-3.675-1.301-7.768-.735-11.546.287-3.778 1.022-7.548 2.316-11.45 2.477a19.267 19.267 0 0 1-14.655-6.123 15.093 15.093 0 0 1-1.992-2.507 9.017 9.017 0 0 1-1.712-5.08 7.905 7.905 0 0 1 2.822-5.551 22.649 22.649 0 0 1 5.453-3.396c3.043-1.551 6.086-3.073 9.136-4.631 3.902-1.963 7.797-3.963 11.7-5.933a21.636 21.636 0 0 1 5.49-2.154 16.161 16.161 0 0 1 1.742-.191c2.415.009 4.809.449 7.07 1.301 2.285.735 4.601 1.742 6.342 3.455 2.286 2.257 3.271 5.492 3.903 8.631.632 3.139.955 6.344-.316 9.167Z"/>
      <path fill="#3994C1" d="M255.559 354.005c.048.337.048.678 0 1.015-.257 1.47-1.683 2.595-3.175 2.94a14.668 14.668 0 0 1-4.534 0 40.288 40.288 0 0 0-23.21 5.073 8.293 8.293 0 0 0-3.013 2.507c-.83 1.337-.926 2.984-.985 4.535-.066 1.338-.095 2.64-.132 3.97-.279 10.755.287 21.922 6.57 30.421 1.588 2.205 3.521 4.094 4.976 6.344.341.46.57.994.669 1.558a43.713 43.713 0 0 1-5.329-1.396s-2.315-6.095-3.616-7.109c-1.3-1.015-7.606-7.925-10.083-19.276-2.477-11.35.507-25.914 15.853-30.641 0 0 1.999-.478 4.667-1.022 3.902-1.962 7.797-3.962 11.7-5.932a21.636 21.636 0 0 1 5.49-2.154 16.161 16.161 0 0 1 1.742-.191 3.612 3.612 0 0 0-1.176 2.065c-.375 2.728 3.109 4.757 3.557 7.352l.029-.059Z" opacity=".3" style="mix-blend-mode:multiply"/>
    </g>
  </g>
  <defs>
    <linearGradient id="d" x1="229.018" x2="551.834" y1="498.822" y2="190.524" gradientUnits="userSpaceOnUse">
      <stop stop-color="#E6EFF3"/>
      <stop offset=".84" stop-color="#E6EFF3" stop-opacity="0"/>
    </linearGradient>
    <linearGradient id="e" x1="222.715" x2="495.139" y1="491.757" y2="264.267" gradientUnits="userSpaceOnUse">
      <stop stop-color="#ECF9FF"/>
      <stop offset=".84" stop-color="#E6EFF3" stop-opacity="0"/>
    </linearGradient>
    <linearGradient id="f" x1="259.565" x2="535.539" y1="252.989" y2="528.885" gradientUnits="userSpaceOnUse">
      <stop stop-color="#E6EFF3"/>
      <stop offset=".84" stop-color="#E6EFF3" stop-opacity="0"/>
    </linearGradient>
    <linearGradient id="g" x1="231.167" x2="249.298" y1="303.28" y2="303.28" gradientUnits="userSpaceOnUse">
      <stop stop-color="#2C427C"/>
      <stop offset="1" stop-color="#117691"/>
    </linearGradient>
    <filter id="a" width="501" height="505" x="66" y="146" color-interpolation-filters="sRGB" filterUnits="userSpaceOnUse">
      <feFlood flood-opacity="0" result="BackgroundImageFix"/>
      <feBlend in="SourceGraphic" in2="BackgroundImageFix" result="shape"/>
      <feColorMatrix in="SourceAlpha" result="hardAlpha" values="0 0 0 0 0 0 0 0 0 0 0 0 0 0 0 0 0 0 127 0"/>
      <feOffset dx="1" dy="-5"/>
      <feGaussianBlur stdDeviation="2.5"/>
      <feComposite in2="hardAlpha" k2="-1" k3="1" operator="arithmetic"/>
      <feColorMatrix values="0 0 0 0 0 0 0 0 0 0 0 0 0 0 0 0 0 0 0.18 0"/>
      <feBlend in2="shape" result="effect1_innerShadow_356_141"/>
      <feColorMatrix in="SourceAlpha" result="hardAlpha" values="0 0 0 0 0 0 0 0 0 0 0 0 0 0 0 0 0 0 127 0"/>
      <feOffset dx="4" dy="1"/>
      <feGaussianBlur stdDeviation="2.5"/>
      <feComposite in2="hardAlpha" k2="-1" k3="1" operator="arithmetic"/>
      <feColorMatrix values="0 0 0 0 0 0 0 0 0 0 0 0 0 0 0 0 0 0 0.18 0"/>
      <feBlend in2="effect1_innerShadow_356_141" result="effect2_innerShadow_356_141"/>
      <feColorMatrix in="SourceAlpha" result="hardAlpha" values="0 0 0 0 0 0 0 0 0 0 0 0 0 0 0 0 0 0 127 0"/>
      <feOffset dy="3"/>
      <feGaussianBlur stdDeviation="2.5"/>
      <feComposite in2="hardAlpha" k2="-1" k3="1" operator="arithmetic"/>
      <feColorMatrix values="0 0 0 0 0 0 0 0 0 0 0 0 0 0 0 0 0 0 0.18 0"/>
      <feBlend in2="effect2_innerShadow_356_141" result="effect3_innerShadow_356_141"/>
    </filter>
    <filter id="b" width="512" height="509" x="62" y="151" color-interpolation-filters="sRGB" filterUnits="userSpaceOnUse">
      <feFlood flood-opacity="0" result="BackgroundImageFix"/>
      <feColorMatrix in="SourceAlpha" result="hardAlpha" values="0 0 0 0 0 0 0 0 0 0 0 0 0 0 0 0 0 0 127 0"/>
      <feOffset dx="6" dy="7"/>
      <feGaussianBlur stdDeviation="2.5"/>
      <feComposite in2="hardAlpha" operator="out"/>
      <feColorMatrix values="0 0 0 0 0 0 0 0 0 0 0 0 0 0 0 0 0 0 0.94 0"/>
      <feBlend in2="BackgroundImageFix" result="effect1_dropShadow_356_141"/>
      <feColorMatrix in="SourceAlpha" result="hardAlpha" values="0 0 0 0 0 0 0 0 0 0 0 0 0 0 0 0 0 0 127 0"/>
      <feOffset dy="4"/>
      <feGaussianBlur stdDeviation="2"/>
      <feComposite in2="hardAlpha" operator="out"/>
      <feColorMatrix values="0 0 0 0 0 0 0 0 0 0 0 0 0 0 0 0 0 0 0.25 0"/>
      <feBlend in2="effect1_dropShadow_356_141" result="effect2_dropShadow_356_141"/>
      <feBlend in="SourceGraphic" in2="effect2_dropShadow_356_141" result="shape"/>
    </filter>
    <filter id="c" width="274.324" height="331.699" x="193.3" y="243" color-interpolation-filters="sRGB" filterUnits="userSpaceOnUse">
      <feFlood flood-opacity="0" result="BackgroundImageFix"/>
      <feColorMatrix in="SourceAlpha" result="hardAlpha" values="0 0 0 0 0 0 0 0 0 0 0 0 0 0 0 0 0 0 127 0"/>
      <feOffset dy="10"/>
      <feGaussianBlur stdDeviation="3.85"/>
      <feComposite in2="hardAlpha" operator="out"/>
      <feColorMatrix values="0 0 0 0 0 0 0 0 0 0 0 0 0 0 0 0 0 0 0.15 0"/>
      <feBlend in2="BackgroundImageFix" result="effect1_dropShadow_356_141"/>
      <feBlend in="SourceGraphic" in2="effect1_dropShadow_356_141" result="shape"/>
    </filter>
  </defs>
</svg>
