<svg xmlns="http://www.w3.org/2000/svg" width="818" height="868" fill="none" viewBox="0 0 818 868">
  <path fill="url(#a)" fill-opacity=".6" d="M686.619 630.304c117.43-130.85 106.519-332.149-24.371-449.615C531.359 63.224 330.056 74.075 212.626 204.926c-117.43 130.85-106.519 332.149 24.37 449.615 130.89 117.465 332.193 106.614 449.623-24.237Z"/>
  <g filter="url(#b)">
    <path fill="#fff" fill-opacity=".16" d="m736.777 570.832-17.174-1.249a43.342 43.342 0 0 0-4.902-11.866l11.241-13.008a3.125 3.125 0 0 0-.156-4.253l-8.831-8.831a3.122 3.122 0 0 0-4.246-.156l-12.996 11.26a43.519 43.519 0 0 0-11.866-4.927l-1.249-17.18a3.123 3.123 0 0 0-3.122-2.873h-12.491a3.128 3.128 0 0 0-2.132.833 3.127 3.127 0 0 0-.99 2.065l-1.249 17.18a43.493 43.493 0 0 0-11.866 4.902l-13.015-11.241a3.115 3.115 0 0 0-4.246.156l-8.831 8.831a3.121 3.121 0 0 0-.156 4.252l11.26 12.99a43.381 43.381 0 0 0-4.927 11.866l-17.174 1.249a3.12 3.12 0 0 0-2.879 3.122v12.491a3.126 3.126 0 0 0 2.904 3.122l17.174 1.249a43.493 43.493 0 0 0 4.902 11.866l-11.241 13.014a3.126 3.126 0 0 0 .156 4.247l8.831 8.831a3.125 3.125 0 0 0 4.246.156l12.996-11.26a43.5 43.5 0 0 0 11.866 4.927l1.249 17.174a3.123 3.123 0 0 0 3.122 2.879h12.491a3.128 3.128 0 0 0 3.122-2.904l1.249-17.174a43.493 43.493 0 0 0 11.866-4.902l13.014 11.241a3.123 3.123 0 0 0 4.247-.156l8.831-8.831a3.118 3.118 0 0 0 .156-4.246l-11.26-12.996a43.5 43.5 0 0 0 4.927-11.866l17.174-1.249a3.116 3.116 0 0 0 2.879-3.122v-12.491a3.12 3.12 0 0 0-2.904-3.122Zm-59.547 28.103a18.734 18.734 0 1 1 10.409-34.312 18.731 18.731 0 0 1 7.52 21.016 18.737 18.737 0 0 1-17.929 13.296Z"/>
  </g>
  <path fill="#fff" d="M345.319 724.951s1.747 12.992 3.464 14.959c5.765 6.628 18.743 4.387 25.182.389 4.072-2.526.289-11.265.289-11.265l-28.935-4.083Z"/>
  <path fill="#192351" d="M365.794 711.609s4.013 8.864 4.652 9.803c.649.938 11.58 14.355-2.95 17.315-14.525 2.96-17.799.878-21.238-8.94-1.977-5.675.174-16.691.174-16.691s.794 3.275 5.79 3.349c8.765.115 12.603-1.662 13.572-4.836Z"/>
  <path fill="#fff" d="m364.162 718.178-11.091 1.557a.756.756 0 0 1-.755-.368.742.742 0 0 1-.094-.281.751.751 0 0 1 .368-.756.756.756 0 0 1 .281-.092l11.091-1.563a.752.752 0 0 1 .849.649.757.757 0 0 1-.146.563.758.758 0 0 1-.503.291Zm.694 3.004-11.091 1.558a.752.752 0 0 1-.756-.368.758.758 0 0 1-.093-.281.757.757 0 0 1 .146-.563.744.744 0 0 1 .503-.291l11.091-1.557a.748.748 0 0 1 .848.649.759.759 0 0 1-.648.853Zm.763 3.524-11.086 1.557a.758.758 0 0 1-.562-.145.761.761 0 0 1-.291-.503.757.757 0 0 1 .146-.563.744.744 0 0 1 .503-.291l11.09-1.557a.752.752 0 0 1 .835.945.76.76 0 0 1-.635.557Z"/>
  <path fill="#244076" d="M344.61 574.018c-6.064-25.57-7.911-51.62-7.911-51.62L312.906 503.8l-51.94 18.972c-1.732 23.175-.419 127.025-.489 141.305-.075 14.28-.16 48.096-.16 48.096s17.14 3.808 23.983-1.967c0 0 3.449-24.921 4.288-36.571 2.83-39.736 10.152-106.749 10.152-106.749s11.161 31.794 20.719 56.946l22.511 85.147c21.153 2.051 27.158-3.389 27.158-3.389s-20.43-114.362-24.518-131.572Z"/>
  <path fill="#D9D9D9" d="M298.74 567.23a.338.338 0 0 1-.215-.078.34.34 0 0 1-.119-.196l-3.105-15.883c-.03-.185.09-.359.26-.389.189-.03.364.09.389.259l3.105 15.883c.03.189-.085.364-.26.389-.015.015-.025.015-.055.015Z"/>
  <path fill="#C47249" d="M284.63 466.795c-16.746 2.625-45.451 9.643-45.451 9.643 1.123-17.14 3.189-30.712 5.73-41.438 9.039-38.209 26.729-40.574 26.729-40.574l13.097 6.643 15.173 6.439s1.473 56.656-15.278 59.287Z"/>
  <path fill="#C47249" d="M265.833 470.244s7.392 20.734-7.078 22.93c-5.281.808-30.422-19.506-30.422-19.506l16.621-10.497 20.879 7.073Z"/>
  <path fill="#fff" d="M283.735 401.069c-1.098 14.32-3.958 32.628-11.38 34.221-9.214 1.961-22.411.549-28.461-.29 9.039-38.209 24.907-40.879 24.907-40.879l14.934 6.948Z"/>
  <path fill="#192351" d="M263.177 436.428a.179.179 0 0 1-.134-.052.169.169 0 0 1-.041-.061.178.178 0 0 1-.014-.072c0-.12.708-10.906 2.166-16.736.03-.105.13-.16.214-.13.105.025.16.13.13.215-1.457 5.82-2.151 16.561-2.151 16.676a.17.17 0 0 1-.17.16Z"/>
  <path fill="#C47249" d="M276.604 405.212c.06-.16 14.31 14.944 23.609 11.899 10.397-3.424 15.044-24.607 15.044-24.607l-1.648-21.268-.015-.345-.025-1.272-2.051.748-8.161 2.975-3.274 1.198-8.376 3.05s-.144 5.5-1.182 9.962c-.115.475-.22.909-.335 1.343a7.814 7.814 0 0 1-.968 2.007c-.894 1.402-2.007 2.296-2.007 2.311-2.106 4.432-10.541 11.999-10.611 11.999Z"/>
  <path fill="#C47249" d="M279.768 364.967c2.626 11.555 7.278 23.12 18.463 21.403 7.827-1.213 15.363-12.059 17.056-22.007.863-5.141 1.672-9.618 1.662-12.998-.015-2.67-.145-4.342-.145-4.342l-1.922-5.805-1.143-3.394s-2.51-2.036-5.326-4.332c-3.508-2.875-8.909 1.287-8.994 1.083-.145-.305-15.872-2.496-20.809 3.798-.015.015-.03.03-.03.045-.444.574-.793 1.153-1.008 1.747-.19.489-.274.993-.274 1.497 0 .969.045 2.426.099 4.263.045.764.075 1.602.13 2.496.09 1.502.22 3.149.39 4.881.349 3.624.923 7.667 1.851 11.665Z"/>
  <path fill="#192351" d="M281.121 370.268c2.416 10.556 6.903 17.125 17.23 16.102 9.873-.969 15.074-11.525 16.616-20.619-.838-2.152-1.702-7.482-1.702-7.482s-2.525-3.929-2.5-3.784c.334 1.632.219 12.778-4.577 14.165-5.211 1.518-7.073 2.86-9.065 2.831-1.991-.03-2.585-.719-4.332-.29-1.762.434-2.96 1.358-5.331.953-2.221-.359-4.677 1.213-6.339-1.876Z"/>
  <path fill="#192351" d="M317.468 351.236s1.876-25.296-12.868-25.296c0 0-11.48-5.371-24.168 1.951-8.345 4.807-5.331 14.899-4.492 18.393.519 2.196 1.412 4.013 1.702 3.899.809-.33.898-2.526 3.858-1.847 11.999 2.745 19.521-6.254 22.885-4.288 3.365 1.962 10.597 21.702 10.597 21.702s.609-9.328 2.486-14.514Z"/>
  <path fill="#C47249" d="M314.548 353.432s6.643-4.767 6.728 2.136c.09 6.903-6.324 10.197-6.324 10.197l-.404-12.333Z"/>
  <path fill="#fff" d="M290.594 377.096s.16.274.52.609c.623.604 1.836 1.427 3.668 1.213 1.807-.215 2.945-1.388 3.539-2.197.314-.459.474-.793.474-.793l-8.201 1.168Zm57.032 25.289c-10.804 20.489-12.649 88.052-10.015 123.793-23.715 5.584-57.788 8.35-77.985 2.782 2.925-38.172-1.774-101.174 9.347-134.985 0 0 12.665-3.639 20.982-3.975-7.006 9.473 19.262 12.039 24.815 0 0 0 26.78 5.553 32.856 12.385Z"/>
  <path fill="#192351" d="M263.177 436.428a.179.179 0 0 1-.134-.052.169.169 0 0 1-.041-.061.178.178 0 0 1-.014-.072c0-.12.708-10.906 2.166-16.736.03-.105.13-.16.214-.13.105.025.16.13.13.215-1.457 5.82-2.151 16.561-2.151 16.676a.17.17 0 0 1-.17.16Z"/>
  <path fill="#C47249" d="M382.08 475.485c3.295 13.127-8.14 18.567-32.832 9.358-11.67-4.347-20.086-5.879-22.831-8.345l1.518-13.547c2.051.624 14.929.939 26.508 2.456l-10.002-22.136c2.725-.215 13.222-2.686 22.351-11.146 8.385 18.308 12.458 32.099 15.288 43.36Z"/>
  <path fill="#192351" d="M376.984 472.485a.175.175 0 0 1-.081-.019.189.189 0 0 1-.063-.056c-5.341-7.377-22.237-6.843-22.397-6.828-.099 0-.169-.075-.184-.175 0-.1.07-.19.169-.19.045 0 4.348-.139 9.274.624 4.562.719 10.582 2.411 13.442 6.354.055.085.045.2-.045.26a.256.256 0 0 1-.115.03Z"/>
  <path fill="#C47249" d="M311.039 477.232c1.517-.994 3.364-1.383 9.648-.475 3.784.549 9.833-.838 11.48-1.198l-.609-11.654c-2.44-.634-6.408-3.25-9.368-4.647-3.714-1.747-7.787-4.737-10.901-3.669-5.301 1.792-11.595 4.922-10.817 6.903.809 1.977 7.048.025 7.048.025s-3.209 1.762-2.805 3.903c.404 2.137 3.219 2.84 3.219 2.84-1.512 2.227 1.213 4.293 1.213 4.293-1.237 2.006.679 4.462 1.892 3.679Z"/>
  <path fill="#192351" d="M309.162 473.738c-.055 0-.1-.03-.144-.07a.194.194 0 0 1-.037-.136.188.188 0 0 1 .066-.124c.1-.075 2.371-1.951 5.935-2.166h.015c.1 0 .175.07.19.17 0 .104-.075.189-.175.189-3.439.215-5.705 2.067-5.72 2.082a.174.174 0 0 1-.13.055Zm-1.213-4.288c-.054 0-.099-.015-.129-.06-.07-.07-.055-.184.015-.259.114-.1 2.96-2.581 6.324-3.13.104-.03.189.04.219.145.015.1-.06.185-.144.214-3.265.535-6.125 3.03-6.155 3.045a.211.211 0 0 1-.13.045Zm-.419-6.743c-.055 0-.13-.03-.154-.085-.045-.09-.015-.205.069-.245.03-.015 2.96-1.647 6.469-1.647.115 0 .245.055.23.185 0 .105-.085.19-.185.19h-.06c-3.404 0-6.249 1.572-6.279 1.587-.03 0-.06.015-.09.015Z"/>
  <path fill="#6F747C" d="M322.374 478.444h-50.821v-4.127h47.198a3.61 3.61 0 0 1 3.608 3.608v.519h.015Z"/>
  <path fill="#6F747C" d="M218.804 478.444h85.063l-8.566-54.924h-85.057l8.56 54.924Z"/>
  <path fill="#fff" d="M261.625 452.095c.08.42.115.839.115 1.263 0 .419-.035.839-.115 1.253a6.597 6.597 0 0 1-.888 2.291c-.22.344-.465.659-.744.948-.272.29-.575.549-.904.774a5.388 5.388 0 0 1-1.033.564c-.359.15-.734.259-1.118.329-.384.07-.774.1-1.163.085a5.437 5.437 0 0 1-1.163-.159 5.819 5.819 0 0 1-2.151-1.029 6.162 6.162 0 0 1-.903-.828 6.369 6.369 0 0 1-.744-.999c-.22-.359-.4-.733-.549-1.128a6.934 6.934 0 0 1-.454-2.48c0-.42.034-.839.114-1.248a6.548 6.548 0 0 1 .889-2.296 6.06 6.06 0 0 1 1.647-1.722 5.912 5.912 0 0 1 1.033-.564c.722-.3 1.5-.442 2.281-.414.394.01.784.064 1.168.159.384.095.754.23 1.118.4.36.174.704.384 1.028.629.33.244.629.519.904.828.279.31.524.639.744.998.219.36.399.734.549 1.128.149.4.264.804.339 1.218Z"/>
  <path fill="#C47249" d="M233.504 478.405s.709-.335.374-3.524c-.329-3.18.649-6.299 3.714-5.95 0 0 2.61-3.165 5.341-.03 0 0 3.159-1.427 5.24 1.198 0 0 2.616-1.458 3.929.479 1.312 1.932 1.961 7.537.015 8.92-1.967 1.387-6.973 2.151-11.565 2.081-4.592-.07-7.048-3.174-7.048-3.174Z"/>
  <path fill="#192351" d="M237.592 477.751c-.03 0-.06-.01-.09-.025-.085-.06-.115-.16-.07-.25 1.817-3.115 0-8.445-.015-8.49-.03-.1.015-.2.115-.23s.205.015.23.115c.074.235 1.891 5.545 0 8.795a.208.208 0 0 1-.17.085Zm5.34.274c-.03 0-.045 0-.075-.01a.21.21 0 0 1-.099-.249c1.587-3.639 0-8.765-.015-8.82-.025-.1.03-.205.114-.23a.186.186 0 0 1 .235.115c.07.215 1.647 5.326 0 9.079-.015.075-.09.115-.16.115Zm4.592.479a.216.216 0 0 1-.099-.03.177.177 0 0 1-.079-.11.185.185 0 0 1 .019-.134c1.906-2.905.634-8.041.619-8.086-.025-.1.029-.205.129-.215.105-.03.205.025.22.13.055.215 1.328 5.341-.664 8.37a.179.179 0 0 1-.145.075Z"/>
  <path fill="#244076" d="M661.884 591.907H404.721c-4.822 0-8.011-4.188-7.118-9.354l43.839-256.094c.794-4.632 5.181-8.75 9.818-9.224l245.823-24.662c5.53-.549 9.558 3.074 8.969 8.126l-32.434 280.886c-.663 5.7-5.934 10.322-11.734 10.322Z"/>
  <path fill="#fff" d="M655.081 585.124H397.923c-4.827 0-8.016-4.188-7.123-9.359l43.839-256.089c.794-4.637 5.186-8.75 9.818-9.229l245.828-24.663c5.53-.549 9.558 3.075 8.964 8.131L666.82 574.797c-.648 5.705-5.919 10.327-11.739 10.327Z"/>
  <path fill="#D9D9D9" d="m652.685 570.869-249.147 1.213 37.989-225.164L681.679 326l-28.994 244.869Z"/>
  <path fill="#fff" d="M453.901 327.023c-.36 2.166-2.411 4.073-4.577 4.272-2.167.205-3.609-1.382-3.25-3.534.365-2.151 2.396-4.057 4.562-4.277 2.151-.2 3.614 1.372 3.265 3.539Zm27.407-2.586c-.35 2.181-2.426 4.118-4.637 4.318-2.206.204-3.694-1.398-3.349-3.564.344-2.166 2.426-4.103 4.622-4.318 2.206-.204 3.708 1.383 3.364 3.564Zm-13.776 1.303c-.359 2.166-2.411 4.098-4.607 4.302-2.181.2-3.654-1.387-3.289-3.553.359-2.167 2.41-4.088 4.592-4.288 2.176-.215 3.663 1.373 3.304 3.539Zm112.045 57.785c-2.206 16.241-17.599 30.307-34.206 31.3-16.416.983-27.651-11.2-25.296-27.128 2.341-15.812 17.27-29.603 33.527-30.916 16.447-1.313 28.156 10.612 25.975 26.744Z"/>
  <path fill="#192351" d="M543.51 415.419c-7.362 0-13.816-2.64-18.323-7.567-4.792-5.226-6.798-12.418-5.645-20.23 2.365-15.967 17.614-30.032 34.005-31.345 8.286-.664 15.578 1.892 20.62 7.207 4.876 5.151 6.972 12.284 5.919 20.11-2.241 16.507-17.804 30.742-34.699 31.765-.619.03-1.258.06-1.877.06Zm12.578-58.204c-.809 0-1.617.03-2.456.1-15.927 1.288-30.771 14.944-33.067 30.467-1.108 7.497.808 14.37 5.385 19.376 4.667 5.102 11.57 7.642 19.382 7.163 16.416-.983 31.545-14.829 33.711-30.856 1.013-7.492-.978-14.335-5.645-19.262-4.288-4.547-10.382-6.988-17.31-6.988Z"/>
  <path fill="#192351" d="M560.301 377.645c-.749 5.241-5.73 9.823-11.116 10.182-5.356.374-9.069-3.569-8.301-8.78.764-5.196 5.701-9.733 11.046-10.137 5.356-.404 9.124 3.509 8.371 8.735Zm2.86 23.798-32.01 2.062 1.183-8.026c.39-2.626 2.86-4.897 5.531-5.081l22.176-1.533c2.715-.184 4.622 1.807 4.248 4.463l-1.128 8.115Z"/>
  <path fill="#D9D9D9" d="m563.735 553.449-74.109 3.324.468-2.902 74.065-3.394-.424 2.972Z"/>
  <g filter="url(#c)">
    <path fill="#192351" d="M434.364 274.928s-16.356 13.327-47.387 12.489v52.154s21.183 49.08 47.417 49.08c26.235 0 47.358-49.08 47.358-49.08v-52.154c-31.026.838-47.388-12.489-47.388-12.489Z"/>
  </g>
  <g filter="url(#d)">
    <path fill="#fff" d="M477.38 291.864v46.694c-1.488 3.234-6.354 13.386-13.327 23.364-7.232 10.337-18.253 22.656-29.673 22.656h-.03c-11.406-.015-22.436-12.334-29.674-22.671-6.988-9.963-11.864-20.115-13.342-23.359v-46.699c22.097-.589 36.652-7.737 43.016-11.65 6.384 3.923 20.938 11.071 43.03 11.665Z"/>
  </g>
  <mask id="e" width="49" height="110" x="432" y="277" maskUnits="userSpaceOnUse" style="mask-type:luminance">
    <path fill="#fff" d="M480.015 277.833h-47.277v108.611h47.277V277.833Z"/>
  </mask>
  <g mask="url(#e)">
    <path fill="#fff" d="M477.38 291.864v46.694c-1.488 3.234-6.354 13.386-13.327 23.364-7.232 10.337-18.253 22.656-29.673 22.656h-.03V280.199c6.384 3.923 20.938 11.071 43.03 11.665Z"/>
  </g>
  <path fill="#244076" d="m427.478 347.834-11.182-14.956a3.401 3.401 0 0 1-.646-2.529 3.397 3.397 0 0 1 1.338-2.24c1.511-1.117 3.647-.824 4.765.692l6.774 9.072 28.472-24.825c1.407-1.242 3.573-1.088 4.801.327a3.407 3.407 0 0 1-.326 4.806l-33.996 29.653Z"/>
  <path fill="#192351" d="M576.083 736.546a.535.535 0 0 1-.534-.534v-9.244c0-.3.245-.534.534-.534a.542.542 0 0 1 .534.534v9.244a.542.542 0 0 1-.534.534Z"/>
  <g filter="url(#f)">
    <path fill="#fff" d="M465.017 432.595a8.003 8.003 0 0 1 7.668-6.732l139.798-4.04c4.903-.141 8.777 4.121 8.17 8.988l-1.234 9.89a8 8 0 0 1-7.76 7.007l-140.001 3.132c-4.994.111-8.867-4.33-8.078-9.262l1.437-8.983Z"/>
  </g>
  <g filter="url(#g)">
    <path fill="#fff" d="M459.017 470.595a8.003 8.003 0 0 1 7.668-6.732l139.798-4.04c4.903-.141 8.777 4.121 8.17 8.988l-1.234 9.89a8 8 0 0 1-7.76 7.007l-140.001 3.132c-4.994.111-8.867-4.33-8.078-9.262l1.437-8.983Z"/>
  </g>
  <g filter="url(#h)">
    <path fill="#244076" d="M484.233 516.608a8.002 8.002 0 0 1 7.771-7.062l82.159-1.791c4.768-.104 8.567 3.96 8.142 8.71l-.374 4.189a7.996 7.996 0 0 1-7.859 7.287l-82.199 1.126c-4.833.066-8.621-4.136-8.055-8.936l.415-3.523Z"/>
  </g>
  <path fill="#192351" d="m514.28 477.743-1.305 2.145-3.104.091 3.016-4.433-2.497-3.961 3.173-.093 1.289 2.074 1.325-2.151 3.103-.091-3.078 4.37 2.545 4.04-3.178.093-1.289-2.084Zm9.05-.265-1.31 2.145-3.103.091 3.021-4.433-2.498-3.961 3.173-.093 1.289 2.074 1.325-2.151 3.104-.091-3.078 4.37 2.545 4.04-3.178.093-1.29-2.084Zm9.051-.265-1.311 2.145-3.103.091 3.021-4.433-2.498-3.961 3.174-.093 1.289 2.074 1.325-2.151 3.103-.09-3.083 4.369 2.545 4.04-3.173.093-1.289-2.084Zm9.05-.265-1.31 2.145-3.104.091 3.022-4.433-2.503-3.961 3.178-.093 1.289 2.075 1.32-2.151 3.103-.091-3.077 4.369 2.545 4.04-3.174.093-1.289-2.084Zm9.05-.265-1.31 2.146-3.103.09 3.021-4.432-2.503-3.962 3.178-.093 1.289 2.075 1.321-2.151 3.103-.091-3.078 4.369 2.545 4.041-3.173.092-1.29-2.084Zm9.046-.265-1.306 2.146-3.103.09 3.016-4.432-2.498-3.962 3.174-.093 1.289 2.075 1.325-2.151 3.103-.091-3.078 4.37 2.545 4.04-3.178.093-1.289-2.085Zm-41.247-36.675-1.305 2.145-3.104.091 3.016-4.433-2.497-3.961 3.173-.093 1.289 2.074 1.325-2.151 3.103-.091-3.078 4.37 2.545 4.04-3.178.093-1.289-2.084Zm9.05-.265-1.31 2.145-3.103.091 3.021-4.433-2.498-3.961 3.173-.093 1.289 2.074 1.325-2.151 3.104-.091-3.078 4.37 2.545 4.04-3.178.093-1.29-2.084Zm9.051-.265-1.311 2.145-3.103.091 3.021-4.433-2.498-3.961 3.174-.093 1.289 2.074 1.325-2.151 3.103-.09-3.083 4.369 2.545 4.04-3.173.093-1.289-2.084Zm9.05-.265-1.31 2.145-3.104.091 3.022-4.433-2.503-3.961 3.178-.093 1.289 2.075 1.32-2.151 3.103-.091-3.077 4.369 2.545 4.04-3.174.093-1.289-2.084Zm9.05-.265-1.31 2.146-3.103.09 3.021-4.432-2.503-3.962 3.178-.093 1.289 2.075 1.321-2.151 3.103-.091-3.078 4.369 2.545 4.041-3.173.092-1.29-2.084Zm9.046-.265-1.306 2.146-3.103.09 3.016-4.432-2.498-3.962 3.174-.093 1.289 2.075 1.325-2.151 3.103-.091-3.078 4.37 2.545 4.04-3.178.093-1.289-2.085Z"/>
  <g filter="url(#i)">
    <path fill="#fff" fill-opacity=".26" d="m511.779 612.882-11.612 17.379a52.582 52.582 0 0 0-15.463-1.937l-6.993-19.663a3.786 3.786 0 0 0-1.822-2.093 3.784 3.784 0 0 0-2.76-.291l-14.614 4.028a3.787 3.787 0 0 0-2.71 4.389l4.095 20.467a52.857 52.857 0 0 0-12.313 9.571l-18.882-8.979a3.786 3.786 0 0 0-4.904 1.574l-7.487 13.184a3.786 3.786 0 0 0-.397 2.75c.22.934.786 1.75 1.585 2.282l17.385 11.616a52.855 52.855 0 0 0-1.937 15.463l-19.666 7a3.792 3.792 0 0 0-2.381 4.576l4.028 14.614a3.79 3.79 0 0 0 1.665 2.221c.815.504 1.791.68 2.731.493l20.46-4.1a52.62 52.62 0 0 0 9.571 12.313l-8.975 18.876a3.787 3.787 0 0 0 1.57 4.911l13.184 7.486a3.792 3.792 0 0 0 5.036-1.194l11.612-17.379a52.755 52.755 0 0 0 15.463 1.938l7 19.666a3.796 3.796 0 0 0 4.576 2.38l14.614-4.028a3.787 3.787 0 0 0 2.71-4.389l-4.096-20.466a52.741 52.741 0 0 0 12.313-9.571l18.877 8.975a3.792 3.792 0 0 0 4.91-1.571l7.486-13.183a3.787 3.787 0 0 0-1.193-5.037l-17.379-11.612a52.787 52.787 0 0 0 1.937-15.463l19.666-7a3.787 3.787 0 0 0 2.381-4.576l-4.029-14.613a3.787 3.787 0 0 0-4.388-2.71l-20.467 4.095a52.81 52.81 0 0 0-9.571-12.313l8.975-18.876a3.79 3.79 0 0 0-1.57-4.91l-13.184-7.487a3.791 3.791 0 0 0-5.037 1.194Zm-6.027 79.698a22.742 22.742 0 0 1-22.582 11.338 22.741 22.741 0 0 1-19.912-23.148 22.739 22.739 0 0 1 21.069-22.101 22.738 22.738 0 0 1 21.425 33.911Z"/>
  </g>
  <g filter="url(#j)">
    <path fill="#fff" fill-opacity=".16" d="m626.779 142.882-11.612 17.379a52.582 52.582 0 0 0-15.463-1.937l-6.993-19.663a3.786 3.786 0 0 0-1.822-2.093 3.784 3.784 0 0 0-2.76-.291l-14.614 4.028a3.787 3.787 0 0 0-2.71 4.389l4.095 20.467a52.857 52.857 0 0 0-12.313 9.571l-18.882-8.979a3.786 3.786 0 0 0-4.904 1.574l-7.487 13.184a3.786 3.786 0 0 0-.397 2.75c.22.934.786 1.75 1.585 2.282l17.385 11.616a52.855 52.855 0 0 0-1.937 15.463l-19.666 7a3.792 3.792 0 0 0-2.381 4.576l4.028 14.614a3.79 3.79 0 0 0 1.665 2.221c.815.504 1.791.68 2.731.493l20.46-4.1a52.62 52.62 0 0 0 9.571 12.313l-8.975 18.876a3.787 3.787 0 0 0 1.57 4.911l13.184 7.486a3.792 3.792 0 0 0 5.036-1.194l11.612-17.379a52.755 52.755 0 0 0 15.463 1.938l7 19.666a3.796 3.796 0 0 0 4.576 2.38l14.614-4.028a3.787 3.787 0 0 0 2.71-4.389l-4.096-20.466a52.741 52.741 0 0 0 12.313-9.571l18.877 8.975a3.792 3.792 0 0 0 4.91-1.571l7.486-13.183a3.787 3.787 0 0 0-1.193-5.037l-17.379-11.612a52.787 52.787 0 0 0 1.937-15.463l19.666-7a3.787 3.787 0 0 0 2.381-4.576l-4.029-14.613a3.787 3.787 0 0 0-4.388-2.71l-20.467 4.095a52.81 52.81 0 0 0-9.571-12.313l8.975-18.876a3.79 3.79 0 0 0-1.57-4.91l-13.184-7.487a3.791 3.791 0 0 0-5.037 1.194Zm-6.027 79.698a22.744 22.744 0 0 1-22.582 11.338 22.741 22.741 0 0 1-19.912-23.148 22.739 22.739 0 0 1 21.069-22.101 22.738 22.738 0 0 1 21.425 33.911Z"/>
  </g>
  <mask id="k" width="71" height="70" x="383" y="179" maskUnits="userSpaceOnUse" style="mask-type:luminance">
    <path fill="#fff" d="M383.629 193.798 438.41 179l14.798 54.782-54.782 14.798-14.797-54.782Z"/>
  </mask>
  <g mask="url(#k)">
    <path fill="#E78F25" fill-opacity=".56" d="M431.925 199.723a.841.841 0 0 0-.428-.252l-17.612-3.95a.845.845 0 0 0-.756.204l-13.228 12.281a.846.846 0 0 0-.243.432l18.427 4.135 13.84-12.85Z"/>
    <path fill="#E78F25" fill-opacity=".56" d="m418.085 212.573 5.262 19.477a.83.83 0 0 0 .353-.195l13.228-12.281a.846.846 0 0 0 .24-.836l-5.043-18.666a.82.82 0 0 0-.2-.349l-13.84 12.85Z"/>
    <path fill="#E78F25" fill-opacity=".56" d="M399.658 208.438a.858.858 0 0 0 .003.403l5.043 18.666a.846.846 0 0 0 .627.602l17.612 3.95c.134.03.273.027.404-.009l-5.262-19.477-18.427-4.135Z"/>
    <g filter="url(#l)">
      <path fill="#1D1D1D" fill-opacity=".05" d="M438.682 192.689a1.253 1.253 0 0 0-.642-.378l-26.418-5.925a1.247 1.247 0 0 0-1.134.306l-19.842 18.421a1.259 1.259 0 0 0-.364.649l27.641 6.201 20.759-19.274Z"/>
      <path fill="url(#m)" fill-opacity=".2" d="M438.682 192.689a1.253 1.253 0 0 0-.642-.378l-26.418-5.925a1.247 1.247 0 0 0-1.134.306l-19.842 18.421a1.259 1.259 0 0 0-.364.649l27.641 6.201 20.759-19.274Z"/>
      <path stroke="url(#n)" stroke-opacity=".1" stroke-width="1.388" d="m391.451 205.313 19.509-18.112v-.001a.581.581 0 0 1 .51-.137l25.977 5.826-19.729 18.317-26.267-5.893Z"/>
    </g>
    <g filter="url(#o)">
      <path fill="#1D1D1D" fill-opacity=".05" d="m417.922 211.962 7.892 29.216a1.26 1.26 0 0 0 .53-.293l19.841-18.421a1.263 1.263 0 0 0 .359-1.253l-7.563-27.999a1.238 1.238 0 0 0-.299-.524l-20.76 19.274Z"/>
      <path fill="url(#p)" fill-opacity=".2" d="m417.922 211.962 7.892 29.216a1.26 1.26 0 0 0 .53-.293l19.841-18.421a1.263 1.263 0 0 0 .359-1.253l-7.563-27.999a1.238 1.238 0 0 0-.299-.524l-20.76 19.274Z"/>
      <path stroke="url(#q)" stroke-opacity=".1" stroke-width="1.388" d="m438.438 193.861 7.436 27.531a.556.556 0 0 1-.161.563l-19.486 18.092-7.526-27.862 19.737-18.324Z"/>
    </g>
    <g filter="url(#r)">
      <path fill="#1D1D1D" fill-opacity=".05" d="M390.282 205.761c-.047.199-.046.407.005.605l7.563 27.999a1.26 1.26 0 0 0 .941.902l26.418 5.926c.2.045.408.04.606-.013l-7.892-29.217-27.641-6.202Z"/>
      <path fill="url(#s)" fill-opacity=".2" d="M390.282 205.761c-.047.199-.046.407.005.605l7.563 27.999a1.26 1.26 0 0 0 .941.902l26.418 5.926c.2.045.408.04.606-.013l-7.892-29.217-27.641-6.202Z"/>
      <path stroke="url(#t)" stroke-opacity=".1" stroke-width="1.388" d="M398.52 234.185v-.001l-7.437-27.532 26.279 5.896 7.526 27.862-25.945-5.82a.567.567 0 0 1-.423-.405Z"/>
    </g>
  </g>
  <path fill="#fff" d="M342.615 399s8.086 3.812 15.216 15.234c6.455 10.345 12.957 23.129 11.619 24.592-8.219 9.102-27.201 10.174-27.201 10.174l-8.623-15.319L342.615 399Z"/>
  <mask id="u" width="38" height="37" x="220" y="273" maskUnits="userSpaceOnUse" style="mask-type:luminance">
    <path fill="#fff" d="m220.63 293.424 16.53-20.421 20.42 16.53-16.53 20.421-20.42-16.53Z"/>
  </mask>
  <g mask="url(#u)">
    <path fill="#E78F25" fill-opacity=".56" d="M240.351 282.533a.382.382 0 0 0-.229.021l-7.679 3.3a.395.395 0 0 0-.228.282l-1.627 8.197a.38.38 0 0 0 .026.228l8.034-3.452 1.703-8.576Zm-1.703 8.576 7.261 5.877a.382.382 0 0 0 .079-.169l1.628-8.197a.387.387 0 0 0-.137-.378l-6.958-5.633a.38.38 0 0 0-.17-.076l-1.703 8.576Z"/>
    <path fill="#E78F25" fill-opacity=".56" d="M230.614 294.561c.024.058.062.11.111.15l6.958 5.633a.393.393 0 0 0 .399.055l7.678-3.3a.394.394 0 0 0 .149-.113l-7.261-5.877-8.034 3.452Z"/>
    <g filter="url(#v)">
      <path fill="#1D1D1D" fill-opacity=".05" d="M240.976 278.06a.587.587 0 0 0-.344.032l-11.517 4.949a.588.588 0 0 0-.342.423l-2.442 12.296a.59.59 0 0 0 .04.342l12.051-5.177 2.554-12.865Z"/>
      <path fill="url(#w)" fill-opacity=".2" d="M240.976 278.06a.587.587 0 0 0-.344.032l-11.517 4.949a.588.588 0 0 0-.342.423l-2.442 12.296a.59.59 0 0 0 .04.342l12.051-5.177 2.554-12.865Z"/>
      <path stroke="url(#x)" stroke-opacity=".1" stroke-width="1.388" d="m229.442 283.656 10.621-4.564-2.251 11.339-10.621 4.564 2.251-11.339Z"/>
    </g>
    <g filter="url(#y)">
      <path fill="#1D1D1D" fill-opacity=".05" d="m238.421 290.924 10.891 8.817a.578.578 0 0 0 .119-.254l2.442-12.296a.592.592 0 0 0-.206-.567l-10.437-8.449a.574.574 0 0 0-.255-.115l-2.554 12.864Z"/>
      <path fill="url(#z)" fill-opacity=".2" d="m238.421 290.924 10.891 8.817a.578.578 0 0 0 .119-.254l2.442-12.296a.592.592 0 0 0-.206-.567l-10.437-8.449a.574.574 0 0 0-.255-.115l-2.554 12.864Z"/>
      <path stroke="url(#A)" stroke-opacity=".1" stroke-width="1.388" d="m239.183 290.649 2.264-11.405 9.732 7.877-2.264 11.405-9.732-7.877Z"/>
    </g>
    <g filter="url(#B)">
      <path fill="#1D1D1D" fill-opacity=".05" d="M226.37 296.102a.593.593 0 0 0 .167.226l10.437 8.448a.587.587 0 0 0 .598.083l11.518-4.949a.571.571 0 0 0 .223-.169l-10.892-8.816-12.051 5.177Z"/>
      <path fill="url(#C)" fill-opacity=".2" d="M226.37 296.102a.593.593 0 0 0 .167.226l10.437 8.448a.587.587 0 0 0 .598.083l11.518-4.949a.571.571 0 0 0 .223-.169l-10.892-8.816-12.051 5.177Z"/>
      <path stroke="url(#D)" stroke-opacity=".1" stroke-width="1.388" d="m238.311 291.728 9.731 7.877-10.683 4.59-9.732-7.877 10.684-4.59Z"/>
    </g>
  </g>
  <g filter="url(#E)">
    <path fill="url(#F)" fill-rule="evenodd" d="M443.903 733.796c171.268 0 310.108-138.472 310.108-309.285 0-170.812-138.84-309.284-310.108-309.284S133.795 253.699 133.795 424.511c0 170.813 138.84 309.285 310.108 309.285Zm0 38.131c192.384 0 348.341-155.543 348.341-347.416 0-191.872-155.957-347.415-348.341-347.415-192.383 0-348.34 155.543-348.34 347.415 0 191.873 155.957 347.416 348.34 347.416Z" clip-rule="evenodd"/>
  </g>
  <defs>
    <filter id="b" width="124.901" height="129.677" x="614.78" y="517.749" color-interpolation-filters="sRGB" filterUnits="userSpaceOnUse">
      <feFlood flood-opacity="0" result="BackgroundImageFix"/>
      <feBlend in="SourceGraphic" in2="BackgroundImageFix" result="shape"/>
      <feColorMatrix in="SourceAlpha" result="hardAlpha" values="0 0 0 0 0 0 0 0 0 0 0 0 0 0 0 0 0 0 127 0"/>
      <feOffset dy="4.777"/>
      <feGaussianBlur stdDeviation="2.388"/>
      <feComposite in2="hardAlpha" k2="-1" k3="1" operator="arithmetic"/>
      <feColorMatrix values="0 0 0 0 1 0 0 0 0 1 0 0 0 0 1 0 0 0 0.4 0"/>
      <feBlend in2="shape" result="effect1_innerShadow_1863_2324"/>
    </filter>
    <filter id="c" width="102.775" height="121.723" x="382.977" y="274.928" color-interpolation-filters="sRGB" filterUnits="userSpaceOnUse">
      <feFlood flood-opacity="0" result="BackgroundImageFix"/>
      <feColorMatrix in="SourceAlpha" result="hardAlpha" values="0 0 0 0 0 0 0 0 0 0 0 0 0 0 0 0 0 0 127 0"/>
      <feOffset dy="4"/>
      <feGaussianBlur stdDeviation="2"/>
      <feComposite in2="hardAlpha" operator="out"/>
      <feColorMatrix values="0 0 0 0 0 0 0 0 0 0 0 0 0 0 0 0 0 0 0.25 0"/>
      <feBlend in2="BackgroundImageFix" result="effect1_dropShadow_1863_2324"/>
      <feBlend in="SourceGraphic" in2="effect1_dropShadow_1863_2324" result="shape"/>
    </filter>
    <filter id="d" width="94.046" height="112.379" x="387.334" y="280.199" color-interpolation-filters="sRGB" filterUnits="userSpaceOnUse">
      <feFlood flood-opacity="0" result="BackgroundImageFix"/>
      <feColorMatrix in="SourceAlpha" result="hardAlpha" values="0 0 0 0 0 0 0 0 0 0 0 0 0 0 0 0 0 0 127 0"/>
      <feOffset dy="4"/>
      <feGaussianBlur stdDeviation="2"/>
      <feComposite in2="hardAlpha" operator="out"/>
      <feColorMatrix values="0 0 0 0 0 0 0 0 0 0 0 0 0 0 0 0 0 0 0.25 0"/>
      <feBlend in2="BackgroundImageFix" result="effect1_dropShadow_1863_2324"/>
      <feBlend in="SourceGraphic" in2="effect1_dropShadow_1863_2324" result="shape"/>
    </filter>
    <filter id="f" width="165.238" height="37.022" x="459.478" y="421.82" color-interpolation-filters="sRGB" filterUnits="userSpaceOnUse">
      <feFlood flood-opacity="0" result="BackgroundImageFix"/>
      <feColorMatrix in="SourceAlpha" result="hardAlpha" values="0 0 0 0 0 0 0 0 0 0 0 0 0 0 0 0 0 0 127 0"/>
      <feOffset dy="4"/>
      <feGaussianBlur stdDeviation="2"/>
      <feComposite in2="hardAlpha" operator="out"/>
      <feColorMatrix values="0 0 0 0 0 0 0 0 0 0 0 0 0 0 0 0 0 0 0.25 0"/>
      <feBlend in2="BackgroundImageFix" result="effect1_dropShadow_1863_2324"/>
      <feBlend in="SourceGraphic" in2="effect1_dropShadow_1863_2324" result="shape"/>
    </filter>
    <filter id="g" width="165.238" height="37.023" x="453.478" y="459.82" color-interpolation-filters="sRGB" filterUnits="userSpaceOnUse">
      <feFlood flood-opacity="0" result="BackgroundImageFix"/>
      <feColorMatrix in="SourceAlpha" result="hardAlpha" values="0 0 0 0 0 0 0 0 0 0 0 0 0 0 0 0 0 0 127 0"/>
      <feOffset dy="4"/>
      <feGaussianBlur stdDeviation="2"/>
      <feComposite in2="hardAlpha" operator="out"/>
      <feColorMatrix values="0 0 0 0 0 0 0 0 0 0 0 0 0 0 0 0 0 0 0.25 0"/>
      <feBlend in2="BackgroundImageFix" result="effect1_dropShadow_1863_2324"/>
      <feBlend in="SourceGraphic" in2="effect1_dropShadow_1863_2324" result="shape"/>
    </filter>
    <filter id="h" width="106.576" height="29.315" x="479.762" y="507.753" color-interpolation-filters="sRGB" filterUnits="userSpaceOnUse">
      <feFlood flood-opacity="0" result="BackgroundImageFix"/>
      <feColorMatrix in="SourceAlpha" result="hardAlpha" values="0 0 0 0 0 0 0 0 0 0 0 0 0 0 0 0 0 0 127 0"/>
      <feOffset dy="4"/>
      <feGaussianBlur stdDeviation="2"/>
      <feComposite in2="hardAlpha" operator="out"/>
      <feColorMatrix values="0 0 0 0 0 0 0 0 0 0 0 0 0 0 0 0 0 0 0.25 0"/>
      <feBlend in2="BackgroundImageFix" result="effect1_dropShadow_1863_2324"/>
      <feBlend in="SourceGraphic" in2="effect1_dropShadow_1863_2324" result="shape"/>
    </filter>
    <filter id="i" width="150.419" height="155.195" x="410.767" y="606.14" color-interpolation-filters="sRGB" filterUnits="userSpaceOnUse">
      <feFlood flood-opacity="0" result="BackgroundImageFix"/>
      <feBlend in="SourceGraphic" in2="BackgroundImageFix" result="shape"/>
      <feColorMatrix in="SourceAlpha" result="hardAlpha" values="0 0 0 0 0 0 0 0 0 0 0 0 0 0 0 0 0 0 127 0"/>
      <feOffset dy="4.777"/>
      <feGaussianBlur stdDeviation="2.388"/>
      <feComposite in2="hardAlpha" k2="-1" k3="1" operator="arithmetic"/>
      <feColorMatrix values="0 0 0 0 1 0 0 0 0 1 0 0 0 0 1 0 0 0 0.4 0"/>
      <feBlend in2="shape" result="effect1_innerShadow_1863_2324"/>
    </filter>
    <filter id="j" width="150.419" height="155.195" x="525.767" y="136.14" color-interpolation-filters="sRGB" filterUnits="userSpaceOnUse">
      <feFlood flood-opacity="0" result="BackgroundImageFix"/>
      <feBlend in="SourceGraphic" in2="BackgroundImageFix" result="shape"/>
      <feColorMatrix in="SourceAlpha" result="hardAlpha" values="0 0 0 0 0 0 0 0 0 0 0 0 0 0 0 0 0 0 127 0"/>
      <feOffset dy="4.777"/>
      <feGaussianBlur stdDeviation="2.388"/>
      <feComposite in2="hardAlpha" k2="-1" k3="1" operator="arithmetic"/>
      <feColorMatrix values="0 0 0 0 1 0 0 0 0 1 0 0 0 0 1 0 0 0 0.4 0"/>
      <feBlend in2="shape" result="effect1_innerShadow_1863_2324"/>
    </filter>
    <filter id="l" width="48.873" height="28.384" x="390.013" y="186.354" color-interpolation-filters="sRGB" filterUnits="userSpaceOnUse">
      <feFlood flood-opacity="0" result="BackgroundImageFix"/>
      <feBlend in="SourceGraphic" in2="BackgroundImageFix" result="shape"/>
      <feColorMatrix in="SourceAlpha" result="hardAlpha" values="0 0 0 0 0 0 0 0 0 0 0 0 0 0 0 0 0 0 127 0"/>
      <feOffset dy="2.775"/>
      <feGaussianBlur stdDeviation="5.551"/>
      <feComposite in2="hardAlpha" k2="-1" k3="1" operator="arithmetic"/>
      <feColorMatrix values="0 0 0 0 1 0 0 0 0 1 0 0 0 0 1 0 0 0 0.15 0"/>
      <feBlend in2="shape" result="effect1_innerShadow_1863_2324"/>
    </filter>
    <filter id="o" width="28.667" height="51.542" x="417.922" y="192.57" color-interpolation-filters="sRGB" filterUnits="userSpaceOnUse">
      <feFlood flood-opacity="0" result="BackgroundImageFix"/>
      <feBlend in="SourceGraphic" in2="BackgroundImageFix" result="shape"/>
      <feColorMatrix in="SourceAlpha" result="hardAlpha" values="0 0 0 0 0 0 0 0 0 0 0 0 0 0 0 0 0 0 127 0"/>
      <feOffset dy="2.775"/>
      <feGaussianBlur stdDeviation="5.551"/>
      <feComposite in2="hardAlpha" k2="-1" k3="1" operator="arithmetic"/>
      <feColorMatrix values="0 0 0 0 1 0 0 0 0 1 0 0 0 0 1 0 0 0 0.15 0"/>
      <feBlend in2="shape" result="effect1_innerShadow_1863_2324"/>
    </filter>
    <filter id="r" width="35.744" height="38.391" x="390.113" y="205.723" color-interpolation-filters="sRGB" filterUnits="userSpaceOnUse">
      <feFlood flood-opacity="0" result="BackgroundImageFix"/>
      <feBlend in="SourceGraphic" in2="BackgroundImageFix" result="shape"/>
      <feColorMatrix in="SourceAlpha" result="hardAlpha" values="0 0 0 0 0 0 0 0 0 0 0 0 0 0 0 0 0 0 127 0"/>
      <feOffset dy="2.775"/>
      <feGaussianBlur stdDeviation="5.551"/>
      <feComposite in2="hardAlpha" k2="-1" k3="1" operator="arithmetic"/>
      <feColorMatrix values="0 0 0 0 1 0 0 0 0 1 0 0 0 0 1 0 0 0 0.15 0"/>
      <feBlend in2="shape" result="effect1_innerShadow_1863_2324"/>
    </filter>
    <filter id="v" width="14.747" height="20.994" x="226.254" y="277.934" color-interpolation-filters="sRGB" filterUnits="userSpaceOnUse">
      <feFlood flood-opacity="0" result="BackgroundImageFix"/>
      <feBlend in="SourceGraphic" in2="BackgroundImageFix" result="shape"/>
      <feColorMatrix in="SourceAlpha" result="hardAlpha" values="0 0 0 0 0 0 0 0 0 0 0 0 0 0 0 0 0 0 127 0"/>
      <feOffset dy="2.775"/>
      <feGaussianBlur stdDeviation="5.551"/>
      <feComposite in2="hardAlpha" k2="-1" k3="1" operator="arithmetic"/>
      <feColorMatrix values="0 0 0 0 1 0 0 0 0 1 0 0 0 0 1 0 0 0 0.15 0"/>
      <feBlend in2="shape" result="effect1_innerShadow_1863_2324"/>
    </filter>
    <filter id="y" width="13.521" height="24.582" x="238.421" y="277.981" color-interpolation-filters="sRGB" filterUnits="userSpaceOnUse">
      <feFlood flood-opacity="0" result="BackgroundImageFix"/>
      <feBlend in="SourceGraphic" in2="BackgroundImageFix" result="shape"/>
      <feColorMatrix in="SourceAlpha" result="hardAlpha" values="0 0 0 0 0 0 0 0 0 0 0 0 0 0 0 0 0 0 127 0"/>
      <feOffset dy="2.775"/>
      <feGaussianBlur stdDeviation="5.551"/>
      <feComposite in2="hardAlpha" k2="-1" k3="1" operator="arithmetic"/>
      <feColorMatrix values="0 0 0 0 1 0 0 0 0 1 0 0 0 0 1 0 0 0 0.15 0"/>
      <feBlend in2="shape" result="effect1_innerShadow_1863_2324"/>
    </filter>
    <filter id="B" width="23.075" height="16.848" x="226.297" y="290.925" color-interpolation-filters="sRGB" filterUnits="userSpaceOnUse">
      <feFlood flood-opacity="0" result="BackgroundImageFix"/>
      <feBlend in="SourceGraphic" in2="BackgroundImageFix" result="shape"/>
      <feColorMatrix in="SourceAlpha" result="hardAlpha" values="0 0 0 0 0 0 0 0 0 0 0 0 0 0 0 0 0 0 127 0"/>
      <feOffset dy="2.775"/>
      <feGaussianBlur stdDeviation="5.551"/>
      <feComposite in2="hardAlpha" k2="-1" k3="1" operator="arithmetic"/>
      <feColorMatrix values="0 0 0 0 1 0 0 0 0 1 0 0 0 0 1 0 0 0 0.15 0"/>
      <feBlend in2="shape" result="effect1_innerShadow_1863_2324"/>
    </filter>
    <filter id="E" width="766.681" height="764.831" x="48.563" y="30.096" color-interpolation-filters="sRGB" filterUnits="userSpaceOnUse">
      <feFlood flood-opacity="0" result="BackgroundImageFix"/>
      <feColorMatrix in="SourceAlpha" result="hardAlpha" values="0 0 0 0 0 0 0 0 0 0 0 0 0 0 0 0 0 0 127 0"/>
      <feOffset dx="-12" dy="-12"/>
      <feGaussianBlur stdDeviation="17.5"/>
      <feComposite in2="hardAlpha" operator="out"/>
      <feColorMatrix values="0 0 0 0 0 0 0 0 0 0 0 0 0 0 0 0 0 0 0.25 0"/>
      <feBlend in2="BackgroundImageFix" result="effect1_dropShadow_1863_2324"/>
      <feBlend in="SourceGraphic" in2="effect1_dropShadow_1863_2324" result="shape"/>
      <feColorMatrix in="SourceAlpha" result="hardAlpha" values="0 0 0 0 0 0 0 0 0 0 0 0 0 0 0 0 0 0 127 0"/>
      <feOffset dy="4"/>
      <feGaussianBlur stdDeviation="2"/>
      <feComposite in2="hardAlpha" k2="-1" k3="1" operator="arithmetic"/>
      <feColorMatrix values="0 0 0 0 0 0 0 0 0 0 0 0 0 0 0 0 0 0 0.25 0"/>
      <feBlend in2="shape" result="effect2_innerShadow_1863_2324"/>
      <feColorMatrix in="SourceAlpha" result="hardAlpha" values="0 0 0 0 0 0 0 0 0 0 0 0 0 0 0 0 0 0 127 0"/>
      <feOffset dx="-10" dy="-12"/>
      <feGaussianBlur stdDeviation="30"/>
      <feComposite in2="hardAlpha" k2="-1" k3="1" operator="arithmetic"/>
      <feColorMatrix values="0 0 0 0 0 0 0 0 0 0 0 0 0 0 0 0 0 0 0.25 0"/>
      <feBlend in2="effect2_innerShadow_1863_2324" result="effect3_innerShadow_1863_2324"/>
      <feColorMatrix in="SourceAlpha" result="hardAlpha" values="0 0 0 0 0 0 0 0 0 0 0 0 0 0 0 0 0 0 127 0"/>
      <feOffset dx="-10" dy="12"/>
      <feGaussianBlur stdDeviation="12.5"/>
      <feComposite in2="hardAlpha" k2="-1" k3="1" operator="arithmetic"/>
      <feColorMatrix values="0 0 0 0 0 0 0 0 0 0 0 0 0 0 0 0 0 0 0.25 0"/>
      <feBlend in2="effect3_innerShadow_1863_2324" result="effect4_innerShadow_1863_2324"/>
    </filter>
    <linearGradient id="a" x1="0" x2="792.45" y1="441.851" y2="132.692" gradientUnits="userSpaceOnUse">
      <stop stop-color="#fff" stop-opacity=".64"/>
      <stop offset="1" stop-color="#EDEDED" stop-opacity="0"/>
    </linearGradient>
    <linearGradient id="m" x1="386.817" x2="442.516" y1="192.935" y2="203.318" gradientUnits="userSpaceOnUse">
      <stop stop-color="#87FFE1"/>
      <stop offset=".776" stop-color="#5C6DFF"/>
    </linearGradient>
    <linearGradient id="n" x1="388.644" x2="435.531" y1="193.689" y2="181.024" gradientUnits="userSpaceOnUse">
      <stop stop-color="#3CDEB6"/>
      <stop offset=".656" stop-color="#364AFF"/>
    </linearGradient>
    <linearGradient id="p" x1="414.482" x2="445.552" y1="199.225" y2="195.556" gradientUnits="userSpaceOnUse">
      <stop stop-color="#87FFE1"/>
      <stop offset=".776" stop-color="#5C6DFF"/>
    </linearGradient>
    <linearGradient id="q" x1="415.758" x2="439.344" y1="200.926" y2="194.555" gradientUnits="userSpaceOnUse">
      <stop stop-color="#3CDEB6"/>
      <stop offset=".656" stop-color="#364AFF"/>
    </linearGradient>
    <linearGradient id="s" x1="390.135" x2="421.204" y1="205.801" y2="202.133" gradientUnits="userSpaceOnUse">
      <stop stop-color="#87FFE1"/>
      <stop offset=".776" stop-color="#5C6DFF"/>
    </linearGradient>
    <linearGradient id="t" x1="391.41" x2="414.997" y1="207.503" y2="201.132" gradientUnits="userSpaceOnUse">
      <stop stop-color="#3CDEB6"/>
      <stop offset=".656" stop-color="#364AFF"/>
    </linearGradient>
    <linearGradient id="w" x1="221.589" x2="245.299" y1="292.232" y2="281.006" gradientUnits="userSpaceOnUse">
      <stop stop-color="#87FFE1"/>
      <stop offset=".776" stop-color="#5C6DFF"/>
    </linearGradient>
    <linearGradient id="x" x1="222.479" x2="236.627" y1="292.019" y2="274.54" gradientUnits="userSpaceOnUse">
      <stop stop-color="#3CDEB6"/>
      <stop offset=".656" stop-color="#364AFF"/>
    </linearGradient>
    <linearGradient id="z" x1="233.673" x2="244.331" y1="287.081" y2="277.271" gradientUnits="userSpaceOnUse">
      <stop stop-color="#87FFE1"/>
      <stop offset=".776" stop-color="#5C6DFF"/>
    </linearGradient>
    <linearGradient id="A" x1="234.613" x2="241.73" y1="287.373" y2="278.58" gradientUnits="userSpaceOnUse">
      <stop stop-color="#3CDEB6"/>
      <stop offset=".656" stop-color="#364AFF"/>
    </linearGradient>
    <linearGradient id="C" x1="226.326" x2="236.984" y1="296.157" y2="286.347" gradientUnits="userSpaceOnUse">
      <stop stop-color="#87FFE1"/>
      <stop offset=".776" stop-color="#5C6DFF"/>
    </linearGradient>
    <linearGradient id="D" x1="227.267" x2="234.384" y1="296.449" y2="287.656" gradientUnits="userSpaceOnUse">
      <stop stop-color="#3CDEB6"/>
      <stop offset=".656" stop-color="#364AFF"/>
    </linearGradient>
    <linearGradient id="F" x1="-34.88" x2="913.793" y1="417.845" y2="425.251" gradientUnits="userSpaceOnUse">
      <stop stop-color="#4746B8"/>
      <stop offset=".435" stop-color="#705884"/>
      <stop offset="1" stop-color="#936859"/>
    </linearGradient>
  </defs>
</svg>
