<svg width="13" height="13" viewBox="0 0 13 13" fill="none" xmlns="http://www.w3.org/2000/svg">
<g id="Sun">
<path id="Squircle" d="M4.65057 6.72388C4.63837 7.85676 4.83676 8.28804 5.02929 8.48165C5.22332 8.67678 5.65835 8.87939 6.79916 8.87939C7.93958 8.87939 8.36657 8.67688 8.55715 8.48397C8.7509 8.28785 8.94769 7.85269 8.94769 6.71312C8.94769 5.57354 8.7509 5.13839 8.55715 4.94227C8.36657 4.74936 7.93958 4.54684 6.79916 4.54684C5.65914 4.54684 5.2402 4.74925 5.05305 4.93993C4.85806 5.13861 4.6629 5.57757 4.65057 6.72388Z" stroke="#4746B8" stroke-width="2" stroke-linecap="round" stroke-linejoin="round"/>
<path id="Vector 65" d="M6.79907 1.56787V2.35944" stroke="#4746B8" stroke-width="2" stroke-linecap="round"/>
<path id="Vector 66" d="M6.79907 11.0668V11.8583" stroke="#4746B8" stroke-width="2" stroke-linecap="round"/>
<path id="Vector 67" d="M11.9155 6.71313L11.1284 6.71313" stroke="#4746B8" stroke-width="2" stroke-linecap="round"/>
<path id="Vector 68" d="M2.46985 6.71313L1.68272 6.71313" stroke="#4746B8" stroke-width="2" stroke-linecap="round"/>
<path id="Vector 69" d="M2.8634 2.75525L3.41999 3.31497" stroke="#4746B8" stroke-width="2" stroke-linecap="round"/>
<path id="Vector 71" d="M2.8634 10.8348L3.41999 10.2751" stroke="#4746B8" stroke-width="2" stroke-linecap="round"/>
<path id="Vector 70" d="M10.8977 2.75525L10.3411 3.31497" stroke="#4746B8" stroke-width="2" stroke-linecap="round"/>
<path id="Vector 72" d="M10.8977 10.8348L10.3411 10.2751" stroke="#4746B8" stroke-width="2" stroke-linecap="round"/>
</g>
</svg>
