<svg xmlns="http://www.w3.org/2000/svg" width="15" height="17" fill="none" viewBox="0 0 15 17">
  <path stroke="#40404000" stroke-linecap="round" stroke-linejoin="round" d="M11 4.5a3.5 3.5 0 1 1-7 0 3.5 3.5 0 0 1 7 0Zm-.594 6.5H4.594c-.523 0-.784 0-1.018.038-.809.133-1.509.6-1.9 1.27-.114.193-.196.422-.362.882-.198.552-.298.828-.311 1.05-.048.786.504 1.495 1.323 1.701.233.059.547.059 1.175.059h7.998c.628 0 .942 0 1.175-.059.819-.206 1.37-.915 1.323-1.7-.013-.223-.113-.5-.311-1.051-.165-.46-.248-.69-.361-.883-.392-.669-1.092-1.136-1.901-1.269C11.19 11 10.929 11 10.406 11Z"/>
</svg>
